<svg width="930" height="310" viewBox="0 0 930 310" fill="none" xmlns="http://www.w3.org/2000/svg">
<path d="M368.813 10.459C373.454 10.2871 377.221 11.6406 380.114 14.5195C383.022 17.3984 384.475 21.0007 384.475 25.3262C384.475 29.0215 383.394 32.2728 381.231 35.0801C378.367 38.804 374.32 40.666 369.092 40.666C363.85 40.666 359.797 38.89 356.932 35.3379C354.669 32.5306 353.538 29.2005 353.538 25.3477C353.538 21.0221 355.006 17.4199 357.942 14.541C360.893 11.6478 364.516 10.2871 368.813 10.459ZM369.071 11.834C366.407 11.834 364.38 13.1947 362.991 15.916C361.859 18.1504 361.294 21.3587 361.294 25.541C361.294 30.5111 362.167 34.1849 363.915 36.5625C365.132 38.224 366.837 39.0547 369.028 39.0547C370.503 39.0547 371.735 38.6966 372.723 37.9805C373.984 37.0638 374.965 35.6029 375.667 33.5977C376.369 31.5781 376.719 28.9499 376.719 25.7129C376.719 21.86 376.361 18.9811 375.645 17.0762C374.929 15.1569 374.012 13.8034 372.895 13.0156C371.792 12.2279 370.518 11.834 369.071 11.834ZM400.165 10.8672V21.9316C401.855 20.1842 403.703 19.3105 405.708 19.3105C407.083 19.3105 408.379 19.7188 409.597 20.5352C410.814 21.3372 411.766 22.4831 412.454 23.9727C413.141 25.4622 413.485 27.181 413.485 29.1289C413.485 31.3203 413.048 33.3112 412.175 35.1016C411.301 36.8919 410.134 38.2598 408.673 39.2051C407.212 40.1361 405.543 40.6016 403.667 40.6016C402.578 40.6016 401.612 40.4297 400.766 40.0859C399.921 39.7422 399.091 39.1836 398.274 38.4102L394.944 40.5801H394.214V15.0352C394.214 13.875 394.164 13.1589 394.063 12.8867C393.92 12.4857 393.691 12.1921 393.376 12.0059C393.075 11.8053 392.559 11.6908 391.829 11.6621V10.8672H400.165ZM400.165 23.8438V32.7812C400.165 34.6003 400.208 35.7604 400.294 36.2617C400.437 37.1068 400.781 37.7943 401.325 38.3242C401.869 38.8398 402.564 39.0977 403.409 39.0977C404.14 39.0977 404.763 38.89 405.278 38.4746C405.808 38.0592 406.245 37.2357 406.589 36.0039C406.947 34.7721 407.126 32.5521 407.126 29.3438C407.126 26.2643 406.739 24.1517 405.966 23.0059C405.407 22.1751 404.655 21.7598 403.71 21.7598C402.478 21.7598 401.296 22.4544 400.165 23.8438ZM434.417 19.3535L434.739 26.207H434.009C433.135 24.1732 432.226 22.7839 431.28 22.0391C430.349 21.2943 429.418 20.9219 428.487 20.9219C427.9 20.9219 427.399 21.1224 426.983 21.5234C426.568 21.9102 426.36 22.3613 426.36 22.877C426.36 23.2637 426.504 23.6361 426.79 23.9941C427.248 24.5814 428.53 25.5911 430.636 27.0234C432.741 28.4414 434.123 29.6517 434.782 30.6543C435.455 31.6426 435.792 32.7526 435.792 33.9844C435.792 35.1016 435.513 36.1973 434.954 37.2715C434.396 38.3457 433.608 39.1693 432.591 39.7422C431.574 40.3151 430.45 40.6016 429.218 40.6016C428.258 40.6016 426.976 40.3008 425.372 39.6992C424.942 39.5417 424.649 39.4629 424.491 39.4629C424.019 39.4629 423.625 39.821 423.31 40.5371H422.601L422.257 33.3184H422.987C423.632 35.209 424.513 36.627 425.63 37.5723C426.761 38.5176 427.828 38.9902 428.831 38.9902C429.519 38.9902 430.077 38.7826 430.507 38.3672C430.951 37.9375 431.173 37.4219 431.173 36.8203C431.173 36.1328 430.958 35.5384 430.528 35.0371C430.099 34.5358 429.139 33.7767 427.649 32.7598C425.458 31.2415 424.04 30.0814 423.396 29.2793C422.45 28.1048 421.978 26.8086 421.978 25.3906C421.978 23.8438 422.508 22.4473 423.567 21.2012C424.642 19.9408 426.189 19.3105 428.208 19.3105C429.297 19.3105 430.349 19.5755 431.366 20.1055C431.753 20.3203 432.068 20.4277 432.312 20.4277C432.569 20.4277 432.777 20.3776 432.935 20.2773C433.092 20.1628 433.343 19.8548 433.687 19.3535H434.417ZM460.72 29.2363H449.698C449.827 31.9004 450.536 34.0059 451.825 35.5527C452.814 36.7415 454.002 37.3359 455.392 37.3359C456.251 37.3359 457.032 37.0996 457.734 36.627C458.435 36.14 459.187 35.2734 459.989 34.0273L460.72 34.5C459.631 36.7201 458.428 38.2956 457.111 39.2266C455.793 40.1432 454.267 40.6016 452.534 40.6016C449.555 40.6016 447.299 39.4557 445.767 37.1641C444.535 35.3164 443.919 33.0247 443.919 30.2891C443.919 26.9375 444.821 24.2734 446.626 22.2969C448.445 20.306 450.572 19.3105 453.007 19.3105C455.041 19.3105 456.803 20.1484 458.292 21.8242C459.796 23.4857 460.605 25.9564 460.72 29.2363ZM455.435 27.7969C455.435 25.4909 455.306 23.9082 455.048 23.0488C454.805 22.1895 454.418 21.5378 453.888 21.0938C453.587 20.8359 453.186 20.707 452.685 20.707C451.94 20.707 451.331 21.0723 450.859 21.8027C450.014 23.0775 449.591 24.8249 449.591 27.0449V27.7969H455.435ZM480.792 19.3535L481.115 26.207H480.384C479.51 24.1732 478.601 22.7839 477.656 22.0391C476.725 21.2943 475.794 20.9219 474.863 20.9219C474.275 20.9219 473.774 21.1224 473.359 21.5234C472.943 21.9102 472.736 22.3613 472.736 22.877C472.736 23.2637 472.879 23.6361 473.165 23.9941C473.624 24.5814 474.906 25.5911 477.011 27.0234C479.117 28.4414 480.499 29.6517 481.158 30.6543C481.831 31.6426 482.167 32.7526 482.167 33.9844C482.167 35.1016 481.888 36.1973 481.329 37.2715C480.771 38.3457 479.983 39.1693 478.966 39.7422C477.949 40.3151 476.825 40.6016 475.593 40.6016C474.633 40.6016 473.352 40.3008 471.747 39.6992C471.318 39.5417 471.024 39.4629 470.867 39.4629C470.394 39.4629 470 39.821 469.685 40.5371H468.976L468.632 33.3184H469.363C470.007 35.209 470.888 36.627 472.005 37.5723C473.137 38.5176 474.204 38.9902 475.206 38.9902C475.894 38.9902 476.452 38.7826 476.882 38.3672C477.326 37.9375 477.548 37.4219 477.548 36.8203C477.548 36.1328 477.333 35.5384 476.904 35.0371C476.474 34.5358 475.514 33.7767 474.025 32.7598C471.833 31.2415 470.415 30.0814 469.771 29.2793C468.826 28.1048 468.353 26.8086 468.353 25.3906C468.353 23.8438 468.883 22.4473 469.943 21.2012C471.017 19.9408 472.564 19.3105 474.583 19.3105C475.672 19.3105 476.725 19.5755 477.742 20.1055C478.128 20.3203 478.443 20.4277 478.687 20.4277C478.945 20.4277 479.152 20.3776 479.31 20.2773C479.467 20.1628 479.718 19.8548 480.062 19.3535H480.792ZM502.777 19.3535L503.099 26.207H502.369C501.495 24.1732 500.585 22.7839 499.64 22.0391C498.709 21.2943 497.778 20.9219 496.847 20.9219C496.26 20.9219 495.759 21.1224 495.343 21.5234C494.928 21.9102 494.72 22.3613 494.72 22.877C494.72 23.2637 494.863 23.6361 495.15 23.9941C495.608 24.5814 496.89 25.5911 498.996 27.0234C501.101 28.4414 502.483 29.6517 503.142 30.6543C503.815 31.6426 504.152 32.7526 504.152 33.9844C504.152 35.1016 503.873 36.1973 503.314 37.2715C502.755 38.3457 501.968 39.1693 500.951 39.7422C499.934 40.3151 498.809 40.6016 497.578 40.6016C496.618 40.6016 495.336 40.3008 493.732 39.6992C493.302 39.5417 493.009 39.4629 492.851 39.4629C492.378 39.4629 491.985 39.821 491.669 40.5371H490.96L490.617 33.3184H491.347C491.992 35.209 492.873 36.627 493.99 37.5723C495.121 38.5176 496.188 38.9902 497.191 38.9902C497.878 38.9902 498.437 38.7826 498.867 38.3672C499.311 37.9375 499.533 37.4219 499.533 36.8203C499.533 36.1328 499.318 35.5384 498.888 35.0371C498.459 34.5358 497.499 33.7767 496.009 32.7598C493.818 31.2415 492.4 30.0814 491.755 29.2793C490.81 28.1048 490.337 26.8086 490.337 25.3906C490.337 23.8438 490.867 22.4473 491.927 21.2012C493.001 19.9408 494.548 19.3105 496.568 19.3105C497.656 19.3105 498.709 19.5755 499.726 20.1055C500.113 20.3203 500.428 20.4277 500.671 20.4277C500.929 20.4277 501.137 20.3776 501.294 20.2773C501.452 20.1628 501.703 19.8548 502.046 19.3535H502.777ZM516.898 10.1797C517.829 10.1797 518.617 10.5091 519.261 11.168C519.906 11.8125 520.228 12.5931 520.228 13.5098C520.228 14.4264 519.899 15.207 519.24 15.8516C518.595 16.4961 517.815 16.8184 516.898 16.8184C515.981 16.8184 515.201 16.4961 514.556 15.8516C513.912 15.207 513.59 14.4264 513.59 13.5098C513.59 12.5931 513.912 11.8125 514.556 11.168C515.201 10.5091 515.981 10.1797 516.898 10.1797ZM519.906 19.9121V35.832C519.906 37.25 520.071 38.1595 520.4 38.5605C520.73 38.9473 521.374 39.1693 522.334 39.2266V40H511.484V39.2266C512.372 39.1979 513.031 38.9401 513.461 38.4531C513.747 38.1237 513.89 37.25 513.89 35.832V24.1016C513.89 22.6836 513.726 21.7812 513.396 21.3945C513.067 20.9935 512.429 20.7643 511.484 20.707V19.9121H519.906ZM538.625 19.3105C540.372 19.3105 541.998 19.7617 543.502 20.6641C545.006 21.5664 546.144 22.8483 546.918 24.5098C547.706 26.1712 548.099 27.9902 548.099 29.9668C548.099 32.8171 547.376 35.2018 545.93 37.1211C544.182 39.4414 541.769 40.6016 538.689 40.6016C535.667 40.6016 533.34 39.5417 531.707 37.4219C530.074 35.3021 529.258 32.8457 529.258 30.0527C529.258 27.1738 530.088 24.6673 531.75 22.5332C533.426 20.3848 535.717 19.3105 538.625 19.3105ZM538.711 20.8359C537.98 20.8359 537.35 21.1152 536.82 21.6738C536.305 22.2181 535.961 23.3066 535.789 24.9395C535.631 26.5579 535.553 28.8138 535.553 31.707C535.553 33.2396 535.653 34.6719 535.853 36.0039C536.011 37.0208 536.348 37.7943 536.863 38.3242C537.379 38.8542 537.966 39.1191 538.625 39.1191C539.269 39.1191 539.806 38.9401 540.236 38.582C540.795 38.0951 541.167 37.4147 541.353 36.541C541.64 35.1803 541.783 32.4303 541.783 28.291C541.783 25.8561 541.647 24.1875 541.375 23.2852C541.103 22.3685 540.702 21.7025 540.172 21.2871C539.799 20.9863 539.312 20.8359 538.711 20.8359ZM564.197 19.9121V22.5117C565.229 21.3945 566.217 20.5853 567.162 20.084C568.107 19.5684 569.124 19.3105 570.213 19.3105C571.516 19.3105 572.598 19.6758 573.457 20.4062C574.316 21.1224 574.889 22.0176 575.176 23.0918C575.405 23.9082 575.52 25.4766 575.52 27.7969V35.6172C575.52 37.1641 575.656 38.1309 575.928 38.5176C576.214 38.89 576.801 39.1263 577.689 39.2266V40H567.527V39.2266C568.286 39.1263 568.831 38.8112 569.16 38.2812C569.389 37.9232 569.504 37.0352 569.504 35.6172V26.6797C569.504 25.0326 569.439 23.9941 569.311 23.5645C569.182 23.1348 568.96 22.8053 568.645 22.5762C568.344 22.3327 568.007 22.2109 567.635 22.2109C566.403 22.2109 565.257 23.0918 564.197 24.8535V35.6172C564.197 37.1211 564.333 38.0736 564.605 38.4746C564.892 38.8757 565.415 39.1263 566.174 39.2266V40H556.012V39.2266C556.857 39.1406 557.458 38.8685 557.816 38.4102C558.06 38.0951 558.182 37.1641 558.182 35.6172V24.2734C558.182 22.7552 558.038 21.8099 557.752 21.4375C557.48 21.0651 556.9 20.8216 556.012 20.707V19.9121H564.197Z" fill="white"/>
<path d="M183.5 195.837C183.5 166.656 207.156 143 236.337 143C265.519 143 289.175 166.656 289.175 195.837V226.03C289.175 271.887 252.001 309.061 206.145 309.061H183.5V195.837Z" fill="#FFD54D"/>
<circle cx="259.574" cy="161.083" r="46.1433" fill="#D9D9D9"/>
<g clip-path="url(#clip0_15_5297)">
<path d="M282.529 149.275H280.463V143.078C280.463 141.938 279.54 141.012 278.398 141.012H239.153C238.012 141.012 237.087 141.938 237.087 143.078C237.087 144.218 238.012 145.144 239.153 145.144H276.332V169.93C276.332 175.625 271.699 180.258 266.005 180.258H251.546C245.851 180.258 241.218 175.625 241.218 169.93V151.34C241.218 150.2 240.293 149.275 239.153 149.275C238.012 149.275 237.087 150.2 237.087 151.34V169.93C237.087 177.901 243.573 184.389 251.546 184.389H266.005C273.975 184.389 280.463 177.901 280.463 169.93V167.864H282.529C287.085 167.864 290.791 164.159 290.791 159.602V157.537C290.791 152.98 287.085 149.275 282.529 149.275ZM286.66 159.602C286.66 161.881 284.807 163.733 282.529 163.733H280.463V153.406H282.529C284.807 153.406 286.66 155.258 286.66 157.537V159.602Z" fill="#252C37"/>
<path d="M249.48 138.947C250.62 138.947 251.546 138.022 251.546 136.881V132.75C251.546 131.61 250.62 130.685 249.48 130.685C248.34 130.685 247.415 131.61 247.415 132.75V136.881C247.415 138.022 248.34 138.947 249.48 138.947Z" fill="#252C37"/>
<path d="M257.742 138.947C258.883 138.947 259.808 138.022 259.808 136.881V128.619C259.808 127.479 258.883 126.554 257.742 126.554C256.602 126.554 255.677 127.479 255.677 128.619V136.881C255.677 138.022 256.602 138.947 257.742 138.947Z" fill="#252C37"/>
<path d="M266.005 138.947C267.147 138.947 268.07 138.022 268.07 136.881V132.75C268.07 131.61 267.147 130.685 266.005 130.685C264.864 130.685 263.939 131.61 263.939 132.75V136.881C263.939 138.022 264.864 138.947 266.005 138.947Z" fill="#252C37"/>
</g>
<path d="M219.786 230.388L218.799 234.675H218.448L218.409 233.601C218.376 233.211 218.301 232.862 218.184 232.556C218.067 232.25 217.891 231.987 217.657 231.765C217.423 231.537 217.126 231.362 216.768 231.238C216.41 231.108 216.013 231.043 215.577 231.043C214.411 231.043 213.393 231.362 212.52 232C211.407 232.813 210.534 233.963 209.903 235.447C209.382 236.671 209.122 237.911 209.122 239.168C209.122 240.45 209.496 241.476 210.245 242.244C210.993 243.005 211.967 243.386 213.165 243.386C214.07 243.386 214.874 243.185 215.577 242.781C216.286 242.377 216.944 241.755 217.549 240.916H218.008C217.292 242.055 216.498 242.895 215.626 243.435C214.753 243.969 213.708 244.236 212.491 244.236C211.41 244.236 210.453 244.011 209.62 243.562C208.786 243.106 208.152 242.468 207.715 241.648C207.279 240.828 207.061 239.946 207.061 239.002C207.061 237.556 207.449 236.15 208.223 234.783C208.998 233.416 210.059 232.341 211.407 231.56C212.761 230.779 214.125 230.388 215.499 230.388C216.143 230.388 216.866 230.541 217.667 230.847C218.018 230.977 218.272 231.043 218.428 231.043C218.585 231.043 218.721 231.01 218.839 230.945C218.956 230.88 219.151 230.694 219.424 230.388H219.786ZM230.501 238.152C230.501 239.129 230.241 240.095 229.72 241.052C229.206 242.009 228.486 242.768 227.562 243.328C226.637 243.888 225.739 244.168 224.867 244.168C223.975 244.168 223.246 243.884 222.679 243.318C222.119 242.745 221.839 242.006 221.839 241.101C221.839 240.144 222.113 239.184 222.66 238.22C223.213 237.257 223.949 236.495 224.867 235.935C225.791 235.375 226.683 235.095 227.542 235.095C228.402 235.095 229.108 235.379 229.662 235.945C230.221 236.511 230.501 237.247 230.501 238.152ZM228.88 237.478C228.88 236.873 228.731 236.41 228.431 236.091C228.138 235.766 227.757 235.603 227.289 235.603C226.332 235.603 225.449 236.29 224.642 237.664C223.841 239.031 223.441 240.392 223.441 241.746C223.441 242.364 223.597 242.843 223.91 243.181C224.222 243.513 224.616 243.679 225.091 243.679C226.009 243.679 226.869 242.999 227.669 241.638C228.477 240.271 228.88 238.884 228.88 237.478ZM239.381 235.33L239.205 235.974H237.78L236.705 240.242C236.23 242.123 235.752 243.578 235.27 244.607C234.586 246.059 233.851 247.061 233.063 247.615C232.464 248.038 231.865 248.25 231.266 248.25C230.875 248.25 230.543 248.132 230.27 247.898C230.068 247.735 229.967 247.524 229.967 247.263C229.967 247.055 230.052 246.873 230.221 246.716C230.384 246.567 230.586 246.492 230.826 246.492C231.002 246.492 231.152 246.547 231.276 246.658C231.393 246.769 231.451 246.895 231.451 247.039C231.451 247.182 231.383 247.315 231.246 247.439C231.142 247.53 231.09 247.599 231.09 247.644C231.09 247.703 231.113 247.748 231.158 247.781C231.217 247.826 231.308 247.849 231.432 247.849C231.712 247.849 232.008 247.761 232.321 247.586C232.627 247.41 232.9 247.146 233.141 246.795C233.382 246.45 233.61 245.948 233.824 245.291C233.916 245.017 234.16 244.116 234.557 242.586L236.256 235.974H234.557L234.694 235.33C235.234 235.33 235.612 235.294 235.826 235.222C236.041 235.144 236.237 235.001 236.412 234.793C236.595 234.578 236.829 234.181 237.115 233.601C237.5 232.82 237.867 232.214 238.219 231.785C238.701 231.205 239.205 230.772 239.733 230.486C240.267 230.193 240.768 230.047 241.237 230.047C241.731 230.047 242.129 230.173 242.428 230.427C242.727 230.675 242.877 230.945 242.877 231.238C242.877 231.466 242.802 231.658 242.653 231.814C242.503 231.97 242.311 232.048 242.076 232.048C241.875 232.048 241.709 231.99 241.578 231.873C241.455 231.755 241.393 231.616 241.393 231.453C241.393 231.349 241.435 231.222 241.52 231.072C241.604 230.916 241.647 230.811 241.647 230.759C241.647 230.668 241.617 230.6 241.559 230.554C241.474 230.489 241.351 230.457 241.188 230.457C240.778 230.457 240.41 230.587 240.084 230.847C239.648 231.192 239.257 231.733 238.912 232.468C238.737 232.852 238.414 233.806 237.946 235.33H239.381ZM247.148 235.33L246.972 235.974H245.546L244.472 240.242C243.996 242.123 243.518 243.578 243.036 244.607C242.353 246.059 241.617 247.061 240.829 247.615C240.23 248.038 239.631 248.25 239.032 248.25C238.642 248.25 238.31 248.132 238.036 247.898C237.834 247.735 237.733 247.524 237.733 247.263C237.733 247.055 237.818 246.873 237.987 246.716C238.15 246.567 238.352 246.492 238.593 246.492C238.769 246.492 238.918 246.547 239.042 246.658C239.159 246.769 239.218 246.895 239.218 247.039C239.218 247.182 239.149 247.315 239.013 247.439C238.909 247.53 238.856 247.599 238.856 247.644C238.856 247.703 238.879 247.748 238.925 247.781C238.983 247.826 239.075 247.849 239.198 247.849C239.478 247.849 239.774 247.761 240.087 247.586C240.393 247.41 240.666 247.146 240.907 246.795C241.148 246.45 241.376 245.948 241.591 245.291C241.682 245.017 241.926 244.116 242.323 242.586L244.023 235.974H242.323L242.46 235.33C243 235.33 243.378 235.294 243.593 235.222C243.808 235.144 244.003 235.001 244.179 234.793C244.361 234.578 244.595 234.181 244.882 233.601C245.266 232.82 245.634 232.214 245.985 231.785C246.467 231.205 246.972 230.772 247.499 230.486C248.033 230.193 248.534 230.047 249.003 230.047C249.498 230.047 249.895 230.173 250.194 230.427C250.494 230.675 250.644 230.945 250.644 231.238C250.644 231.466 250.569 231.658 250.419 231.814C250.269 231.97 250.077 232.048 249.843 232.048C249.641 232.048 249.475 231.99 249.345 231.873C249.221 231.755 249.159 231.616 249.159 231.453C249.159 231.349 249.202 231.222 249.286 231.072C249.371 230.916 249.413 230.811 249.413 230.759C249.413 230.668 249.384 230.6 249.325 230.554C249.241 230.489 249.117 230.457 248.954 230.457C248.544 230.457 248.176 230.587 247.851 230.847C247.414 231.192 247.024 231.733 246.679 232.468C246.503 232.852 246.181 233.806 245.712 235.33H247.148ZM251.369 240.252C251.323 240.577 251.301 240.847 251.301 241.062C251.301 241.642 251.506 242.136 251.916 242.547C252.326 242.95 252.824 243.152 253.41 243.152C253.879 243.152 254.328 243.058 254.758 242.869C255.194 242.673 255.838 242.247 256.691 241.589L256.896 241.873C255.353 243.403 253.882 244.168 252.482 244.168C251.532 244.168 250.816 243.868 250.334 243.269C249.852 242.67 249.611 242.009 249.611 241.287C249.611 240.317 249.911 239.324 250.51 238.308C251.109 237.293 251.861 236.505 252.765 235.945C253.67 235.379 254.601 235.095 255.558 235.095C256.249 235.095 256.76 235.235 257.092 235.515C257.424 235.795 257.59 236.127 257.59 236.511C257.59 237.052 257.375 237.569 256.945 238.064C256.379 238.709 255.545 239.229 254.445 239.627C253.716 239.894 252.691 240.102 251.369 240.252ZM251.437 239.773C252.401 239.662 253.185 239.474 253.791 239.207C254.592 238.849 255.191 238.422 255.588 237.927C255.991 237.426 256.193 236.951 256.193 236.502C256.193 236.228 256.105 236.007 255.93 235.838C255.76 235.668 255.516 235.584 255.197 235.584C254.533 235.584 253.827 235.938 253.078 236.648C252.336 237.351 251.789 238.393 251.437 239.773ZM262.456 240.252C262.41 240.577 262.387 240.847 262.387 241.062C262.387 241.642 262.592 242.136 263.003 242.547C263.413 242.95 263.911 243.152 264.497 243.152C264.965 243.152 265.415 243.058 265.844 242.869C266.281 242.673 266.925 242.247 267.778 241.589L267.983 241.873C266.44 243.403 264.969 244.168 263.569 244.168C262.618 244.168 261.902 243.868 261.421 243.269C260.939 242.67 260.698 242.009 260.698 241.287C260.698 240.317 260.997 239.324 261.596 238.308C262.195 237.293 262.947 236.505 263.852 235.945C264.757 235.379 265.688 235.095 266.645 235.095C267.335 235.095 267.846 235.235 268.178 235.515C268.51 235.795 268.676 236.127 268.676 236.511C268.676 237.052 268.462 237.569 268.032 238.064C267.465 238.709 266.632 239.229 265.532 239.627C264.803 239.894 263.777 240.102 262.456 240.252ZM262.524 239.773C263.488 239.662 264.272 239.474 264.878 239.207C265.678 238.849 266.277 238.422 266.674 237.927C267.078 237.426 267.28 236.951 267.28 236.502C267.28 236.228 267.192 236.007 267.016 235.838C266.847 235.668 266.603 235.584 266.284 235.584C265.62 235.584 264.913 235.938 264.165 236.648C263.423 237.351 262.876 238.393 262.524 239.773Z" fill="#252C37"/>
<path d="M335.942 195.837C335.942 166.656 359.598 143 388.779 143C417.96 143 441.617 166.656 441.617 195.837V226.03C441.617 271.887 404.443 309.061 358.586 309.061H335.942V195.837Z" fill="#FFD54D"/>
<circle cx="412.016" cy="161.083" r="46.1433" fill="#D9D9D9"/>
<path d="M369.645 230.691L370.866 241.355L378.551 230.691H381.784V231.052C381.081 231.098 380.667 231.144 380.543 231.189C380.329 231.274 380.13 231.443 379.948 231.697C379.772 231.951 379.58 232.439 379.372 233.162L376.92 241.56C376.777 242.048 376.706 242.433 376.706 242.713C376.706 242.966 376.793 243.158 376.969 243.289C377.217 243.477 377.607 243.572 378.141 243.572H378.375L378.288 243.933H372.711L372.809 243.572H373.073C373.568 243.572 373.945 243.5 374.206 243.357C374.407 243.253 374.586 243.058 374.743 242.771C374.905 242.478 375.13 241.834 375.416 240.838L377.604 233.162L369.879 243.933H369.489L368.249 233.162L365.885 241.355C365.683 242.052 365.583 242.52 365.583 242.761C365.583 243.002 365.67 243.188 365.846 243.318C366.022 243.442 366.448 243.526 367.125 243.572L367.018 243.933H362.653L362.76 243.572H363.024C363.668 243.572 364.134 243.409 364.42 243.084C364.629 242.849 364.847 242.341 365.075 241.56L367.956 231.687C367.741 231.466 367.536 231.316 367.34 231.238C367.145 231.16 366.784 231.098 366.256 231.052L366.354 230.691H369.645ZM391.581 235.33L389.882 241.15C389.628 242.016 389.501 242.563 389.501 242.791C389.501 242.908 389.521 242.996 389.56 243.054C389.605 243.106 389.664 243.132 389.736 243.132C389.846 243.132 389.967 243.084 390.097 242.986C390.234 242.882 390.572 242.478 391.113 241.775L391.406 242C390.891 242.813 390.364 243.412 389.824 243.797C389.465 244.044 389.12 244.168 388.788 244.168C388.534 244.168 388.336 244.096 388.193 243.953C388.049 243.81 387.978 243.624 387.978 243.396C387.978 243.175 388.02 242.882 388.105 242.517C388.209 242.035 388.505 240.987 388.993 239.373C387.887 241.189 386.959 242.442 386.21 243.132C385.468 243.823 384.778 244.168 384.14 244.168C383.84 244.168 383.587 244.063 383.378 243.855C383.17 243.647 383.066 243.383 383.066 243.064C383.066 242.576 383.209 241.827 383.495 240.818L384.345 237.8C384.553 237.078 384.658 236.629 384.658 236.453C384.658 236.375 384.628 236.31 384.57 236.257C384.518 236.199 384.459 236.17 384.394 236.17C384.257 236.17 384.12 236.218 383.984 236.316C383.847 236.414 383.538 236.775 383.056 237.4L382.753 237.185C383.241 236.43 383.759 235.873 384.306 235.515C384.723 235.235 385.107 235.095 385.458 235.095C385.699 235.095 385.894 235.173 386.044 235.33C386.2 235.479 386.279 235.675 386.279 235.916C386.279 236.267 386.148 236.895 385.888 237.8L384.97 240.955C384.716 241.814 384.589 242.358 384.589 242.586C384.589 242.709 384.628 242.81 384.706 242.888C384.791 242.96 384.902 242.996 385.038 242.996C385.253 242.996 385.533 242.888 385.878 242.673C386.223 242.459 386.682 241.983 387.255 241.248C387.835 240.505 388.31 239.812 388.681 239.168C389.059 238.517 389.459 237.485 389.882 236.072L390.097 235.33H391.581ZM401.623 235.095L401.027 238.093H400.666C400.634 237.221 400.448 236.586 400.109 236.189C399.771 235.792 399.351 235.593 398.85 235.593C398.446 235.593 398.124 235.704 397.883 235.925C397.649 236.147 397.531 236.414 397.531 236.726C397.531 236.941 397.577 237.146 397.668 237.341C397.766 237.537 397.974 237.81 398.293 238.162C399.139 239.086 399.686 239.783 399.934 240.252C400.181 240.72 400.305 241.163 400.305 241.58C400.305 242.257 400.022 242.859 399.455 243.386C398.895 243.907 398.186 244.168 397.326 244.168C396.858 244.168 396.317 244.057 395.705 243.836C395.49 243.757 395.324 243.718 395.207 243.718C394.914 243.718 394.693 243.868 394.543 244.168H394.182L394.777 241.004H395.139C395.178 241.993 395.383 242.693 395.754 243.103C396.125 243.513 396.633 243.718 397.277 243.718C397.772 243.718 398.163 243.582 398.449 243.308C398.742 243.028 398.889 242.686 398.889 242.283C398.889 242.022 398.837 241.782 398.733 241.56C398.55 241.17 398.166 240.629 397.58 239.939C397.001 239.249 396.626 238.731 396.457 238.386C396.294 238.041 396.213 237.696 396.213 237.351C396.213 236.72 396.441 236.186 396.897 235.75C397.359 235.313 397.951 235.095 398.674 235.095C398.882 235.095 399.071 235.112 399.24 235.144C399.331 235.164 399.543 235.239 399.875 235.369C400.214 235.492 400.438 235.554 400.549 235.554C400.829 235.554 401.063 235.401 401.252 235.095H401.623ZM408.833 231.218C409.106 231.218 409.337 231.313 409.526 231.502C409.715 231.69 409.809 231.922 409.809 232.195C409.809 232.462 409.712 232.693 409.516 232.888C409.328 233.077 409.1 233.172 408.833 233.172C408.566 233.172 408.335 233.077 408.14 232.888C407.951 232.693 407.856 232.462 407.856 232.195C407.856 231.922 407.951 231.69 408.14 231.502C408.328 231.313 408.559 231.218 408.833 231.218ZM408.96 235.095L407.026 241.941C406.896 242.403 406.831 242.68 406.831 242.771C406.831 242.875 406.86 242.96 406.919 243.025C406.984 243.09 407.059 243.123 407.143 243.123C407.241 243.123 407.358 243.071 407.495 242.966C407.866 242.673 408.24 242.257 408.618 241.716L408.96 241.941C408.517 242.618 407.996 243.188 407.397 243.65C406.955 243.995 406.531 244.168 406.128 244.168C405.861 244.168 405.643 244.089 405.474 243.933C405.304 243.77 405.22 243.569 405.22 243.328C405.22 243.087 405.301 242.686 405.464 242.127L406.733 237.752C406.942 237.035 407.046 236.586 407.046 236.404C407.046 236.261 406.994 236.144 406.89 236.052C406.792 235.961 406.655 235.916 406.479 235.916C406.336 235.916 406.04 235.951 405.591 236.023V235.642L408.96 235.095ZM419.851 241.804C419.174 242.618 418.491 243.217 417.8 243.601C417.11 243.979 416.381 244.168 415.613 244.168C414.688 244.168 413.966 243.907 413.445 243.386C412.931 242.866 412.674 242.166 412.674 241.287C412.674 240.291 412.95 239.311 413.504 238.347C414.063 237.384 414.812 236.602 415.75 236.004C416.694 235.398 417.618 235.095 418.523 235.095C419.233 235.095 419.763 235.245 420.115 235.545C420.466 235.838 420.642 236.199 420.642 236.629C420.642 237.032 420.519 237.377 420.271 237.664C420.089 237.885 419.864 237.996 419.597 237.996C419.396 237.996 419.226 237.931 419.09 237.8C418.959 237.67 418.894 237.507 418.894 237.312C418.894 237.188 418.917 237.075 418.963 236.97C419.015 236.866 419.116 236.742 419.265 236.599C419.422 236.45 419.516 236.342 419.549 236.277C419.581 236.212 419.597 236.144 419.597 236.072C419.597 235.935 419.536 235.821 419.412 235.73C419.223 235.6 418.956 235.535 418.611 235.535C417.973 235.535 417.341 235.759 416.716 236.209C416.091 236.658 415.558 237.296 415.115 238.123C414.581 239.125 414.314 240.128 414.314 241.13C414.314 241.795 414.503 242.322 414.881 242.713C415.258 243.097 415.772 243.289 416.424 243.289C416.925 243.289 417.42 243.165 417.908 242.918C418.403 242.664 418.956 242.208 419.568 241.55L419.851 241.804Z" fill="#252C37"/>
<path d="M413.575 133.99C401.883 133.99 392.405 143.468 392.405 155.159V158.184H396.941C397.776 158.184 398.453 158.861 398.453 159.696V177.841C398.453 178.676 397.776 179.353 396.941 179.353H395.429C392.089 179.353 389.381 176.646 389.381 173.305V155.159C389.381 141.797 400.213 130.965 413.575 130.965C426.937 130.965 437.769 141.797 437.769 155.159V173.305C437.769 176.646 435.061 179.353 431.72 179.353H430.208C429.373 179.353 428.696 178.676 428.696 177.841V159.696C428.696 158.861 429.373 158.184 430.208 158.184H434.744V155.159C434.744 143.468 425.266 133.99 413.575 133.99ZM415.087 156.672C415.087 155.837 414.41 155.159 413.575 155.159C412.74 155.159 412.063 155.837 412.063 156.672V177.841C412.063 178.676 412.74 179.353 413.575 179.353C414.41 179.353 415.087 178.676 415.087 177.841V156.672ZM406.014 161.208C406.849 161.208 407.526 161.885 407.526 162.72V174.817C407.526 175.652 406.849 176.329 406.014 176.329C405.179 176.329 404.502 175.652 404.502 174.817V162.72C404.502 161.885 405.179 161.208 406.014 161.208ZM422.647 162.72C422.647 161.885 421.97 161.208 421.135 161.208C420.3 161.208 419.623 161.885 419.623 162.72V174.817C419.623 175.652 420.3 176.329 421.135 176.329C421.97 176.329 422.647 175.652 422.647 174.817V162.72Z" fill="#252C37"/>
<path d="M488.383 195.837C488.383 166.656 512.04 143 541.221 143C570.402 143 594.058 166.656 594.058 195.837V226.03C594.058 271.887 556.884 309.061 511.028 309.061H488.383V195.837Z" fill="#FFD54D"/>
<circle cx="564.458" cy="161.083" r="46.1433" fill="#D9D9D9"/>
<path d="M513.868 230.691H523.926L522.842 234.207H522.471C522.595 233.692 522.657 233.233 522.657 232.83C522.657 232.354 522.51 231.996 522.217 231.755C521.996 231.573 521.426 231.482 520.508 231.482H519.463L516.846 240.603C516.514 241.749 516.348 242.455 516.348 242.722C516.348 242.97 516.452 243.175 516.661 243.338C516.869 243.494 517.237 243.572 517.764 243.572H518.213L518.096 243.933H512.334L512.442 243.572H512.696C513.203 243.572 513.594 243.491 513.868 243.328C514.056 243.217 514.226 243.019 514.375 242.732C514.532 242.439 514.746 241.824 515.02 240.886L517.764 231.482H516.973C516.211 231.482 515.596 231.58 515.127 231.775C514.665 231.97 514.291 232.254 514.004 232.625C513.718 232.996 513.483 233.523 513.301 234.207H512.94L513.868 230.691ZM524.202 235.642L527.571 235.095L526.165 239.841C527.305 237.895 528.34 236.534 529.271 235.759C529.798 235.317 530.228 235.095 530.56 235.095C530.775 235.095 530.944 235.16 531.068 235.291C531.191 235.414 531.253 235.597 531.253 235.838C531.253 236.267 531.142 236.677 530.921 237.068C530.765 237.361 530.54 237.507 530.247 237.507C530.098 237.507 529.967 237.459 529.857 237.361C529.752 237.263 529.687 237.114 529.661 236.912C529.648 236.788 529.619 236.707 529.573 236.668C529.521 236.616 529.459 236.589 529.388 236.589C529.277 236.589 529.173 236.616 529.075 236.668C528.906 236.759 528.649 237.013 528.304 237.429C527.764 238.067 527.178 238.894 526.546 239.91C526.273 240.339 526.038 240.825 525.843 241.365C525.57 242.107 525.413 242.553 525.374 242.703L525.062 243.933H523.568L525.374 237.869C525.583 237.166 525.687 236.664 525.687 236.365C525.687 236.248 525.638 236.15 525.54 236.072C525.41 235.968 525.237 235.916 525.023 235.916C524.886 235.916 524.635 235.945 524.271 236.004L524.202 235.642ZM542.535 235.095L540.631 241.716L540.416 242.605C540.396 242.69 540.387 242.761 540.387 242.82C540.387 242.924 540.419 243.015 540.484 243.093C540.536 243.152 540.602 243.181 540.68 243.181C540.764 243.181 540.875 243.129 541.012 243.025C541.266 242.836 541.604 242.446 542.027 241.853L542.359 242.088C541.91 242.765 541.448 243.282 540.973 243.64C540.497 243.992 540.058 244.168 539.654 244.168C539.374 244.168 539.163 244.096 539.02 243.953C538.883 243.816 538.814 243.614 538.814 243.347C538.814 243.028 538.886 242.608 539.029 242.088L539.234 241.355C538.381 242.468 537.597 243.246 536.881 243.689C536.367 244.008 535.862 244.168 535.367 244.168C534.892 244.168 534.482 243.972 534.137 243.582C533.792 243.185 533.619 242.641 533.619 241.951C533.619 240.916 533.928 239.825 534.547 238.679C535.172 237.527 535.963 236.606 536.92 235.916C537.669 235.369 538.375 235.095 539.039 235.095C539.436 235.095 539.765 235.2 540.025 235.408C540.292 235.616 540.494 235.961 540.631 236.443L540.982 235.33L542.535 235.095ZM539.059 235.603C538.642 235.603 538.199 235.798 537.73 236.189C537.066 236.742 536.474 237.563 535.953 238.65C535.439 239.737 535.182 240.72 535.182 241.599C535.182 242.042 535.292 242.394 535.514 242.654C535.735 242.908 535.989 243.035 536.275 243.035C536.985 243.035 537.756 242.511 538.59 241.463C539.703 240.069 540.26 238.64 540.26 237.175C540.26 236.622 540.152 236.222 539.937 235.974C539.723 235.727 539.43 235.603 539.059 235.603ZM545.78 235.701L548.602 235.095C548.804 235.577 548.967 236.069 549.091 236.57C549.266 237.306 549.41 238.178 549.52 239.187C549.572 239.695 549.644 240.769 549.735 242.41C550.549 241.511 551.034 240.955 551.19 240.74C552.05 239.575 552.544 238.891 552.675 238.689C552.889 238.344 553.039 238.041 553.124 237.781C553.195 237.586 553.231 237.4 553.231 237.224C553.231 237.055 553.078 236.86 552.772 236.638C552.473 236.417 552.323 236.17 552.323 235.896C552.323 235.688 552.404 235.502 552.567 235.339C552.736 235.177 552.935 235.095 553.163 235.095C553.436 235.095 553.677 235.209 553.886 235.437C554.094 235.658 554.198 235.935 554.198 236.267C554.198 236.599 554.146 236.918 554.042 237.224C553.873 237.719 553.557 238.325 553.095 239.041C552.632 239.75 551.887 240.704 550.858 241.902C550.728 242.052 550.005 242.807 548.69 244.168H548.329C548.173 240.047 547.847 237.475 547.352 236.453C547.19 236.121 546.919 235.955 546.542 235.955C546.379 235.955 546.148 235.984 545.848 236.043L545.78 235.701ZM558.82 240.252C558.774 240.577 558.752 240.847 558.752 241.062C558.752 241.642 558.957 242.136 559.367 242.547C559.777 242.95 560.275 243.152 560.861 243.152C561.33 243.152 561.779 243.058 562.209 242.869C562.645 242.673 563.289 242.247 564.142 241.589L564.347 241.873C562.804 243.403 561.333 244.168 559.933 244.168C558.983 244.168 558.267 243.868 557.785 243.269C557.303 242.67 557.062 242.009 557.062 241.287C557.062 240.317 557.362 239.324 557.961 238.308C558.559 237.293 559.311 236.505 560.216 235.945C561.121 235.379 562.052 235.095 563.009 235.095C563.699 235.095 564.211 235.235 564.543 235.515C564.875 235.795 565.041 236.127 565.041 236.511C565.041 237.052 564.826 237.569 564.396 238.064C563.83 238.709 562.996 239.229 561.896 239.627C561.167 239.894 560.142 240.102 558.82 240.252ZM558.888 239.773C559.852 239.662 560.636 239.474 561.242 239.207C562.043 238.849 562.642 238.422 563.039 237.927C563.442 237.426 563.644 236.951 563.644 236.502C563.644 236.228 563.556 236.007 563.38 235.838C563.211 235.668 562.967 235.584 562.648 235.584C561.984 235.584 561.278 235.938 560.529 236.648C559.787 237.351 559.24 238.393 558.888 239.773ZM573.471 230.047L570.131 241.668C569.968 242.247 569.887 242.602 569.887 242.732C569.887 242.83 569.916 242.911 569.975 242.976C570.04 243.041 570.118 243.074 570.209 243.074C570.333 243.074 570.467 243.019 570.61 242.908C570.948 242.641 571.303 242.227 571.674 241.668L571.967 241.97C571.349 242.843 570.779 243.451 570.258 243.797C569.874 244.044 569.509 244.168 569.164 244.168C568.917 244.168 568.709 244.083 568.539 243.914C568.377 243.744 568.295 243.549 568.295 243.328C568.295 243.093 568.399 242.612 568.608 241.882L571.254 232.722C571.469 231.974 571.577 231.544 571.577 231.433C571.577 231.277 571.515 231.15 571.391 231.052C571.267 230.948 571.075 230.896 570.815 230.896C570.665 230.896 570.437 230.919 570.131 230.964V230.603L573.471 230.047Z" fill="#252C37"/>
<g clip-path="url(#clip1_15_5297)">
<path d="M560.346 150.314L553.014 130.171L558.507 128.172L571.332 146.315L560.346 150.314Z" fill="#D9D9D9"/>
<path d="M537.956 154.316L581.973 138.295C582.522 138.095 583.109 138.021 583.69 138.079C584.272 138.137 584.833 138.324 585.332 138.628L589.061 140.899C590.032 140.546 591.104 140.593 592.041 141.029C592.977 141.466 593.702 142.257 594.056 143.228C594.409 144.199 594.362 145.271 593.925 146.208C593.489 147.144 592.698 147.869 591.726 148.222L560.598 159.554L539.955 159.81L537.956 154.316Z" fill="#D9D9D9"/>
<path d="M537.955 154.316L534.623 145.16L538.285 143.827L545.279 151.65L537.955 154.316Z" fill="#D9D9D9"/>
<path d="M561.679 153.976L569.01 174.118L574.503 172.119L572.665 149.977L561.679 153.976Z" fill="#D9D9D9"/>
<path d="M538.151 187.195C539.227 187.195 540.1 186.322 540.1 185.246C540.1 184.17 539.227 183.297 538.151 183.297C537.075 183.297 536.203 184.17 536.203 185.246C536.203 186.322 537.075 187.195 538.151 187.195Z" fill="#EFBC2E"/>
<path d="M560.56 170.631C561.637 170.631 562.509 169.759 562.509 168.683C562.509 167.607 561.637 166.734 560.56 166.734C559.484 166.734 558.612 167.607 558.612 168.683C558.612 169.759 559.484 170.631 560.56 170.631Z" fill="#EFBC2E"/>
<path d="M594.97 142.886C594.543 141.762 593.721 140.833 592.658 140.272C591.595 139.711 590.364 139.556 589.195 139.837L585.841 137.791C585.216 137.413 584.515 137.18 583.789 137.108C583.063 137.037 582.329 137.129 581.643 137.378L569.375 141.843L559.299 127.608C559.176 127.434 558.999 127.305 558.795 127.241C558.591 127.177 558.372 127.182 558.171 127.255L552.686 129.254C552.566 129.297 552.455 129.364 552.36 129.45C552.266 129.536 552.189 129.641 552.135 129.756C552.081 129.872 552.05 129.998 552.044 130.126C552.038 130.254 552.058 130.381 552.101 130.502L557.76 146.068L545.562 150.506L539.011 143.178C538.882 143.034 538.712 142.932 538.524 142.884C538.336 142.837 538.139 142.847 537.956 142.912L534.29 144.245C534.17 144.289 534.059 144.356 533.964 144.442C533.87 144.528 533.793 144.632 533.739 144.748C533.685 144.864 533.654 144.99 533.648 145.117C533.642 145.245 533.662 145.373 533.705 145.493L539.038 160.14C539.106 160.328 539.231 160.49 539.395 160.605C539.558 160.72 539.754 160.781 539.954 160.781H539.965L560.612 160.528C560.722 160.526 560.83 160.506 560.933 160.468L562.762 159.801L568.094 174.451C568.137 174.571 568.204 174.682 568.29 174.777C568.377 174.871 568.481 174.948 568.597 175.002C568.713 175.056 568.839 175.087 568.966 175.093C569.094 175.099 569.222 175.079 569.343 175.035L574.836 173.035C575.037 172.962 575.208 172.825 575.323 172.645C575.439 172.465 575.492 172.252 575.474 172.039L574.11 155.671L592.057 149.135C592.658 148.916 593.211 148.581 593.683 148.148C594.155 147.715 594.537 147.193 594.807 146.613C595.077 146.032 595.23 145.404 595.257 144.764C595.284 144.124 595.185 143.485 594.965 142.884L594.97 142.886ZM554.267 130.751L558.139 129.341L567.478 142.533L559.594 145.402L554.267 130.751ZM538.541 153.064L535.871 145.743L537.999 144.969L543.592 151.224L538.541 153.064ZM569.592 172.872L562.927 154.555L571.799 151.326L573.471 171.455L569.592 172.872ZM591.395 147.307L573.948 153.661L573.635 149.897C573.623 149.748 573.577 149.603 573.499 149.475C573.422 149.346 573.316 149.238 573.19 149.157C573.064 149.076 572.921 149.026 572.772 149.009C572.624 148.992 572.473 149.009 572.332 149.059L561.346 153.054C561.225 153.097 561.114 153.164 561.02 153.251C560.925 153.337 560.849 153.441 560.794 153.557C560.74 153.673 560.709 153.799 560.703 153.927C560.698 154.055 560.717 154.183 560.761 154.303L562.094 157.964L560.419 158.575L540.631 158.818L539.204 154.894L582.306 139.208C582.718 139.058 583.159 139.002 583.595 139.044C584.032 139.087 584.454 139.227 584.829 139.454L585.763 140.024L582.902 141.064L583.568 142.896L587.893 141.322L588.551 141.724C588.675 141.799 588.814 141.846 588.958 141.861C589.103 141.876 589.248 141.859 589.385 141.81C589.746 141.678 590.129 141.619 590.513 141.635C590.897 141.651 591.274 141.743 591.622 141.904C591.97 142.066 592.284 142.295 592.544 142.578C592.804 142.861 593.005 143.192 593.137 143.552C593.269 143.913 593.329 144.296 593.313 144.68C593.297 145.064 593.205 145.441 593.043 145.789C592.882 146.138 592.653 146.451 592.37 146.711C592.087 146.971 591.756 147.173 591.395 147.305V147.307Z" fill="#252C37"/>
<path d="M578.323 142.734L576.492 143.4L577.158 145.231L578.989 144.565L578.323 142.734Z" fill="#252C37"/>
<path d="M574.66 144.066L572.83 144.732L573.496 146.563L575.326 145.898L574.66 144.066Z" fill="#252C37"/>
<path d="M570.999 145.4L569.169 146.066L569.835 147.897L571.665 147.232L570.999 145.4Z" fill="#252C37"/>
<path d="M567.337 146.733L565.506 147.399L566.172 149.23L568.003 148.564L567.337 146.733Z" fill="#252C37"/>
<path d="M563.674 148.066L561.844 148.732L562.51 150.563L564.34 149.897L563.674 148.066Z" fill="#252C37"/>
<path d="M560.012 149.399L558.182 150.065L558.848 151.896L560.678 151.231L560.012 149.399Z" fill="#252C37"/>
<path d="M556.349 150.732L554.519 151.397L555.185 153.229L557.016 152.563L556.349 150.732Z" fill="#252C37"/>
<path d="M552.688 152.064L550.857 152.731L551.524 154.562L553.355 153.895L552.688 152.064Z" fill="#252C37"/>
<path d="M549.026 153.397L547.195 154.064L547.862 155.895L549.693 155.228L549.026 153.397Z" fill="#252C37"/>
<path d="M551.791 169.657H557.817C558.046 170.307 558.499 170.855 559.093 171.204C559.688 171.553 560.387 171.68 561.067 171.564C561.746 171.447 562.363 171.094 562.807 170.567C563.252 170.04 563.495 169.372 563.495 168.683C563.495 167.993 563.252 167.326 562.807 166.799C562.363 166.272 561.746 165.919 561.067 165.802C560.387 165.685 559.688 165.813 559.093 166.162C558.499 166.511 558.046 167.058 557.817 167.709H551.791C550.241 167.709 548.754 168.324 547.658 169.421C546.562 170.517 545.946 172.004 545.946 173.554C545.946 175.105 546.562 176.592 547.658 177.688C548.754 178.784 550.241 179.4 551.791 179.4H568.355V177.452H551.791C550.758 177.452 549.767 177.041 549.036 176.31C548.305 175.579 547.894 174.588 547.894 173.554C547.894 172.521 548.305 171.529 549.036 170.799C549.767 170.068 550.758 169.657 551.791 169.657ZM560.56 167.709C560.753 167.709 560.941 167.766 561.102 167.873C561.262 167.98 561.387 168.132 561.46 168.31C561.534 168.488 561.553 168.684 561.516 168.873C561.478 169.062 561.385 169.236 561.249 169.372C561.113 169.508 560.939 169.601 560.75 169.638C560.561 169.676 560.365 169.657 560.187 169.583C560.009 169.509 559.857 169.384 559.75 169.224C559.643 169.064 559.586 168.876 559.586 168.683C559.586 168.424 559.689 168.177 559.871 167.994C560.054 167.811 560.302 167.709 560.56 167.709Z" fill="#252C37"/>
<path d="M572.252 177.452H570.303V179.4H572.252V177.452Z" fill="#252C37"/>
<path d="M582.482 177.452H574.201V179.4H582.482C583.128 179.4 583.748 179.657 584.205 180.114C584.661 180.57 584.918 181.19 584.918 181.836C584.918 182.482 584.661 183.102 584.205 183.558C583.748 184.015 583.128 184.272 582.482 184.272H551.792V186.22H582.482C583.645 186.22 584.76 185.759 585.582 184.936C586.405 184.114 586.867 182.999 586.867 181.836C586.867 180.673 586.405 179.558 585.582 178.736C584.76 177.914 583.645 177.452 582.482 177.452Z" fill="#252C37"/>
<path d="M538.151 182.323C537.615 182.321 537.088 182.466 536.629 182.743C536.17 183.021 535.796 183.419 535.548 183.894C535.299 184.37 535.187 184.905 535.223 185.44C535.258 185.975 535.44 186.49 535.749 186.929C536.058 187.367 536.481 187.712 536.973 187.926C537.465 188.14 538.006 188.215 538.538 188.142C539.069 188.069 539.57 187.851 539.986 187.512C540.402 187.173 540.716 186.726 540.895 186.22H549.843V184.272H540.895C540.694 183.704 540.323 183.212 539.832 182.863C539.34 182.514 538.754 182.326 538.151 182.323ZM538.151 186.22C537.959 186.22 537.77 186.163 537.61 186.056C537.45 185.949 537.325 185.797 537.251 185.619C537.177 185.441 537.158 185.245 537.196 185.056C537.233 184.867 537.326 184.693 537.462 184.557C537.599 184.421 537.772 184.328 537.961 184.29C538.15 184.253 538.346 184.272 538.524 184.346C538.702 184.42 538.854 184.545 538.961 184.705C539.068 184.865 539.126 185.053 539.126 185.246C539.126 185.504 539.023 185.752 538.84 185.935C538.657 186.118 538.41 186.22 538.151 186.22Z" fill="#252C37"/>
</g>
<path d="M640.825 195.837C640.825 166.656 664.481 143 693.662 143C722.844 143 746.5 166.656 746.5 195.837V226.03C746.5 271.887 709.326 309.061 663.47 309.061H640.825V195.837Z" fill="#FFD54D"/>
<circle cx="716.899" cy="161.083" r="46.1433" fill="#D9D9D9"/>
<path d="M677.756 216.334L677.873 215.973H682.101C683.892 215.973 685.216 216.178 686.076 216.588C686.942 216.998 687.632 217.646 688.146 218.531C688.66 219.41 688.918 220.354 688.918 221.363C688.918 222.229 688.768 223.072 688.468 223.893C688.175 224.707 687.84 225.361 687.463 225.856C687.091 226.344 686.519 226.884 685.744 227.477C684.969 228.069 684.129 228.509 683.224 228.795C682.319 229.075 681.19 229.215 679.836 229.215H674.23L674.357 228.854C674.871 228.841 675.216 228.795 675.392 228.717C675.653 228.606 675.845 228.457 675.968 228.268C676.157 227.994 676.369 227.444 676.603 226.617L678.947 218.609C679.129 217.978 679.22 217.483 679.22 217.125C679.22 216.871 679.136 216.676 678.966 216.539C678.797 216.402 678.465 216.334 677.97 216.334H677.756ZM681.222 216.705L678.351 226.617C678.136 227.359 678.029 227.818 678.029 227.994C678.029 228.098 678.061 228.199 678.127 228.297C678.198 228.395 678.293 228.46 678.41 228.492C678.579 228.551 678.853 228.58 679.23 228.58C680.252 228.58 681.2 228.476 682.072 228.268C682.951 228.053 683.67 227.737 684.23 227.32C685.024 226.715 685.659 225.882 686.134 224.82C686.61 223.759 686.847 222.552 686.847 221.197C686.847 219.667 686.483 218.531 685.754 217.789C685.024 217.04 683.96 216.666 682.56 216.666C682.215 216.666 681.769 216.679 681.222 216.705ZM700.864 220.377L698.959 226.998L698.745 227.887C698.725 227.971 698.715 228.043 698.715 228.102C698.715 228.206 698.748 228.297 698.813 228.375C698.865 228.434 698.93 228.463 699.008 228.463C699.093 228.463 699.204 228.411 699.34 228.307C699.594 228.118 699.933 227.727 700.356 227.135L700.688 227.369C700.239 228.046 699.776 228.564 699.301 228.922C698.826 229.274 698.386 229.449 697.983 229.449C697.703 229.449 697.491 229.378 697.348 229.234C697.211 229.098 697.143 228.896 697.143 228.629C697.143 228.31 697.215 227.89 697.358 227.369L697.563 226.637C696.71 227.75 695.926 228.528 695.209 228.971C694.695 229.29 694.191 229.449 693.696 229.449C693.22 229.449 692.81 229.254 692.465 228.863C692.12 228.466 691.948 227.923 691.948 227.233C691.948 226.197 692.257 225.107 692.875 223.961C693.5 222.809 694.291 221.887 695.248 221.197C695.997 220.651 696.704 220.377 697.368 220.377C697.765 220.377 698.094 220.481 698.354 220.69C698.621 220.898 698.823 221.243 698.959 221.725L699.311 220.611L700.864 220.377ZM697.387 220.885C696.97 220.885 696.528 221.08 696.059 221.471C695.395 222.024 694.803 222.845 694.282 223.932C693.767 225.019 693.51 226.002 693.51 226.881C693.51 227.324 693.621 227.675 693.842 227.936C694.064 228.19 694.317 228.317 694.604 228.317C695.314 228.317 696.085 227.792 696.918 226.744C698.032 225.351 698.588 223.922 698.588 222.457C698.588 221.904 698.481 221.503 698.266 221.256C698.051 221.009 697.758 220.885 697.387 220.885ZM706.872 220.377C707.094 220.755 707.247 221.109 707.331 221.442C707.416 221.767 707.501 222.412 707.585 223.375L708.015 228.18C708.406 227.711 708.972 226.969 709.714 225.953C710.072 225.458 710.515 224.785 711.042 223.932C711.361 223.411 711.557 223.046 711.628 222.838C711.667 222.734 711.687 222.626 711.687 222.516C711.687 222.444 711.664 222.386 711.618 222.34C711.573 222.294 711.452 222.242 711.257 222.184C711.068 222.119 710.909 222.005 710.779 221.842C710.655 221.673 710.593 221.481 710.593 221.266C710.593 220.999 710.671 220.784 710.827 220.621C710.984 220.458 711.179 220.377 711.413 220.377C711.7 220.377 711.944 220.498 712.146 220.738C712.348 220.973 712.448 221.298 712.448 221.715C712.448 222.229 712.273 222.818 711.921 223.483C711.57 224.14 710.892 225.152 709.89 226.52C708.887 227.887 707.673 229.378 706.247 230.992C705.264 232.106 704.535 232.805 704.06 233.092C703.585 233.385 703.178 233.531 702.839 233.531C702.637 233.531 702.461 233.453 702.312 233.297C702.156 233.147 702.077 232.971 702.077 232.77C702.077 232.516 702.185 232.285 702.4 232.076C702.608 231.868 702.836 231.764 703.083 231.764C703.213 231.764 703.321 231.793 703.406 231.852C703.458 231.884 703.516 231.975 703.581 232.125C703.64 232.281 703.695 232.386 703.747 232.438C703.78 232.47 703.819 232.486 703.864 232.486C703.904 232.486 703.972 232.454 704.07 232.389C704.428 232.167 704.844 231.816 705.32 231.334C705.945 230.696 706.407 230.175 706.706 229.772L706.159 223.58C706.068 222.558 705.932 221.936 705.749 221.715C705.567 221.494 705.261 221.383 704.831 221.383C704.695 221.383 704.45 221.402 704.099 221.442L704.011 221.08L706.872 220.377ZM648.72 239.334L648.838 238.973H653.066C654.856 238.973 656.181 239.178 657.041 239.588C657.907 239.998 658.597 240.646 659.111 241.531C659.625 242.41 659.882 243.354 659.882 244.363C659.882 245.229 659.733 246.072 659.433 246.893C659.14 247.707 658.805 248.361 658.427 248.856C658.056 249.344 657.483 249.884 656.709 250.477C655.934 251.069 655.094 251.509 654.189 251.795C653.284 252.075 652.155 252.215 650.8 252.215H645.195L645.322 251.854C645.836 251.841 646.181 251.795 646.357 251.717C646.617 251.606 646.81 251.457 646.933 251.268C647.122 250.994 647.334 250.444 647.568 249.617L649.912 241.609C650.094 240.978 650.185 240.483 650.185 240.125C650.185 239.871 650.101 239.676 649.931 239.539C649.762 239.402 649.43 239.334 648.935 239.334H648.72ZM652.187 239.705L649.316 249.617C649.101 250.359 648.994 250.818 648.994 250.994C648.994 251.098 649.026 251.199 649.091 251.297C649.163 251.395 649.257 251.46 649.375 251.492C649.544 251.551 649.817 251.58 650.195 251.58C651.217 251.58 652.164 251.476 653.037 251.268C653.916 251.053 654.635 250.737 655.195 250.32C655.989 249.715 656.624 248.882 657.099 247.82C657.575 246.759 657.812 245.552 657.812 244.197C657.812 242.667 657.448 241.531 656.718 240.789C655.989 240.04 654.925 239.666 653.525 239.666C653.18 239.666 652.734 239.679 652.187 239.705ZM663.489 243.924L666.858 243.377L665.452 248.123C666.591 246.177 667.626 244.816 668.557 244.041C669.084 243.598 669.514 243.377 669.846 243.377C670.061 243.377 670.23 243.442 670.354 243.572C670.478 243.696 670.539 243.878 670.539 244.119C670.539 244.549 670.429 244.959 670.207 245.35C670.051 245.643 669.827 245.789 669.534 245.789C669.384 245.789 669.254 245.74 669.143 245.643C669.039 245.545 668.974 245.395 668.948 245.193C668.935 245.07 668.905 244.988 668.86 244.949C668.808 244.897 668.746 244.871 668.674 244.871C668.564 244.871 668.459 244.897 668.362 244.949C668.192 245.04 667.935 245.294 667.59 245.711C667.05 246.349 666.464 247.176 665.832 248.192C665.559 248.621 665.325 249.106 665.129 249.647C664.856 250.389 664.7 250.835 664.661 250.984L664.348 252.215H662.854L664.661 246.151C664.869 245.447 664.973 244.946 664.973 244.647C664.973 244.529 664.924 244.432 664.827 244.354C664.696 244.249 664.524 244.197 664.309 244.197C664.172 244.197 663.922 244.227 663.557 244.285L663.489 243.924ZM674.077 248.533C674.032 248.859 674.009 249.129 674.009 249.344C674.009 249.923 674.214 250.418 674.624 250.828C675.034 251.232 675.532 251.434 676.118 251.434C676.587 251.434 677.036 251.339 677.466 251.151C677.902 250.955 678.547 250.529 679.4 249.871L679.605 250.154C678.062 251.684 676.59 252.449 675.191 252.449C674.24 252.449 673.524 252.15 673.042 251.551C672.56 250.952 672.32 250.291 672.32 249.568C672.32 248.598 672.619 247.606 673.218 246.59C673.817 245.574 674.569 244.787 675.474 244.227C676.379 243.66 677.31 243.377 678.267 243.377C678.957 243.377 679.468 243.517 679.8 243.797C680.132 244.077 680.298 244.409 680.298 244.793C680.298 245.333 680.083 245.851 679.654 246.346C679.087 246.99 678.254 247.511 677.154 247.908C676.424 248.175 675.399 248.384 674.077 248.533ZM674.146 248.055C675.109 247.944 675.894 247.755 676.499 247.488C677.3 247.13 677.899 246.704 678.296 246.209C678.7 245.708 678.902 245.233 678.902 244.783C678.902 244.51 678.814 244.289 678.638 244.119C678.469 243.95 678.225 243.865 677.906 243.865C677.241 243.865 676.535 244.22 675.786 244.93C675.044 245.633 674.497 246.675 674.146 248.055ZM692.166 243.377L690.262 249.998L690.047 250.887C690.027 250.971 690.018 251.043 690.018 251.102C690.018 251.206 690.05 251.297 690.115 251.375C690.167 251.434 690.232 251.463 690.311 251.463C690.395 251.463 690.506 251.411 690.643 251.307C690.897 251.118 691.235 250.727 691.658 250.135L691.99 250.369C691.541 251.046 691.079 251.564 690.604 251.922C690.128 252.274 689.689 252.449 689.285 252.449C689.005 252.449 688.794 252.378 688.65 252.234C688.514 252.098 688.445 251.896 688.445 251.629C688.445 251.31 688.517 250.89 688.66 250.369L688.865 249.637C688.012 250.75 687.228 251.528 686.512 251.971C685.997 252.29 685.493 252.449 684.998 252.449C684.523 252.449 684.113 252.254 683.768 251.863C683.423 251.466 683.25 250.923 683.25 250.233C683.25 249.197 683.559 248.107 684.178 246.961C684.803 245.809 685.594 244.887 686.551 244.197C687.3 243.651 688.006 243.377 688.67 243.377C689.067 243.377 689.396 243.481 689.656 243.69C689.923 243.898 690.125 244.243 690.262 244.725L690.613 243.611L692.166 243.377ZM688.689 243.885C688.273 243.885 687.83 244.08 687.361 244.471C686.697 245.024 686.105 245.845 685.584 246.932C685.07 248.019 684.813 249.002 684.813 249.881C684.813 250.324 684.923 250.675 685.145 250.936C685.366 251.19 685.62 251.317 685.906 251.317C686.616 251.317 687.387 250.792 688.221 249.744C689.334 248.351 689.891 246.922 689.891 245.457C689.891 244.904 689.783 244.503 689.568 244.256C689.354 244.009 689.061 243.885 688.689 243.885ZM699.317 243.377L698.048 247.781C698.614 246.746 699.096 245.968 699.493 245.447C700.111 244.64 700.714 244.054 701.3 243.69C701.645 243.481 702.006 243.377 702.384 243.377C702.709 243.377 702.979 243.481 703.194 243.69C703.409 243.898 703.516 244.165 703.516 244.49C703.516 244.809 703.442 245.226 703.292 245.74L702.598 248.221C703.66 246.235 704.666 244.842 705.616 244.041C706.143 243.598 706.664 243.377 707.179 243.377C707.478 243.377 707.722 243.481 707.911 243.69C708.106 243.891 708.204 244.207 708.204 244.637C708.204 245.014 708.145 245.415 708.028 245.838L706.954 249.637C706.72 250.464 706.602 250.923 706.602 251.014C706.602 251.105 706.632 251.183 706.69 251.248C706.729 251.294 706.781 251.317 706.847 251.317C706.912 251.317 707.026 251.255 707.188 251.131C707.559 250.845 707.908 250.467 708.233 249.998L708.556 250.203C708.393 250.464 708.103 250.822 707.686 251.277C707.276 251.733 706.925 252.042 706.632 252.205C706.339 252.368 706.069 252.449 705.821 252.449C705.593 252.449 705.401 252.371 705.245 252.215C705.095 252.059 705.02 251.867 705.02 251.639C705.02 251.326 705.154 250.698 705.421 249.754L706.309 246.619C706.511 245.897 706.619 245.496 706.632 245.418C706.651 245.294 706.661 245.174 706.661 245.057C706.661 244.894 706.625 244.767 706.554 244.676C706.475 244.585 706.388 244.539 706.29 244.539C706.016 244.539 705.727 244.679 705.421 244.959C704.522 245.786 703.682 246.945 702.901 248.436C702.387 249.419 701.905 250.679 701.456 252.215H699.981L701.651 246.307C701.833 245.669 701.925 245.242 701.925 245.027C701.925 244.852 701.889 244.721 701.817 244.637C701.746 244.552 701.658 244.51 701.554 244.51C701.339 244.51 701.111 244.588 700.87 244.744C700.479 244.998 699.975 245.542 699.356 246.375C698.744 247.208 698.269 248.006 697.931 248.768C697.768 249.126 697.38 250.275 696.768 252.215H695.323L697.13 245.887L697.364 245.067C697.41 244.943 697.432 244.852 697.432 244.793C697.432 244.65 697.367 244.523 697.237 244.412C697.107 244.295 696.941 244.236 696.739 244.236C696.654 244.236 696.42 244.276 696.036 244.354L695.948 243.992L699.317 243.377ZM716.107 239.5C716.381 239.5 716.612 239.595 716.8 239.783C716.989 239.972 717.084 240.203 717.084 240.477C717.084 240.744 716.986 240.975 716.791 241.17C716.602 241.359 716.374 241.453 716.107 241.453C715.84 241.453 715.609 241.359 715.414 241.17C715.225 240.975 715.131 240.744 715.131 240.477C715.131 240.203 715.225 239.972 715.414 239.783C715.603 239.595 715.834 239.5 716.107 239.5ZM716.234 243.377L714.3 250.223C714.17 250.685 714.105 250.962 714.105 251.053C714.105 251.157 714.134 251.242 714.193 251.307C714.258 251.372 714.333 251.404 714.418 251.404C714.515 251.404 714.632 251.352 714.769 251.248C715.14 250.955 715.515 250.539 715.892 249.998L716.234 250.223C715.791 250.9 715.27 251.47 714.672 251.932C714.229 252.277 713.806 252.449 713.402 252.449C713.135 252.449 712.917 252.371 712.748 252.215C712.578 252.052 712.494 251.85 712.494 251.609C712.494 251.369 712.575 250.968 712.738 250.408L714.007 246.033C714.216 245.317 714.32 244.868 714.32 244.686C714.32 244.542 714.268 244.425 714.164 244.334C714.066 244.243 713.929 244.197 713.754 244.197C713.61 244.197 713.314 244.233 712.865 244.305V243.924L716.234 243.377ZM723.815 243.377L722.516 247.82C723.734 246.004 724.664 244.809 725.309 244.236C725.96 243.664 726.585 243.377 727.184 243.377C727.51 243.377 727.776 243.484 727.985 243.699C728.2 243.914 728.307 244.194 728.307 244.539C728.307 244.93 728.213 245.451 728.024 246.102L726.832 250.213C726.696 250.688 726.627 250.978 726.627 251.082C726.627 251.173 726.653 251.251 726.706 251.317C726.758 251.375 726.813 251.404 726.872 251.404C726.95 251.404 727.044 251.362 727.155 251.277C727.5 251.004 727.877 250.587 728.288 250.027L728.59 250.213C727.985 251.079 727.412 251.697 726.872 252.068C726.494 252.322 726.155 252.449 725.856 252.449C725.615 252.449 725.423 252.374 725.28 252.225C725.136 252.082 725.065 251.886 725.065 251.639C725.065 251.326 725.176 250.789 725.397 250.027L726.53 246.102C726.673 245.613 726.745 245.233 726.745 244.959C726.745 244.829 726.702 244.725 726.618 244.647C726.533 244.562 726.429 244.52 726.305 244.52C726.123 244.52 725.905 244.598 725.651 244.754C725.169 245.047 724.668 245.532 724.147 246.209C723.626 246.88 723.076 247.739 722.497 248.787C722.191 249.341 721.937 249.946 721.735 250.604L721.247 252.215H719.782L721.559 246.102C721.767 245.366 721.872 244.923 721.872 244.774C721.872 244.63 721.813 244.507 721.696 244.402C721.585 244.292 721.445 244.236 721.276 244.236C721.198 244.236 721.061 244.249 720.866 244.276L720.495 244.334L720.436 243.983L723.815 243.377ZM742.021 243.983L741.738 244.998H740.107C740.23 245.35 740.292 245.679 740.292 245.984C740.292 246.844 739.928 247.609 739.198 248.279C738.463 248.95 737.454 249.321 736.171 249.393C735.481 249.601 734.963 249.848 734.618 250.135C734.488 250.239 734.423 250.346 734.423 250.457C734.423 250.587 734.482 250.708 734.599 250.818C734.716 250.923 735.012 251.03 735.488 251.141L737.382 251.58C738.43 251.828 739.124 252.121 739.462 252.459C739.794 252.804 739.96 253.201 739.96 253.651C739.96 254.184 739.762 254.673 739.364 255.115C738.974 255.558 738.398 255.903 737.636 256.151C736.881 256.404 736.044 256.531 735.126 256.531C734.319 256.531 733.583 256.434 732.919 256.238C732.255 256.05 731.78 255.792 731.493 255.467C731.207 255.141 731.064 254.806 731.064 254.461C731.064 254.181 731.158 253.888 731.347 253.582C731.529 253.283 731.76 253.035 732.04 252.84C732.216 252.716 732.714 252.423 733.534 251.961C733.235 251.727 733.085 251.47 733.085 251.19C733.085 250.929 733.215 250.652 733.476 250.359C733.743 250.067 734.303 249.744 735.156 249.393C734.439 249.256 733.87 248.957 733.447 248.494C733.03 248.032 732.822 247.518 732.822 246.951C732.822 246.027 733.225 245.2 734.032 244.471C734.846 243.742 735.927 243.377 737.275 243.377C737.763 243.377 738.163 243.426 738.476 243.524C738.788 243.621 739.091 243.774 739.384 243.983H742.021ZM738.632 245.516C738.632 244.995 738.486 244.585 738.193 244.285C737.906 243.986 737.529 243.836 737.06 243.836C736.324 243.836 735.715 244.207 735.234 244.949C734.758 245.685 734.521 246.453 734.521 247.254C734.521 247.755 734.674 248.165 734.98 248.484C735.286 248.804 735.657 248.963 736.093 248.963C736.438 248.963 736.77 248.869 737.089 248.68C737.415 248.491 737.688 248.231 737.909 247.899C738.131 247.567 738.307 247.143 738.437 246.629C738.567 246.115 738.632 245.744 738.632 245.516ZM733.954 252.215C733.427 252.456 733.027 252.765 732.753 253.143C732.486 253.52 732.353 253.891 732.353 254.256C732.353 254.686 732.548 255.04 732.939 255.32C733.499 255.724 734.319 255.926 735.4 255.926C736.331 255.926 737.125 255.766 737.782 255.447C738.447 255.135 738.779 254.728 738.779 254.227C738.779 253.973 738.655 253.732 738.407 253.504C738.167 253.276 737.695 253.091 736.991 252.947C736.607 252.869 735.595 252.625 733.954 252.215Z" fill="#252C37"/>
<path d="M744.784 162.736C744.784 159.947 743.028 157.572 740.653 156.539C741.582 155.61 742.202 154.267 742.202 152.821C742.202 149.929 739.827 147.554 736.935 147.554C736.728 147.554 736.522 147.554 736.418 147.554C736.728 146.831 736.935 146.005 736.935 145.179C736.935 142.287 734.56 139.912 731.668 139.912C730.738 139.912 729.912 140.118 729.189 140.531C728.466 138.466 726.504 136.71 724.232 136.71C721.34 136.71 719.068 139.395 718.965 141.461V177.608H719.068C719.068 181.326 722.063 184.217 725.781 184.217C729.086 184.217 731.771 181.842 732.391 178.744C733.01 178.95 733.733 179.053 734.456 179.053C738.174 179.053 741.169 176.058 741.169 172.34C741.169 171.204 740.859 170.068 740.343 169.036C742.822 168.209 744.784 165.731 744.784 162.736Z" fill="#D9D9D9"/>
<path d="M689.014 162.736C689.014 159.947 690.77 157.572 693.145 156.539C692.216 155.61 691.596 154.267 691.596 152.821C691.596 149.929 693.972 147.554 696.863 147.554C697.07 147.554 697.277 147.554 697.38 147.554C697.07 146.831 696.863 146.005 696.863 145.179C696.863 142.287 699.239 139.912 702.131 139.912C703.06 139.912 703.886 140.118 704.609 140.531C705.332 138.466 707.294 136.71 709.566 136.71C712.458 136.71 714.73 139.395 714.834 141.461V177.608H714.73C714.73 181.326 711.735 184.217 708.017 184.217C704.712 184.217 702.027 181.842 701.408 178.744C700.788 178.95 700.065 179.053 699.342 179.053C695.624 179.053 692.629 176.058 692.629 172.34C692.629 171.204 692.939 170.068 693.455 169.036C690.977 168.209 689.014 165.731 689.014 162.736Z" fill="#D9D9D9"/>
<path d="M744.784 162.736C744.784 159.947 743.028 157.572 740.653 156.539C741.582 155.61 742.202 154.267 742.202 152.821C742.202 149.929 739.827 147.554 736.935 147.554C736.728 147.554 736.522 147.554 736.418 147.554C736.728 146.831 736.935 146.005 736.935 145.179C736.935 142.287 734.56 139.912 731.668 139.912C730.738 139.912 729.912 140.118 729.189 140.531C728.466 138.466 726.504 136.71 724.232 136.71C721.34 136.71 719.068 139.395 718.965 141.461V177.608H719.068C719.068 181.326 722.063 184.217 725.781 184.217C729.086 184.217 731.771 181.842 732.391 178.744C733.01 178.95 733.733 179.053 734.456 179.053C738.174 179.053 741.169 176.058 741.169 172.34C741.169 171.204 740.859 170.068 740.343 169.036C742.822 168.209 744.784 165.731 744.784 162.736Z" stroke="#252C37" stroke-width="3" stroke-miterlimit="10" stroke-linecap="round" stroke-linejoin="round"/>
<path d="M689.014 162.736C689.014 159.947 690.77 157.572 693.145 156.539C692.216 155.61 691.596 154.267 691.596 152.821C691.596 149.929 693.972 147.554 696.863 147.554C697.07 147.554 697.277 147.554 697.38 147.554C697.07 146.831 696.863 146.005 696.863 145.179C696.863 142.287 699.239 139.912 702.131 139.912C703.06 139.912 703.886 140.118 704.609 140.531C705.332 138.466 707.294 136.71 709.566 136.71C712.458 136.71 714.73 139.395 714.834 141.461V177.608H714.73C714.73 181.326 711.735 184.217 708.017 184.217C704.712 184.217 702.027 181.842 701.408 178.744C700.788 178.95 700.065 179.053 699.342 179.053C695.624 179.053 692.629 176.058 692.629 172.34C692.629 171.204 692.939 170.068 693.455 169.036C690.977 168.209 689.014 165.731 689.014 162.736Z" stroke="#252C37" stroke-width="3" stroke-miterlimit="10" stroke-linecap="round" stroke-linejoin="round"/>
<path d="M699.859 164.388C699.859 164.388 704.609 163.665 706.675 168.313C708.947 173.476 705.952 177.298 701.511 178.744" stroke="#252C37" stroke-width="3" stroke-miterlimit="10" stroke-linecap="round" stroke-linejoin="round"/>
<path d="M710.289 149.31C710.289 149.31 707.707 153.441 703.06 152.408C698.413 151.375 697.483 147.554 697.483 147.554" stroke="#252C37" stroke-width="3" stroke-miterlimit="10" stroke-linecap="round" stroke-linejoin="round"/>
<path d="M710.289 158.605C710.186 158.501 708.947 154.164 703.576 152.615" stroke="#252C37" stroke-width="3" stroke-miterlimit="10" stroke-linecap="round" stroke-linejoin="round"/>
<path d="M728.673 159.224C728.673 159.224 727.433 163.768 731.358 167.28C733.217 168.932 736.935 169.449 740.136 169.036" stroke="#252C37" stroke-width="3" stroke-miterlimit="10" stroke-linecap="round" stroke-linejoin="round"/>
<path d="M727.227 150.756C727.227 150.756 730.015 152.511 732.391 151.788C734.766 151.065 736.418 147.554 736.418 147.554" stroke="#252C37" stroke-width="3" stroke-miterlimit="10" stroke-linecap="round" stroke-linejoin="round"/>
<path d="M725.161 173.476C725.161 173.476 726.504 168.209 732.7 168.209" stroke="#252C37" stroke-width="3" stroke-miterlimit="10" stroke-linecap="round" stroke-linejoin="round"/>
<defs>
<clipPath id="clip0_15_5297">
<rect width="66.0971" height="66.0971" fill="white" transform="translate(230.89 122.423)"/>
</clipPath>
<clipPath id="clip1_15_5297">
<rect width="62.3558" height="62.3558" fill="white" transform="translate(533.28 126.787)"/>
</clipPath>
</defs>
</svg>
