<svg width="237" height="21" viewBox="0 0 237 21" fill="none" xmlns="http://www.w3.org/2000/svg">
<path d="M1 11.5H236" stroke="#D9D9D9" stroke-linecap="round"/>
<rect width="116" height="21" transform="translate(60)" fill="#252C37"/>
<path d="M81.343 12.8154L81.0018 16H72.9466V15.7525H73.2477C73.5108 15.7525 73.7227 15.7056 73.8833 15.612C73.9992 15.5495 74.0884 15.4425 74.1509 15.2908C74.1999 15.1838 74.2245 14.9028 74.2245 14.4478V8.48009C74.2245 8.01623 74.1999 7.72632 74.1509 7.61035C74.1018 7.49439 74.0015 7.39403 73.8498 7.30929C73.7026 7.22008 73.5019 7.17548 73.2477 7.17548H72.9466V6.92794H77.7837V7.17548H77.389C77.1258 7.17548 76.914 7.22231 76.7534 7.31598C76.6374 7.37842 76.546 7.48547 76.4791 7.63711C76.43 7.74416 76.4055 8.02515 76.4055 8.48009V14.2605C76.4055 14.7244 76.4323 15.021 76.4858 15.1503C76.5393 15.2752 76.6441 15.3689 76.8002 15.4313C76.9117 15.4715 77.1816 15.4915 77.6098 15.4915H78.3658C78.8475 15.4915 79.2489 15.4068 79.57 15.2373C79.8912 15.0678 80.1677 14.8002 80.3996 14.4345C80.636 14.0687 80.859 13.529 81.0687 12.8154H81.343ZM87.2524 15.0767C86.4897 15.7502 85.805 16.087 85.1985 16.087C84.8416 16.087 84.545 15.971 84.3086 15.7391C84.0723 15.5027 83.9541 15.2083 83.9541 14.856C83.9541 14.3787 84.1592 13.9505 84.5696 13.5714C84.9799 13.1878 85.8742 12.6794 87.2524 12.046V11.4171C87.2524 10.9444 87.2256 10.6478 87.1721 10.5273C87.123 10.4024 87.0271 10.2954 86.8844 10.2062C86.7417 10.1125 86.5811 10.0657 86.4027 10.0657C86.1128 10.0657 85.8742 10.1304 85.6868 10.2597C85.5709 10.34 85.5129 10.4337 85.5129 10.5407C85.5129 10.6344 85.5753 10.7503 85.7002 10.8886C85.8697 11.0804 85.9545 11.2655 85.9545 11.4439C85.9545 11.6624 85.8719 11.8498 85.7069 12.0059C85.5463 12.1575 85.3345 12.2334 85.0713 12.2334C84.7903 12.2334 84.554 12.1486 84.3622 11.9791C84.1748 11.8096 84.0812 11.6112 84.0812 11.3837C84.0812 11.0626 84.2083 10.757 84.4625 10.4671C84.7168 10.1727 85.0713 9.9475 85.5263 9.79139C85.9812 9.63529 86.454 9.55723 86.9446 9.55723C87.5378 9.55723 88.0062 9.68435 88.3496 9.93858C88.6975 10.1884 88.9227 10.4604 89.0253 10.7548C89.0878 10.9421 89.119 11.3725 89.119 12.046V14.4746C89.119 14.7601 89.1301 14.9407 89.1524 15.0165C89.1747 15.0879 89.2082 15.1414 89.2528 15.1771C89.2974 15.2128 89.3487 15.2306 89.4067 15.2306C89.5226 15.2306 89.6408 15.1481 89.7612 14.9831L89.962 15.1436C89.7389 15.4737 89.507 15.7145 89.2662 15.8662C89.0298 16.0134 88.7599 16.087 88.4566 16.087C88.0998 16.087 87.8211 16.0045 87.6203 15.8394C87.4196 15.6699 87.297 15.4157 87.2524 15.0767ZM87.2524 14.5883V12.4943C86.7127 12.811 86.3113 13.1499 86.0481 13.5112C85.8742 13.7521 85.7872 13.9951 85.7872 14.2404C85.7872 14.4456 85.8608 14.6263 86.008 14.7824C86.1195 14.9028 86.2756 14.963 86.4763 14.963C86.6993 14.963 86.958 14.8381 87.2524 14.5883ZM94.6404 7.45647V9.74456H96.1256V10.4069H94.6404V14.2672C94.6404 14.6285 94.656 14.8626 94.6872 14.9697C94.7229 15.0723 94.7831 15.157 94.8678 15.2239C94.9526 15.2864 95.0306 15.3176 95.102 15.3176C95.3919 15.3176 95.6662 15.0968 95.9249 14.6552L96.1256 14.8024C95.7643 15.6588 95.1778 16.087 94.3661 16.087C93.9691 16.087 93.6323 15.9777 93.3558 15.7591C93.0837 15.5361 92.9098 15.2886 92.834 15.0165C92.7894 14.8649 92.7671 14.4545 92.7671 13.7855V10.4069H91.9508V10.1727C92.5128 9.77578 92.9901 9.35875 93.3826 8.92165C93.7795 8.48455 94.1252 7.99616 94.4196 7.45647H94.6404ZM103.527 12.6482H100.095C100.135 13.4778 100.356 14.1334 100.757 14.6151C101.065 14.9853 101.435 15.1704 101.868 15.1704C102.135 15.1704 102.378 15.0968 102.597 14.9496C102.816 14.798 103.05 14.5281 103.299 14.1401L103.527 14.2873C103.188 14.9786 102.813 15.4692 102.403 15.7591C101.993 16.0446 101.518 16.1873 100.978 16.1873C100.05 16.1873 99.3477 15.8305 98.8705 15.1169C98.4869 14.5415 98.2951 13.8279 98.2951 12.976C98.2951 11.9323 98.5761 11.1027 99.1381 10.4872C99.7046 9.86722 100.367 9.55723 101.125 9.55723C101.758 9.55723 102.307 9.81815 102.771 10.34C103.239 10.8574 103.491 11.6268 103.527 12.6482ZM101.881 12.1999C101.881 11.4818 101.841 10.989 101.761 10.7213C101.685 10.4537 101.564 10.2508 101.399 10.1125C101.306 10.0322 101.181 9.9921 101.025 9.9921C100.793 9.9921 100.603 10.1058 100.456 10.3333C100.193 10.7303 100.061 11.2744 100.061 11.9657V12.1999H101.881ZM109.778 9.57061L109.878 11.7048H109.65C109.378 11.0715 109.095 10.6388 108.801 10.4069C108.511 10.175 108.221 10.059 107.931 10.059C107.748 10.059 107.592 10.1214 107.463 10.2463C107.333 10.3668 107.269 10.5073 107.269 10.6678C107.269 10.7882 107.313 10.9042 107.403 11.0157C107.545 11.1986 107.944 11.513 108.6 11.9591C109.256 12.4006 109.686 12.7775 109.891 13.0897C110.101 13.3975 110.206 13.7431 110.206 14.1267C110.206 14.4746 110.119 14.8158 109.945 15.1503C109.771 15.4848 109.526 15.7413 109.209 15.9197C108.892 16.0981 108.542 16.1873 108.159 16.1873C107.86 16.1873 107.461 16.0937 106.961 15.9063C106.827 15.8573 106.736 15.8327 106.687 15.8327C106.539 15.8327 106.417 15.9442 106.319 16.1673H106.098L105.991 13.9193H106.218C106.419 14.5081 106.693 14.9496 107.041 15.244C107.394 15.5384 107.726 15.6856 108.038 15.6856C108.252 15.6856 108.426 15.6209 108.56 15.4915C108.698 15.3577 108.767 15.1972 108.767 15.0098C108.767 14.7957 108.7 14.6106 108.567 14.4545C108.433 14.2984 108.134 14.062 107.67 13.7454C106.988 13.2726 106.546 12.9113 106.345 12.6615C106.051 12.2958 105.904 11.8921 105.904 11.4506C105.904 10.9689 106.069 10.534 106.399 10.146C106.733 9.75348 107.215 9.55723 107.844 9.55723C108.183 9.55723 108.511 9.63975 108.828 9.80477C108.948 9.87168 109.046 9.90513 109.122 9.90513C109.202 9.90513 109.267 9.88952 109.316 9.8583C109.365 9.82261 109.443 9.72672 109.55 9.57061H109.778ZM115.152 7.45647V9.74456H116.637V10.4069H115.152V14.2672C115.152 14.6285 115.167 14.8626 115.199 14.9697C115.234 15.0723 115.295 15.157 115.379 15.2239C115.464 15.2864 115.542 15.3176 115.613 15.3176C115.903 15.3176 116.178 15.0968 116.436 14.6552L116.637 14.8024C116.276 15.6588 115.689 16.087 114.877 16.087C114.481 16.087 114.144 15.9777 113.867 15.7591C113.595 15.5361 113.421 15.2886 113.345 15.0165C113.301 14.8649 113.278 14.4545 113.278 13.7855V10.4069H112.462V10.1727C113.024 9.77578 113.501 9.35875 113.894 8.92165C114.291 8.48455 114.637 7.99616 114.931 7.45647H115.152ZM136.792 6.92794V7.17548C136.622 7.18886 136.48 7.23569 136.364 7.31598C136.248 7.39626 136.145 7.51892 136.056 7.68394C136.029 7.73747 135.889 8.08313 135.635 8.72094L132.791 16.2074H132.53L130.282 10.3601L127.807 16.2074H127.559L124.575 8.80123C124.272 8.05637 124.06 7.60589 123.94 7.44978C123.819 7.29368 123.617 7.20224 123.331 7.17548V6.92794H127.265V7.17548C126.948 7.1844 126.736 7.23346 126.629 7.32267C126.527 7.40741 126.476 7.51446 126.476 7.6438C126.476 7.81329 126.585 8.17234 126.803 8.72094L128.583 13.1232L130.008 9.68435L129.633 8.72094C129.428 8.19464 129.27 7.84451 129.158 7.67056C129.047 7.49216 128.917 7.36504 128.77 7.28922C128.628 7.21339 128.416 7.17548 128.135 7.17548V6.92794H132.53V7.17548C132.222 7.17994 132.002 7.20447 131.868 7.24907C131.774 7.2803 131.701 7.33382 131.647 7.40964C131.594 7.48101 131.567 7.56352 131.567 7.65718C131.567 7.75977 131.667 8.07421 131.868 8.60052L133.52 12.8957L134.999 9.00863C135.155 8.60721 135.251 8.3329 135.287 8.18572C135.322 8.03853 135.34 7.90249 135.34 7.77761C135.34 7.59474 135.278 7.45201 135.153 7.34943C135.028 7.24238 134.789 7.1844 134.437 7.17548V6.92794H136.792ZM141.832 9.55723C142.376 9.55723 142.882 9.69773 143.35 9.97872C143.819 10.2597 144.173 10.6589 144.414 11.1763C144.659 11.6937 144.782 12.2601 144.782 12.8756C144.782 13.7632 144.557 14.5058 144.106 15.1035C143.562 15.8261 142.811 16.1873 141.852 16.1873C140.911 16.1873 140.186 15.8573 139.677 15.1972C139.169 14.5371 138.915 13.7721 138.915 12.9024C138.915 12.0059 139.173 11.2253 139.691 10.5608C140.213 9.89175 140.926 9.55723 141.832 9.55723ZM141.858 10.0322C141.631 10.0322 141.435 10.1192 141.27 10.2932C141.109 10.4627 141.002 10.8016 140.949 11.3101C140.899 11.8141 140.875 12.5166 140.875 13.4175C140.875 13.8948 140.906 14.3408 140.969 14.7556C141.018 15.0723 141.122 15.3131 141.283 15.4782C141.444 15.6432 141.626 15.7257 141.832 15.7257C142.032 15.7257 142.2 15.6699 142.333 15.5584C142.507 15.4068 142.623 15.1949 142.681 14.9229C142.771 14.4991 142.815 13.6428 142.815 12.3538C142.815 11.5955 142.773 11.0759 142.688 10.7949C142.603 10.5095 142.478 10.3021 142.313 10.1727C142.197 10.0791 142.046 10.0322 141.858 10.0322ZM149.835 9.74456V11.1629C150.25 10.5162 150.613 10.088 150.926 9.87837C151.238 9.66428 151.539 9.55723 151.829 9.55723C152.079 9.55723 152.277 9.63529 152.424 9.79139C152.576 9.94304 152.652 10.1594 152.652 10.4404C152.652 10.7392 152.578 10.9711 152.431 11.1361C152.288 11.3012 152.114 11.3837 151.909 11.3837C151.673 11.3837 151.468 11.3079 151.294 11.1562C151.12 11.0046 151.017 10.9198 150.986 10.902C150.941 10.8752 150.89 10.8618 150.832 10.8618C150.703 10.8618 150.58 10.9109 150.464 11.009C150.281 11.1607 150.143 11.377 150.049 11.658C149.907 12.0906 149.835 12.5679 149.835 13.0897V14.5281L149.842 14.9028C149.842 15.157 149.857 15.3198 149.889 15.3912C149.942 15.5116 150.02 15.6008 150.123 15.6588C150.23 15.7123 150.408 15.7458 150.658 15.7591V16H147.279V15.7591C147.552 15.7368 147.734 15.6633 147.828 15.5384C147.926 15.409 147.975 15.0723 147.975 14.5281V11.0692C147.975 10.7124 147.957 10.485 147.922 10.3868C147.877 10.2619 147.812 10.1705 147.728 10.1125C147.643 10.0545 147.494 10.0144 147.279 9.9921V9.74456H149.835ZM157.377 6.92794V12.8957L158.829 11.4707C159.128 11.1807 159.313 10.9711 159.384 10.8418C159.46 10.7124 159.498 10.5875 159.498 10.4671C159.498 10.3467 159.449 10.2463 159.351 10.166C159.253 10.0858 159.061 10.0278 158.775 9.9921V9.74456H161.579V9.9921C161.311 10.0055 161.077 10.0702 160.876 10.1861C160.675 10.2976 160.283 10.6388 159.699 11.2097L159.016 11.8788L160.488 14.033C161.081 14.9072 161.434 15.3979 161.545 15.5049C161.697 15.6566 161.888 15.7413 162.12 15.7591V16H158.889V15.7591C159.032 15.7591 159.134 15.7324 159.197 15.6789C159.264 15.6253 159.297 15.5674 159.297 15.5049C159.297 15.4023 159.203 15.2128 159.016 14.9362L157.778 13.1232L157.377 13.5179V14.6419C157.377 15.1191 157.422 15.4179 157.511 15.5384C157.6 15.6543 157.783 15.7279 158.059 15.7591V16H154.828V15.7591C155.091 15.7324 155.278 15.6476 155.39 15.5049C155.466 15.4068 155.504 15.1191 155.504 14.6419V8.28607C155.504 7.81329 155.459 7.51892 155.37 7.40295C155.285 7.28699 155.105 7.21116 154.828 7.17548V6.92794H157.377Z" fill="white"/>
</svg>
