<svg width="237" height="27" viewBox="0 0 237 27" fill="none" xmlns="http://www.w3.org/2000/svg">
<path d="M1 11.5H236" stroke="#D9D9D9" stroke-linecap="round"/>
<rect width="91" height="27" transform="translate(73)" fill="#252C37"/>
<path d="M134.333 10.3106C134.014 10.38 133.854 10.512 133.854 10.7065C133.854 10.7898 133.889 10.901 133.958 11.0399L136.375 15.895L138.834 10.6023C138.848 10.5745 138.855 10.5328 138.855 10.4773C138.855 10.4078 138.82 10.3592 138.751 10.3314C138.681 10.3036 138.577 10.2758 138.438 10.2481L137.896 10.1855V9.87298H140.293V10.1855L139.751 10.2689C139.584 10.2967 139.466 10.3314 139.397 10.3731C139.327 10.4148 139.258 10.512 139.188 10.6648L134.958 20.3751H134.583L130.895 13.3528L127.832 20.3751H127.457L122.414 10.7482C122.345 10.6231 122.261 10.5328 122.164 10.4773C122.081 10.4217 121.97 10.38 121.831 10.3522L121.205 10.1855V9.87298H127.582V10.1855L127.207 10.2689C126.887 10.3383 126.727 10.4842 126.727 10.7065C126.727 10.7898 126.762 10.901 126.832 11.0399L129.249 15.895L130.582 12.7694L129.54 10.7482C129.471 10.6092 129.395 10.512 129.311 10.4564C129.242 10.387 129.152 10.3383 129.04 10.3106L128.54 10.1855V9.87298H134.875V10.1855L134.333 10.3106ZM150.02 11.1232C150.02 10.9704 149.985 10.8662 149.916 10.8107C149.86 10.7551 149.728 10.7065 149.52 10.6648L148.791 10.4981V10.123L153.833 9.4979H154.188V18.9998C154.188 19.1526 154.215 19.2568 154.271 19.3124C154.34 19.3679 154.479 19.4166 154.688 19.4582L155.417 19.6249V20H151.187C150.784 20 150.492 19.9167 150.312 19.75C150.145 19.5694 150.062 19.2915 150.062 18.9165V18.6872C149.562 19.1179 148.93 19.486 148.166 19.7916C147.402 20.0972 146.554 20.25 145.623 20.25C144.332 20.25 143.408 19.9792 142.852 19.4374C142.296 18.8956 142.019 18.083 142.019 16.9994V11.1232C142.019 10.9704 141.984 10.8662 141.914 10.8107C141.859 10.7551 141.727 10.7065 141.518 10.6648L140.789 10.4981V10.123L145.832 9.4979H146.186V17.3745C146.186 17.9996 146.283 18.4441 146.478 18.7081C146.686 18.972 147.027 19.104 147.499 19.104C148.332 19.104 149.173 18.7567 150.02 18.0621V11.1232Z" fill="url(#paint0_linear_260_1808)"/>
<path d="M91.9696 15.4394H91.6984L85.5302 3.15939L84.8636 10.8076C84.826 11.2293 84.8071 11.6285 84.8071 12.0051C84.8071 13.1047 85.0293 13.952 85.4737 14.5469C85.9256 15.1419 86.6524 15.5524 87.654 15.7783V16.1285H81.4858V15.7783C82.0356 15.5825 82.5214 15.2888 82.9431 14.8971C83.3649 14.498 83.6887 14.0348 83.9147 13.5076C84.1557 12.9277 84.3327 12.0051 84.4456 10.7398L85.1574 2.59453C84.8712 2.0598 84.5435 1.67569 84.1745 1.44222C83.8055 1.20874 83.3385 1.08071 82.7737 1.05811V0.7079H88.2415C88.2114 0.783215 88.1925 0.832169 88.185 0.854764C88.0419 1.20121 87.9704 1.47234 87.9704 1.66816C87.9704 2.02967 88.1624 2.59453 88.5465 3.36274L92.9185 12.039L96.5336 3.59998C96.8198 2.92215 96.9629 2.40624 96.9629 2.05226C96.9629 1.69075 96.8123 1.24263 96.511 0.7079H101.945V1.05811C101.192 1.16355 100.646 1.38573 100.307 1.72465C99.968 2.05603 99.7985 2.54557 99.7985 3.19328C99.7985 3.39663 99.8098 3.58868 99.8324 3.76943L99.8663 4.05186L100.815 12.4344C100.83 12.5473 100.842 12.6452 100.849 12.7281C100.864 12.8109 100.902 13.0482 100.962 13.4398C101.075 14.1704 101.297 14.7126 101.629 15.0666C101.968 15.4206 102.487 15.6578 103.188 15.7783V16.1285H96.0026V15.7783C96.7934 15.5825 97.3734 15.3264 97.7424 15.0101C98.119 14.6863 98.3073 14.2796 98.3073 13.79C98.3073 13.6017 98.2809 13.2929 98.2282 12.8637L97.1211 3.21587L91.9696 15.4394ZM97.5955 15.5524H101.064L100.476 15.0779C100.22 14.8746 100.051 14.434 99.968 13.7561L98.7253 2.96733C98.7102 2.77152 98.7027 2.63595 98.7027 2.56064C98.7027 2.38741 98.7403 2.24055 98.8156 2.12005C98.891 1.99201 99.0453 1.83385 99.2788 1.64557L99.9228 1.13719H97.3018L98.7253 13.598L98.7705 13.8465C98.7855 14.0273 98.793 14.1628 98.793 14.2532C98.793 14.4415 98.7554 14.5884 98.6801 14.6938C98.6123 14.7992 98.4541 14.9423 98.2056 15.1231L97.5955 15.5524ZM91.8001 14.7842L92.4214 13.3155L87.2247 2.96733C86.9687 2.4326 86.8406 2.04473 86.8406 1.80373C86.8406 1.57025 86.9009 1.34807 87.0214 1.13719H84.423C84.8448 1.43845 85.1611 1.75854 85.372 2.09745C85.6582 2.52675 85.903 2.95227 86.1063 3.37403L91.8001 14.7842ZM85.3494 15.5524C84.9879 15.1607 84.7394 14.8407 84.6038 14.5921C84.4758 14.3361 84.3779 14.0122 84.3101 13.6206C84.1293 14.0725 83.9297 14.434 83.7113 14.7051C83.4929 14.9762 83.1804 15.2587 82.7737 15.5524H85.3494ZM104.272 16.1285V15.8235C104.784 15.7331 105.135 15.5599 105.323 15.3038C105.511 15.0402 105.605 14.5921 105.605 13.9595V9.21467C105.605 8.58203 105.507 8.13391 105.312 7.87031C105.123 7.59918 104.777 7.42595 104.272 7.35064V7.1021L107.91 6.6841V13.9595C107.91 14.5846 108 15.0289 108.181 15.2925C108.369 15.5561 108.719 15.7331 109.232 15.8235V16.1285H104.272ZM105.3 3.59998C105.3 3.2234 105.428 2.90332 105.684 2.63972C105.94 2.37612 106.26 2.24432 106.645 2.24432C107.029 2.24432 107.349 2.37612 107.605 2.63972C107.861 2.90332 107.989 3.2234 107.989 3.59998C107.989 3.98408 107.861 4.30417 107.605 4.56024C107.349 4.81631 107.029 4.94434 106.645 4.94434C106.26 4.94434 105.94 4.81631 105.684 4.56024C105.428 4.30417 105.3 3.98408 105.3 3.59998ZM105.402 15.6315H107.661L107.39 15.4281C107.375 15.4131 107.36 15.4018 107.345 15.3942L107.198 15.2813C107.093 15.1758 107.036 15.0327 107.029 14.852V14.626V14.513V7.15859L105.176 7.36193L105.617 7.67826C105.624 7.67826 105.639 7.68955 105.662 7.71215L105.809 7.82512C105.884 7.87784 105.933 7.95692 105.955 8.06236C105.978 8.16027 105.989 8.33726 105.989 8.59333V14.513C105.989 14.8218 105.974 15.0139 105.944 15.0892C105.914 15.1645 105.824 15.2662 105.673 15.3942C105.673 15.3942 105.665 15.398 105.65 15.4055C105.643 15.4131 105.639 15.4206 105.639 15.4281L105.402 15.6315ZM106.588 2.54934C106.324 2.5644 106.095 2.67737 105.899 2.88825C105.711 3.0916 105.617 3.32884 105.617 3.59998C105.617 3.87111 105.714 4.11211 105.91 4.323C106.106 4.53388 106.332 4.63932 106.588 4.63932C106.754 4.63932 106.837 4.5527 106.837 4.37948C106.844 4.24392 106.848 3.96902 106.848 3.55479C106.848 3.15562 106.844 2.89955 106.837 2.78658C106.829 2.63595 106.746 2.55687 106.588 2.54934ZM114.214 15.9365L110.892 9.0904L110.779 8.85316C110.471 8.21299 110.203 7.77993 109.977 7.55399C109.759 7.32804 109.48 7.20377 109.141 7.18118V6.87616H114.135V7.18118C113.743 7.22637 113.464 7.30545 113.299 7.41842C113.133 7.53139 113.05 7.70462 113.05 7.93809C113.05 8.12638 113.144 8.4201 113.333 8.81927L115.343 13.1574L117.106 8.87576C117.302 8.39374 117.399 8.03223 117.399 7.79123C117.399 7.58788 117.317 7.44101 117.151 7.35064C116.985 7.26026 116.703 7.20377 116.304 7.18118V6.87616H119.105V7.18118C118.729 7.26403 118.461 7.36947 118.303 7.4975C118.153 7.62554 117.987 7.88914 117.806 8.2883L117.603 8.72889C117.588 8.77408 117.573 8.80797 117.558 8.83057C117.55 8.84563 117.539 8.87576 117.524 8.92094L114.044 17.3938C113.886 17.7855 113.713 18.1244 113.525 18.4106C113.344 18.7043 113.148 18.9076 112.937 19.0206C112.734 19.1411 112.504 19.2014 112.248 19.2014C111.796 19.2014 111.408 19.0169 111.084 18.6478C110.761 18.2863 110.599 17.8344 110.599 17.2921C110.599 16.9156 110.693 16.6106 110.881 16.3771C111.077 16.1511 111.333 16.0382 111.649 16.0382C111.905 16.0382 112.101 16.1059 112.237 16.2415C112.38 16.3771 112.463 16.5729 112.485 16.829L112.519 17.2244C112.549 17.6838 112.7 17.9135 112.971 17.9135C113.137 17.9135 113.291 17.8156 113.434 17.6198C113.577 17.4315 113.743 17.1001 113.931 16.6256L114.214 15.9365ZM113.016 18.6591H112.915C112.515 18.6591 112.222 18.5499 112.033 18.3315C111.853 18.1131 111.762 17.7704 111.762 17.3034L111.773 16.9871C111.773 16.716 111.649 16.5804 111.401 16.5804C111.099 16.5804 110.949 16.8177 110.949 17.2921C110.949 17.744 111.077 18.1244 111.333 18.4332C111.597 18.742 111.917 18.8963 112.293 18.8963C112.512 18.8963 112.753 18.8173 113.016 18.6591ZM114.971 14.3549L112.327 8.86446C112.161 8.51048 112.079 8.22052 112.079 7.99458C112.079 7.67072 112.229 7.41089 112.53 7.21507H110.022C110.233 7.35064 110.407 7.5088 110.542 7.68955C110.685 7.87031 110.843 8.13767 111.017 8.49165L114.462 15.6089L114.971 14.3549ZM125.488 15.0779C124.562 15.8612 123.568 16.2528 122.506 16.2528C121.655 16.2528 120.973 16.0344 120.461 15.5976C119.956 15.1532 119.704 14.5733 119.704 13.8578C119.704 12.8411 120.201 12.0427 121.195 11.4628C122.189 10.8829 123.62 10.5553 125.488 10.48V10.1636V10.0055C125.488 9.41802 125.462 8.93977 125.409 8.57073C125.356 8.19416 125.281 7.91173 125.183 7.72344C125.07 7.50503 124.908 7.33181 124.697 7.20377C124.494 7.06821 124.272 7.00043 124.031 7.00043C123.677 7.00043 123.398 7.11716 123.195 7.35064C122.992 7.57658 122.864 7.93056 122.811 8.41257C122.751 8.88705 122.653 9.21091 122.517 9.38413C122.382 9.54982 122.148 9.63267 121.817 9.63267C121.561 9.63267 121.346 9.54229 121.173 9.36153C121 9.18078 120.913 8.9473 120.913 8.66111C120.913 8.27701 121.052 7.93056 121.331 7.62177C121.61 7.30545 121.994 7.05691 122.483 6.87616C122.98 6.6954 123.523 6.60502 124.11 6.60502C124.871 6.60502 125.537 6.75942 126.11 7.06821C126.682 7.36947 127.108 7.79123 127.386 8.33349C127.537 8.61215 127.642 8.92471 127.703 9.27116C127.77 9.6176 127.804 10.0959 127.804 10.7059V13.9595C127.804 14.5846 127.895 15.0289 128.075 15.2925C128.264 15.5561 128.614 15.7331 129.126 15.8235V16.1285H125.488V15.0779ZM125.488 14.5808V10.8415C124.758 10.9544 124.129 11.1427 123.602 11.4063C123.082 11.6699 122.683 12.0051 122.404 12.4118C122.125 12.8185 121.986 13.2666 121.986 13.7561C121.986 14.2532 122.133 14.6674 122.427 14.9988C122.728 15.3227 123.105 15.4846 123.556 15.4846C124.114 15.4846 124.758 15.1833 125.488 14.5808ZM125.872 15.6315H127.544L127.285 15.4281C127.285 15.4281 127.277 15.4243 127.262 15.4168C127.254 15.4018 127.247 15.3942 127.239 15.3942L127.092 15.2813C126.979 15.1683 126.923 15.0252 126.923 14.852V14.626L126.912 14.513V10.672C126.912 9.62513 126.791 8.84186 126.55 8.32219C126.211 7.6293 125.68 7.18495 124.957 6.98913C125.439 7.32804 125.722 7.86654 125.805 8.60462C125.85 9.05651 125.872 9.75694 125.872 10.7059V15.6315ZM123.003 15.9365C121.723 15.6729 121.082 14.9725 121.082 13.8352C121.082 13.0971 121.38 12.4645 121.975 11.9373C122.238 11.7038 122.747 11.4063 123.5 11.0448C122.589 11.218 121.881 11.4553 121.376 11.7565C120.518 12.2837 120.088 12.9804 120.088 13.8465C120.088 14.4716 120.314 14.98 120.766 15.3716C121.225 15.7557 121.817 15.9478 122.54 15.9478C122.713 15.9478 122.867 15.944 123.003 15.9365ZM123.003 7.01172C122.476 7.14729 122.05 7.36947 121.726 7.67826C121.41 7.97951 121.252 8.31843 121.252 8.695C121.252 8.8381 121.286 8.95107 121.353 9.03392C121.421 9.11676 121.512 9.15818 121.625 9.15818C121.73 9.15818 121.809 9.12806 121.862 9.06781C121.915 9.00002 121.96 8.86822 121.997 8.67241C122.08 8.25065 122.186 7.93432 122.314 7.72344C122.449 7.50503 122.679 7.26779 123.003 7.01172Z" fill="url(#paint1_linear_260_1808)"/>
<defs>
<linearGradient id="paint0_linear_260_1808" x1="121.122" y1="12.5" x2="156.122" y2="12.5" gradientUnits="userSpaceOnUse">
<stop offset="0.025" stop-color="white"/>
<stop offset="0.53" stop-color="#FFEFBA"/>
<stop offset="0.975" stop-color="#6E6E6E"/>
</linearGradient>
<linearGradient id="paint1_linear_260_1808" x1="130" y1="13.6285" x2="81" y2="13.6285" gradientUnits="userSpaceOnUse">
<stop offset="0.035" stop-color="#594915"/>
<stop offset="0.475" stop-color="#99802E"/>
<stop offset="1" stop-color="#FFD54D"/>
</linearGradient>
</defs>
</svg>
