<svg width="271" height="99" viewBox="0 0 271 99" fill="none" xmlns="http://www.w3.org/2000/svg">
<rect width="271" height="99" fill="#252C37"/>
<path d="M177.152 48.7192C176.318 48.9005 175.901 49.2448 175.901 49.7522C175.901 49.9697 175.992 50.2596 176.173 50.6221L182.48 63.2897L188.895 49.4804C188.931 49.4079 188.949 49.2992 188.949 49.1542C188.949 48.973 188.859 48.8461 188.678 48.7736C188.496 48.7011 188.225 48.6286 187.862 48.5561L186.449 48.393V47.5775H192.701V48.393L191.287 48.6105C190.852 48.683 190.544 48.7736 190.363 48.8823C190.182 48.9911 190.001 49.2448 189.819 49.6435L178.783 74.9786H177.804L168.181 56.6569L160.189 74.9786H159.211L146.054 49.8609C145.872 49.5347 145.655 49.2992 145.401 49.1542C145.184 49.0092 144.894 48.9005 144.531 48.828L142.9 48.393V47.5775H159.537V48.393L158.558 48.6105C157.725 48.7917 157.308 49.1723 157.308 49.7522C157.308 49.9697 157.398 50.2596 157.58 50.6221L163.886 63.2897L167.366 55.1346L164.647 49.8609C164.466 49.4985 164.267 49.2448 164.049 49.0998C163.868 48.9186 163.632 48.7917 163.342 48.7192L162.038 48.393V47.5775H178.565V48.393L177.152 48.7192ZM218.081 50.8396C218.081 50.4409 217.99 50.169 217.809 50.0241C217.664 49.8791 217.32 49.7522 216.776 49.6435L214.873 49.2085V48.2299L228.03 46.5989H228.954V71.3904C228.954 71.7891 229.027 72.0609 229.172 72.2059C229.353 72.3509 229.716 72.4777 230.259 72.5865L232.162 73.0214V74H221.125C220.074 74 219.313 73.7825 218.842 73.3476C218.407 72.8764 218.19 72.1515 218.19 71.1729V70.5749C216.885 71.6985 215.236 72.6589 213.242 73.4563C211.249 74.2537 209.038 74.6524 206.609 74.6524C203.239 74.6524 200.828 73.9456 199.379 72.5321C197.929 71.1185 197.204 68.9982 197.204 66.1711V50.8396C197.204 50.4409 197.113 50.169 196.932 50.0241C196.787 49.8791 196.443 49.7522 195.899 49.6435L193.996 49.2085V48.2299L207.153 46.5989H208.077V67.1497C208.077 68.7807 208.331 69.9406 208.838 70.6292C209.382 71.3179 210.27 71.6622 211.502 71.6622C213.677 71.6622 215.87 70.7561 218.081 68.9438V50.8396Z" fill="url(#paint0_linear_15_5496)"/>
<path d="M66.6207 61.5374H65.9133L49.8197 29.4975L48.0806 49.4524C47.9824 50.5528 47.9332 51.5943 47.9332 52.5768C47.9332 55.4458 48.5129 57.6564 49.6723 59.2088C50.8513 60.7612 52.7476 61.8321 55.3611 62.4216V63.3354H39.2674V62.4216C40.7019 61.9107 41.9694 61.1444 43.0698 60.1226C44.1702 59.0811 45.0152 57.8726 45.6047 56.4971C46.2335 54.984 46.6953 52.5768 46.99 49.2756L48.847 28.0237C48.1003 26.6285 47.2455 25.6264 46.2826 25.0172C45.3198 24.4081 44.1014 24.074 42.6277 24.0151V23.1013H56.8938C56.8152 23.2978 56.7661 23.4255 56.7464 23.4845C56.3731 24.3884 56.1864 25.0958 56.1864 25.6067C56.1864 26.5499 56.6875 28.0237 57.6896 30.0281L69.0967 52.6653L78.5288 30.647C79.2755 28.8785 79.6489 27.5325 79.6489 26.6089C79.6489 25.6657 79.2559 24.4965 78.4699 23.1013H92.6476V24.0151C90.6826 24.2902 89.2579 24.8698 88.3737 25.7541C87.4894 26.6187 87.0473 27.896 87.0473 29.5859C87.0473 30.1165 87.0767 30.6176 87.1357 31.0892L87.2241 31.8261L89.7001 53.6969C89.7394 53.9916 89.7688 54.2471 89.7885 54.4633C89.8278 54.6794 89.926 55.2984 90.0832 56.3202C90.378 58.2263 90.9577 59.6411 91.8223 60.5647C92.7066 61.4883 94.0624 62.1072 95.8899 62.4216V63.3354H77.1435V62.4216C79.2068 61.9107 80.7198 61.2426 81.6827 60.4173C82.6652 59.5723 83.1565 58.5112 83.1565 57.234C83.1565 56.7427 83.0877 55.937 82.9502 54.817L80.0616 29.6449L66.6207 61.5374ZM81.2995 61.8321H90.3485L88.8158 60.5942C88.1477 60.0636 87.7055 58.9141 87.4894 57.1455L84.2471 28.9964C84.2078 28.4855 84.1881 28.1318 84.1881 27.9353C84.1881 27.4833 84.2864 27.1002 84.4829 26.7857C84.6794 26.4517 85.0822 26.039 85.6914 25.5478L87.3715 24.2214H80.5332L84.2471 56.7329L84.365 57.3813C84.4043 57.8529 84.4239 58.2066 84.4239 58.4425C84.4239 58.9337 84.3257 59.3169 84.1292 59.592C83.9523 59.8671 83.5397 60.2405 82.8912 60.7121L81.2995 61.8321ZM66.1786 59.8278L67.7997 55.996L54.241 28.9964C53.5729 27.6012 53.2388 26.5892 53.2388 25.9604C53.2388 25.3513 53.396 24.7716 53.7104 24.2214H46.9311C48.0315 25.0074 48.8568 25.8425 49.407 26.7268C50.1537 27.8469 50.7924 28.9571 51.3229 30.0575L66.1786 59.8278ZM49.3481 61.8321C48.4049 60.8103 47.7564 59.9752 47.4027 59.3267C47.0686 58.6586 46.8132 57.8136 46.6363 56.7918C46.1647 57.9708 45.644 58.9141 45.0741 59.6215C44.5043 60.3289 43.6888 61.0658 42.6277 61.8321H49.3481ZM98.7196 63.3354V62.5395C100.056 62.3037 100.97 61.8518 101.461 61.1837C101.952 60.4959 102.198 59.3267 102.198 57.6761V45.2964C102.198 43.6457 101.942 42.4765 101.431 41.7888C100.94 41.0814 100.036 40.6294 98.7196 40.4329V39.7845L108.211 38.6939V57.6761C108.211 59.3071 108.446 60.4664 108.918 61.1542C109.409 61.842 110.323 62.3037 111.659 62.5395V63.3354H98.7196ZM101.402 30.647C101.402 29.6645 101.736 28.8294 102.404 28.1416C103.072 27.4539 103.907 27.11 104.909 27.11C105.912 27.11 106.747 27.4539 107.415 28.1416C108.083 28.8294 108.417 29.6645 108.417 30.647C108.417 31.6492 108.083 32.4843 107.415 33.1525C106.747 33.8206 105.912 34.1546 104.909 34.1546C103.907 34.1546 103.072 33.8206 102.404 33.1525C101.736 32.4843 101.402 31.6492 101.402 30.647ZM101.667 62.0385H107.562L106.855 61.5079C106.816 61.4686 106.776 61.4391 106.737 61.4195L106.354 61.1247C106.079 60.8496 105.931 60.4763 105.912 60.0047V59.4151V59.1204V39.9318L101.078 40.4624L102.227 41.2877C102.247 41.2877 102.286 41.3172 102.345 41.3761L102.728 41.6709C102.925 41.8084 103.052 42.0148 103.111 42.2899C103.17 42.5453 103.2 43.0071 103.2 43.6752V59.1204C103.2 59.9261 103.161 60.4271 103.082 60.6236C103.003 60.8201 102.768 61.0854 102.375 61.4195C102.375 61.4195 102.355 61.4293 102.316 61.449C102.296 61.4686 102.286 61.4883 102.286 61.5079L101.667 62.0385ZM104.762 27.9058C104.074 27.9451 103.475 28.2399 102.964 28.7901C102.473 29.3206 102.227 29.9396 102.227 30.647C102.227 31.3545 102.483 31.9833 102.994 32.5335C103.504 33.0837 104.094 33.3588 104.762 33.3588C105.194 33.3588 105.411 33.1328 105.411 32.6809C105.43 32.3271 105.44 31.6099 105.44 30.5291C105.44 29.4877 105.43 28.8196 105.411 28.5248C105.391 28.1318 105.175 27.9255 104.762 27.9058ZM124.658 62.8343L115.992 44.9721L115.697 44.3532C114.892 42.6829 114.194 41.553 113.605 40.9635C113.035 40.374 112.308 40.0497 111.424 39.9908V39.1949H124.452V39.9908C123.43 40.1087 122.703 40.315 122.27 40.6098C121.838 40.9045 121.622 41.3565 121.622 41.9656C121.622 42.4569 121.868 43.2233 122.359 44.2647L127.606 55.5833L132.204 44.4121C132.715 43.1545 132.97 42.2113 132.97 41.5825C132.97 41.0519 132.754 40.6687 132.322 40.4329C131.889 40.1971 131.152 40.0497 130.111 39.9908V39.1949H137.421V39.9908C136.438 40.2069 135.741 40.482 135.328 40.8161C134.935 41.1502 134.503 41.8379 134.031 42.8794L133.501 44.0289C133.461 44.1468 133.422 44.2353 133.383 44.2942C133.363 44.3335 133.334 44.4121 133.294 44.53L124.216 66.6366C123.803 67.6585 123.351 68.5427 122.86 69.2894C122.388 70.0558 121.877 70.5864 121.327 70.8811C120.797 71.1955 120.197 71.3527 119.529 71.3527C118.35 71.3527 117.338 70.8713 116.493 69.9084C115.648 68.9652 115.226 67.7862 115.226 66.3714C115.226 65.3888 115.471 64.593 115.963 63.9838C116.474 63.3943 117.142 63.0996 117.967 63.0996C118.635 63.0996 119.146 63.2764 119.5 63.6301C119.873 63.9838 120.089 64.4948 120.148 65.1629L120.237 66.1945C120.315 67.3932 120.708 67.9925 121.416 67.9925C121.848 67.9925 122.251 67.7371 122.624 67.2262C122.998 66.7349 123.43 65.8703 123.921 64.6323L124.658 62.8343ZM121.534 69.9379H121.268C120.227 69.9379 119.46 69.653 118.969 69.0831C118.498 68.5133 118.262 67.6192 118.262 66.4008L118.291 65.5755C118.291 64.8681 117.967 64.5144 117.319 64.5144C116.533 64.5144 116.14 65.1334 116.14 66.3714C116.14 67.5504 116.474 68.5427 117.142 69.3484C117.83 70.1541 118.665 70.5569 119.647 70.5569C120.217 70.5569 120.846 70.3506 121.534 69.9379ZM126.633 58.7077L119.736 44.3826C119.303 43.4591 119.087 42.7025 119.087 42.113C119.087 41.2681 119.48 40.5901 120.266 40.0792H113.723C114.273 40.4329 114.725 40.8456 115.078 41.3172C115.452 41.7888 115.864 42.4864 116.316 43.4099L125.306 61.9795L126.633 58.7077ZM154.075 60.5942C151.658 62.6378 149.064 63.6596 146.293 63.6596C144.073 63.6596 142.294 63.0898 140.958 61.95C139.641 60.7907 138.983 59.2776 138.983 57.4108C138.983 54.758 140.28 52.6751 142.874 51.162C145.468 49.6489 149.201 48.7941 154.075 48.5976V47.7723V47.3597C154.075 45.8269 154.006 44.5791 153.868 43.6163C153.731 42.6338 153.534 41.8969 153.279 41.4056C152.984 40.8357 152.562 40.3838 152.011 40.0497C151.481 39.696 150.901 39.5192 150.272 39.5192C149.349 39.5192 148.622 39.8238 148.091 40.4329C147.56 41.0224 147.226 41.946 147.089 43.2036C146.932 44.4416 146.676 45.2865 146.323 45.7385C145.969 46.1708 145.36 46.387 144.495 46.387C143.827 46.387 143.267 46.1512 142.815 45.6796C142.363 45.2079 142.137 44.5988 142.137 43.8521C142.137 42.8499 142.501 41.946 143.228 41.1403C143.955 40.315 144.957 39.6665 146.234 39.1949C147.531 38.7233 148.946 38.4875 150.479 38.4875C152.463 38.4875 154.202 38.8904 155.696 39.696C157.189 40.482 158.299 41.5825 159.026 42.9973C159.419 43.7243 159.695 44.5398 159.852 45.4438C160.029 46.3477 160.117 47.5955 160.117 49.1871V57.6761C160.117 59.3071 160.353 60.4664 160.824 61.1542C161.316 61.842 162.229 62.3037 163.566 62.5395V63.3354H154.075V60.5942ZM154.075 59.2972V49.5408C152.169 49.8356 150.528 50.3269 149.152 51.0146C147.796 51.7024 146.755 52.5768 146.028 53.6379C145.301 54.6991 144.937 55.8683 144.937 57.1455C144.937 58.4425 145.32 59.5232 146.087 60.3878C146.873 61.2328 147.855 61.6553 149.034 61.6553C150.488 61.6553 152.169 60.8693 154.075 59.2972ZM155.077 62.0385H159.439L158.761 61.5079C158.761 61.5079 158.742 61.4981 158.702 61.4784C158.683 61.4391 158.663 61.4195 158.643 61.4195L158.26 61.1247C157.965 60.83 157.818 60.4566 157.818 60.0047V59.4151L157.788 59.1204V49.0987C157.788 46.3673 157.474 44.3237 156.845 42.9678C155.961 41.16 154.576 40.0006 152.689 39.4897C153.947 40.374 154.684 41.779 154.9 43.7047C155.018 44.8837 155.077 46.7112 155.077 49.1871V62.0385ZM147.59 62.8343C144.249 62.1465 142.579 60.3191 142.579 57.3519C142.579 55.4261 143.355 53.7755 144.908 52.4C145.595 51.7908 146.922 51.0146 148.887 50.0714C146.509 50.5234 144.662 51.1423 143.345 51.9284C141.105 53.3039 139.985 55.1215 139.985 57.3813C139.985 59.0123 140.575 60.3387 141.754 61.3605C142.952 62.3627 144.495 62.8638 146.381 62.8638C146.833 62.8638 147.236 62.854 147.59 62.8343ZM147.59 39.5486C146.214 39.9024 145.104 40.482 144.259 41.2877C143.434 42.0737 143.021 42.958 143.021 43.9405C143.021 44.3139 143.11 44.6086 143.287 44.8248C143.463 45.0409 143.699 45.149 143.994 45.149C144.269 45.149 144.475 45.0704 144.613 44.9132C144.75 44.7363 144.868 44.3925 144.967 43.8815C145.183 42.7811 145.458 41.9558 145.792 41.4056C146.146 40.8357 146.745 40.2168 147.59 39.5486Z" fill="url(#paint1_linear_15_5496)"/>
<defs>
<linearGradient id="paint0_linear_15_5496" x1="142.683" y1="54.5" x2="233.683" y2="54.5" gradientUnits="userSpaceOnUse">
<stop offset="0.025" stop-color="white"/>
<stop offset="0.53" stop-color="#FFEFBA"/>
<stop offset="0.975" stop-color="#6E6E6E"/>
</linearGradient>
<linearGradient id="paint1_linear_15_5496" x1="165" y1="57.8354" x2="38" y2="57.8354" gradientUnits="userSpaceOnUse">
<stop offset="0.035" stop-color="#594915"/>
<stop offset="0.475" stop-color="#99802E"/>
<stop offset="1" stop-color="#FFD54D"/>
</linearGradient>
</defs>
</svg>
