<svg width="295" height="100" viewBox="0 0 295 100" fill="none" xmlns="http://www.w3.org/2000/svg">
<path d="M0 41.841C0 27.0171 12.0171 15 26.841 15V15C41.6649 15 53.6821 27.0172 53.6821 41.8411V57.1788C53.6821 80.4735 34.798 99.3576 11.5033 99.3576H0V41.841Z" fill="#FFD54D"/>
<circle cx="38.6451" cy="24.1863" r="23.4405" fill="#D9D9D9"/>
<g clip-path="url(#clip0_260_1811)">
<path d="M50.3059 18.1875H49.2566V15.0396C49.2566 14.4604 48.7876 13.9904 48.2074 13.9904H28.2711C27.6919 13.9904 27.2218 14.4604 27.2218 15.0396C27.2218 15.6188 27.6919 16.0889 28.2711 16.0889H47.1581V28.6802C47.1581 31.5731 44.8045 33.9266 41.9117 33.9266H34.5667C31.6739 33.9266 29.3204 31.5731 29.3204 28.6802V19.2367C29.3204 18.6575 28.8503 18.1875 28.2711 18.1875C27.6919 18.1875 27.2218 18.6575 27.2218 19.2367V28.6802C27.2218 32.7294 30.5165 36.0252 34.5667 36.0252H41.9117C45.9608 36.0252 49.2566 32.7294 49.2566 28.6802V27.631H50.3059C52.6206 27.631 54.503 25.7486 54.503 23.4339V22.3846C54.503 20.0699 52.6206 18.1875 50.3059 18.1875ZM52.4045 23.4339C52.4045 24.5912 51.4633 25.5324 50.3059 25.5324H49.2566V20.286H50.3059C51.4633 20.286 52.4045 21.2272 52.4045 22.3846V23.4339Z" fill="#252C37"/>
<path d="M33.5175 12.9411C34.0967 12.9411 34.5668 12.471 34.5668 11.8918V9.79323C34.5668 9.21403 34.0967 8.74396 33.5175 8.74396C32.9383 8.74396 32.4682 9.21403 32.4682 9.79323V11.8918C32.4682 12.471 32.9383 12.9411 33.5175 12.9411Z" fill="#252C37"/>
<path d="M37.7146 12.9411C38.2938 12.9411 38.7638 12.471 38.7638 11.8918V7.69466C38.7638 7.11546 38.2938 6.64539 37.7146 6.64539C37.1354 6.64539 36.6653 7.11546 36.6653 7.69466V11.8918C36.6653 12.471 37.1354 12.9411 37.7146 12.9411Z" fill="#252C37"/>
<path d="M41.9117 12.9411C42.492 12.9411 42.961 12.471 42.961 11.8918V9.79323C42.961 9.21403 42.492 8.74396 41.9117 8.74396C41.3325 8.74396 40.8624 9.21403 40.8624 9.79323V11.8918C40.8624 12.471 41.3325 12.9411 41.9117 12.9411Z" fill="#252C37"/>
</g>
<path d="M18.9214 59.2488L18.4204 61.4266H18.2418L18.2219 60.8809C18.2054 60.6825 18.1674 60.5055 18.1078 60.3501C18.0483 60.1947 17.959 60.0607 17.8399 59.9483C17.7209 59.8325 17.5704 59.7432 17.3885 59.6804C17.2066 59.6142 17.0049 59.5812 16.7833 59.5812C16.1913 59.5812 15.6737 59.7432 15.2305 60.0673C14.665 60.4807 14.2218 61.0645 13.901 61.8185C13.6364 62.4403 13.5041 63.0703 13.5041 63.7086C13.5041 64.3601 13.6943 64.881 14.0746 65.2713C14.455 65.6582 14.9494 65.8517 15.5579 65.8517C16.0176 65.8517 16.4261 65.7492 16.7833 65.5441C17.1438 65.3391 17.4778 65.0232 17.7854 64.5966H18.0185C17.6547 65.1754 17.2512 65.602 16.8081 65.8765C16.3649 66.1477 15.8341 66.2833 15.2156 66.2833C14.6666 66.2833 14.1805 66.1692 13.7571 65.941C13.3338 65.7095 13.0114 65.3854 12.7898 64.9687C12.5682 64.552 12.4574 64.1038 12.4574 63.6243C12.4574 62.8901 12.6542 62.1757 13.0477 61.4812C13.4413 60.7867 13.9804 60.241 14.665 59.8441C15.3529 59.4472 16.0458 59.2488 16.7436 59.2488C17.071 59.2488 17.4381 59.3265 17.8449 59.482C18.0235 59.5481 18.1525 59.5812 18.2318 59.5812C18.3112 59.5812 18.3807 59.5646 18.4402 59.5316C18.4997 59.4985 18.599 59.4042 18.7379 59.2488H18.9214ZM24.3649 63.1927C24.3649 63.6888 24.2326 64.1799 23.968 64.6661C23.7067 65.1522 23.3413 65.5375 22.8716 65.8219C22.402 66.1064 21.9456 66.2486 21.5024 66.2486C21.0494 66.2486 20.6789 66.1047 20.3912 65.817C20.1068 65.5259 19.9646 65.1506 19.9646 64.6909C19.9646 64.2047 20.1035 63.7169 20.3813 63.2274C20.6624 62.7379 21.0361 62.351 21.5024 62.0666C21.9721 61.7821 22.4252 61.6399 22.8617 61.6399C23.2983 61.6399 23.6571 61.7838 23.9382 62.0715C24.2227 62.3593 24.3649 62.733 24.3649 63.1927ZM23.5414 62.8504C23.5414 62.5428 23.4653 62.308 23.3132 62.1459C23.1643 61.9806 22.9709 61.8979 22.7327 61.8979C22.2466 61.8979 21.7984 62.2468 21.3883 62.9446C20.9816 63.6392 20.7782 64.3304 20.7782 65.0183C20.7782 65.3325 20.8575 65.5756 21.0163 65.7475C21.175 65.9162 21.3751 66.0005 21.6165 66.0005C22.0829 66.0005 22.5194 65.6549 22.9262 64.9637C23.3363 64.2692 23.5414 63.5647 23.5414 62.8504ZM28.8757 61.759L28.7864 62.0864H28.0621L27.5164 64.2543C27.275 65.2101 27.0319 65.9493 26.7872 66.4718C26.4399 67.2093 26.0662 67.7186 25.666 67.9998C25.3617 68.2147 25.0575 68.3222 24.7532 68.3222C24.5548 68.3222 24.3861 68.2627 24.2472 68.1436C24.1447 68.0609 24.0934 67.9535 24.0934 67.8212C24.0934 67.7153 24.1364 67.6227 24.2224 67.5434C24.3051 67.4673 24.4076 67.4293 24.53 67.4293C24.6193 67.4293 24.6953 67.4574 24.7582 67.5136C24.8177 67.5698 24.8475 67.6343 24.8475 67.7071C24.8475 67.7798 24.8127 67.8476 24.7433 67.9105C24.6904 67.9568 24.6639 67.9915 24.6639 68.0146C24.6639 68.0444 24.6755 68.0676 24.6986 68.0841C24.7284 68.1072 24.7747 68.1188 24.8375 68.1188C24.9798 68.1188 25.1302 68.0742 25.289 67.9849C25.4444 67.8956 25.5833 67.7616 25.7057 67.5831C25.8281 67.4078 25.9438 67.1531 26.053 66.8191C26.0993 66.6802 26.2233 66.2221 26.425 65.4449L27.2882 62.0864H26.425L26.4945 61.759C26.769 61.759 26.9608 61.7408 27.0699 61.7044C27.1791 61.6647 27.2783 61.592 27.3676 61.4861C27.4602 61.377 27.5792 61.1753 27.7248 60.8809C27.9199 60.484 28.1068 60.1765 28.2853 59.9582C28.5301 59.6639 28.7864 59.4439 29.0543 59.2984C29.3255 59.1496 29.5801 59.0752 29.8183 59.0752C30.0696 59.0752 30.2713 59.1397 30.4235 59.2686C30.5756 59.3943 30.6517 59.5316 30.6517 59.6804C30.6517 59.7961 30.6136 59.8937 30.5376 59.9731C30.4615 60.0525 30.3639 60.0921 30.2449 60.0921C30.1424 60.0921 30.058 60.0624 29.9919 60.0028C29.929 59.9433 29.8976 59.8722 29.8976 59.7895C29.8976 59.7366 29.9191 59.6721 29.9621 59.5961C30.0051 59.5167 30.0266 59.4638 30.0266 59.4373C30.0266 59.391 30.0117 59.3563 29.982 59.3331C29.939 59.3001 29.8761 59.2835 29.7934 59.2835C29.5851 59.2835 29.3982 59.3497 29.2329 59.482C29.0113 59.6572 28.8129 59.9317 28.6376 60.3055C28.5483 60.5006 28.3846 60.9851 28.1464 61.759H28.8757ZM32.821 61.759L32.7317 62.0864H32.0074L31.4617 64.2543C31.2203 65.2101 30.9772 65.9493 30.7324 66.4718C30.3852 67.2093 30.0115 67.7186 29.6113 67.9998C29.307 68.2147 29.0028 68.3222 28.6985 68.3222C28.5001 68.3222 28.3314 68.2627 28.1925 68.1436C28.09 68.0609 28.0387 67.9535 28.0387 67.8212C28.0387 67.7153 28.0817 67.6227 28.1677 67.5434C28.2504 67.4673 28.3529 67.4293 28.4752 67.4293C28.5645 67.4293 28.6406 67.4574 28.7034 67.5136C28.763 67.5698 28.7927 67.6343 28.7927 67.7071C28.7927 67.7798 28.758 67.8476 28.6886 67.9105C28.6356 67.9568 28.6092 67.9915 28.6092 68.0146C28.6092 68.0444 28.6208 68.0676 28.6439 68.0841C28.6737 68.1072 28.72 68.1188 28.7828 68.1188C28.925 68.1188 29.0755 68.0742 29.2343 67.9849C29.3897 67.8956 29.5286 67.7616 29.651 67.5831C29.7733 67.4078 29.8891 67.1531 29.9982 66.8191C30.0445 66.6802 30.1686 66.2221 30.3703 65.4449L31.2335 62.0864H30.3703L30.4398 61.759C30.7143 61.759 30.9061 61.7408 31.0152 61.7044C31.1244 61.6647 31.2236 61.592 31.3129 61.4861C31.4055 61.377 31.5245 61.1753 31.67 60.8809C31.8652 60.484 32.052 60.1765 32.2306 59.9582C32.4754 59.6639 32.7317 59.4439 32.9996 59.2984C33.2708 59.1496 33.5254 59.0752 33.7635 59.0752C34.0149 59.0752 34.2166 59.1397 34.3688 59.2686C34.5209 59.3943 34.597 59.5316 34.597 59.6804C34.597 59.7961 34.5589 59.8937 34.4829 59.9731C34.4068 60.0525 34.3092 60.0921 34.1902 60.0921C34.0876 60.0921 34.0033 60.0624 33.9372 60.0028C33.8743 59.9433 33.8429 59.8722 33.8429 59.7895C33.8429 59.7366 33.8644 59.6721 33.9074 59.5961C33.9504 59.5167 33.9719 59.4638 33.9719 59.4373C33.9719 59.391 33.957 59.3563 33.9272 59.3331C33.8842 59.3001 33.8214 59.2835 33.7387 59.2835C33.5304 59.2835 33.3435 59.3497 33.1782 59.482C32.9566 59.6572 32.7581 59.9317 32.5828 60.3055C32.4936 60.5006 32.3298 60.9851 32.0917 61.759H32.821ZM34.9655 64.2593C34.9423 64.4246 34.9307 64.5619 34.9307 64.671C34.9307 64.9654 35.0349 65.2167 35.2433 65.4251C35.4516 65.6301 35.7046 65.7326 36.0023 65.7326C36.2404 65.7326 36.4686 65.6847 36.6869 65.5888C36.9085 65.4896 37.2359 65.2729 37.6691 64.9389L37.7733 65.0828C36.9895 65.86 36.242 66.2486 35.531 66.2486C35.0481 66.2486 34.6843 66.0964 34.4396 65.7922C34.1949 65.4879 34.0725 65.1522 34.0725 64.7851C34.0725 64.2923 34.2246 63.788 34.5289 63.2721C34.8332 62.7561 35.2152 62.3559 35.6749 62.0715C36.1346 61.7838 36.6075 61.6399 37.0937 61.6399C37.4442 61.6399 37.7039 61.711 37.8725 61.8532C38.0412 61.9955 38.1255 62.1641 38.1255 62.3593C38.1255 62.6338 38.0164 62.8967 37.7981 63.148C37.5104 63.4755 37.0871 63.74 36.5281 63.9418C36.1577 64.0774 35.6368 64.1832 34.9655 64.2593ZM35.0002 64.0162C35.4897 63.96 35.8882 63.8641 36.1957 63.7285C36.6025 63.5466 36.9068 63.3299 37.1085 63.0786C37.3136 62.8239 37.4161 62.5825 37.4161 62.3543C37.4161 62.2154 37.3715 62.1029 37.2822 62.017C37.1962 61.931 37.0722 61.888 36.9101 61.888C36.5728 61.888 36.2139 62.0682 35.8336 62.4287C35.4566 62.7859 35.1788 63.3151 35.0002 64.0162ZM40.5974 64.2593C40.5743 64.4246 40.5627 64.5619 40.5627 64.671C40.5627 64.9654 40.6669 65.2167 40.8752 65.4251C41.0836 65.6301 41.3366 65.7326 41.6342 65.7326C41.8724 65.7326 42.1006 65.6847 42.3188 65.5888C42.5404 65.4896 42.8679 65.2729 43.3011 64.9389L43.4053 65.0828C42.6215 65.86 41.874 66.2486 41.163 66.2486C40.6801 66.2486 40.3163 66.0964 40.0716 65.7922C39.8268 65.4879 39.7045 65.1522 39.7045 64.7851C39.7045 64.2923 39.8566 63.788 40.1609 63.2721C40.4651 62.7561 40.8471 62.3559 41.3068 62.0715C41.7665 61.7838 42.2395 61.6399 42.7256 61.6399C43.0762 61.6399 43.3358 61.711 43.5045 61.8532C43.6732 61.9955 43.7575 62.1641 43.7575 62.3593C43.7575 62.6338 43.6484 62.8967 43.4301 63.148C43.1424 63.4755 42.719 63.74 42.1601 63.9418C41.7897 64.0774 41.2688 64.1832 40.5974 64.2593ZM40.6322 64.0162C41.1216 63.96 41.5201 63.8641 41.8277 63.7285C42.2345 63.5466 42.5388 63.3299 42.7405 63.0786C42.9456 62.8239 43.0481 62.5825 43.0481 62.3543C43.0481 62.2154 43.0034 62.1029 42.9142 62.017C42.8282 61.931 42.7041 61.888 42.5421 61.888C42.2047 61.888 41.8459 62.0682 41.4656 62.4287C41.0886 62.7859 40.8107 63.3151 40.6322 64.0162Z" fill="#252C37"/>
<path d="M77.4393 41.8411C77.4393 27.0172 89.4565 15.0001 104.28 15.0001V15.0001C119.104 15.0001 131.121 27.0172 131.121 41.8411V57.1789C131.121 80.4736 112.237 99.3576 88.9426 99.3576H77.4393V41.8411Z" fill="#FFD54D"/>
<circle cx="116.084" cy="24.1862" r="23.4405" fill="#D9D9D9"/>
<path d="M95.0968 59.4026L95.7169 64.8198L99.6211 59.4026H101.263V59.5861C100.906 59.6093 100.696 59.6324 100.633 59.6556C100.524 59.6986 100.423 59.7846 100.33 59.9135C100.241 60.0425 100.144 60.2906 100.038 60.6577L98.7926 64.924C98.7199 65.1721 98.6835 65.3672 98.6835 65.5094C98.6835 65.6384 98.7281 65.736 98.8174 65.8021C98.9431 65.898 99.1415 65.946 99.4127 65.946H99.5318L99.4871 66.1295H96.6545L96.7041 65.946H96.838C97.0894 65.946 97.2812 65.9096 97.4135 65.8368C97.516 65.7839 97.607 65.6847 97.6863 65.5392C97.769 65.3903 97.8831 65.0629 98.0286 64.5569L99.1399 60.6577L95.2158 66.1295H95.0174L94.3874 60.6577L93.1868 64.8198C93.0843 65.1737 93.033 65.4118 93.033 65.5342C93.033 65.6566 93.0777 65.7508 93.167 65.817C93.2563 65.8798 93.4729 65.9228 93.8169 65.946L93.7623 66.1295H91.5448L91.5994 65.946H91.7333C92.0607 65.946 92.2972 65.8633 92.4427 65.6979C92.5485 65.5789 92.6593 65.3209 92.7751 64.924L94.2385 59.9086C94.1294 59.7961 94.0252 59.7201 93.926 59.6804C93.8268 59.6407 93.6432 59.6093 93.3753 59.5861L93.425 59.4026H95.0968ZM106.24 61.759L105.377 64.7157C105.248 65.1555 105.184 65.4333 105.184 65.5491C105.184 65.6086 105.194 65.6533 105.213 65.683C105.237 65.7095 105.266 65.7227 105.303 65.7227C105.359 65.7227 105.42 65.6979 105.486 65.6483C105.556 65.5954 105.728 65.3903 106.002 65.0332L106.151 65.1473C105.89 65.5607 105.622 65.8649 105.347 66.0601C105.165 66.1857 104.99 66.2486 104.821 66.2486C104.692 66.2486 104.592 66.2122 104.519 66.1394C104.446 66.0667 104.41 65.9724 104.41 65.8567C104.41 65.7442 104.431 65.5954 104.474 65.4102C104.527 65.1655 104.678 64.633 104.926 63.8128C104.363 64.7355 103.892 65.3722 103.512 65.7227C103.135 66.0733 102.784 66.2486 102.46 66.2486C102.308 66.2486 102.179 66.1957 102.073 66.0898C101.967 65.984 101.914 65.8501 101.914 65.688C101.914 65.44 101.987 65.0596 102.133 64.547L102.564 63.0141C102.67 62.647 102.723 62.4188 102.723 62.3295C102.723 62.2898 102.708 62.2567 102.678 62.2303C102.652 62.2005 102.622 62.1856 102.589 62.1856C102.52 62.1856 102.45 62.2104 102.381 62.26C102.311 62.3096 102.154 62.4932 101.909 62.8107L101.756 62.7016C102.004 62.3179 102.267 62.0351 102.544 61.8532C102.756 61.711 102.951 61.6399 103.13 61.6399C103.252 61.6399 103.351 61.6796 103.427 61.759C103.507 61.8351 103.547 61.9343 103.547 62.0566C103.547 62.2352 103.48 62.5544 103.348 63.0141L102.882 64.6165C102.753 65.053 102.688 65.3292 102.688 65.4449C102.688 65.5078 102.708 65.559 102.748 65.5987C102.791 65.6351 102.847 65.6533 102.916 65.6533C103.026 65.6533 103.168 65.5987 103.343 65.4896C103.518 65.3804 103.752 65.139 104.043 64.7653C104.337 64.3883 104.578 64.036 104.767 63.7086C104.959 63.3779 105.162 62.8537 105.377 62.136L105.486 61.759H106.24ZM111.341 61.6399L111.039 63.1629H110.855C110.839 62.7197 110.744 62.3973 110.572 62.1955C110.401 61.9938 110.187 61.8929 109.933 61.8929C109.727 61.8929 109.564 61.9492 109.441 62.0616C109.322 62.1741 109.263 62.3096 109.263 62.4684C109.263 62.5775 109.286 62.6817 109.332 62.7809C109.382 62.8801 109.488 63.0191 109.65 63.1976C110.08 63.6673 110.358 64.0211 110.483 64.2593C110.609 64.4974 110.672 64.7223 110.672 64.9339C110.672 65.2779 110.528 65.5838 110.24 65.8517C109.956 66.1163 109.595 66.2486 109.159 66.2486C108.921 66.2486 108.646 66.1924 108.335 66.0799C108.226 66.0402 108.142 66.0204 108.082 66.0204C107.933 66.0204 107.821 66.0964 107.745 66.2486H107.561L107.864 64.6413H108.047C108.067 65.144 108.171 65.4995 108.36 65.7078C108.548 65.9162 108.806 66.0204 109.134 66.0204C109.385 66.0204 109.584 65.9509 109.729 65.812C109.878 65.6698 109.952 65.4962 109.952 65.2911C109.952 65.1588 109.926 65.0365 109.873 64.924C109.78 64.7256 109.585 64.4511 109.288 64.1005C108.993 63.75 108.803 63.487 108.717 63.3117C108.634 63.1365 108.593 62.9612 108.593 62.7859C108.593 62.4651 108.709 62.1939 108.94 61.9723C109.175 61.7507 109.476 61.6399 109.843 61.6399C109.949 61.6399 110.045 61.6482 110.131 61.6647C110.177 61.6747 110.285 61.7127 110.453 61.7788C110.625 61.8417 110.74 61.8731 110.796 61.8731C110.938 61.8731 111.057 61.7954 111.153 61.6399H111.341ZM115.004 59.6705C115.143 59.6705 115.26 59.7184 115.356 59.8143C115.452 59.9102 115.5 60.0276 115.5 60.1666C115.5 60.3021 115.45 60.4196 115.351 60.5188C115.255 60.6147 115.14 60.6626 115.004 60.6626C114.868 60.6626 114.751 60.6147 114.652 60.5188C114.556 60.4196 114.508 60.3021 114.508 60.1666C114.508 60.0276 114.556 59.9102 114.652 59.8143C114.748 59.7184 114.865 59.6705 115.004 59.6705ZM115.068 61.6399L114.086 65.1175C114.02 65.3523 113.987 65.4929 113.987 65.5392C113.987 65.5921 114.002 65.6351 114.032 65.6682C114.065 65.7012 114.103 65.7178 114.146 65.7178C114.195 65.7178 114.255 65.6913 114.324 65.6384C114.513 65.4896 114.703 65.2779 114.895 65.0034L115.068 65.1175C114.844 65.4615 114.579 65.7508 114.275 65.9857C114.05 66.1609 113.835 66.2486 113.63 66.2486C113.494 66.2486 113.383 66.2089 113.297 66.1295C113.211 66.0468 113.168 65.9443 113.168 65.8219C113.168 65.6996 113.21 65.4962 113.292 65.2118L113.937 62.9893C114.043 62.6255 114.096 62.3973 114.096 62.3047C114.096 62.2319 114.07 62.1724 114.017 62.1261C113.967 62.0798 113.898 62.0566 113.808 62.0566C113.736 62.0566 113.585 62.0748 113.357 62.1112V61.9177L115.068 61.6399ZM120.601 65.048C120.257 65.4615 119.91 65.7657 119.559 65.9608C119.209 66.1527 118.838 66.2486 118.448 66.2486C117.979 66.2486 117.611 66.1163 117.347 65.8517C117.086 65.5871 116.955 65.2316 116.955 64.7851C116.955 64.2791 117.096 63.7814 117.377 63.2919C117.661 62.8024 118.041 62.4056 118.518 62.1013C118.997 61.7937 119.467 61.6399 119.927 61.6399C120.287 61.6399 120.557 61.716 120.735 61.8681C120.914 62.017 121.003 62.2005 121.003 62.4188C121.003 62.6238 120.94 62.7991 120.815 62.9446C120.722 63.0571 120.608 63.1133 120.472 63.1133C120.37 63.1133 120.284 63.0802 120.214 63.0141C120.148 62.9479 120.115 62.8653 120.115 62.766C120.115 62.7032 120.127 62.6453 120.15 62.5924C120.176 62.5395 120.227 62.4767 120.304 62.4039C120.383 62.3278 120.431 62.2733 120.447 62.2402C120.464 62.2071 120.472 62.1724 120.472 62.136C120.472 62.0666 120.441 62.0087 120.378 61.9624C120.282 61.8962 120.146 61.8632 119.971 61.8632C119.647 61.8632 119.326 61.9773 119.009 62.2055C118.691 62.4337 118.42 62.7578 118.195 63.1778C117.924 63.6871 117.788 64.1964 117.788 64.7057C117.788 65.0431 117.884 65.311 118.076 65.5094C118.268 65.7045 118.529 65.8021 118.86 65.8021C119.115 65.8021 119.366 65.7393 119.614 65.6136C119.865 65.4846 120.146 65.2531 120.457 64.9191L120.601 65.048Z" fill="#252C37"/>
<path d="M116.876 10.4228C110.937 10.4228 106.122 15.2376 106.122 21.1769V22.7132H108.427C108.851 22.7132 109.195 23.0572 109.195 23.4813V32.6991C109.195 33.1233 108.851 33.4673 108.427 33.4673H107.658C105.962 33.4673 104.586 32.0917 104.586 30.3947V21.1769C104.586 14.3891 110.088 8.88647 116.876 8.88647C123.664 8.88647 129.167 14.3891 129.167 21.1769V30.3947C129.167 32.0917 127.791 33.4673 126.094 33.4673H125.326C124.902 33.4673 124.558 33.1233 124.558 32.6991V23.4813C124.558 23.0572 124.902 22.7132 125.326 22.7132H127.63V21.1769C127.63 15.2376 122.816 10.4228 116.876 10.4228ZM117.644 21.945C117.644 21.5209 117.3 21.1769 116.876 21.1769C116.452 21.1769 116.108 21.5209 116.108 21.945V32.6991C116.108 33.1233 116.452 33.4673 116.876 33.4673C117.3 33.4673 117.644 33.1233 117.644 32.6991V21.945ZM113.036 24.2495C113.46 24.2495 113.804 24.5935 113.804 25.0176V31.1628C113.804 31.587 113.46 31.931 113.036 31.931C112.611 31.931 112.267 31.587 112.267 31.1628V25.0176C112.267 24.5935 112.611 24.2495 113.036 24.2495ZM121.485 25.0176C121.485 24.5935 121.141 24.2495 120.717 24.2495C120.293 24.2495 119.949 24.5935 119.949 25.0176V31.1628C119.949 31.587 120.293 31.931 120.717 31.931C121.141 31.931 121.485 31.587 121.485 31.1628V25.0176Z" fill="#252C37"/>
<path d="M154.879 41.8411C154.879 27.0172 166.896 15.0001 181.72 15.0001V15.0001C196.544 15.0001 208.561 27.0172 208.561 41.8411V57.1789C208.561 80.4736 189.677 99.3576 166.382 99.3576H154.879V41.8411Z" fill="#FFD54D"/>
<circle cx="193.524" cy="24.1862" r="23.4405" fill="#D9D9D9"/>
<path d="M167.821 59.4026H172.931L172.38 61.1885H172.191C172.254 60.9272 172.286 60.6941 172.286 60.489C172.286 60.2476 172.211 60.0657 172.062 59.9433C171.95 59.8507 171.661 59.8044 171.194 59.8044H170.663L169.334 64.4379C169.165 65.0199 169.081 65.3788 169.081 65.5144C169.081 65.64 169.134 65.7442 169.24 65.8269C169.345 65.9063 169.532 65.946 169.8 65.946H170.028L169.969 66.1295H167.042L167.097 65.946H167.226C167.483 65.946 167.682 65.9046 167.821 65.8219C167.917 65.7657 168.003 65.6648 168.079 65.5193C168.158 65.3705 168.267 65.058 168.406 64.5817L169.8 59.8044H169.398C169.011 59.8044 168.699 59.854 168.461 59.9532C168.226 60.0525 168.036 60.1963 167.89 60.3848C167.745 60.5733 167.626 60.8412 167.533 61.1885H167.35L167.821 59.4026ZM173.071 61.9177L174.782 61.6399L174.068 64.0509C174.647 63.062 175.173 62.3708 175.646 61.9773C175.913 61.7524 176.132 61.6399 176.3 61.6399C176.409 61.6399 176.495 61.673 176.558 61.7391C176.621 61.802 176.653 61.8946 176.653 62.017C176.653 62.2352 176.596 62.4436 176.484 62.642C176.405 62.7909 176.29 62.8653 176.142 62.8653C176.066 62.8653 175.999 62.8405 175.943 62.7909C175.89 62.7412 175.857 62.6652 175.844 62.5627C175.837 62.4998 175.822 62.4585 175.799 62.4386C175.773 62.4122 175.741 62.3989 175.705 62.3989C175.649 62.3989 175.596 62.4122 175.546 62.4386C175.46 62.4849 175.33 62.6139 175.154 62.8256C174.88 63.1497 174.582 63.5697 174.261 64.0856C174.123 64.3039 174.003 64.5503 173.904 64.8248C173.765 65.2018 173.686 65.4284 173.666 65.5044L173.507 66.1295H172.748L173.666 63.0488C173.772 62.6916 173.825 62.437 173.825 62.2848C173.825 62.2253 173.8 62.1757 173.75 62.136C173.684 62.0831 173.597 62.0566 173.488 62.0566C173.418 62.0566 173.291 62.0715 173.106 62.1013L173.071 61.9177ZM182.384 61.6399L181.416 65.0034L181.307 65.4548C181.297 65.4978 181.292 65.5342 181.292 65.564C181.292 65.6169 181.309 65.6632 181.342 65.7029C181.368 65.7326 181.402 65.7475 181.441 65.7475C181.484 65.7475 181.54 65.7211 181.61 65.6682C181.739 65.5722 181.911 65.3738 182.126 65.0729L182.294 65.1919C182.066 65.5359 181.831 65.7988 181.59 65.9807C181.349 66.1593 181.125 66.2486 180.92 66.2486C180.778 66.2486 180.671 66.2122 180.598 66.1394C180.528 66.07 180.494 65.9675 180.494 65.8319C180.494 65.6698 180.53 65.4565 180.603 65.1919L180.707 64.8198C180.274 65.3854 179.875 65.7806 179.511 66.0055C179.25 66.1675 178.994 66.2486 178.742 66.2486C178.501 66.2486 178.293 66.1494 178.117 65.9509C177.942 65.7492 177.854 65.473 177.854 65.1225C177.854 64.5966 178.012 64.0426 178.326 63.4606C178.643 62.8752 179.045 62.4072 179.531 62.0566C179.912 61.7788 180.27 61.6399 180.608 61.6399C180.81 61.6399 180.977 61.6928 181.109 61.7987C181.244 61.9045 181.347 62.0798 181.416 62.3245L181.595 61.759L182.384 61.6399ZM180.618 61.8979C180.406 61.8979 180.181 61.9971 179.943 62.1955C179.606 62.4767 179.305 62.8934 179.04 63.4457C178.779 63.998 178.648 64.4974 178.648 64.9439C178.648 65.1688 178.704 65.3474 178.817 65.4796C178.929 65.6086 179.058 65.6731 179.204 65.6731C179.564 65.6731 179.956 65.4069 180.38 64.8744C180.945 64.1667 181.228 63.4407 181.228 62.6966C181.228 62.4155 181.173 62.2121 181.064 62.0864C180.955 61.9607 180.806 61.8979 180.618 61.8979ZM184.032 61.9475L185.466 61.6399C185.568 61.8847 185.651 62.1344 185.714 62.389C185.803 62.7627 185.876 63.2059 185.932 63.7185C185.959 63.9765 185.995 64.5222 186.041 65.3556C186.455 64.8992 186.701 64.6165 186.78 64.5073C187.217 63.9153 187.468 63.5681 187.535 63.4655C187.644 63.2902 187.72 63.1365 187.763 63.0042C187.799 62.905 187.817 62.8107 187.817 62.7214C187.817 62.6354 187.74 62.5362 187.584 62.4237C187.432 62.3113 187.356 62.1856 187.356 62.0467C187.356 61.9409 187.397 61.8466 187.48 61.764C187.566 61.6813 187.667 61.6399 187.783 61.6399C187.921 61.6399 188.044 61.6978 188.15 61.8136C188.256 61.926 188.308 62.0666 188.308 62.2352C188.308 62.4039 188.282 62.566 188.229 62.7214C188.143 62.9728 187.983 63.2803 187.748 63.6441C187.513 64.0046 187.134 64.4891 186.612 65.0977C186.546 65.1737 186.179 65.5574 185.51 66.2486H185.327C185.248 64.1551 185.082 62.8487 184.831 62.3295C184.748 62.1608 184.611 62.0765 184.419 62.0765C184.336 62.0765 184.219 62.0914 184.067 62.1211L184.032 61.9475ZM190.656 64.2593C190.633 64.4246 190.622 64.5619 190.622 64.671C190.622 64.9654 190.726 65.2167 190.934 65.4251C191.142 65.6301 191.395 65.7326 191.693 65.7326C191.931 65.7326 192.159 65.6847 192.378 65.5888C192.599 65.4896 192.927 65.2729 193.36 64.9389L193.464 65.0828C192.68 65.86 191.933 66.2486 191.222 66.2486C190.739 66.2486 190.375 66.0964 190.13 65.7922C189.886 65.4879 189.763 65.1522 189.763 64.7851C189.763 64.2923 189.915 63.788 190.22 63.2721C190.524 62.7561 190.906 62.3559 191.366 62.0715C191.825 61.7838 192.298 61.6399 192.785 61.6399C193.135 61.6399 193.395 61.711 193.563 61.8532C193.732 61.9955 193.816 62.1641 193.816 62.3593C193.816 62.6338 193.707 62.8967 193.489 63.148C193.201 63.4755 192.778 63.74 192.219 63.9418C191.849 64.0774 191.328 64.1832 190.656 64.2593ZM190.691 64.0162C191.18 63.96 191.579 63.8641 191.887 63.7285C192.293 63.5466 192.598 63.3299 192.799 63.0786C193.004 62.8239 193.107 62.5825 193.107 62.3543C193.107 62.2154 193.062 62.1029 192.973 62.017C192.887 61.931 192.763 61.888 192.601 61.888C192.264 61.888 191.905 62.0682 191.524 62.4287C191.147 62.7859 190.87 63.3151 190.691 64.0162ZM198.099 59.0752L196.402 64.9786C196.32 65.2729 196.278 65.4532 196.278 65.5193C196.278 65.5689 196.293 65.6103 196.323 65.6434C196.356 65.6764 196.396 65.693 196.442 65.693C196.505 65.693 196.573 65.6648 196.645 65.6086C196.817 65.473 196.998 65.263 197.186 64.9786L197.335 65.1324C197.021 65.5756 196.731 65.8848 196.467 66.0601C196.272 66.1857 196.087 66.2486 195.911 66.2486C195.786 66.2486 195.68 66.2056 195.594 66.1196C195.511 66.0336 195.47 65.9344 195.47 65.8219C195.47 65.7029 195.523 65.4581 195.628 65.0877L196.973 60.4344C197.082 60.0541 197.137 59.8358 197.137 59.7796C197.137 59.7002 197.105 59.6357 197.042 59.5861C196.979 59.5332 196.882 59.5068 196.75 59.5068C196.674 59.5068 196.558 59.5183 196.402 59.5415V59.3579L198.099 59.0752Z" fill="#252C37"/>
<g clip-path="url(#clip1_260_1811)">
<path d="M191.435 18.7155L187.711 8.48309L190.501 7.46747L197.016 16.6838L191.435 18.7155Z" fill="#D9D9D9"/>
<path d="M180.061 20.7482L202.421 12.6099C202.7 12.5084 202.998 12.4708 203.294 12.5001C203.589 12.5294 203.874 12.6248 204.128 12.7792L206.022 13.9329C206.515 13.7532 207.06 13.777 207.536 13.9988C208.012 14.2206 208.38 14.6224 208.56 15.1158C208.739 15.6091 208.715 16.1536 208.493 16.6294C208.271 17.1051 207.869 17.4733 207.376 17.6529L191.563 23.409L181.076 23.5392L180.061 20.7482Z" fill="#D9D9D9"/>
<path d="M180.061 20.7483L178.368 16.0973L180.228 15.4202L183.781 19.3941L180.061 20.7483Z" fill="#D9D9D9"/>
<path d="M192.112 20.5755L195.836 30.8079L198.627 29.7923L197.693 18.5443L192.112 20.5755Z" fill="#D9D9D9"/>
<path d="M180.16 37.4506C180.707 37.4506 181.15 37.0074 181.15 36.4607C181.15 35.914 180.707 35.4708 180.16 35.4708C179.614 35.4708 179.17 35.914 179.17 36.4607C179.17 37.0074 179.614 37.4506 180.16 37.4506Z" fill="#EFBC2E"/>
<path d="M191.544 29.0365C192.091 29.0365 192.534 28.5933 192.534 28.0466C192.534 27.4999 192.091 27.0568 191.544 27.0568C190.997 27.0568 190.554 27.4999 190.554 28.0466C190.554 28.5933 190.997 29.0365 191.544 29.0365Z" fill="#EFBC2E"/>
<path d="M209.024 14.9421C208.807 14.3713 208.389 13.8991 207.849 13.614C207.309 13.329 206.684 13.2505 206.09 13.3934L204.386 12.354C204.069 12.162 203.713 12.0434 203.344 12.0071C202.975 11.9708 202.603 12.0176 202.254 12.1442L196.022 14.412L190.903 7.1809C190.841 7.09235 190.751 7.02684 190.647 6.99447C190.544 6.9621 190.432 6.96465 190.33 7.00173L187.544 8.01686C187.483 8.03898 187.427 8.07293 187.378 8.11676C187.33 8.1606 187.292 8.21347 187.264 8.27235C187.236 8.33122 187.221 8.39496 187.218 8.45991C187.215 8.52486 187.225 8.58975 187.247 8.65088L190.121 16.5586L183.925 18.813L180.597 15.0906C180.532 15.0173 180.445 14.9653 180.35 14.9412C180.254 14.9171 180.154 14.9221 180.061 14.9555L178.199 15.6325C178.138 15.6547 178.081 15.6886 178.033 15.7324C177.985 15.7763 177.947 15.8291 177.919 15.888C177.891 15.9469 177.876 16.0106 177.873 16.0756C177.87 16.1405 177.88 16.2054 177.902 16.2666L180.611 23.707C180.645 23.8025 180.709 23.885 180.792 23.9432C180.875 24.0015 180.974 24.0327 181.076 24.0327H181.082L191.57 23.904C191.626 23.9031 191.681 23.8929 191.734 23.8738L192.663 23.5348L195.371 30.9767C195.393 31.0379 195.427 31.0942 195.471 31.1422C195.515 31.1903 195.568 31.2292 195.627 31.2568C195.685 31.2844 195.749 31.3001 195.814 31.303C195.879 31.3059 195.944 31.2959 196.005 31.2737L198.796 30.2576C198.898 30.2205 198.985 30.1509 199.043 30.0595C199.102 29.9681 199.129 29.8599 199.12 29.7518L198.427 21.4367L207.544 18.1167C207.85 18.0054 208.13 17.8349 208.37 17.615C208.61 17.3951 208.804 17.1301 208.941 16.8352C209.078 16.5402 209.156 16.2211 209.17 15.8961C209.184 15.5711 209.133 15.2466 209.021 14.9411L209.024 14.9421ZM188.347 8.77759L190.314 8.0614L195.058 14.7629L191.053 16.22L188.347 8.77759ZM180.358 20.1123L179.002 16.3933L180.083 16.0003L182.924 19.1778L180.358 20.1123ZM196.132 30.1749L192.746 20.87L197.253 19.2293L198.102 29.4548L196.132 30.1749ZM207.208 17.1881L198.345 20.4157L198.186 18.5037C198.18 18.4278 198.156 18.3544 198.117 18.2892C198.078 18.2239 198.024 18.1686 197.96 18.1275C197.896 18.0866 197.823 18.0609 197.748 18.0523C197.672 18.0438 197.595 18.0525 197.524 18.078L191.943 20.1073C191.882 20.1294 191.825 20.1634 191.777 20.2073C191.729 20.2511 191.69 20.3041 191.663 20.363C191.635 20.4219 191.62 20.4857 191.617 20.5507C191.614 20.6157 191.624 20.6807 191.646 20.7418L192.323 22.6018L191.472 22.9121L181.42 23.0354L180.695 21.0423L202.591 13.0737C202.8 12.9974 203.024 12.9689 203.246 12.9905C203.468 13.0121 203.682 13.0831 203.872 13.1984L204.347 13.488L202.893 14.0165L203.232 14.947L205.429 14.1477L205.763 14.3516C205.826 14.39 205.897 14.4139 205.97 14.4216C206.043 14.4292 206.117 14.4203 206.187 14.3957C206.37 14.3286 206.565 14.2983 206.76 14.3065C206.955 14.3147 207.146 14.3612 207.323 14.4434C207.5 14.5256 207.659 14.6418 207.791 14.7855C207.923 14.9291 208.026 15.0974 208.093 15.2806C208.16 15.4639 208.19 15.6586 208.182 15.8535C208.174 16.0485 208.127 16.2399 208.045 16.4169C207.963 16.5939 207.847 16.753 207.703 16.8851C207.559 17.0171 207.391 17.1196 207.208 17.1867V17.1881Z" fill="#252C37"/>
<path d="M200.567 14.8649L199.637 15.2031L199.976 16.1333L200.905 15.7951L200.567 14.8649Z" fill="#252C37"/>
<path d="M198.707 15.5417L197.777 15.8799L198.115 16.8101L199.045 16.4719L198.707 15.5417Z" fill="#252C37"/>
<path d="M196.847 16.2193L195.917 16.5575L196.255 17.4878L197.185 17.1496L196.847 16.2193Z" fill="#252C37"/>
<path d="M194.986 16.8962L194.057 17.2344L194.395 18.1646L195.325 17.8264L194.986 16.8962Z" fill="#252C37"/>
<path d="M193.126 17.5735L192.196 17.9117L192.534 18.8419L193.464 18.5037L193.126 17.5735Z" fill="#252C37"/>
<path d="M191.265 18.2507L190.336 18.5889L190.674 19.5192L191.604 19.181L191.265 18.2507Z" fill="#252C37"/>
<path d="M189.405 18.9276L188.475 19.2657L188.813 20.196L189.743 19.8578L189.405 18.9276Z" fill="#252C37"/>
<path d="M187.545 19.6043L186.615 19.9431L186.954 20.8732L187.884 20.5344L187.545 19.6043Z" fill="#252C37"/>
<path d="M185.684 20.2818L184.754 20.6206L185.093 21.5507L186.023 21.2119L185.684 20.2818Z" fill="#252C37"/>
<path d="M187.089 28.5415H190.15C190.267 28.8718 190.497 29.1501 190.799 29.3273C191.101 29.5046 191.456 29.5693 191.801 29.51C192.146 29.4508 192.46 29.2714 192.685 29.0036C192.911 28.7358 193.035 28.3969 193.035 28.0466C193.035 27.6963 192.911 27.3573 192.685 27.0895C192.46 26.8217 192.146 26.6424 191.801 26.5832C191.456 26.5239 191.101 26.5886 190.799 26.7659C190.497 26.9431 190.267 27.2214 190.15 27.5517H187.089C186.302 27.5517 185.547 27.8645 184.99 28.4214C184.433 28.9784 184.12 29.7337 184.12 30.5213C184.12 31.3089 184.433 32.0643 184.99 32.6212C185.547 33.1781 186.302 33.491 187.089 33.491H195.503V32.5011H187.089C186.564 32.5011 186.061 32.2925 185.69 31.9212C185.318 31.5499 185.11 31.0464 185.11 30.5213C185.11 29.9962 185.318 29.4927 185.69 29.1214C186.061 28.7501 186.564 28.5415 187.089 28.5415ZM191.544 27.5517C191.642 27.5517 191.738 27.5807 191.819 27.6351C191.9 27.6895 191.964 27.7668 192.001 27.8572C192.039 27.9476 192.048 28.0471 192.029 28.1432C192.01 28.2392 191.963 28.3274 191.894 28.3966C191.825 28.4658 191.737 28.5129 191.641 28.532C191.544 28.5511 191.445 28.5413 191.355 28.5039C191.264 28.4664 191.187 28.403 191.132 28.3216C191.078 28.2402 191.049 28.1445 191.049 28.0466C191.049 27.9153 191.101 27.7894 191.194 27.6966C191.287 27.6038 191.413 27.5517 191.544 27.5517Z" fill="#252C37"/>
<path d="M197.483 32.5011H196.493V33.491H197.483V32.5011Z" fill="#252C37"/>
<path d="M202.68 32.5011H198.473V33.491H202.68C203.008 33.491 203.323 33.6213 203.555 33.8534C203.787 34.0854 203.918 34.4002 203.918 34.7283C203.918 35.0565 203.787 35.3712 203.555 35.6033C203.323 35.8353 203.008 35.9657 202.68 35.9657H187.089V36.9556H202.68C203.271 36.9556 203.837 36.7209 204.255 36.3032C204.673 35.8855 204.907 35.319 204.907 34.7283C204.907 34.1376 204.673 33.5711 204.255 33.1534C203.837 32.7358 203.271 32.5011 202.68 32.5011Z" fill="#252C37"/>
<path d="M180.16 34.9758C179.888 34.9747 179.62 35.0486 179.387 35.1894C179.154 35.3301 178.964 35.5324 178.838 35.774C178.712 36.0156 178.655 36.2872 178.673 36.5591C178.691 36.8309 178.783 37.0926 178.94 37.3154C179.097 37.5382 179.312 37.7136 179.562 37.8222C179.812 37.9309 180.087 37.9688 180.357 37.9316C180.627 37.8945 180.881 37.7837 181.092 37.6116C181.303 37.4395 181.463 37.2125 181.554 36.9556H186.1V35.9657H181.554C181.452 35.6772 181.263 35.4273 181.014 35.2501C180.764 35.0729 180.466 34.9771 180.16 34.9758ZM180.16 36.9556C180.062 36.9556 179.967 36.9266 179.885 36.8722C179.804 36.8178 179.74 36.7405 179.703 36.6501C179.666 36.5596 179.656 36.4601 179.675 36.3641C179.694 36.2681 179.741 36.1799 179.81 36.1107C179.88 36.0415 179.968 35.9943 180.064 35.9752C180.16 35.9561 180.259 35.9659 180.35 36.0034C180.44 36.0409 180.517 36.1043 180.572 36.1857C180.626 36.2671 180.655 36.3628 180.655 36.4607C180.655 36.5919 180.603 36.7178 180.51 36.8106C180.417 36.9035 180.292 36.9556 180.16 36.9556Z" fill="#252C37"/>
</g>
<path d="M232.318 41.8411C232.318 27.0172 244.335 15.0001 259.159 15.0001V15.0001C273.983 15.0001 286 27.0172 286 41.8411V57.1789C286 80.4736 267.116 99.3576 243.821 99.3576H232.318V41.8411Z" fill="#FFD54D"/>
<circle cx="270.963" cy="24.1862" r="23.4405" fill="#D9D9D9"/>
<path d="M251.195 52.1093L251.254 51.9258H253.402C254.312 51.9258 254.985 52.03 255.421 52.2383C255.861 52.4467 256.212 52.7757 256.473 53.2255C256.734 53.672 256.865 54.1515 256.865 54.6642C256.865 55.104 256.789 55.5323 256.637 55.949C256.488 56.3624 256.318 56.6948 256.126 56.9462C255.937 57.1942 255.646 57.4687 255.253 57.7697C254.859 58.0706 254.432 58.2939 253.973 58.4394C253.513 58.5816 252.939 58.6527 252.251 58.6527H249.404L249.468 58.4692C249.73 58.4625 249.905 58.4394 249.994 58.3997C250.126 58.3435 250.224 58.2674 250.287 58.1715C250.383 58.0326 250.49 57.7531 250.609 57.3331L251.8 53.2652C251.892 52.9444 251.939 52.6931 251.939 52.5112C251.939 52.3822 251.896 52.283 251.81 52.2135C251.724 52.1441 251.555 52.1093 251.304 52.1093H251.195ZM252.956 52.2978L251.497 57.3331C251.388 57.7101 251.334 57.9433 251.334 58.0326C251.334 58.0855 251.35 58.1368 251.383 58.1864C251.42 58.236 251.467 58.2691 251.527 58.2856C251.613 58.3154 251.752 58.3303 251.944 58.3303C252.463 58.3303 252.944 58.2773 253.387 58.1715C253.834 58.0624 254.199 57.902 254.484 57.6903C254.887 57.3827 255.21 56.9594 255.451 56.4203C255.693 55.8812 255.813 55.2677 255.813 54.5798C255.813 53.8026 255.628 53.2255 255.258 52.8485C254.887 52.4682 254.346 52.278 253.635 52.278C253.46 52.278 253.234 52.2846 252.956 52.2978ZM262.933 54.1631L261.966 57.5266L261.857 57.978C261.847 58.021 261.842 58.0574 261.842 58.0872C261.842 58.1401 261.859 58.1864 261.892 58.2261C261.918 58.2558 261.951 58.2707 261.991 58.2707C262.034 58.2707 262.09 58.2443 262.16 58.1913C262.289 58.0954 262.461 57.897 262.675 57.596L262.844 57.7151C262.616 58.0591 262.381 58.322 262.14 58.5039C261.898 58.6825 261.675 58.7718 261.47 58.7718C261.328 58.7718 261.22 58.7354 261.148 58.6626C261.078 58.5932 261.043 58.4907 261.043 58.3551C261.043 58.193 261.08 57.9797 261.153 57.7151L261.257 57.343C260.823 57.9086 260.425 58.3038 260.061 58.5287C259.8 58.6907 259.544 58.7718 259.292 58.7718C259.051 58.7718 258.842 58.6726 258.667 58.4741C258.492 58.2724 258.404 57.9962 258.404 57.6457C258.404 57.1198 258.561 56.5658 258.875 55.9838C259.193 55.3984 259.595 54.9304 260.081 54.5798C260.461 54.302 260.82 54.1631 261.157 54.1631C261.359 54.1631 261.526 54.216 261.659 54.3219C261.794 54.4277 261.897 54.603 261.966 54.8477L262.145 54.2822L262.933 54.1631ZM261.167 54.4211C260.956 54.4211 260.731 54.5203 260.493 54.7187C260.155 54.9999 259.854 55.4166 259.59 55.9689C259.329 56.5212 259.198 57.0206 259.198 57.4671C259.198 57.692 259.254 57.8705 259.367 58.0028C259.479 58.1318 259.608 58.1963 259.754 58.1963C260.114 58.1963 260.506 57.9301 260.929 57.3976C261.495 56.6899 261.778 55.9639 261.778 55.2198C261.778 54.9387 261.723 54.7353 261.614 54.6096C261.505 54.4839 261.356 54.4211 261.167 54.4211ZM265.986 54.1631C266.098 54.3549 266.176 54.5352 266.219 54.7039C266.262 54.8692 266.305 55.1966 266.348 55.6861L266.566 58.1269C266.765 57.8887 267.052 57.5117 267.429 56.9958C267.611 56.7444 267.836 56.4021 268.104 55.9689C268.266 55.7043 268.365 55.5191 268.402 55.4133C268.422 55.3603 268.431 55.3058 268.431 55.2496C268.431 55.2132 268.42 55.1834 268.397 55.1603C268.374 55.1371 268.312 55.1106 268.213 55.0809C268.117 55.0478 268.036 54.9899 267.97 54.9073C267.907 54.8213 267.876 54.7237 267.876 54.6146C267.876 54.479 267.916 54.3698 267.995 54.2871C268.074 54.2045 268.174 54.1631 268.293 54.1631C268.438 54.1631 268.562 54.2243 268.665 54.3467C268.767 54.4657 268.818 54.6311 268.818 54.8428C268.818 55.104 268.729 55.4033 268.551 55.7407C268.372 56.0747 268.028 56.589 267.519 57.2835C267.009 57.978 266.393 58.7354 265.668 59.5556C265.169 60.1211 264.798 60.4767 264.557 60.6222C264.316 60.771 264.109 60.8454 263.937 60.8454C263.834 60.8454 263.745 60.8057 263.669 60.7264C263.59 60.6503 263.55 60.561 263.55 60.4585C263.55 60.3295 263.605 60.2121 263.714 60.1062C263.82 60.0004 263.935 59.9475 264.061 59.9475C264.127 59.9475 264.182 59.9624 264.225 59.9921C264.251 60.0087 264.281 60.055 264.314 60.131C264.344 60.2104 264.372 60.2633 264.398 60.2898C264.415 60.3063 264.435 60.3146 264.458 60.3146C264.478 60.3146 264.512 60.2981 264.562 60.265C264.744 60.1525 264.956 59.974 265.197 59.7292C265.514 59.4051 265.749 59.1405 265.901 58.9355L265.624 55.7903C265.577 55.2711 265.508 54.9552 265.415 54.8428C265.323 54.7303 265.167 54.6741 264.949 54.6741C264.88 54.6741 264.755 54.684 264.577 54.7039L264.532 54.5203L265.986 54.1631ZM236.445 64.1093L236.505 63.9258H238.653C239.562 63.9258 240.235 64.03 240.672 64.2383C241.112 64.4467 241.462 64.7757 241.723 65.2255C241.985 65.672 242.115 66.1515 242.115 66.6642C242.115 67.104 242.039 67.5323 241.887 67.949C241.738 68.3624 241.568 68.6948 241.376 68.9462C241.188 69.1942 240.897 69.4687 240.503 69.7697C240.109 70.0706 239.683 70.2939 239.223 70.4394C238.763 70.5816 238.19 70.6527 237.502 70.6527H234.654L234.719 70.4692C234.98 70.4625 235.155 70.4394 235.244 70.3997C235.377 70.3435 235.474 70.2674 235.537 70.1715C235.633 70.0326 235.741 69.7531 235.86 69.3331L237.05 65.2652C237.143 64.9444 237.189 64.6931 237.189 64.5112C237.189 64.3822 237.146 64.283 237.06 64.2135C236.974 64.1441 236.805 64.1093 236.554 64.1093H236.445ZM238.206 64.2978L236.748 69.3331C236.638 69.7101 236.584 69.9433 236.584 70.0326C236.584 70.0855 236.6 70.1368 236.634 70.1864C236.67 70.236 236.718 70.2691 236.777 70.2856C236.863 70.3154 237.002 70.3303 237.194 70.3303C237.713 70.3303 238.195 70.2773 238.638 70.1715C239.084 70.0624 239.45 69.902 239.734 69.6903C240.138 69.3827 240.46 68.9594 240.701 68.4203C240.943 67.8812 241.064 67.2677 241.064 66.5798C241.064 65.8026 240.878 65.2255 240.508 64.8485C240.138 64.4682 239.597 64.278 238.886 64.278C238.71 64.278 238.484 64.2846 238.206 64.2978ZM243.947 66.4409L245.659 66.1631L244.944 68.5741C245.523 67.5852 246.049 66.894 246.522 66.5005C246.79 66.2756 247.008 66.1631 247.177 66.1631C247.286 66.1631 247.372 66.1962 247.435 66.2623C247.498 66.3252 247.529 66.4178 247.529 66.5401C247.529 66.7584 247.473 66.9668 247.36 67.1652C247.281 67.314 247.167 67.3885 247.018 67.3885C246.942 67.3885 246.876 67.3637 246.82 67.314C246.767 67.2644 246.734 67.1884 246.72 67.0858C246.714 67.023 246.699 66.9817 246.676 66.9618C246.649 66.9354 246.618 66.9221 246.581 66.9221C246.525 66.9221 246.472 66.9354 246.423 66.9618C246.337 67.0081 246.206 67.1371 246.031 67.3488C245.756 67.6729 245.459 68.0929 245.138 68.6088C244.999 68.8271 244.88 69.0735 244.781 69.348C244.642 69.725 244.562 69.9516 244.543 70.0276L244.384 70.6527H243.625L244.543 67.572C244.648 67.2148 244.701 66.9602 244.701 66.808C244.701 66.7485 244.676 66.6989 244.627 66.6592C244.561 66.6063 244.473 66.5798 244.364 66.5798C244.294 66.5798 244.167 66.5947 243.982 66.6245L243.947 66.4409ZM249.326 68.7825C249.303 68.9478 249.291 69.0851 249.291 69.1942C249.291 69.4886 249.396 69.7399 249.604 69.9483C249.812 70.1533 250.065 70.2558 250.363 70.2558C250.601 70.2558 250.829 70.2079 251.048 70.112C251.269 70.0128 251.597 69.7961 252.03 69.4621L252.134 69.606C251.35 70.3832 250.603 70.7718 249.892 70.7718C249.409 70.7718 249.045 70.6196 248.8 70.3154C248.556 70.0111 248.433 69.6754 248.433 69.3083C248.433 68.8155 248.585 68.3112 248.89 67.7952C249.194 67.2793 249.576 66.8791 250.036 66.5947C250.495 66.307 250.968 66.1631 251.454 66.1631C251.805 66.1631 252.065 66.2342 252.233 66.3764C252.402 66.5187 252.486 66.6873 252.486 66.8824C252.486 67.157 252.377 67.4199 252.159 67.6712C251.871 67.9986 251.448 68.2632 250.889 68.465C250.518 68.6006 249.998 68.7064 249.326 68.7825ZM249.361 68.5394C249.85 68.4832 250.249 68.3872 250.556 68.2516C250.963 68.0698 251.268 67.8531 251.469 67.6018C251.674 67.3471 251.777 67.1057 251.777 66.8775C251.777 66.7386 251.732 66.6261 251.643 66.5401C251.557 66.4542 251.433 66.4112 251.271 66.4112C250.934 66.4112 250.575 66.5914 250.194 66.9519C249.817 67.3091 249.54 67.8382 249.361 68.5394ZM258.515 66.1631L257.548 69.5266L257.439 69.978C257.429 70.021 257.424 70.0574 257.424 70.0872C257.424 70.1401 257.44 70.1864 257.473 70.2261C257.5 70.2558 257.533 70.2707 257.573 70.2707C257.616 70.2707 257.672 70.2443 257.741 70.1913C257.87 70.0954 258.042 69.897 258.257 69.596L258.426 69.7151C258.198 70.0591 257.963 70.322 257.721 70.5039C257.48 70.6825 257.257 70.7718 257.052 70.7718C256.909 70.7718 256.802 70.7354 256.729 70.6626C256.66 70.5932 256.625 70.4907 256.625 70.3551C256.625 70.193 256.661 69.9797 256.734 69.7151L256.838 69.343C256.405 69.9086 256.007 70.3038 255.643 70.5287C255.381 70.6907 255.125 70.7718 254.874 70.7718C254.632 70.7718 254.424 70.6726 254.249 70.4741C254.073 70.2724 253.986 69.9962 253.986 69.6457C253.986 69.1198 254.143 68.5658 254.457 67.9838C254.775 67.3984 255.176 66.9304 255.663 66.5798C256.043 66.302 256.402 66.1631 256.739 66.1631C256.941 66.1631 257.108 66.216 257.24 66.3219C257.376 66.4277 257.478 66.603 257.548 66.8477L257.726 66.2822L258.515 66.1631ZM256.749 66.4211C256.537 66.4211 256.312 66.5203 256.074 66.7187C255.737 66.9999 255.436 67.4166 255.171 67.9689C254.91 68.5212 254.78 69.0206 254.78 69.4671C254.78 69.692 254.836 69.8705 254.948 70.0028C255.061 70.1318 255.19 70.1963 255.335 70.1963C255.696 70.1963 256.088 69.9301 256.511 69.3976C257.076 68.6899 257.359 67.9639 257.359 67.2198C257.359 66.9387 257.305 66.7353 257.196 66.6096C257.086 66.4839 256.938 66.4211 256.749 66.4211ZM262.148 66.1631L261.503 68.4005C261.791 67.8746 262.035 67.4794 262.237 67.2148C262.551 66.8047 262.857 66.5071 263.155 66.3219C263.33 66.216 263.514 66.1631 263.706 66.1631C263.871 66.1631 264.008 66.216 264.117 66.3219C264.226 66.4277 264.281 66.5633 264.281 66.7287C264.281 66.8907 264.243 67.1024 264.167 67.3637L263.815 68.6237C264.354 67.615 264.865 66.9073 265.348 66.5005C265.615 66.2756 265.88 66.1631 266.141 66.1631C266.293 66.1631 266.418 66.216 266.513 66.3219C266.613 66.4244 266.662 66.5848 266.662 66.8031C266.662 66.9949 266.632 67.1983 266.573 67.4133L266.027 69.343C265.908 69.7631 265.849 69.9962 265.849 70.0425C265.849 70.0888 265.864 70.1285 265.893 70.1616C265.913 70.1847 265.94 70.1963 265.973 70.1963C266.006 70.1963 266.064 70.1649 266.146 70.1021C266.335 69.9565 266.512 69.7647 266.677 69.5266L266.841 69.6308C266.758 69.7631 266.611 69.945 266.399 70.1765C266.191 70.408 266.012 70.5651 265.864 70.6477C265.715 70.7304 265.577 70.7718 265.452 70.7718C265.336 70.7718 265.238 70.7321 265.159 70.6527C265.083 70.5733 265.045 70.4758 265.045 70.36C265.045 70.2013 265.113 69.8821 265.248 69.4026L265.7 67.8101C265.802 67.443 265.857 67.2396 265.864 67.1999C265.873 67.1371 265.878 67.0759 265.878 67.0164C265.878 66.9337 265.86 66.8692 265.824 66.8229C265.784 66.7766 265.74 66.7535 265.69 66.7535C265.551 66.7535 265.404 66.8246 265.248 66.9668C264.792 67.3868 264.365 67.9755 263.968 68.7329C263.707 69.2322 263.462 69.8722 263.234 70.6527H262.485L263.333 67.6514C263.426 67.3273 263.472 67.1106 263.472 67.0015C263.472 66.9122 263.454 66.8461 263.418 66.8031C263.381 66.7601 263.337 66.7386 263.284 66.7386C263.175 66.7386 263.059 66.7783 262.937 66.8576C262.738 66.9866 262.482 67.2628 262.168 67.6861C261.857 68.1094 261.615 68.5146 261.443 68.9015C261.361 69.0834 261.164 69.6672 260.853 70.6527H260.119L261.037 67.4381L261.156 67.0214C261.179 66.9585 261.19 66.9122 261.19 66.8824C261.19 66.8097 261.157 66.7452 261.091 66.689C261.025 66.6294 260.941 66.5997 260.838 66.5997C260.795 66.5997 260.676 66.6195 260.481 66.6592L260.436 66.4757L262.148 66.1631ZM270.677 64.1937C270.816 64.1937 270.933 64.2416 271.029 64.3375C271.125 64.4334 271.173 64.5508 271.173 64.6897C271.173 64.8253 271.123 64.9428 271.024 65.042C270.928 65.1379 270.813 65.1858 270.677 65.1858C270.541 65.1858 270.424 65.1379 270.325 65.042C270.229 64.9428 270.181 64.8253 270.181 64.6897C270.181 64.5508 270.229 64.4334 270.325 64.3375C270.421 64.2416 270.538 64.1937 270.677 64.1937ZM270.741 66.1631L269.759 69.6407C269.693 69.8755 269.66 70.0161 269.66 70.0624C269.66 70.1153 269.675 70.1583 269.705 70.1913C269.738 70.2244 269.776 70.241 269.819 70.241C269.868 70.241 269.928 70.2145 269.997 70.1616C270.186 70.0128 270.376 69.8011 270.568 69.5266L270.741 69.6407C270.517 69.9846 270.252 70.274 269.948 70.5088C269.723 70.6841 269.508 70.7718 269.303 70.7718C269.167 70.7718 269.056 70.7321 268.97 70.6527C268.884 70.57 268.841 70.4675 268.841 70.3451C268.841 70.2228 268.883 70.0194 268.965 69.7349L269.61 67.5125C269.716 67.1487 269.769 66.9205 269.769 66.8279C269.769 66.7551 269.743 66.6956 269.69 66.6493C269.64 66.603 269.571 66.5798 269.481 66.5798C269.409 66.5798 269.258 66.598 269.03 66.6344V66.4409L270.741 66.1631ZM274.592 66.1631L273.933 68.4203C274.551 67.4976 275.024 66.8907 275.351 66.5997C275.682 66.3086 276 66.1631 276.304 66.1631C276.469 66.1631 276.605 66.2177 276.711 66.3268C276.82 66.436 276.874 66.5782 276.874 66.7535C276.874 66.9519 276.827 67.2165 276.731 67.5472L276.125 69.6357C276.056 69.8772 276.021 70.0243 276.021 70.0772C276.021 70.1236 276.034 70.1632 276.061 70.1963C276.087 70.2261 276.115 70.241 276.145 70.241C276.185 70.241 276.233 70.2195 276.289 70.1765C276.464 70.0376 276.656 69.8259 276.865 69.5415L277.018 69.6357C276.711 70.0756 276.42 70.3898 276.145 70.5783C275.953 70.7073 275.781 70.7718 275.629 70.7718C275.507 70.7718 275.409 70.7337 275.337 70.6577C275.264 70.5849 275.227 70.4857 275.227 70.36C275.227 70.2013 275.284 69.9284 275.396 69.5415L275.972 67.5472C276.044 67.2992 276.081 67.1057 276.081 66.9668C276.081 66.9006 276.059 66.8477 276.016 66.808C275.973 66.765 275.92 66.7435 275.858 66.7435C275.765 66.7435 275.654 66.7832 275.525 66.8626C275.28 67.0114 275.026 67.2578 274.761 67.6018C274.497 67.9424 274.217 68.379 273.923 68.9114C273.767 69.1926 273.638 69.5001 273.536 69.8342L273.288 70.6527H272.544L273.447 67.5472C273.552 67.1735 273.605 66.9486 273.605 66.8725C273.605 66.7998 273.576 66.7369 273.516 66.684C273.46 66.6278 273.389 66.5997 273.303 66.5997C273.263 66.5997 273.194 66.6063 273.094 66.6195L272.906 66.6493L272.876 66.4707L274.592 66.1631ZM283.841 66.4707L283.697 66.9866H282.869C282.931 67.1652 282.963 67.3322 282.963 67.4877C282.963 67.9242 282.778 68.3128 282.407 68.6535C282.034 68.9941 281.521 69.1826 280.869 69.219C280.519 69.3249 280.256 69.4505 280.081 69.596C280.014 69.649 279.981 69.7035 279.981 69.7598C279.981 69.8259 280.011 69.8871 280.071 69.9433C280.13 69.9962 280.281 70.0508 280.522 70.107L281.485 70.3303C282.017 70.4559 282.369 70.6048 282.541 70.7767C282.71 70.952 282.794 71.1538 282.794 71.382C282.794 71.6532 282.693 71.9012 282.492 72.1261C282.293 72.351 282 72.5263 281.614 72.6519C281.23 72.7809 280.805 72.8454 280.339 72.8454C279.928 72.8454 279.555 72.7958 279.217 72.6966C278.88 72.6007 278.639 72.47 278.493 72.3047C278.348 72.1393 278.275 71.969 278.275 71.7937C278.275 71.6515 278.323 71.5027 278.419 71.3472C278.511 71.1951 278.629 71.0694 278.771 70.9702C278.86 70.9074 279.113 70.7585 279.53 70.5237C279.378 70.4047 279.302 70.274 279.302 70.1318C279.302 69.9995 279.368 69.859 279.5 69.7101C279.636 69.5613 279.92 69.3976 280.353 69.219C279.99 69.1496 279.7 68.9974 279.485 68.7626C279.274 68.5278 279.168 68.2665 279.168 67.9788C279.168 67.5092 279.373 67.0892 279.783 66.7187C280.196 66.3483 280.745 66.1631 281.43 66.1631C281.678 66.1631 281.881 66.1879 282.04 66.2375C282.199 66.2871 282.353 66.3649 282.501 66.4707H283.841ZM282.12 67.2496C282.12 66.985 282.045 66.7766 281.896 66.6245C281.751 66.4724 281.559 66.3963 281.321 66.3963C280.947 66.3963 280.638 66.5848 280.393 66.9618C280.152 67.3355 280.031 67.7258 280.031 68.1326C280.031 68.3872 280.109 68.5956 280.264 68.7577C280.42 68.9197 280.608 69.0007 280.83 69.0007C281.005 69.0007 281.174 68.9528 281.336 68.8569C281.501 68.761 281.64 68.6287 281.752 68.46C281.865 68.2913 281.954 68.0764 282.02 67.8151C282.086 67.5538 282.12 67.3653 282.12 67.2496ZM279.743 70.6527C279.475 70.7751 279.272 70.9322 279.133 71.124C278.997 71.3158 278.93 71.5043 278.93 71.6895C278.93 71.9078 279.029 72.0881 279.227 72.2303C279.512 72.4353 279.928 72.5378 280.477 72.5378C280.95 72.5378 281.354 72.4568 281.688 72.2948C282.025 72.136 282.194 71.9293 282.194 71.6746C282.194 71.5457 282.131 71.4233 282.005 71.3075C281.883 71.1918 281.643 71.0975 281.286 71.0248C281.091 70.9851 280.577 70.8611 279.743 70.6527Z" fill="#252C37"/>
<path d="M285.128 25.0255C285.128 23.609 284.236 22.4023 283.03 21.8777C283.502 21.4055 283.817 20.7235 283.817 19.989C283.817 18.52 282.61 17.3133 281.141 17.3133C281.036 17.3133 280.931 17.3133 280.879 17.3133C281.036 16.9461 281.141 16.5264 281.141 16.1067C281.141 14.6377 279.934 13.431 278.465 13.431C277.993 13.431 277.573 13.5359 277.206 13.7458C276.839 12.6965 275.842 11.8046 274.688 11.8046C273.219 11.8046 272.065 13.1687 272.012 14.218V32.5803H272.065C272.065 34.469 273.586 35.938 275.475 35.938C277.154 35.938 278.518 34.7313 278.833 33.1574C279.147 33.2623 279.515 33.3148 279.882 33.3148C281.771 33.3148 283.292 31.7934 283.292 29.9047C283.292 29.3276 283.135 28.7505 282.872 28.2258C284.131 27.8061 285.128 26.547 285.128 25.0255Z" fill="#D9D9D9"/>
<path d="M256.798 25.0255C256.798 23.609 257.69 22.4023 258.896 21.8777C258.424 21.4055 258.109 20.7235 258.109 19.989C258.109 18.52 259.316 17.3133 260.785 17.3133C260.89 17.3133 260.995 17.3133 261.047 17.3133C260.89 16.9461 260.785 16.5264 260.785 16.1067C260.785 14.6377 261.992 13.431 263.461 13.431C263.933 13.431 264.353 13.5359 264.72 13.7458C265.087 12.6965 266.084 11.8046 267.238 11.8046C268.707 11.8046 269.861 13.1687 269.914 14.218V32.5803H269.861C269.861 34.469 268.34 35.938 266.451 35.938C264.772 35.938 263.408 34.7313 263.093 33.1574C262.779 33.2623 262.411 33.3148 262.044 33.3148C260.155 33.3148 258.634 31.7934 258.634 29.9047C258.634 29.3276 258.791 28.7505 259.054 28.2258C257.795 27.8061 256.798 26.547 256.798 25.0255Z" fill="#D9D9D9"/>
<path d="M285.128 25.0255C285.128 23.609 284.236 22.4023 283.03 21.8777C283.502 21.4055 283.817 20.7235 283.817 19.989C283.817 18.52 282.61 17.3133 281.141 17.3133C281.036 17.3133 280.931 17.3133 280.879 17.3133C281.036 16.9461 281.141 16.5264 281.141 16.1067C281.141 14.6377 279.934 13.431 278.465 13.431C277.993 13.431 277.573 13.5359 277.206 13.7458C276.839 12.6965 275.842 11.8046 274.688 11.8046C273.219 11.8046 272.065 13.1687 272.012 14.218V32.5803H272.065C272.065 34.469 273.586 35.938 275.475 35.938C277.154 35.938 278.518 34.7313 278.833 33.1574C279.147 33.2623 279.515 33.3148 279.882 33.3148C281.771 33.3148 283.292 31.7934 283.292 29.9047C283.292 29.3276 283.135 28.7505 282.872 28.2258C284.131 27.8061 285.128 26.547 285.128 25.0255Z" stroke="#252C37" stroke-width="1.52398" stroke-miterlimit="10" stroke-linecap="round" stroke-linejoin="round"/>
<path d="M256.798 25.0255C256.798 23.609 257.69 22.4023 258.896 21.8777C258.424 21.4055 258.109 20.7235 258.109 19.989C258.109 18.52 259.316 17.3133 260.785 17.3133C260.89 17.3133 260.995 17.3133 261.047 17.3133C260.89 16.9461 260.785 16.5264 260.785 16.1067C260.785 14.6377 261.992 13.431 263.461 13.431C263.933 13.431 264.353 13.5359 264.72 13.7458C265.087 12.6965 266.084 11.8046 267.238 11.8046C268.707 11.8046 269.861 13.1687 269.914 14.218V32.5803H269.861C269.861 34.469 268.34 35.938 266.451 35.938C264.772 35.938 263.408 34.7313 263.093 33.1574C262.779 33.2623 262.411 33.3148 262.044 33.3148C260.155 33.3148 258.634 31.7934 258.634 29.9047C258.634 29.3276 258.791 28.7505 259.054 28.2258C257.795 27.8061 256.798 26.547 256.798 25.0255Z" stroke="#252C37" stroke-width="1.52398" stroke-miterlimit="10" stroke-linecap="round" stroke-linejoin="round"/>
<path d="M262.306 25.8649C262.306 25.8649 264.72 25.4977 265.769 27.8585C266.923 30.4817 265.402 32.4229 263.146 33.1574" stroke="#252C37" stroke-width="1.52398" stroke-miterlimit="10" stroke-linecap="round" stroke-linejoin="round"/>
<path d="M267.605 18.2052C267.605 18.2052 266.294 20.3038 263.933 19.7792C261.572 19.2545 261.1 17.3134 261.1 17.3134" stroke="#252C37" stroke-width="1.52398" stroke-miterlimit="10" stroke-linecap="round" stroke-linejoin="round"/>
<path d="M267.605 22.9269C267.553 22.8745 266.923 20.671 264.195 19.884" stroke="#252C37" stroke-width="1.52398" stroke-miterlimit="10" stroke-linecap="round" stroke-linejoin="round"/>
<path d="M276.944 23.2417C276.944 23.2417 276.314 25.5501 278.308 27.3339C279.252 28.1733 281.141 28.4356 282.767 28.2258" stroke="#252C37" stroke-width="1.52398" stroke-miterlimit="10" stroke-linecap="round" stroke-linejoin="round"/>
<path d="M276.209 18.9397C276.209 18.9397 277.626 19.8316 278.833 19.4644C280.039 19.0971 280.879 17.3134 280.879 17.3134" stroke="#252C37" stroke-width="1.52398" stroke-miterlimit="10" stroke-linecap="round" stroke-linejoin="round"/>
<path d="M275.16 30.4818C275.16 30.4818 275.842 27.8062 278.99 27.8062" stroke="#252C37" stroke-width="1.52398" stroke-miterlimit="10" stroke-linecap="round" stroke-linejoin="round"/>
<defs>
<clipPath id="clip0_260_1811">
<rect width="33.5769" height="33.5769" fill="white" transform="translate(24.074 4.54688)"/>
</clipPath>
<clipPath id="clip1_260_1811">
<rect width="31.6763" height="31.6763" fill="white" transform="translate(177.686 6.76416)"/>
</clipPath>
</defs>
</svg>
