<svg width="474" height="150" viewBox="0 0 474 150" fill="none" xmlns="http://www.w3.org/2000/svg">
<path d="M1.03125 10.8672H16.0703V11.6621H15.3184C14.1868 11.6621 13.4062 11.7839 12.9766 12.0273C12.5612 12.2565 12.2604 12.5788 12.0742 12.9941C11.9023 13.4095 11.8164 14.4479 11.8164 16.1094V30.375C11.8164 32.9818 12.0098 34.7077 12.3965 35.5527C12.7975 36.3978 13.4492 37.0996 14.3516 37.6582C15.2539 38.2168 16.3926 38.4961 17.7676 38.4961C19.3431 38.4961 20.6823 38.1452 21.7852 37.4434C22.9023 36.7272 23.7331 35.7461 24.2773 34.5C24.8359 33.2539 25.1152 31.084 25.1152 27.9902V16.1094C25.1152 14.806 24.9792 13.875 24.707 13.3164C24.4349 12.7578 24.0911 12.3711 23.6758 12.1562C23.0312 11.8268 22.1217 11.6621 20.9473 11.6621V10.8672H31.0234V11.6621H30.4219C29.6055 11.6621 28.9251 11.8268 28.3809 12.1562C27.8366 12.4857 27.4427 12.9798 27.1992 13.6387C27.013 14.097 26.9199 14.9206 26.9199 16.1094V27.1738C26.9199 30.597 26.6908 33.0677 26.2324 34.5859C25.7884 36.1042 24.6927 37.5007 22.9453 38.7754C21.1979 40.0501 18.8132 40.6875 15.791 40.6875C13.2702 40.6875 11.3223 40.3509 9.94727 39.6777C8.07096 38.7611 6.74609 37.5866 5.97266 36.1543C5.19922 34.722 4.8125 32.7956 4.8125 30.375V16.1094C4.8125 14.4336 4.7194 13.3952 4.5332 12.9941C4.34701 12.5788 4.02474 12.2493 3.56641 12.0059C3.10807 11.7624 2.26302 11.6478 1.03125 11.6621V10.8672ZM52.7502 39.2051V40H37.5177V39.2051H38.4845C39.3296 39.2051 40.0099 39.0547 40.5255 38.7539C40.8979 38.5534 41.1844 38.2096 41.3849 37.7227C41.5425 37.3789 41.6213 36.4766 41.6213 35.0156V15.8516C41.6213 14.362 41.5425 13.431 41.3849 13.0586C41.2274 12.6862 40.9051 12.3639 40.4181 12.0918C39.9455 11.8053 39.3009 11.6621 38.4845 11.6621H37.5177V10.8672H52.7502V11.6621H51.7834C50.9383 11.6621 50.258 11.8125 49.7423 12.1133C49.3699 12.3138 49.0763 12.6576 48.8615 13.1445C48.7039 13.4883 48.6252 14.3906 48.6252 15.8516V35.0156C48.6252 36.5052 48.7039 37.4362 48.8615 37.8086C49.0334 38.181 49.3556 38.5104 49.8283 38.7969C50.3153 39.069 50.967 39.2051 51.7834 39.2051H52.7502ZM70.9749 10.2012L61.4144 40.666H58.6644L68.2679 10.2012H70.9749ZM76.7388 10.8672H91.7778V11.6621H91.0259C89.8944 11.6621 89.1138 11.7839 88.6841 12.0273C88.2687 12.2565 87.9679 12.5788 87.7817 12.9941C87.6098 13.4095 87.5239 14.4479 87.5239 16.1094V30.375C87.5239 32.9818 87.7173 34.7077 88.104 35.5527C88.505 36.3978 89.1567 37.0996 90.0591 37.6582C90.9614 38.2168 92.1001 38.4961 93.4751 38.4961C95.0506 38.4961 96.3898 38.1452 97.4927 37.4434C98.6098 36.7272 99.4406 35.7461 99.9848 34.5C100.543 33.2539 100.823 31.084 100.823 27.9902V16.1094C100.823 14.806 100.687 13.875 100.415 13.3164C100.142 12.7578 99.7987 12.3711 99.3833 12.1562C98.7388 11.8268 97.8292 11.6621 96.6548 11.6621V10.8672H106.731V11.6621H106.129C105.313 11.6621 104.633 11.8268 104.088 12.1562C103.544 12.4857 103.15 12.9798 102.907 13.6387C102.721 14.097 102.627 14.9206 102.627 16.1094V27.1738C102.627 30.597 102.398 33.0677 101.94 34.5859C101.496 36.1042 100.4 37.5007 98.6528 38.7754C96.9054 40.0501 94.5207 40.6875 91.4985 40.6875C88.9777 40.6875 87.0298 40.3509 85.6548 39.6777C83.7785 38.7611 82.4536 37.5866 81.6802 36.1543C80.9067 34.722 80.52 32.7956 80.52 30.375V16.1094C80.52 14.4336 80.4269 13.3952 80.2407 12.9941C80.0545 12.5788 79.7322 12.2493 79.2739 12.0059C78.8156 11.7624 77.9705 11.6478 76.7388 11.6621V10.8672ZM130.928 22.9199L138.964 34.8438C140.296 36.8203 141.241 38.0234 141.799 38.4531C142.372 38.8685 143.046 39.1191 143.819 39.2051V40H129.618V39.2051C130.749 39.1191 131.48 38.9473 131.809 38.6895C132.139 38.4316 132.303 38.1165 132.303 37.7441C132.303 37.4863 132.253 37.2572 132.153 37.0566C131.952 36.627 131.451 35.8249 130.649 34.6504L126.395 28.3555L121.948 33.791C120.616 35.4382 119.95 36.5553 119.95 37.1426C119.95 37.5579 120.122 37.9447 120.465 38.3027C120.809 38.6608 121.318 38.9186 121.991 39.0762C122.292 39.1621 122.908 39.2051 123.839 39.2051V40H112.645V39.2051C113.92 39.0189 114.923 38.6751 115.653 38.1738C116.613 37.515 117.952 36.14 119.671 34.0488L125.45 27.002L118.038 16.1094C116.82 14.319 116.126 13.3236 115.954 13.123C115.567 12.6504 115.187 12.3138 114.815 12.1133C114.443 11.9128 113.927 11.7624 113.268 11.6621V10.8672H127.727V11.6621H126.997C126.166 11.6621 125.586 11.7982 125.256 12.0703C124.927 12.3281 124.762 12.6576 124.762 13.0586C124.762 13.3737 124.812 13.6458 124.913 13.875L126.395 16.1094L130.005 21.6094L133.077 17.8496C134.652 15.916 135.44 14.5625 135.44 13.7891C135.44 13.4023 135.325 13.0443 135.096 12.7148C134.881 12.3854 134.566 12.1276 134.151 11.9414C133.736 11.7552 133.091 11.6621 132.217 11.6621V10.8672H142.938V11.6621C142.093 11.6764 141.413 11.7839 140.897 11.9844C140.381 12.1706 139.83 12.5286 139.243 13.0586C138.87 13.4023 137.939 14.4694 136.45 16.2598L130.928 22.9199ZM165.401 40V39.2051H166.368C167.213 39.2051 167.858 39.0762 168.302 38.8184C168.76 38.5462 169.097 38.181 169.311 37.7227C169.44 37.4219 169.505 36.5195 169.505 35.0156V15.8516C169.505 14.362 169.426 13.431 169.269 13.0586C169.111 12.6862 168.789 12.3639 168.302 12.0918C167.829 11.8053 167.185 11.6621 166.368 11.6621H165.401V10.8672H178.442C181.923 10.8672 184.723 11.3398 186.843 12.2852C189.435 13.4453 191.397 15.1999 192.729 17.5488C194.076 19.8978 194.749 22.5547 194.749 25.5195C194.749 27.5677 194.42 29.4583 193.761 31.1914C193.102 32.9102 192.25 34.3353 191.204 35.4668C190.158 36.584 188.948 37.4863 187.573 38.1738C186.213 38.847 184.544 39.3698 182.567 39.7422C181.694 39.9141 180.319 40 178.442 40H165.401ZM176.509 12.5215V35.252C176.509 36.4551 176.566 37.1927 176.681 37.4648C176.795 37.737 176.989 37.9447 177.261 38.0879C177.647 38.3027 178.206 38.4102 178.936 38.4102C181.328 38.4102 183.155 37.5938 184.415 35.9609C186.134 33.7552 186.993 30.332 186.993 25.6914C186.993 21.9531 186.406 18.9668 185.231 16.7324C184.3 14.985 183.104 13.7962 181.644 13.166C180.612 12.722 178.901 12.5072 176.509 12.5215ZM219.956 29.2363H208.935C209.064 31.9004 209.773 34.0059 211.062 35.5527C212.05 36.7415 213.239 37.3359 214.628 37.3359C215.487 37.3359 216.268 37.0996 216.97 36.627C217.672 36.14 218.424 35.2734 219.226 34.0273L219.956 34.5C218.868 36.7201 217.665 38.2956 216.347 39.2266C215.029 40.1432 213.504 40.6016 211.771 40.6016C208.791 40.6016 206.536 39.4557 205.003 37.1641C203.771 35.3164 203.155 33.0247 203.155 30.2891C203.155 26.9375 204.058 24.2734 205.862 22.2969C207.681 20.306 209.808 19.3105 212.243 19.3105C214.277 19.3105 216.039 20.1484 217.528 21.8242C219.032 23.4857 219.842 25.9564 219.956 29.2363ZM214.671 27.7969C214.671 25.4909 214.542 23.9082 214.284 23.0488C214.041 22.1895 213.654 21.5378 213.124 21.0938C212.823 20.8359 212.422 20.707 211.921 20.707C211.176 20.707 210.568 21.0723 210.095 21.8027C209.25 23.0775 208.827 24.8249 208.827 27.0449V27.7969H214.671ZM240.029 19.3535L240.351 26.207H239.62C238.747 24.1732 237.837 22.7839 236.892 22.0391C235.961 21.2943 235.03 20.9219 234.099 20.9219C233.512 20.9219 233.01 21.1224 232.595 21.5234C232.18 21.9102 231.972 22.3613 231.972 22.877C231.972 23.2637 232.115 23.6361 232.402 23.9941C232.86 24.5814 234.142 25.5911 236.247 27.0234C238.353 28.4414 239.735 29.6517 240.394 30.6543C241.067 31.6426 241.404 32.7526 241.404 33.9844C241.404 35.1016 241.124 36.1973 240.566 37.2715C240.007 38.3457 239.219 39.1693 238.202 39.7422C237.185 40.3151 236.061 40.6016 234.829 40.6016C233.87 40.6016 232.588 40.3008 230.984 39.6992C230.554 39.5417 230.26 39.4629 230.103 39.4629C229.63 39.4629 229.236 39.821 228.921 40.5371H228.212L227.868 33.3184H228.599C229.243 35.209 230.124 36.627 231.241 37.5723C232.373 38.5176 233.44 38.9902 234.443 38.9902C235.13 38.9902 235.689 38.7826 236.118 38.3672C236.562 37.9375 236.784 37.4219 236.784 36.8203C236.784 36.1328 236.57 35.5384 236.14 35.0371C235.71 34.5358 234.751 33.7767 233.261 32.7598C231.07 31.2415 229.652 30.0814 229.007 29.2793C228.062 28.1048 227.589 26.8086 227.589 25.3906C227.589 23.8438 228.119 22.4473 229.179 21.2012C230.253 19.9408 231.8 19.3105 233.82 19.3105C234.908 19.3105 235.961 19.5755 236.978 20.1055C237.365 20.3203 237.68 20.4277 237.923 20.4277C238.181 20.4277 238.389 20.3776 238.546 20.2773C238.704 20.1628 238.954 19.8548 239.298 19.3535H240.029ZM254.15 10.1797C255.081 10.1797 255.869 10.5091 256.513 11.168C257.158 11.8125 257.48 12.5931 257.48 13.5098C257.48 14.4264 257.15 15.207 256.492 15.8516C255.847 16.4961 255.067 16.8184 254.15 16.8184C253.233 16.8184 252.453 16.4961 251.808 15.8516C251.164 15.207 250.841 14.4264 250.841 13.5098C250.841 12.5931 251.164 11.8125 251.808 11.168C252.453 10.5091 253.233 10.1797 254.15 10.1797ZM257.158 19.9121V35.832C257.158 37.25 257.322 38.1595 257.652 38.5605C257.981 38.9473 258.626 39.1693 259.585 39.2266V40H248.736V39.2266C249.624 39.1979 250.283 38.9401 250.712 38.4531C250.999 38.1237 251.142 37.25 251.142 35.832V24.1016C251.142 22.6836 250.977 21.7812 250.648 21.3945C250.318 20.9935 249.681 20.7643 248.736 20.707V19.9121H257.158ZM279.293 20.1484H286.06V22.5117H282.214C282.916 23.2135 283.403 23.8509 283.675 24.4238C284.019 25.1973 284.191 26.0065 284.191 26.8516C284.191 28.2839 283.79 29.5299 282.988 30.5898C282.2 31.6354 281.119 32.459 279.744 33.0605C278.383 33.6478 277.173 33.9414 276.113 33.9414C276.027 33.9414 275.168 33.9056 273.535 33.834C272.89 33.834 272.346 34.0488 271.902 34.4785C271.472 34.8939 271.257 35.3952 271.257 35.9824C271.257 36.498 271.451 36.9206 271.837 37.25C272.239 37.5794 272.883 37.7441 273.771 37.7441L277.488 37.7012C280.496 37.7012 282.565 38.0306 283.697 38.6895C285.315 39.6061 286.125 41.0169 286.125 42.9219C286.125 44.1393 285.752 45.2422 285.007 46.2305C284.263 47.2331 283.282 47.9707 282.064 48.4434C280.216 49.1452 278.089 49.4961 275.683 49.4961C273.879 49.4961 272.231 49.3171 270.742 48.959C269.252 48.6152 268.185 48.1283 267.541 47.498C266.896 46.8822 266.574 46.2305 266.574 45.543C266.574 44.8841 266.817 44.2897 267.304 43.7598C267.806 43.2441 268.729 42.8073 270.076 42.4492C268.214 41.5326 267.283 40.2578 267.283 38.625C267.283 37.6367 267.662 36.6771 268.421 35.7461C269.181 34.8151 270.384 34.0059 272.031 33.3184C270.112 32.6165 268.722 31.6927 267.863 30.5469C267.004 29.401 266.574 28.0762 266.574 26.5723C266.574 24.61 267.376 22.9128 268.98 21.4805C270.584 20.0339 272.647 19.3105 275.168 19.3105C276.5 19.3105 277.875 19.5898 279.293 20.1484ZM275.576 20.6426C274.745 20.6426 274.043 21.0651 273.47 21.9102C272.897 22.7409 272.611 24.474 272.611 27.1094C272.611 29.2435 272.89 30.7116 273.449 31.5137C274.022 32.3014 274.695 32.6953 275.468 32.6953C276.328 32.6953 277.044 32.3014 277.617 31.5137C278.19 30.7259 278.476 29.1934 278.476 26.916C278.476 24.3522 278.154 22.6048 277.509 21.6738C277.051 20.9863 276.407 20.6426 275.576 20.6426ZM274.308 42.9648C272.847 42.9648 271.88 43.0866 271.408 43.3301C270.591 43.7741 270.183 44.3757 270.183 45.1348C270.183 45.8652 270.606 46.5241 271.451 47.1113C272.296 47.7129 273.886 48.0137 276.22 48.0137C278.211 48.0137 279.772 47.7487 280.904 47.2188C282.05 46.6888 282.623 45.944 282.623 44.9844C282.623 44.6263 282.515 44.3255 282.3 44.082C281.914 43.6523 281.326 43.3587 280.539 43.2012C279.765 43.0436 277.688 42.9648 274.308 42.9648ZM301.449 19.9121V22.5117C302.48 21.3945 303.469 20.5853 304.414 20.084C305.359 19.5684 306.376 19.3105 307.465 19.3105C308.768 19.3105 309.849 19.6758 310.709 20.4062C311.568 21.1224 312.141 22.0176 312.427 23.0918C312.657 23.9082 312.771 25.4766 312.771 27.7969V35.6172C312.771 37.1641 312.907 38.1309 313.179 38.5176C313.466 38.89 314.053 39.1263 314.941 39.2266V40H304.779V39.2266C305.538 39.1263 306.082 38.8112 306.412 38.2812C306.641 37.9232 306.756 37.0352 306.756 35.6172V26.6797C306.756 25.0326 306.691 23.9941 306.562 23.5645C306.433 23.1348 306.211 22.8053 305.896 22.5762C305.595 22.3327 305.259 22.2109 304.886 22.2109C303.655 22.2109 302.509 23.0918 301.449 24.8535V35.6172C301.449 37.1211 301.585 38.0736 301.857 38.4746C302.144 38.8757 302.666 39.1263 303.426 39.2266V40H293.263V39.2266C294.108 39.1406 294.71 38.8685 295.068 38.4102C295.312 38.0951 295.433 37.1641 295.433 35.6172V24.2734C295.433 22.7552 295.29 21.8099 295.004 21.4375C294.732 21.0651 294.151 20.8216 293.263 20.707V19.9121H301.449ZM339.59 29.2363H328.568C328.697 31.9004 329.406 34.0059 330.695 35.5527C331.684 36.7415 332.872 37.3359 334.262 37.3359C335.121 37.3359 335.902 37.0996 336.603 36.627C337.305 36.14 338.057 35.2734 338.859 34.0273L339.59 34.5C338.501 36.7201 337.298 38.2956 335.98 39.2266C334.663 40.1432 333.137 40.6016 331.404 40.6016C328.425 40.6016 326.169 39.4557 324.637 37.1641C323.405 35.3164 322.789 33.0247 322.789 30.2891C322.789 26.9375 323.691 24.2734 325.496 22.2969C327.315 20.306 329.442 19.3105 331.877 19.3105C333.911 19.3105 335.672 20.1484 337.162 21.8242C338.666 23.4857 339.475 25.9564 339.59 29.2363ZM334.305 27.7969C334.305 25.4909 334.176 23.9082 333.918 23.0488C333.674 22.1895 333.288 21.5378 332.758 21.0938C332.457 20.8359 332.056 20.707 331.555 20.707C330.81 20.707 330.201 21.0723 329.728 21.8027C328.883 23.0775 328.461 24.8249 328.461 27.0449V27.7969H334.305ZM355.301 19.9121V24.4668C356.633 22.39 357.8 21.015 358.803 20.3418C359.805 19.6543 360.772 19.3105 361.703 19.3105C362.505 19.3105 363.143 19.5612 363.615 20.0625C364.102 20.5495 364.346 21.2441 364.346 22.1465C364.346 23.1061 364.109 23.8509 363.637 24.3809C363.178 24.9108 362.62 25.1758 361.961 25.1758C361.202 25.1758 360.543 24.9323 359.984 24.4453C359.426 23.9583 359.096 23.6862 358.996 23.6289C358.853 23.543 358.688 23.5 358.502 23.5C358.087 23.5 357.693 23.6576 357.32 23.9727C356.733 24.4596 356.289 25.1543 355.988 26.0566C355.53 27.446 355.301 28.9785 355.301 30.6543V35.2734L355.322 36.4766C355.322 37.293 355.372 37.8158 355.473 38.0449C355.645 38.4316 355.895 38.7181 356.225 38.9043C356.568 39.0762 357.141 39.1836 357.943 39.2266V40H347.094V39.2266C347.968 39.1549 348.555 38.9186 348.856 38.5176C349.171 38.1022 349.328 37.0208 349.328 35.2734V24.166C349.328 23.0202 349.271 22.2897 349.156 21.9746C349.013 21.5736 348.805 21.2799 348.533 21.0938C348.261 20.9076 347.781 20.7786 347.094 20.707V19.9121H355.301Z" fill="url(#paint0_linear_257_1785)"/>
<path d="M144.555 85.6748V86H139.448V85.6748H139.87C140.362 85.6748 140.72 85.5312 140.942 85.2441C141.083 85.0566 141.153 84.6055 141.153 83.8906V76.1914C141.153 75.5879 141.115 75.1895 141.039 74.9961C140.98 74.8496 140.86 74.7236 140.679 74.6182C140.421 74.4775 140.151 74.4072 139.87 74.4072H139.448V74.082H144.555V74.4072H144.124C143.638 74.4072 143.283 74.5508 143.061 74.8379C142.914 75.0254 142.841 75.4766 142.841 76.1914V83.8906C142.841 84.4941 142.879 84.8926 142.955 85.0859C143.014 85.2324 143.137 85.3584 143.324 85.4639C143.576 85.6045 143.843 85.6748 144.124 85.6748H144.555ZM160.855 82.9414C160.638 84.002 160.213 84.8193 159.58 85.3936C158.947 85.9619 158.247 86.2461 157.48 86.2461C156.565 86.2461 155.769 85.8623 155.089 85.0947C154.409 84.3271 154.069 83.29 154.069 81.9834C154.069 80.7178 154.444 79.6895 155.194 78.8984C155.95 78.1074 156.856 77.7119 157.91 77.7119C158.701 77.7119 159.352 77.9229 159.861 78.3447C160.371 78.7607 160.626 79.1943 160.626 79.6455C160.626 79.8682 160.553 80.0498 160.406 80.1904C160.266 80.3252 160.066 80.3926 159.809 80.3926C159.463 80.3926 159.202 80.2812 159.026 80.0586C158.927 79.9355 158.859 79.7012 158.824 79.3555C158.795 79.0098 158.678 78.7461 158.473 78.5645C158.268 78.3887 157.983 78.3008 157.62 78.3008C157.034 78.3008 156.563 78.5176 156.205 78.9512C155.731 79.5254 155.493 80.2842 155.493 81.2275C155.493 82.1885 155.728 83.0381 156.196 83.7764C156.671 84.5088 157.31 84.875 158.112 84.875C158.687 84.875 159.202 84.6787 159.659 84.2861C159.981 84.0166 160.295 83.5273 160.6 82.8184L160.855 82.9414ZM166.35 77.7119V79.5225C167.024 78.3154 167.715 77.7119 168.424 77.7119C168.747 77.7119 169.013 77.8115 169.224 78.0107C169.435 78.2041 169.541 78.4297 169.541 78.6875C169.541 78.916 169.464 79.1094 169.312 79.2676C169.16 79.4258 168.978 79.5049 168.767 79.5049C168.562 79.5049 168.331 79.4053 168.073 79.2061C167.821 79.001 167.633 78.8984 167.51 78.8984C167.405 78.8984 167.291 78.957 167.168 79.0742C166.904 79.3145 166.631 79.71 166.35 80.2607V84.1191C166.35 84.5645 166.406 84.9014 166.517 85.1299C166.593 85.2881 166.728 85.4199 166.921 85.5254C167.115 85.6309 167.393 85.6836 167.756 85.6836V86H163.634V85.6836C164.044 85.6836 164.349 85.6191 164.548 85.4902C164.695 85.3965 164.797 85.2471 164.856 85.042C164.885 84.9424 164.9 84.6582 164.9 84.1895V81.0693C164.9 80.1318 164.879 79.5752 164.838 79.3994C164.803 79.2178 164.733 79.0859 164.628 79.0039C164.528 78.9219 164.402 78.8809 164.25 78.8809C164.068 78.8809 163.863 78.9248 163.634 79.0127L163.546 78.6963L165.981 77.7119H166.35ZM173.322 80.9814C173.316 82.1768 173.607 83.1143 174.192 83.7939C174.778 84.4736 175.467 84.8135 176.258 84.8135C176.785 84.8135 177.242 84.6699 177.629 84.3828C178.022 84.0898 178.35 83.5918 178.613 82.8887L178.886 83.0645C178.763 83.8672 178.405 84.5996 177.814 85.2617C177.222 85.918 176.481 86.2461 175.59 86.2461C174.623 86.2461 173.794 85.8711 173.103 85.1211C172.417 84.3652 172.074 83.3516 172.074 82.0801C172.074 80.7031 172.426 79.6309 173.129 78.8633C173.838 78.0898 174.726 77.7031 175.792 77.7031C176.694 77.7031 177.436 78.002 178.016 78.5996C178.596 79.1914 178.886 79.9854 178.886 80.9814H173.322ZM173.322 80.4717H177.049C177.02 79.9561 176.958 79.5928 176.864 79.3818C176.718 79.0537 176.498 78.7959 176.205 78.6084C175.918 78.4209 175.616 78.3271 175.3 78.3271C174.814 78.3271 174.377 78.5176 173.99 78.8984C173.609 79.2734 173.387 79.7979 173.322 80.4717ZM186.508 84.8398C185.682 85.4785 185.164 85.8477 184.953 85.9473C184.636 86.0938 184.299 86.167 183.942 86.167C183.385 86.167 182.925 85.9766 182.562 85.5957C182.205 85.2148 182.026 84.7139 182.026 84.0928C182.026 83.7002 182.114 83.3604 182.29 83.0732C182.53 82.6748 182.946 82.2998 183.538 81.9482C184.135 81.5967 185.126 81.1689 186.508 80.665V80.3486C186.508 79.5459 186.379 78.9951 186.122 78.6963C185.87 78.3975 185.501 78.248 185.014 78.248C184.645 78.248 184.352 78.3477 184.135 78.5469C183.913 78.7461 183.801 78.9746 183.801 79.2324L183.819 79.7422C183.819 80.0117 183.749 80.2197 183.608 80.3662C183.473 80.5127 183.295 80.5859 183.072 80.5859C182.855 80.5859 182.676 80.5098 182.536 80.3574C182.401 80.2051 182.334 79.9971 182.334 79.7334C182.334 79.2295 182.591 78.7666 183.107 78.3447C183.623 77.9229 184.346 77.7119 185.278 77.7119C185.993 77.7119 186.579 77.832 187.036 78.0723C187.381 78.2539 187.636 78.5381 187.8 78.9248C187.906 79.1768 187.959 79.6924 187.959 80.4717V83.2051C187.959 83.9727 187.973 84.4443 188.003 84.6201C188.032 84.79 188.079 84.9043 188.143 84.9629C188.213 85.0215 188.293 85.0508 188.38 85.0508C188.474 85.0508 188.556 85.0303 188.627 84.9893C188.75 84.9131 188.987 84.6992 189.338 84.3477V84.8398C188.682 85.7188 188.055 86.1582 187.458 86.1582C187.171 86.1582 186.942 86.0586 186.772 85.8594C186.602 85.6602 186.514 85.3203 186.508 84.8398ZM186.508 84.2686V81.2012C185.624 81.5527 185.052 81.8018 184.795 81.9482C184.332 82.2061 184.001 82.4756 183.801 82.7568C183.602 83.0381 183.503 83.3457 183.503 83.6797C183.503 84.1016 183.629 84.4531 183.88 84.7344C184.132 85.0098 184.422 85.1475 184.751 85.1475C185.196 85.1475 185.782 84.8545 186.508 84.2686ZM194.263 75.3037V77.9492H196.144V78.5645H194.263V83.7852C194.263 84.3066 194.336 84.6582 194.483 84.8398C194.635 85.0215 194.828 85.1123 195.063 85.1123C195.256 85.1123 195.443 85.0537 195.625 84.9365C195.807 84.8135 195.947 84.6348 196.047 84.4004H196.39C196.185 84.9746 195.895 85.4082 195.52 85.7012C195.145 85.9883 194.758 86.1318 194.359 86.1318C194.09 86.1318 193.826 86.0586 193.568 85.9121C193.311 85.7598 193.12 85.5459 192.997 85.2705C192.874 84.9893 192.813 84.5586 192.813 83.9785V78.5645H191.538V78.2744C191.86 78.1455 192.189 77.9287 192.523 77.624C192.862 77.3135 193.164 76.9473 193.428 76.5254C193.563 76.3027 193.75 75.8955 193.99 75.3037H194.263ZM200.268 80.9814C200.262 82.1768 200.552 83.1143 201.138 83.7939C201.724 84.4736 202.413 84.8135 203.204 84.8135C203.731 84.8135 204.188 84.6699 204.575 84.3828C204.967 84.0898 205.296 83.5918 205.559 82.8887L205.832 83.0645C205.709 83.8672 205.351 84.5996 204.759 85.2617C204.168 85.918 203.426 86.2461 202.536 86.2461C201.569 86.2461 200.74 85.8711 200.048 85.1211C199.363 84.3652 199.02 83.3516 199.02 82.0801C199.02 80.7031 199.372 79.6309 200.075 78.8633C200.784 78.0898 201.672 77.7031 202.738 77.7031C203.64 77.7031 204.381 78.002 204.962 78.5996C205.542 79.1914 205.832 79.9854 205.832 80.9814H200.268ZM200.268 80.4717H203.995C203.965 79.9561 203.904 79.5928 203.81 79.3818C203.664 79.0537 203.444 78.7959 203.151 78.6084C202.864 78.4209 202.562 78.3271 202.246 78.3271C201.759 78.3271 201.323 78.5176 200.936 78.8984C200.555 79.2734 200.333 79.7979 200.268 80.4717ZM222.43 77.9492V82.8271C222.43 83.7588 222.451 84.3301 222.492 84.541C222.539 84.7461 222.609 84.8896 222.703 84.9717C222.802 85.0537 222.917 85.0947 223.046 85.0947C223.227 85.0947 223.432 85.0449 223.661 84.9453L223.784 85.2529L221.376 86.2461H220.98V84.541C220.289 85.291 219.761 85.7627 219.398 85.9561C219.035 86.1494 218.651 86.2461 218.247 86.2461C217.796 86.2461 217.403 86.1172 217.069 85.8594C216.741 85.5957 216.512 85.2588 216.383 84.8486C216.255 84.4385 216.19 83.8584 216.19 83.1084V79.5137C216.19 79.1328 216.149 78.8691 216.067 78.7227C215.985 78.5762 215.862 78.4648 215.698 78.3887C215.54 78.3066 215.25 78.2686 214.828 78.2744V77.9492H217.649V83.3369C217.649 84.0869 217.778 84.5791 218.036 84.8135C218.299 85.0479 218.616 85.165 218.985 85.165C219.237 85.165 219.521 85.0859 219.838 84.9277C220.16 84.7695 220.541 84.4678 220.98 84.0225V79.4609C220.98 79.0039 220.895 78.6963 220.725 78.5381C220.561 78.374 220.216 78.2861 219.688 78.2744V77.9492H222.43ZM231.556 77.7119V80.4541H231.266C231.043 79.5928 230.756 79.0068 230.404 78.6963C230.059 78.3857 229.616 78.2305 229.077 78.2305C228.667 78.2305 228.336 78.3389 228.084 78.5557C227.832 78.7725 227.706 79.0127 227.706 79.2764C227.706 79.6045 227.8 79.8857 227.988 80.1201C228.169 80.3604 228.538 80.6152 229.095 80.8848L230.378 81.5088C231.568 82.0889 232.162 82.8535 232.162 83.8027C232.162 84.5352 231.884 85.127 231.327 85.5781C230.777 86.0234 230.158 86.2461 229.473 86.2461C228.981 86.2461 228.418 86.1582 227.785 85.9824C227.592 85.9238 227.434 85.8945 227.311 85.8945C227.176 85.8945 227.071 85.9707 226.994 86.123H226.704V83.249H226.994C227.158 84.0693 227.472 84.6875 227.935 85.1035C228.398 85.5195 228.916 85.7275 229.49 85.7275C229.895 85.7275 230.223 85.6104 230.475 85.376C230.733 85.1357 230.862 84.8486 230.862 84.5146C230.862 84.1104 230.718 83.7705 230.431 83.4951C230.15 83.2197 229.584 82.8711 228.735 82.4492C227.885 82.0273 227.328 81.6465 227.065 81.3066C226.801 80.9727 226.669 80.5508 226.669 80.041C226.669 79.3789 226.895 78.8252 227.346 78.3799C227.803 77.9346 228.392 77.7119 229.113 77.7119C229.429 77.7119 229.813 77.7793 230.264 77.9141C230.563 78.002 230.762 78.0459 230.862 78.0459C230.955 78.0459 231.029 78.0254 231.081 77.9844C231.134 77.9434 231.196 77.8525 231.266 77.7119H231.556ZM236.7 80.9814C236.694 82.1768 236.984 83.1143 237.57 83.7939C238.156 84.4736 238.844 84.8135 239.635 84.8135C240.163 84.8135 240.62 84.6699 241.007 84.3828C241.399 84.0898 241.727 83.5918 241.991 82.8887L242.263 83.0645C242.14 83.8672 241.783 84.5996 241.191 85.2617C240.599 85.918 239.858 86.2461 238.967 86.2461C238.001 86.2461 237.172 85.8711 236.48 85.1211C235.795 84.3652 235.452 83.3516 235.452 82.0801C235.452 80.7031 235.803 79.6309 236.507 78.8633C237.216 78.0898 238.103 77.7031 239.17 77.7031C240.072 77.7031 240.813 78.002 241.393 78.5996C241.973 79.1914 242.263 79.9854 242.263 80.9814H236.7ZM236.7 80.4717H240.426C240.397 79.9561 240.336 79.5928 240.242 79.3818C240.095 79.0537 239.876 78.7959 239.583 78.6084C239.296 78.4209 238.994 78.3271 238.677 78.3271C238.191 78.3271 237.755 78.5176 237.368 78.8984C236.987 79.2734 236.764 79.7979 236.7 80.4717ZM247.68 77.7119V79.5225C248.354 78.3154 249.045 77.7119 249.754 77.7119C250.076 77.7119 250.343 77.8115 250.554 78.0107C250.765 78.2041 250.87 78.4297 250.87 78.6875C250.87 78.916 250.794 79.1094 250.642 79.2676C250.489 79.4258 250.308 79.5049 250.097 79.5049C249.892 79.5049 249.66 79.4053 249.403 79.2061C249.151 79.001 248.963 78.8984 248.84 78.8984C248.735 78.8984 248.62 78.957 248.497 79.0742C248.234 79.3145 247.961 79.71 247.68 80.2607V84.1191C247.68 84.5645 247.736 84.9014 247.847 85.1299C247.923 85.2881 248.058 85.4199 248.251 85.5254C248.445 85.6309 248.723 85.6836 249.086 85.6836V86H244.964V85.6836C245.374 85.6836 245.679 85.6191 245.878 85.4902C246.025 85.3965 246.127 85.2471 246.186 85.042C246.215 84.9424 246.23 84.6582 246.23 84.1895V81.0693C246.23 80.1318 246.209 79.5752 246.168 79.3994C246.133 79.2178 246.063 79.0859 245.957 79.0039C245.858 78.9219 245.732 78.8809 245.579 78.8809C245.398 78.8809 245.193 78.9248 244.964 79.0127L244.876 78.6963L247.311 77.7119H247.68ZM253.466 81.2979H258.01V82.625H253.466V81.2979ZM268.111 82.9414C267.894 84.002 267.469 84.8193 266.836 85.3936C266.203 85.9619 265.503 86.2461 264.736 86.2461C263.822 86.2461 263.025 85.8623 262.345 85.0947C261.665 84.3271 261.325 83.29 261.325 81.9834C261.325 80.7178 261.7 79.6895 262.45 78.8984C263.206 78.1074 264.112 77.7119 265.166 77.7119C265.957 77.7119 266.608 77.9229 267.117 78.3447C267.627 78.7607 267.882 79.1943 267.882 79.6455C267.882 79.8682 267.809 80.0498 267.662 80.1904C267.522 80.3252 267.323 80.3926 267.065 80.3926C266.719 80.3926 266.458 80.2812 266.283 80.0586C266.183 79.9355 266.116 79.7012 266.08 79.3555C266.051 79.0098 265.934 78.7461 265.729 78.5645C265.524 78.3887 265.24 78.3008 264.876 78.3008C264.29 78.3008 263.819 78.5176 263.461 78.9512C262.987 79.5254 262.749 80.2842 262.749 81.2275C262.749 82.1885 262.984 83.0381 263.452 83.7764C263.927 84.5088 264.566 84.875 265.368 84.875C265.943 84.875 266.458 84.6787 266.915 84.2861C267.238 84.0166 267.551 83.5273 267.856 82.8184L268.111 82.9414ZM272.604 80.9814C272.598 82.1768 272.888 83.1143 273.474 83.7939C274.06 84.4736 274.749 84.8135 275.54 84.8135C276.067 84.8135 276.524 84.6699 276.911 84.3828C277.304 84.0898 277.632 83.5918 277.895 82.8887L278.168 83.0645C278.045 83.8672 277.687 84.5996 277.096 85.2617C276.504 85.918 275.762 86.2461 274.872 86.2461C273.905 86.2461 273.076 85.8711 272.385 85.1211C271.699 84.3652 271.356 83.3516 271.356 82.0801C271.356 80.7031 271.708 79.6309 272.411 78.8633C273.12 78.0898 274.008 77.7031 275.074 77.7031C275.976 77.7031 276.718 78.002 277.298 78.5996C277.878 79.1914 278.168 79.9854 278.168 80.9814H272.604ZM272.604 80.4717H276.331C276.302 79.9561 276.24 79.5928 276.146 79.3818C276 79.0537 275.78 78.7959 275.487 78.6084C275.2 78.4209 274.898 78.3271 274.582 78.3271C274.096 78.3271 273.659 78.5176 273.272 78.8984C272.891 79.2734 272.669 79.7979 272.604 80.4717ZM283.576 79.417C284.519 78.2803 285.418 77.7119 286.274 77.7119C286.713 77.7119 287.091 77.8232 287.408 78.0459C287.724 78.2627 287.976 78.623 288.163 79.127C288.292 79.4785 288.357 80.0176 288.357 80.7441V84.1807C288.357 84.6904 288.398 85.0361 288.48 85.2178C288.544 85.3643 288.647 85.4785 288.787 85.5605C288.934 85.6426 289.201 85.6836 289.587 85.6836V86H285.606V85.6836H285.773C286.148 85.6836 286.409 85.6279 286.555 85.5166C286.707 85.3994 286.813 85.2295 286.871 85.0068C286.895 84.9189 286.907 84.6436 286.907 84.1807V80.8848C286.907 80.1523 286.81 79.6221 286.617 79.2939C286.429 78.96 286.11 78.793 285.659 78.793C284.961 78.793 284.267 79.1738 283.576 79.9355V84.1807C283.576 84.7256 283.608 85.0625 283.672 85.1914C283.754 85.3613 283.866 85.4873 284.006 85.5693C284.153 85.6455 284.446 85.6836 284.885 85.6836V86H280.904V85.6836H281.079C281.49 85.6836 281.765 85.5811 281.906 85.376C282.052 85.165 282.125 84.7666 282.125 84.1807V81.1924C282.125 80.2256 282.102 79.6367 282.055 79.4258C282.014 79.2148 281.947 79.0713 281.853 78.9951C281.765 78.9189 281.645 78.8809 281.492 78.8809C281.328 78.8809 281.132 78.9248 280.904 79.0127L280.772 78.6963L283.198 77.7119H283.576V79.417ZM294.547 75.3037V77.9492H296.428V78.5645H294.547V83.7852C294.547 84.3066 294.62 84.6582 294.766 84.8398C294.919 85.0215 295.112 85.1123 295.347 85.1123C295.54 85.1123 295.727 85.0537 295.909 84.9365C296.091 84.8135 296.231 84.6348 296.331 84.4004H296.674C296.469 84.9746 296.179 85.4082 295.804 85.7012C295.429 85.9883 295.042 86.1318 294.643 86.1318C294.374 86.1318 294.11 86.0586 293.852 85.9121C293.595 85.7598 293.404 85.5459 293.281 85.2705C293.158 84.9893 293.097 84.5586 293.097 83.9785V78.5645H291.822V78.2744C292.144 78.1455 292.473 77.9287 292.806 77.624C293.146 77.3135 293.448 76.9473 293.712 76.5254C293.847 76.3027 294.034 75.8955 294.274 75.3037H294.547ZM300.552 80.9814C300.546 82.1768 300.836 83.1143 301.422 83.7939C302.008 84.4736 302.697 84.8135 303.488 84.8135C304.015 84.8135 304.472 84.6699 304.859 84.3828C305.251 84.0898 305.579 83.5918 305.843 82.8887L306.116 83.0645C305.993 83.8672 305.635 84.5996 305.043 85.2617C304.452 85.918 303.71 86.2461 302.82 86.2461C301.853 86.2461 301.024 85.8711 300.332 85.1211C299.647 84.3652 299.304 83.3516 299.304 82.0801C299.304 80.7031 299.656 79.6309 300.359 78.8633C301.068 78.0898 301.955 77.7031 303.022 77.7031C303.924 77.7031 304.665 78.002 305.245 78.5996C305.826 79.1914 306.116 79.9854 306.116 80.9814H300.552ZM300.552 80.4717H304.279C304.249 79.9561 304.188 79.5928 304.094 79.3818C303.948 79.0537 303.728 78.7959 303.435 78.6084C303.148 78.4209 302.846 78.3271 302.53 78.3271C302.043 78.3271 301.607 78.5176 301.22 78.8984C300.839 79.2734 300.617 79.7979 300.552 80.4717ZM311.532 77.7119V79.5225C312.206 78.3154 312.897 77.7119 313.606 77.7119C313.929 77.7119 314.195 77.8115 314.406 78.0107C314.617 78.2041 314.723 78.4297 314.723 78.6875C314.723 78.916 314.646 79.1094 314.494 79.2676C314.342 79.4258 314.16 79.5049 313.949 79.5049C313.744 79.5049 313.513 79.4053 313.255 79.2061C313.003 79.001 312.815 78.8984 312.692 78.8984C312.587 78.8984 312.473 78.957 312.349 79.0742C312.086 79.3145 311.813 79.71 311.532 80.2607V84.1191C311.532 84.5645 311.588 84.9014 311.699 85.1299C311.775 85.2881 311.91 85.4199 312.103 85.5254C312.297 85.6309 312.575 85.6836 312.938 85.6836V86H308.816V85.6836C309.226 85.6836 309.531 85.6191 309.73 85.4902C309.877 85.3965 309.979 85.2471 310.038 85.042C310.067 84.9424 310.082 84.6582 310.082 84.1895V81.0693C310.082 80.1318 310.061 79.5752 310.02 79.3994C309.985 79.2178 309.915 79.0859 309.809 79.0039C309.71 78.9219 309.584 78.8809 309.432 78.8809C309.25 78.8809 309.045 78.9248 308.816 79.0127L308.728 78.6963L311.163 77.7119H311.532ZM318.504 80.9814C318.498 82.1768 318.788 83.1143 319.374 83.7939C319.96 84.4736 320.649 84.8135 321.44 84.8135C321.967 84.8135 322.424 84.6699 322.811 84.3828C323.204 84.0898 323.532 83.5918 323.795 82.8887L324.068 83.0645C323.945 83.8672 323.587 84.5996 322.996 85.2617C322.404 85.918 321.663 86.2461 320.772 86.2461C319.805 86.2461 318.976 85.8711 318.285 85.1211C317.599 84.3652 317.256 83.3516 317.256 82.0801C317.256 80.7031 317.608 79.6309 318.311 78.8633C319.02 78.0898 319.908 77.7031 320.974 77.7031C321.876 77.7031 322.618 78.002 323.198 78.5996C323.778 79.1914 324.068 79.9854 324.068 80.9814H318.504ZM318.504 80.4717H322.231C322.202 79.9561 322.14 79.5928 322.046 79.3818C321.9 79.0537 321.68 78.7959 321.387 78.6084C321.1 78.4209 320.798 78.3271 320.482 78.3271C319.996 78.3271 319.559 78.5176 319.172 78.8984C318.791 79.2734 318.569 79.7979 318.504 80.4717ZM332.815 85.0947C332.423 85.5049 332.039 85.8008 331.664 85.9824C331.289 86.1582 330.885 86.2461 330.451 86.2461C329.572 86.2461 328.805 85.8799 328.148 85.1475C327.492 84.4092 327.164 83.4629 327.164 82.3086C327.164 81.1543 327.527 80.0996 328.254 79.1445C328.98 78.1836 329.915 77.7031 331.058 77.7031C331.767 77.7031 332.352 77.9287 332.815 78.3799V76.8945C332.815 75.9746 332.792 75.4092 332.745 75.1982C332.704 74.9873 332.637 74.8438 332.543 74.7676C332.449 74.6914 332.332 74.6533 332.191 74.6533C332.039 74.6533 331.837 74.7002 331.585 74.7939L331.471 74.4863L333.87 73.502H334.266V82.8096C334.266 83.7529 334.286 84.3301 334.327 84.541C334.374 84.7461 334.444 84.8896 334.538 84.9717C334.638 85.0537 334.752 85.0947 334.881 85.0947C335.039 85.0947 335.25 85.0449 335.514 84.9453L335.61 85.2529L333.22 86.2461H332.815V85.0947ZM332.815 84.4795V80.3311C332.78 79.9326 332.675 79.5693 332.499 79.2412C332.323 78.9131 332.089 78.667 331.796 78.5029C331.509 78.333 331.227 78.248 330.952 78.248C330.436 78.248 329.976 78.4795 329.572 78.9424C329.039 79.5518 328.772 80.4424 328.772 81.6143C328.772 82.7979 329.03 83.7061 329.546 84.3389C330.061 84.9658 330.636 85.2793 331.268 85.2793C331.802 85.2793 332.317 85.0127 332.815 84.4795ZM350.275 85.0947C349.883 85.5049 349.499 85.8008 349.124 85.9824C348.749 86.1582 348.345 86.2461 347.911 86.2461C347.032 86.2461 346.265 85.8799 345.608 85.1475C344.952 84.4092 344.624 83.4629 344.624 82.3086C344.624 81.1543 344.987 80.0996 345.714 79.1445C346.44 78.1836 347.375 77.7031 348.518 77.7031C349.227 77.7031 349.812 77.9287 350.275 78.3799V76.8945C350.275 75.9746 350.252 75.4092 350.205 75.1982C350.164 74.9873 350.097 74.8438 350.003 74.7676C349.909 74.6914 349.792 74.6533 349.651 74.6533C349.499 74.6533 349.297 74.7002 349.045 74.7939L348.931 74.4863L351.33 73.502H351.726V82.8096C351.726 83.7529 351.746 84.3301 351.787 84.541C351.834 84.7461 351.904 84.8896 351.998 84.9717C352.098 85.0537 352.212 85.0947 352.341 85.0947C352.499 85.0947 352.71 85.0449 352.974 84.9453L353.07 85.2529L350.68 86.2461H350.275V85.0947ZM350.275 84.4795V80.3311C350.24 79.9326 350.135 79.5693 349.959 79.2412C349.783 78.9131 349.549 78.667 349.256 78.5029C348.969 78.333 348.687 78.248 348.412 78.248C347.896 78.248 347.436 78.4795 347.032 78.9424C346.499 79.5518 346.232 80.4424 346.232 81.6143C346.232 82.7979 346.49 83.7061 347.006 84.3389C347.521 84.9658 348.096 85.2793 348.728 85.2793C349.262 85.2793 349.777 85.0127 350.275 84.4795ZM356.922 80.9814C356.916 82.1768 357.207 83.1143 357.792 83.7939C358.378 84.4736 359.067 84.8135 359.858 84.8135C360.385 84.8135 360.842 84.6699 361.229 84.3828C361.622 84.0898 361.95 83.5918 362.213 82.8887L362.486 83.0645C362.363 83.8672 362.005 84.5996 361.414 85.2617C360.822 85.918 360.081 86.2461 359.19 86.2461C358.223 86.2461 357.394 85.8711 356.703 85.1211C356.017 84.3652 355.674 83.3516 355.674 82.0801C355.674 80.7031 356.026 79.6309 356.729 78.8633C357.438 78.0898 358.326 77.7031 359.392 77.7031C360.294 77.7031 361.036 78.002 361.616 78.5996C362.196 79.1914 362.486 79.9854 362.486 80.9814H356.922ZM356.922 80.4717H360.649C360.62 79.9561 360.558 79.5928 360.464 79.3818C360.318 79.0537 360.098 78.7959 359.805 78.6084C359.518 78.4209 359.216 78.3271 358.9 78.3271C358.414 78.3271 357.977 78.5176 357.59 78.8984C357.209 79.2734 356.987 79.7979 356.922 80.4717ZM370.75 77.7119V80.4541H370.46C370.237 79.5928 369.95 79.0068 369.599 78.6963C369.253 78.3857 368.811 78.2305 368.271 78.2305C367.861 78.2305 367.53 78.3389 367.278 78.5557C367.026 78.7725 366.9 79.0127 366.9 79.2764C366.9 79.6045 366.994 79.8857 367.182 80.1201C367.363 80.3604 367.732 80.6152 368.289 80.8848L369.572 81.5088C370.762 82.0889 371.356 82.8535 371.356 83.8027C371.356 84.5352 371.078 85.127 370.521 85.5781C369.971 86.0234 369.353 86.2461 368.667 86.2461C368.175 86.2461 367.612 86.1582 366.979 85.9824C366.786 85.9238 366.628 85.8945 366.505 85.8945C366.37 85.8945 366.265 85.9707 366.188 86.123H365.898V83.249H366.188C366.353 84.0693 366.666 84.6875 367.129 85.1035C367.592 85.5195 368.11 85.7275 368.685 85.7275C369.089 85.7275 369.417 85.6104 369.669 85.376C369.927 85.1357 370.056 84.8486 370.056 84.5146C370.056 84.1104 369.912 83.7705 369.625 83.4951C369.344 83.2197 368.778 82.8711 367.929 82.4492C367.079 82.0273 366.522 81.6465 366.259 81.3066C365.995 80.9727 365.863 80.5508 365.863 80.041C365.863 79.3789 366.089 78.8252 366.54 78.3799C366.997 77.9346 367.586 77.7119 368.307 77.7119C368.623 77.7119 369.007 77.7793 369.458 77.9141C369.757 78.002 369.956 78.0459 370.056 78.0459C370.149 78.0459 370.223 78.0254 370.275 77.9844C370.328 77.9434 370.39 77.8525 370.46 77.7119H370.75ZM376.588 73.502C376.834 73.502 377.042 73.5898 377.212 73.7656C377.388 73.9355 377.476 74.1436 377.476 74.3896C377.476 74.6357 377.388 74.8467 377.212 75.0225C377.042 75.1982 376.834 75.2861 376.588 75.2861C376.342 75.2861 376.131 75.1982 375.956 75.0225C375.78 74.8467 375.692 74.6357 375.692 74.3896C375.692 74.1436 375.777 73.9355 375.947 73.7656C376.123 73.5898 376.336 73.502 376.588 73.502ZM377.318 77.7119V84.1807C377.318 84.6846 377.353 85.0215 377.423 85.1914C377.5 85.3555 377.608 85.4785 377.749 85.5605C377.895 85.6426 378.159 85.6836 378.54 85.6836V86H374.628V85.6836C375.021 85.6836 375.285 85.6455 375.419 85.5693C375.554 85.4932 375.66 85.3672 375.736 85.1914C375.818 85.0156 375.859 84.6787 375.859 84.1807V81.0781C375.859 80.2051 375.833 79.6396 375.78 79.3818C375.739 79.1943 375.674 79.0654 375.586 78.9951C375.499 78.9189 375.378 78.8809 375.226 78.8809C375.062 78.8809 374.863 78.9248 374.628 79.0127L374.505 78.6963L376.931 77.7119H377.318ZM383.684 83.0645C383.191 82.8242 382.814 82.4902 382.55 82.0625C382.286 81.6289 382.154 81.1514 382.154 80.6299C382.154 79.833 382.453 79.1475 383.051 78.5732C383.654 77.999 384.425 77.7119 385.362 77.7119C386.13 77.7119 386.795 77.8994 387.357 78.2744H389.063C389.314 78.2744 389.461 78.2832 389.502 78.3008C389.543 78.3125 389.572 78.3359 389.59 78.3711C389.625 78.4238 389.643 78.5176 389.643 78.6523C389.643 78.8047 389.628 78.9102 389.599 78.9688C389.581 78.998 389.549 79.0215 389.502 79.0391C389.461 79.0566 389.314 79.0654 389.063 79.0654H388.017C388.345 79.4873 388.509 80.0264 388.509 80.6826C388.509 81.4326 388.222 82.0742 387.648 82.6074C387.073 83.1406 386.303 83.4072 385.336 83.4072C384.938 83.4072 384.53 83.3486 384.114 83.2314C383.856 83.4541 383.681 83.6504 383.587 83.8203C383.499 83.9844 383.455 84.125 383.455 84.2422C383.455 84.3418 383.502 84.4385 383.596 84.5322C383.695 84.626 383.886 84.6934 384.167 84.7344C384.331 84.7578 384.741 84.7783 385.398 84.7959C386.605 84.8252 387.387 84.8662 387.744 84.9189C388.289 84.9951 388.723 85.1973 389.045 85.5254C389.373 85.8535 389.537 86.2578 389.537 86.7383C389.537 87.4004 389.227 88.0215 388.606 88.6016C387.691 89.457 386.499 89.8848 385.028 89.8848C383.898 89.8848 382.942 89.6299 382.163 89.1201C381.724 88.8271 381.504 88.5225 381.504 88.2061C381.504 88.0654 381.536 87.9248 381.601 87.7842C381.7 87.5674 381.905 87.2656 382.216 86.8789C382.257 86.8262 382.556 86.5098 383.112 85.9297C382.808 85.748 382.591 85.5869 382.462 85.4463C382.339 85.2998 382.277 85.1357 382.277 84.9541C382.277 84.749 382.359 84.5088 382.523 84.2334C382.693 83.958 383.08 83.5684 383.684 83.0645ZM385.213 78.1338C384.779 78.1338 384.416 78.3066 384.123 78.6523C383.83 78.998 383.684 79.5283 383.684 80.2432C383.684 81.1689 383.883 81.8867 384.281 82.3965C384.586 82.7832 384.973 82.9766 385.441 82.9766C385.887 82.9766 386.253 82.8096 386.54 82.4756C386.827 82.1416 386.971 81.6172 386.971 80.9023C386.971 79.9707 386.769 79.2412 386.364 78.7139C386.065 78.3271 385.682 78.1338 385.213 78.1338ZM383.596 86C383.32 86.2988 383.112 86.5771 382.972 86.835C382.831 87.0928 382.761 87.3301 382.761 87.5469C382.761 87.8281 382.931 88.0742 383.271 88.2852C383.856 88.6484 384.703 88.8301 385.811 88.8301C386.865 88.8301 387.642 88.6426 388.14 88.2676C388.644 87.8984 388.896 87.5029 388.896 87.0811C388.896 86.7764 388.746 86.5596 388.447 86.4307C388.143 86.3018 387.539 86.2256 386.637 86.2021C385.318 86.167 384.305 86.0996 383.596 86ZM394.857 79.417C395.8 78.2803 396.7 77.7119 397.555 77.7119C397.995 77.7119 398.373 77.8232 398.689 78.0459C399.005 78.2627 399.257 78.623 399.445 79.127C399.574 79.4785 399.638 80.0176 399.638 80.7441V84.1807C399.638 84.6904 399.679 85.0361 399.761 85.2178C399.826 85.3643 399.928 85.4785 400.069 85.5605C400.215 85.6426 400.482 85.6836 400.869 85.6836V86H396.887V85.6836H397.054C397.429 85.6836 397.69 85.6279 397.836 85.5166C397.989 85.3994 398.094 85.2295 398.153 85.0068C398.176 84.9189 398.188 84.6436 398.188 84.1807V80.8848C398.188 80.1523 398.091 79.6221 397.898 79.2939C397.711 78.96 397.391 78.793 396.94 78.793C396.243 78.793 395.548 79.1738 394.857 79.9355V84.1807C394.857 84.7256 394.889 85.0625 394.954 85.1914C395.036 85.3613 395.147 85.4873 395.288 85.5693C395.434 85.6455 395.727 85.6836 396.167 85.6836V86H392.185V85.6836H392.361C392.771 85.6836 393.046 85.5811 393.187 85.376C393.334 85.165 393.407 84.7666 393.407 84.1807V81.1924C393.407 80.2256 393.383 79.6367 393.336 79.4258C393.295 79.2148 393.228 79.0713 393.134 78.9951C393.046 78.9189 392.926 78.8809 392.774 78.8809C392.61 78.8809 392.414 78.9248 392.185 79.0127L392.053 78.6963L394.479 77.7119H394.857V79.417ZM408.693 77.7119V80.4541H408.403C408.181 79.5928 407.894 79.0068 407.542 78.6963C407.196 78.3857 406.754 78.2305 406.215 78.2305C405.805 78.2305 405.474 78.3389 405.222 78.5557C404.97 78.7725 404.844 79.0127 404.844 79.2764C404.844 79.6045 404.938 79.8857 405.125 80.1201C405.307 80.3604 405.676 80.6152 406.233 80.8848L407.516 81.5088C408.705 82.0889 409.3 82.8535 409.3 83.8027C409.3 84.5352 409.022 85.127 408.465 85.5781C407.914 86.0234 407.296 86.2461 406.61 86.2461C406.118 86.2461 405.556 86.1582 404.923 85.9824C404.73 85.9238 404.571 85.8945 404.448 85.8945C404.314 85.8945 404.208 85.9707 404.132 86.123H403.842V83.249H404.132C404.296 84.0693 404.609 84.6875 405.072 85.1035C405.535 85.5195 406.054 85.7275 406.628 85.7275C407.032 85.7275 407.36 85.6104 407.612 85.376C407.87 85.1357 407.999 84.8486 407.999 84.5146C407.999 84.1104 407.856 83.7705 407.568 83.4951C407.287 83.2197 406.722 82.8711 405.872 82.4492C405.023 82.0273 404.466 81.6465 404.202 81.3066C403.939 80.9727 403.807 80.5508 403.807 80.041C403.807 79.3789 404.032 78.8252 404.483 78.3799C404.941 77.9346 405.529 77.7119 406.25 77.7119C406.566 77.7119 406.95 77.7793 407.401 77.9141C407.7 78.002 407.9 78.0459 407.999 78.0459C408.093 78.0459 408.166 78.0254 408.219 77.9844C408.272 77.9434 408.333 77.8525 408.403 77.7119H408.693ZM424.167 77.7119V80.4541H423.877C423.654 79.5928 423.367 79.0068 423.016 78.6963C422.67 78.3857 422.228 78.2305 421.689 78.2305C421.278 78.2305 420.947 78.3389 420.695 78.5557C420.443 78.7725 420.318 79.0127 420.318 79.2764C420.318 79.6045 420.411 79.8857 420.599 80.1201C420.78 80.3604 421.15 80.6152 421.706 80.8848L422.989 81.5088C424.179 82.0889 424.774 82.8535 424.774 83.8027C424.774 84.5352 424.495 85.127 423.939 85.5781C423.388 86.0234 422.77 86.2461 422.084 86.2461C421.592 86.2461 421.029 86.1582 420.397 85.9824C420.203 85.9238 420.045 85.8945 419.922 85.8945C419.787 85.8945 419.682 85.9707 419.606 86.123H419.316V83.249H419.606C419.77 84.0693 420.083 84.6875 420.546 85.1035C421.009 85.5195 421.527 85.7275 422.102 85.7275C422.506 85.7275 422.834 85.6104 423.086 85.376C423.344 85.1357 423.473 84.8486 423.473 84.5146C423.473 84.1104 423.329 83.7705 423.042 83.4951C422.761 83.2197 422.195 82.8711 421.346 82.4492C420.496 82.0273 419.94 81.6465 419.676 81.3066C419.412 80.9727 419.28 80.5508 419.28 80.041C419.28 79.3789 419.506 78.8252 419.957 78.3799C420.414 77.9346 421.003 77.7119 421.724 77.7119C422.04 77.7119 422.424 77.7793 422.875 77.9141C423.174 78.002 423.373 78.0459 423.473 78.0459C423.567 78.0459 423.64 78.0254 423.693 77.9844C423.745 77.9434 423.807 77.8525 423.877 77.7119H424.167ZM431.895 77.7119C433.114 77.7119 434.092 78.1748 434.831 79.1006C435.458 79.8916 435.771 80.7998 435.771 81.8252C435.771 82.5459 435.598 83.2754 435.253 84.0137C434.907 84.752 434.429 85.3086 433.82 85.6836C433.216 86.0586 432.543 86.2461 431.798 86.2461C430.586 86.2461 429.622 85.7627 428.907 84.7959C428.303 83.9814 428.002 83.0674 428.002 82.0537C428.002 81.3154 428.183 80.583 428.547 79.8564C428.916 79.124 429.399 78.585 429.997 78.2393C430.594 77.8877 431.227 77.7119 431.895 77.7119ZM431.623 78.2832C431.312 78.2832 430.999 78.377 430.682 78.5645C430.372 78.7461 430.12 79.0684 429.926 79.5312C429.733 79.9941 429.636 80.5889 429.636 81.3154C429.636 82.4873 429.868 83.498 430.331 84.3477C430.799 85.1973 431.415 85.6221 432.176 85.6221C432.745 85.6221 433.214 85.3877 433.583 84.9189C433.952 84.4502 434.136 83.6445 434.136 82.502C434.136 81.0723 433.829 79.9473 433.214 79.127C432.797 78.5645 432.267 78.2832 431.623 78.2832ZM141.61 101.502C141.856 101.502 142.064 101.59 142.234 101.766C142.41 101.936 142.498 102.144 142.498 102.39C142.498 102.636 142.41 102.847 142.234 103.022C142.064 103.198 141.856 103.286 141.61 103.286C141.364 103.286 141.153 103.198 140.978 103.022C140.802 102.847 140.714 102.636 140.714 102.39C140.714 102.144 140.799 101.936 140.969 101.766C141.145 101.59 141.358 101.502 141.61 101.502ZM142.34 105.712V112.181C142.34 112.685 142.375 113.021 142.445 113.191C142.521 113.355 142.63 113.479 142.771 113.561C142.917 113.643 143.181 113.684 143.562 113.684V114H139.65V113.684C140.043 113.684 140.307 113.646 140.441 113.569C140.576 113.493 140.682 113.367 140.758 113.191C140.84 113.016 140.881 112.679 140.881 112.181V109.078C140.881 108.205 140.854 107.64 140.802 107.382C140.761 107.194 140.696 107.065 140.608 106.995C140.521 106.919 140.4 106.881 140.248 106.881C140.084 106.881 139.885 106.925 139.65 107.013L139.527 106.696L141.953 105.712H142.34ZM148.899 107.417C149.842 106.28 150.742 105.712 151.597 105.712C152.037 105.712 152.415 105.823 152.731 106.046C153.047 106.263 153.299 106.623 153.487 107.127C153.616 107.479 153.68 108.018 153.68 108.744V112.181C153.68 112.69 153.721 113.036 153.803 113.218C153.868 113.364 153.97 113.479 154.111 113.561C154.257 113.643 154.524 113.684 154.911 113.684V114H150.929V113.684H151.096C151.471 113.684 151.732 113.628 151.878 113.517C152.031 113.399 152.136 113.229 152.195 113.007C152.218 112.919 152.23 112.644 152.23 112.181V108.885C152.23 108.152 152.133 107.622 151.94 107.294C151.752 106.96 151.433 106.793 150.982 106.793C150.285 106.793 149.59 107.174 148.899 107.936V112.181C148.899 112.726 148.931 113.062 148.996 113.191C149.078 113.361 149.189 113.487 149.33 113.569C149.476 113.646 149.769 113.684 150.209 113.684V114H146.227V113.684H146.403C146.813 113.684 147.088 113.581 147.229 113.376C147.376 113.165 147.449 112.767 147.449 112.181V109.192C147.449 108.226 147.425 107.637 147.378 107.426C147.337 107.215 147.27 107.071 147.176 106.995C147.088 106.919 146.968 106.881 146.816 106.881C146.652 106.881 146.456 106.925 146.227 107.013L146.095 106.696L148.521 105.712H148.899V107.417ZM159.87 103.304V105.949H161.751V106.564H159.87V111.785C159.87 112.307 159.943 112.658 160.09 112.84C160.242 113.021 160.436 113.112 160.67 113.112C160.863 113.112 161.051 113.054 161.232 112.937C161.414 112.813 161.555 112.635 161.654 112.4H161.997C161.792 112.975 161.502 113.408 161.127 113.701C160.752 113.988 160.365 114.132 159.967 114.132C159.697 114.132 159.434 114.059 159.176 113.912C158.918 113.76 158.728 113.546 158.605 113.271C158.481 112.989 158.42 112.559 158.42 111.979V106.564H157.146V106.274C157.468 106.146 157.796 105.929 158.13 105.624C158.47 105.313 158.772 104.947 159.035 104.525C159.17 104.303 159.357 103.896 159.598 103.304H159.87ZM171.58 105.949V110.827C171.58 111.759 171.6 112.33 171.641 112.541C171.688 112.746 171.758 112.89 171.852 112.972C171.952 113.054 172.066 113.095 172.195 113.095C172.377 113.095 172.582 113.045 172.81 112.945L172.933 113.253L170.525 114.246H170.129V112.541C169.438 113.291 168.911 113.763 168.547 113.956C168.184 114.149 167.8 114.246 167.396 114.246C166.945 114.246 166.552 114.117 166.218 113.859C165.89 113.596 165.662 113.259 165.533 112.849C165.404 112.438 165.339 111.858 165.339 111.108V107.514C165.339 107.133 165.298 106.869 165.216 106.723C165.134 106.576 165.011 106.465 164.847 106.389C164.689 106.307 164.399 106.269 163.977 106.274V105.949H166.798V111.337C166.798 112.087 166.927 112.579 167.185 112.813C167.449 113.048 167.765 113.165 168.134 113.165C168.386 113.165 168.67 113.086 168.987 112.928C169.309 112.77 169.69 112.468 170.129 112.022V107.461C170.129 107.004 170.044 106.696 169.875 106.538C169.711 106.374 169.365 106.286 168.837 106.274V105.949H171.58ZM177.55 101.502C177.796 101.502 178.004 101.59 178.174 101.766C178.35 101.936 178.438 102.144 178.438 102.39C178.438 102.636 178.35 102.847 178.174 103.022C178.004 103.198 177.796 103.286 177.55 103.286C177.304 103.286 177.093 103.198 176.917 103.022C176.741 102.847 176.653 102.636 176.653 102.39C176.653 102.144 176.738 101.936 176.908 101.766C177.084 101.59 177.298 101.502 177.55 101.502ZM178.279 105.712V112.181C178.279 112.685 178.315 113.021 178.385 113.191C178.461 113.355 178.569 113.479 178.71 113.561C178.857 113.643 179.12 113.684 179.501 113.684V114H175.59V113.684C175.982 113.684 176.246 113.646 176.381 113.569C176.516 113.493 176.621 113.367 176.697 113.191C176.779 113.016 176.82 112.679 176.82 112.181V109.078C176.82 108.205 176.794 107.64 176.741 107.382C176.7 107.194 176.636 107.065 176.548 106.995C176.46 106.919 176.34 106.881 176.188 106.881C176.024 106.881 175.824 106.925 175.59 107.013L175.467 106.696L177.893 105.712H178.279ZM184.83 103.304V105.949H186.711V106.564H184.83V111.785C184.83 112.307 184.903 112.658 185.049 112.84C185.202 113.021 185.395 113.112 185.629 113.112C185.823 113.112 186.01 113.054 186.192 112.937C186.374 112.813 186.514 112.635 186.614 112.4H186.957C186.752 112.975 186.462 113.408 186.087 113.701C185.712 113.988 185.325 114.132 184.926 114.132C184.657 114.132 184.393 114.059 184.135 113.912C183.878 113.76 183.687 113.546 183.564 113.271C183.441 112.989 183.379 112.559 183.379 111.979V106.564H182.105V106.274C182.427 106.146 182.755 105.929 183.089 105.624C183.429 105.313 183.731 104.947 183.995 104.525C184.129 104.303 184.317 103.896 184.557 103.304H184.83ZM191.529 101.502C191.776 101.502 191.984 101.59 192.153 101.766C192.329 101.936 192.417 102.144 192.417 102.39C192.417 102.636 192.329 102.847 192.153 103.022C191.984 103.198 191.776 103.286 191.529 103.286C191.283 103.286 191.072 103.198 190.897 103.022C190.721 102.847 190.633 102.636 190.633 102.39C190.633 102.144 190.718 101.936 190.888 101.766C191.064 101.59 191.277 101.502 191.529 101.502ZM192.259 105.712V112.181C192.259 112.685 192.294 113.021 192.364 113.191C192.441 113.355 192.549 113.479 192.69 113.561C192.836 113.643 193.1 113.684 193.481 113.684V114H189.569V113.684C189.962 113.684 190.226 113.646 190.36 113.569C190.495 113.493 190.601 113.367 190.677 113.191C190.759 113.016 190.8 112.679 190.8 112.181V109.078C190.8 108.205 190.774 107.64 190.721 107.382C190.68 107.194 190.615 107.065 190.527 106.995C190.44 106.919 190.319 106.881 190.167 106.881C190.003 106.881 189.804 106.925 189.569 107.013L189.446 106.696L191.872 105.712H192.259ZM196.058 105.949H199.846V106.274H199.6C199.372 106.274 199.196 106.33 199.073 106.441C198.956 106.553 198.897 106.702 198.897 106.89C198.897 107.095 198.959 107.338 199.082 107.619L200.954 112.066L202.835 107.452C202.969 107.124 203.037 106.875 203.037 106.705C203.037 106.623 203.013 106.556 202.966 106.503C202.902 106.415 202.82 106.356 202.72 106.327C202.621 106.292 202.419 106.274 202.114 106.274V105.949H204.742V106.274C204.437 106.298 204.226 106.359 204.109 106.459C203.904 106.635 203.719 106.928 203.555 107.338L200.699 114.246H200.339L197.464 107.452C197.336 107.136 197.213 106.91 197.095 106.775C196.978 106.635 196.829 106.518 196.647 106.424C196.548 106.371 196.351 106.321 196.058 106.274V105.949ZM208.805 108.981C208.799 110.177 209.089 111.114 209.675 111.794C210.261 112.474 210.949 112.813 211.74 112.813C212.268 112.813 212.725 112.67 213.111 112.383C213.504 112.09 213.832 111.592 214.096 110.889L214.368 111.064C214.245 111.867 213.888 112.6 213.296 113.262C212.704 113.918 211.963 114.246 211.072 114.246C210.106 114.246 209.277 113.871 208.585 113.121C207.9 112.365 207.557 111.352 207.557 110.08C207.557 108.703 207.908 107.631 208.611 106.863C209.32 106.09 210.208 105.703 211.275 105.703C212.177 105.703 212.918 106.002 213.498 106.6C214.078 107.191 214.368 107.985 214.368 108.981H208.805ZM208.805 108.472H212.531C212.502 107.956 212.441 107.593 212.347 107.382C212.2 107.054 211.981 106.796 211.688 106.608C211.401 106.421 211.099 106.327 210.782 106.327C210.296 106.327 209.86 106.518 209.473 106.898C209.092 107.273 208.869 107.798 208.805 108.472ZM217.834 116.997V116.61C218.437 116.411 218.903 116.101 219.231 115.679C219.565 115.263 219.732 114.82 219.732 114.352C219.732 114.24 219.706 114.146 219.653 114.07C219.612 114.018 219.571 113.991 219.53 113.991C219.466 113.991 219.325 114.05 219.108 114.167C219.003 114.22 218.891 114.246 218.774 114.246C218.487 114.246 218.258 114.161 218.089 113.991C217.919 113.821 217.834 113.587 217.834 113.288C217.834 113.001 217.942 112.755 218.159 112.55C218.382 112.345 218.651 112.242 218.967 112.242C219.354 112.242 219.697 112.412 219.996 112.752C220.3 113.086 220.453 113.531 220.453 114.088C220.453 114.691 220.242 115.251 219.82 115.767C219.404 116.288 218.742 116.698 217.834 116.997ZM232.727 103.304V105.949H234.608V106.564H232.727V111.785C232.727 112.307 232.801 112.658 232.947 112.84C233.099 113.021 233.293 113.112 233.527 113.112C233.72 113.112 233.908 113.054 234.09 112.937C234.271 112.813 234.412 112.635 234.511 112.4H234.854C234.649 112.975 234.359 113.408 233.984 113.701C233.609 113.988 233.222 114.132 232.824 114.132C232.554 114.132 232.291 114.059 232.033 113.912C231.775 113.76 231.585 113.546 231.462 113.271C231.339 112.989 231.277 112.559 231.277 111.979V106.564H230.003V106.274C230.325 106.146 230.653 105.929 230.987 105.624C231.327 105.313 231.629 104.947 231.892 104.525C232.027 104.303 232.215 103.896 232.455 103.304H232.727ZM239.743 101.502V107.391C240.394 106.676 240.909 106.219 241.29 106.02C241.671 105.814 242.052 105.712 242.433 105.712C242.89 105.712 243.282 105.838 243.611 106.09C243.939 106.342 244.182 106.737 244.34 107.276C244.451 107.651 244.507 108.337 244.507 109.333V112.181C244.507 112.69 244.548 113.039 244.63 113.227C244.689 113.367 244.788 113.479 244.929 113.561C245.07 113.643 245.327 113.684 245.702 113.684V114H241.747V113.684H241.932C242.307 113.684 242.568 113.628 242.714 113.517C242.861 113.399 242.963 113.229 243.022 113.007C243.039 112.913 243.048 112.638 243.048 112.181V109.333C243.048 108.454 243.001 107.877 242.907 107.602C242.82 107.326 242.676 107.121 242.477 106.986C242.278 106.846 242.037 106.775 241.756 106.775C241.469 106.775 241.17 106.852 240.86 107.004C240.549 107.156 240.177 107.464 239.743 107.927V112.181C239.743 112.731 239.773 113.074 239.831 113.209C239.896 113.344 240.01 113.458 240.174 113.552C240.344 113.64 240.634 113.684 241.044 113.684V114H237.054V113.684C237.411 113.684 237.693 113.628 237.898 113.517C238.015 113.458 238.109 113.347 238.179 113.183C238.249 113.019 238.284 112.685 238.284 112.181V104.895C238.284 103.975 238.261 103.409 238.214 103.198C238.173 102.987 238.106 102.844 238.012 102.768C237.924 102.691 237.804 102.653 237.652 102.653C237.529 102.653 237.329 102.7 237.054 102.794L236.931 102.486L239.339 101.502H239.743ZM249.713 108.981C249.707 110.177 249.997 111.114 250.583 111.794C251.169 112.474 251.857 112.813 252.648 112.813C253.176 112.813 253.633 112.67 254.019 112.383C254.412 112.09 254.74 111.592 255.004 110.889L255.276 111.064C255.153 111.867 254.796 112.6 254.204 113.262C253.612 113.918 252.871 114.246 251.98 114.246C251.013 114.246 250.184 113.871 249.493 113.121C248.807 112.365 248.465 111.352 248.465 110.08C248.465 108.703 248.816 107.631 249.519 106.863C250.228 106.09 251.116 105.703 252.182 105.703C253.085 105.703 253.826 106.002 254.406 106.6C254.986 107.191 255.276 107.985 255.276 108.981H249.713ZM249.713 108.472H253.439C253.41 107.956 253.348 107.593 253.255 107.382C253.108 107.054 252.888 106.796 252.595 106.608C252.308 106.421 252.007 106.327 251.69 106.327C251.204 106.327 250.767 106.518 250.381 106.898C250 107.273 249.777 107.798 249.713 108.472ZM257.88 105.949H261.633V106.274H261.449C261.185 106.274 260.986 106.333 260.851 106.45C260.722 106.562 260.658 106.702 260.658 106.872C260.658 107.101 260.754 107.417 260.948 107.821L262.908 111.882L264.709 107.435C264.809 107.194 264.859 106.957 264.859 106.723C264.859 106.617 264.838 106.538 264.797 106.485C264.75 106.421 264.677 106.371 264.577 106.336C264.478 106.295 264.302 106.274 264.05 106.274V105.949H266.669V106.274C266.452 106.298 266.285 106.345 266.168 106.415C266.051 106.485 265.922 106.617 265.782 106.811C265.729 106.893 265.629 107.118 265.483 107.487L262.204 115.521C261.888 116.3 261.472 116.889 260.956 117.287C260.447 117.686 259.954 117.885 259.48 117.885C259.134 117.885 258.85 117.785 258.627 117.586C258.405 117.387 258.293 117.158 258.293 116.9C258.293 116.654 258.372 116.455 258.531 116.303C258.695 116.156 258.917 116.083 259.199 116.083C259.392 116.083 259.656 116.147 259.99 116.276C260.224 116.364 260.37 116.408 260.429 116.408C260.605 116.408 260.795 116.317 261 116.136C261.211 115.954 261.422 115.603 261.633 115.081L262.204 113.684L259.313 107.61C259.225 107.429 259.084 107.203 258.891 106.934C258.744 106.729 258.624 106.591 258.531 106.521C258.396 106.427 258.179 106.345 257.88 106.274V105.949ZM278.944 106.582V111.873C278.944 112.623 279.026 113.098 279.19 113.297C279.407 113.555 279.697 113.684 280.06 113.684H280.789V114H275.982V113.684H276.342C276.576 113.684 276.79 113.625 276.984 113.508C277.177 113.391 277.309 113.232 277.379 113.033C277.455 112.834 277.493 112.447 277.493 111.873V106.582H275.929V105.949H277.493V105.422C277.493 104.619 277.622 103.939 277.88 103.383C278.138 102.826 278.531 102.378 279.058 102.038C279.591 101.692 280.189 101.52 280.851 101.52C281.466 101.52 282.032 101.719 282.547 102.117C282.887 102.381 283.057 102.677 283.057 103.005C283.057 103.181 282.981 103.348 282.828 103.506C282.676 103.658 282.512 103.734 282.336 103.734C282.201 103.734 282.058 103.688 281.906 103.594C281.759 103.494 281.577 103.286 281.361 102.97C281.144 102.647 280.945 102.431 280.763 102.319C280.581 102.208 280.379 102.152 280.157 102.152C279.887 102.152 279.659 102.226 279.471 102.372C279.284 102.513 279.149 102.735 279.067 103.04C278.985 103.339 278.944 104.115 278.944 105.369V105.949H281.018V106.582H278.944ZM285.125 108.981C285.119 110.177 285.409 111.114 285.995 111.794C286.581 112.474 287.269 112.813 288.06 112.813C288.588 112.813 289.045 112.67 289.431 112.383C289.824 112.09 290.152 111.592 290.416 110.889L290.688 111.064C290.565 111.867 290.208 112.6 289.616 113.262C289.024 113.918 288.283 114.246 287.392 114.246C286.426 114.246 285.597 113.871 284.905 113.121C284.22 112.365 283.877 111.352 283.877 110.08C283.877 108.703 284.228 107.631 284.931 106.863C285.64 106.09 286.528 105.703 287.595 105.703C288.497 105.703 289.238 106.002 289.818 106.6C290.398 107.191 290.688 107.985 290.688 108.981H285.125ZM285.125 108.472H288.851C288.822 107.956 288.761 107.593 288.667 107.382C288.52 107.054 288.301 106.796 288.008 106.608C287.721 106.421 287.419 106.327 287.102 106.327C286.616 106.327 286.18 106.518 285.793 106.898C285.412 107.273 285.189 107.798 285.125 108.472ZM295.103 108.981C295.097 110.177 295.387 111.114 295.973 111.794C296.559 112.474 297.247 112.813 298.038 112.813C298.566 112.813 299.023 112.67 299.41 112.383C299.802 112.09 300.13 111.592 300.394 110.889L300.666 111.064C300.543 111.867 300.186 112.6 299.594 113.262C299.002 113.918 298.261 114.246 297.37 114.246C296.404 114.246 295.575 113.871 294.883 113.121C294.198 112.365 293.855 111.352 293.855 110.08C293.855 108.703 294.206 107.631 294.91 106.863C295.619 106.09 296.506 105.703 297.573 105.703C298.475 105.703 299.216 106.002 299.796 106.6C300.376 107.191 300.666 107.985 300.666 108.981H295.103ZM295.103 108.472H298.829C298.8 107.956 298.739 107.593 298.645 107.382C298.498 107.054 298.279 106.796 297.986 106.608C297.699 106.421 297.397 106.327 297.08 106.327C296.594 106.327 296.158 106.518 295.771 106.898C295.39 107.273 295.167 107.798 295.103 108.472ZM306.496 101.502V112.181C306.496 112.685 306.531 113.019 306.601 113.183C306.678 113.347 306.792 113.473 306.944 113.561C307.097 113.643 307.381 113.684 307.797 113.684V114H303.85V113.684C304.22 113.684 304.472 113.646 304.606 113.569C304.741 113.493 304.847 113.367 304.923 113.191C304.999 113.016 305.037 112.679 305.037 112.181V104.868C305.037 103.96 305.016 103.403 304.975 103.198C304.934 102.987 304.867 102.844 304.773 102.768C304.685 102.691 304.571 102.653 304.431 102.653C304.278 102.653 304.085 102.7 303.85 102.794L303.701 102.486L306.1 101.502H306.496ZM319.966 101.502V112.181C319.966 112.685 320.001 113.019 320.071 113.183C320.147 113.347 320.262 113.473 320.414 113.561C320.566 113.643 320.851 113.684 321.267 113.684V114H317.32V113.684C317.689 113.684 317.941 113.646 318.076 113.569C318.211 113.493 318.316 113.367 318.393 113.191C318.469 113.016 318.507 112.679 318.507 112.181V104.868C318.507 103.96 318.486 103.403 318.445 103.198C318.404 102.987 318.337 102.844 318.243 102.768C318.155 102.691 318.041 102.653 317.9 102.653C317.748 102.653 317.555 102.7 317.32 102.794L317.171 102.486L319.57 101.502H319.966ZM326.235 101.502C326.481 101.502 326.689 101.59 326.859 101.766C327.035 101.936 327.122 102.144 327.122 102.39C327.122 102.636 327.035 102.847 326.859 103.022C326.689 103.198 326.481 103.286 326.235 103.286C325.989 103.286 325.778 103.198 325.602 103.022C325.426 102.847 325.338 102.636 325.338 102.39C325.338 102.144 325.423 101.936 325.593 101.766C325.769 101.59 325.983 101.502 326.235 101.502ZM326.964 105.712V112.181C326.964 112.685 326.999 113.021 327.07 113.191C327.146 113.355 327.254 113.479 327.395 113.561C327.541 113.643 327.805 113.684 328.186 113.684V114H324.275V113.684C324.667 113.684 324.931 113.646 325.066 113.569C325.201 113.493 325.306 113.367 325.382 113.191C325.464 113.016 325.505 112.679 325.505 112.181V109.078C325.505 108.205 325.479 107.64 325.426 107.382C325.385 107.194 325.321 107.065 325.233 106.995C325.145 106.919 325.025 106.881 324.872 106.881C324.708 106.881 324.509 106.925 324.275 107.013L324.152 106.696L326.578 105.712H326.964ZM333.559 101.502V109.518L335.606 107.646C336.04 107.247 336.292 106.995 336.362 106.89C336.409 106.819 336.433 106.749 336.433 106.679C336.433 106.562 336.383 106.462 336.283 106.38C336.189 106.292 336.031 106.242 335.809 106.23V105.949H339.307V106.23C338.826 106.242 338.425 106.315 338.102 106.45C337.786 106.585 337.437 106.825 337.057 107.171L334.991 109.078L337.057 111.688C337.631 112.409 338.018 112.866 338.217 113.06C338.498 113.335 338.744 113.514 338.955 113.596C339.102 113.654 339.356 113.684 339.72 113.684V114H335.809V113.684C336.031 113.678 336.181 113.646 336.257 113.587C336.339 113.522 336.38 113.435 336.38 113.323C336.38 113.188 336.263 112.972 336.028 112.673L333.559 109.518V112.189C333.559 112.711 333.594 113.054 333.664 113.218C333.74 113.382 333.846 113.499 333.98 113.569C334.115 113.64 334.408 113.678 334.859 113.684V114H330.764V113.684C331.174 113.684 331.481 113.634 331.686 113.534C331.81 113.47 331.903 113.37 331.968 113.235C332.056 113.042 332.1 112.708 332.1 112.233V104.903C332.1 103.972 332.079 103.403 332.038 103.198C331.997 102.987 331.93 102.844 331.836 102.768C331.742 102.686 331.619 102.645 331.467 102.645C331.344 102.645 331.159 102.694 330.913 102.794L330.764 102.486L333.154 101.502H333.559ZM343.51 108.981C343.504 110.177 343.794 111.114 344.38 111.794C344.966 112.474 345.655 112.813 346.446 112.813C346.973 112.813 347.43 112.67 347.817 112.383C348.209 112.09 348.538 111.592 348.801 110.889L349.074 111.064C348.951 111.867 348.593 112.6 348.001 113.262C347.41 113.918 346.668 114.246 345.778 114.246C344.811 114.246 343.982 113.871 343.291 113.121C342.605 112.365 342.262 111.352 342.262 110.08C342.262 108.703 342.614 107.631 343.317 106.863C344.026 106.09 344.914 105.703 345.98 105.703C346.882 105.703 347.624 106.002 348.204 106.6C348.784 107.191 349.074 107.985 349.074 108.981H343.51ZM343.51 108.472H347.237C347.208 107.956 347.146 107.593 347.052 107.382C346.906 107.054 346.686 106.796 346.393 106.608C346.106 106.421 345.804 106.327 345.488 106.327C345.001 106.327 344.565 106.518 344.178 106.898C343.797 107.273 343.575 107.798 343.51 108.472ZM363.818 105.712V108.454H363.528C363.305 107.593 363.018 107.007 362.667 106.696C362.321 106.386 361.878 106.23 361.339 106.23C360.929 106.23 360.598 106.339 360.346 106.556C360.094 106.772 359.968 107.013 359.968 107.276C359.968 107.604 360.062 107.886 360.25 108.12C360.431 108.36 360.8 108.615 361.357 108.885L362.64 109.509C363.83 110.089 364.424 110.854 364.424 111.803C364.424 112.535 364.146 113.127 363.589 113.578C363.039 114.023 362.42 114.246 361.735 114.246C361.243 114.246 360.68 114.158 360.047 113.982C359.854 113.924 359.696 113.895 359.573 113.895C359.438 113.895 359.333 113.971 359.256 114.123H358.966V111.249H359.256C359.42 112.069 359.734 112.688 360.197 113.104C360.66 113.52 361.178 113.728 361.752 113.728C362.157 113.728 362.485 113.61 362.737 113.376C362.995 113.136 363.124 112.849 363.124 112.515C363.124 112.11 362.98 111.771 362.693 111.495C362.412 111.22 361.846 110.871 360.997 110.449C360.147 110.027 359.59 109.646 359.327 109.307C359.063 108.973 358.931 108.551 358.931 108.041C358.931 107.379 359.157 106.825 359.608 106.38C360.065 105.935 360.654 105.712 361.375 105.712C361.691 105.712 362.075 105.779 362.526 105.914C362.825 106.002 363.024 106.046 363.124 106.046C363.217 106.046 363.291 106.025 363.343 105.984C363.396 105.943 363.458 105.853 363.528 105.712H363.818ZM368.962 108.981C368.956 110.177 369.246 111.114 369.832 111.794C370.418 112.474 371.106 112.813 371.898 112.813C372.425 112.813 372.882 112.67 373.269 112.383C373.661 112.09 373.989 111.592 374.253 110.889L374.525 111.064C374.402 111.867 374.045 112.6 373.453 113.262C372.861 113.918 372.12 114.246 371.23 114.246C370.263 114.246 369.434 113.871 368.742 113.121C368.057 112.365 367.714 111.352 367.714 110.08C367.714 108.703 368.065 107.631 368.769 106.863C369.478 106.09 370.365 105.703 371.432 105.703C372.334 105.703 373.075 106.002 373.655 106.6C374.235 107.191 374.525 107.985 374.525 108.981H368.962ZM368.962 108.472H372.689C372.659 107.956 372.598 107.593 372.504 107.382C372.357 107.054 372.138 106.796 371.845 106.608C371.558 106.421 371.256 106.327 370.939 106.327C370.453 106.327 370.017 106.518 369.63 106.898C369.249 107.273 369.026 107.798 368.962 108.472ZM384.424 110.941C384.208 112.002 383.783 112.819 383.15 113.394C382.517 113.962 381.817 114.246 381.049 114.246C380.135 114.246 379.338 113.862 378.659 113.095C377.979 112.327 377.639 111.29 377.639 109.983C377.639 108.718 378.014 107.689 378.764 106.898C379.52 106.107 380.425 105.712 381.48 105.712C382.271 105.712 382.921 105.923 383.431 106.345C383.941 106.761 384.196 107.194 384.196 107.646C384.196 107.868 384.123 108.05 383.976 108.19C383.836 108.325 383.636 108.393 383.378 108.393C383.033 108.393 382.772 108.281 382.596 108.059C382.497 107.936 382.429 107.701 382.394 107.355C382.365 107.01 382.248 106.746 382.043 106.564C381.837 106.389 381.553 106.301 381.19 106.301C380.604 106.301 380.132 106.518 379.775 106.951C379.3 107.525 379.063 108.284 379.063 109.228C379.063 110.188 379.297 111.038 379.766 111.776C380.241 112.509 380.879 112.875 381.682 112.875C382.256 112.875 382.772 112.679 383.229 112.286C383.551 112.017 383.865 111.527 384.169 110.818L384.424 110.941ZM391.502 105.712C392.721 105.712 393.699 106.175 394.438 107.101C395.065 107.892 395.378 108.8 395.378 109.825C395.378 110.546 395.205 111.275 394.859 112.014C394.514 112.752 394.036 113.309 393.427 113.684C392.823 114.059 392.149 114.246 391.405 114.246C390.192 114.246 389.229 113.763 388.514 112.796C387.91 111.981 387.608 111.067 387.608 110.054C387.608 109.315 387.79 108.583 388.153 107.856C388.523 107.124 389.006 106.585 389.604 106.239C390.201 105.888 390.834 105.712 391.502 105.712ZM391.23 106.283C390.919 106.283 390.606 106.377 390.289 106.564C389.979 106.746 389.727 107.068 389.533 107.531C389.34 107.994 389.243 108.589 389.243 109.315C389.243 110.487 389.475 111.498 389.938 112.348C390.406 113.197 391.022 113.622 391.783 113.622C392.352 113.622 392.82 113.388 393.19 112.919C393.559 112.45 393.743 111.645 393.743 110.502C393.743 109.072 393.436 107.947 392.82 107.127C392.404 106.564 391.874 106.283 391.23 106.283ZM400.891 107.417C401.835 106.28 402.734 105.712 403.589 105.712C404.029 105.712 404.407 105.823 404.723 106.046C405.04 106.263 405.292 106.623 405.479 107.127C405.608 107.479 405.672 108.018 405.672 108.744V112.181C405.672 112.69 405.713 113.036 405.796 113.218C405.86 113.364 405.962 113.479 406.103 113.561C406.25 113.643 406.516 113.684 406.903 113.684V114H402.921V113.684H403.088C403.463 113.684 403.724 113.628 403.871 113.517C404.023 113.399 404.129 113.229 404.187 113.007C404.211 112.919 404.222 112.644 404.222 112.181V108.885C404.222 108.152 404.126 107.622 403.932 107.294C403.745 106.96 403.425 106.793 402.974 106.793C402.277 106.793 401.583 107.174 400.891 107.936V112.181C400.891 112.726 400.923 113.062 400.988 113.191C401.07 113.361 401.181 113.487 401.322 113.569C401.468 113.646 401.761 113.684 402.201 113.684V114H398.219V113.684H398.395C398.805 113.684 399.081 113.581 399.221 113.376C399.368 113.165 399.441 112.767 399.441 112.181V109.192C399.441 108.226 399.418 107.637 399.371 107.426C399.33 107.215 399.262 107.071 399.169 106.995C399.081 106.919 398.961 106.881 398.808 106.881C398.644 106.881 398.448 106.925 398.219 107.013L398.087 106.696L400.513 105.712H400.891V107.417ZM415.211 113.095C414.818 113.505 414.435 113.801 414.06 113.982C413.685 114.158 413.28 114.246 412.847 114.246C411.968 114.246 411.2 113.88 410.544 113.147C409.888 112.409 409.56 111.463 409.56 110.309C409.56 109.154 409.923 108.1 410.65 107.145C411.376 106.184 412.311 105.703 413.453 105.703C414.162 105.703 414.748 105.929 415.211 106.38V104.895C415.211 103.975 415.188 103.409 415.141 103.198C415.1 102.987 415.032 102.844 414.939 102.768C414.845 102.691 414.728 102.653 414.587 102.653C414.435 102.653 414.233 102.7 413.981 102.794L413.866 102.486L416.266 101.502H416.661V110.81C416.661 111.753 416.682 112.33 416.723 112.541C416.77 112.746 416.84 112.89 416.934 112.972C417.033 113.054 417.148 113.095 417.276 113.095C417.435 113.095 417.646 113.045 417.909 112.945L418.006 113.253L415.615 114.246H415.211V113.095ZM415.211 112.479V108.331C415.176 107.933 415.07 107.569 414.895 107.241C414.719 106.913 414.484 106.667 414.192 106.503C413.904 106.333 413.623 106.248 413.348 106.248C412.832 106.248 412.372 106.479 411.968 106.942C411.435 107.552 411.168 108.442 411.168 109.614C411.168 110.798 411.426 111.706 411.942 112.339C412.457 112.966 413.031 113.279 413.664 113.279C414.197 113.279 414.713 113.013 415.211 112.479ZM141.909 135.417C142.853 134.28 143.752 133.712 144.607 133.712C145.047 133.712 145.425 133.823 145.741 134.046C146.058 134.263 146.31 134.623 146.497 135.127C146.626 135.479 146.69 136.018 146.69 136.744V140.181C146.69 140.69 146.731 141.036 146.813 141.218C146.878 141.364 146.98 141.479 147.121 141.561C147.268 141.643 147.534 141.684 147.921 141.684V142H143.939V141.684H144.106C144.481 141.684 144.742 141.628 144.889 141.517C145.041 141.399 145.146 141.229 145.205 141.007C145.229 140.919 145.24 140.644 145.24 140.181V136.885C145.24 136.152 145.144 135.622 144.95 135.294C144.763 134.96 144.443 134.793 143.992 134.793C143.295 134.793 142.601 135.174 141.909 135.936V140.181C141.909 140.726 141.941 141.062 142.006 141.191C142.088 141.361 142.199 141.487 142.34 141.569C142.486 141.646 142.779 141.684 143.219 141.684V142H139.237V141.684H139.413C139.823 141.684 140.099 141.581 140.239 141.376C140.386 141.165 140.459 140.767 140.459 140.181V137.192C140.459 136.226 140.436 135.637 140.389 135.426C140.348 135.215 140.28 135.071 140.187 134.995C140.099 134.919 139.979 134.881 139.826 134.881C139.662 134.881 139.466 134.925 139.237 135.013L139.105 134.696L141.531 133.712H141.909V135.417ZM155.104 140.84C154.278 141.479 153.759 141.848 153.548 141.947C153.232 142.094 152.895 142.167 152.538 142.167C151.981 142.167 151.521 141.977 151.158 141.596C150.8 141.215 150.622 140.714 150.622 140.093C150.622 139.7 150.709 139.36 150.885 139.073C151.126 138.675 151.542 138.3 152.133 137.948C152.731 137.597 153.721 137.169 155.104 136.665V136.349C155.104 135.546 154.975 134.995 154.717 134.696C154.465 134.397 154.096 134.248 153.61 134.248C153.241 134.248 152.948 134.348 152.731 134.547C152.508 134.746 152.397 134.975 152.397 135.232L152.415 135.742C152.415 136.012 152.344 136.22 152.204 136.366C152.069 136.513 151.89 136.586 151.667 136.586C151.451 136.586 151.272 136.51 151.131 136.357C150.997 136.205 150.929 135.997 150.929 135.733C150.929 135.229 151.187 134.767 151.703 134.345C152.218 133.923 152.942 133.712 153.874 133.712C154.588 133.712 155.174 133.832 155.631 134.072C155.977 134.254 156.232 134.538 156.396 134.925C156.501 135.177 156.554 135.692 156.554 136.472V139.205C156.554 139.973 156.569 140.444 156.598 140.62C156.627 140.79 156.674 140.904 156.739 140.963C156.809 141.021 156.888 141.051 156.976 141.051C157.07 141.051 157.152 141.03 157.222 140.989C157.345 140.913 157.583 140.699 157.934 140.348V140.84C157.278 141.719 156.651 142.158 156.053 142.158C155.766 142.158 155.538 142.059 155.368 141.859C155.198 141.66 155.11 141.32 155.104 140.84ZM155.104 140.269V137.201C154.219 137.553 153.648 137.802 153.39 137.948C152.927 138.206 152.596 138.476 152.397 138.757C152.198 139.038 152.098 139.346 152.098 139.68C152.098 140.102 152.224 140.453 152.476 140.734C152.728 141.01 153.018 141.147 153.346 141.147C153.792 141.147 154.377 140.854 155.104 140.269ZM162.858 131.304V133.949H164.739V134.564H162.858V139.785C162.858 140.307 162.932 140.658 163.078 140.84C163.231 141.021 163.424 141.112 163.658 141.112C163.852 141.112 164.039 141.054 164.221 140.937C164.402 140.813 164.543 140.635 164.643 140.4H164.985C164.78 140.975 164.49 141.408 164.115 141.701C163.74 141.988 163.354 142.132 162.955 142.132C162.686 142.132 162.422 142.059 162.164 141.912C161.906 141.76 161.716 141.546 161.593 141.271C161.47 140.989 161.408 140.559 161.408 139.979V134.564H160.134V134.274C160.456 134.146 160.784 133.929 161.118 133.624C161.458 133.313 161.76 132.947 162.023 132.525C162.158 132.303 162.346 131.896 162.586 131.304H162.858ZM174.568 133.949V138.827C174.568 139.759 174.588 140.33 174.629 140.541C174.676 140.746 174.747 140.89 174.84 140.972C174.94 141.054 175.054 141.095 175.183 141.095C175.365 141.095 175.57 141.045 175.798 140.945L175.921 141.253L173.513 142.246H173.118V140.541C172.426 141.291 171.899 141.763 171.536 141.956C171.172 142.149 170.789 142.246 170.384 142.246C169.933 142.246 169.541 142.117 169.207 141.859C168.878 141.596 168.65 141.259 168.521 140.849C168.392 140.438 168.328 139.858 168.328 139.108V135.514C168.328 135.133 168.287 134.869 168.205 134.723C168.123 134.576 168 134.465 167.836 134.389C167.677 134.307 167.387 134.269 166.965 134.274V133.949H169.787V139.337C169.787 140.087 169.916 140.579 170.173 140.813C170.437 141.048 170.753 141.165 171.123 141.165C171.375 141.165 171.659 141.086 171.975 140.928C172.297 140.77 172.678 140.468 173.118 140.022V135.461C173.118 135.004 173.033 134.696 172.863 134.538C172.699 134.374 172.353 134.286 171.826 134.274V133.949H174.568ZM180.846 133.712V135.522C181.52 134.315 182.211 133.712 182.92 133.712C183.242 133.712 183.509 133.812 183.72 134.011C183.931 134.204 184.036 134.43 184.036 134.688C184.036 134.916 183.96 135.109 183.808 135.268C183.655 135.426 183.474 135.505 183.263 135.505C183.058 135.505 182.826 135.405 182.568 135.206C182.316 135.001 182.129 134.898 182.006 134.898C181.9 134.898 181.786 134.957 181.663 135.074C181.399 135.314 181.127 135.71 180.846 136.261V140.119C180.846 140.564 180.901 140.901 181.013 141.13C181.089 141.288 181.224 141.42 181.417 141.525C181.61 141.631 181.889 141.684 182.252 141.684V142H178.13V141.684C178.54 141.684 178.845 141.619 179.044 141.49C179.191 141.396 179.293 141.247 179.352 141.042C179.381 140.942 179.396 140.658 179.396 140.189V137.069C179.396 136.132 179.375 135.575 179.334 135.399C179.299 135.218 179.229 135.086 179.123 135.004C179.024 134.922 178.898 134.881 178.745 134.881C178.564 134.881 178.358 134.925 178.13 135.013L178.042 134.696L180.477 133.712H180.846ZM187.818 136.981C187.812 138.177 188.102 139.114 188.688 139.794C189.274 140.474 189.963 140.813 190.754 140.813C191.281 140.813 191.738 140.67 192.125 140.383C192.517 140.09 192.845 139.592 193.109 138.889L193.381 139.064C193.258 139.867 192.901 140.6 192.309 141.262C191.717 141.918 190.976 142.246 190.086 142.246C189.119 142.246 188.29 141.871 187.598 141.121C186.913 140.365 186.57 139.352 186.57 138.08C186.57 136.703 186.921 135.631 187.625 134.863C188.334 134.09 189.221 133.703 190.288 133.703C191.19 133.703 191.931 134.002 192.511 134.6C193.091 135.191 193.381 135.985 193.381 136.981H187.818ZM187.818 136.472H191.545C191.515 135.956 191.454 135.593 191.36 135.382C191.213 135.054 190.994 134.796 190.701 134.608C190.414 134.421 190.112 134.327 189.796 134.327C189.309 134.327 188.873 134.518 188.486 134.898C188.105 135.273 187.882 135.798 187.818 136.472ZM205.26 131.304V133.949H207.141V134.564H205.26V139.785C205.26 140.307 205.334 140.658 205.48 140.84C205.632 141.021 205.826 141.112 206.06 141.112C206.254 141.112 206.441 141.054 206.623 140.937C206.804 140.813 206.945 140.635 207.045 140.4H207.387C207.182 140.975 206.892 141.408 206.517 141.701C206.142 141.988 205.756 142.132 205.357 142.132C205.088 142.132 204.824 142.059 204.566 141.912C204.308 141.76 204.118 141.546 203.995 141.271C203.872 140.989 203.81 140.559 203.81 139.979V134.564H202.536V134.274C202.858 134.146 203.186 133.929 203.52 133.624C203.86 133.313 204.162 132.947 204.425 132.525C204.56 132.303 204.748 131.896 204.988 131.304H205.26ZM213.85 133.712C215.069 133.712 216.047 134.175 216.785 135.101C217.412 135.892 217.726 136.8 217.726 137.825C217.726 138.546 217.553 139.275 217.207 140.014C216.861 140.752 216.384 141.309 215.775 141.684C215.171 142.059 214.497 142.246 213.753 142.246C212.54 142.246 211.576 141.763 210.861 140.796C210.258 139.981 209.956 139.067 209.956 138.054C209.956 137.315 210.138 136.583 210.501 135.856C210.87 135.124 211.354 134.585 211.951 134.239C212.549 133.888 213.182 133.712 213.85 133.712ZM213.577 134.283C213.267 134.283 212.953 134.377 212.637 134.564C212.326 134.746 212.074 135.068 211.881 135.531C211.688 135.994 211.591 136.589 211.591 137.315C211.591 138.487 211.822 139.498 212.285 140.348C212.754 141.197 213.369 141.622 214.131 141.622C214.699 141.622 215.168 141.388 215.537 140.919C215.906 140.45 216.091 139.645 216.091 138.502C216.091 137.072 215.783 135.947 215.168 135.127C214.752 134.564 214.222 134.283 213.577 134.283ZM229.71 131.304V133.949H231.591V134.564H229.71V139.785C229.71 140.307 229.783 140.658 229.93 140.84C230.082 141.021 230.276 141.112 230.51 141.112C230.703 141.112 230.891 141.054 231.072 140.937C231.254 140.813 231.395 140.635 231.494 140.4H231.837C231.632 140.975 231.342 141.408 230.967 141.701C230.592 141.988 230.205 142.132 229.807 142.132C229.537 142.132 229.274 142.059 229.016 141.912C228.758 141.76 228.568 141.546 228.445 141.271C228.321 140.989 228.26 140.559 228.26 139.979V134.564H226.986V134.274C227.308 134.146 227.636 133.929 227.97 133.624C228.31 133.313 228.612 132.947 228.875 132.525C229.01 132.303 229.197 131.896 229.438 131.304H229.71ZM236.726 129.502V135.391C237.377 134.676 237.892 134.219 238.273 134.02C238.654 133.814 239.035 133.712 239.416 133.712C239.873 133.712 240.265 133.838 240.593 134.09C240.922 134.342 241.165 134.737 241.323 135.276C241.434 135.651 241.49 136.337 241.49 137.333V140.181C241.49 140.69 241.531 141.039 241.613 141.227C241.672 141.367 241.771 141.479 241.912 141.561C242.052 141.643 242.31 141.684 242.685 141.684V142H238.73V141.684H238.915C239.29 141.684 239.551 141.628 239.697 141.517C239.843 141.399 239.946 141.229 240.005 141.007C240.022 140.913 240.031 140.638 240.031 140.181V137.333C240.031 136.454 239.984 135.877 239.89 135.602C239.802 135.326 239.659 135.121 239.46 134.986C239.26 134.846 239.02 134.775 238.739 134.775C238.452 134.775 238.153 134.852 237.842 135.004C237.532 135.156 237.16 135.464 236.726 135.927V140.181C236.726 140.731 236.756 141.074 236.814 141.209C236.879 141.344 236.993 141.458 237.157 141.552C237.327 141.64 237.617 141.684 238.027 141.684V142H234.037V141.684C234.394 141.684 234.676 141.628 234.881 141.517C234.998 141.458 235.092 141.347 235.162 141.183C235.232 141.019 235.267 140.685 235.267 140.181V132.895C235.267 131.975 235.244 131.409 235.197 131.198C235.156 130.987 235.089 130.844 234.995 130.768C234.907 130.691 234.787 130.653 234.634 130.653C234.511 130.653 234.312 130.7 234.037 130.794L233.914 130.486L236.322 129.502H236.726ZM246.696 136.981C246.69 138.177 246.98 139.114 247.566 139.794C248.152 140.474 248.84 140.813 249.631 140.813C250.158 140.813 250.615 140.67 251.002 140.383C251.395 140.09 251.723 139.592 251.987 138.889L252.259 139.064C252.136 139.867 251.779 140.6 251.187 141.262C250.595 141.918 249.854 142.246 248.963 142.246C247.996 142.246 247.167 141.871 246.476 141.121C245.79 140.365 245.448 139.352 245.448 138.08C245.448 136.703 245.799 135.631 246.502 134.863C247.211 134.09 248.099 133.703 249.165 133.703C250.068 133.703 250.809 134.002 251.389 134.6C251.969 135.191 252.259 135.985 252.259 136.981H246.696ZM246.696 136.472H250.422C250.393 135.956 250.331 135.593 250.238 135.382C250.091 135.054 249.871 134.796 249.578 134.608C249.291 134.421 248.989 134.327 248.673 134.327C248.187 134.327 247.75 134.518 247.364 134.898C246.983 135.273 246.76 135.798 246.696 136.472ZM268.858 133.949V138.827C268.858 139.759 268.878 140.33 268.919 140.541C268.966 140.746 269.036 140.89 269.13 140.972C269.23 141.054 269.344 141.095 269.473 141.095C269.655 141.095 269.86 141.045 270.088 140.945L270.211 141.253L267.803 142.246H267.408V140.541C266.716 141.291 266.189 141.763 265.825 141.956C265.462 142.149 265.078 142.246 264.674 142.246C264.223 142.246 263.83 142.117 263.496 141.859C263.168 141.596 262.94 141.259 262.811 140.849C262.682 140.438 262.617 139.858 262.617 139.108V135.514C262.617 135.133 262.576 134.869 262.494 134.723C262.412 134.576 262.289 134.465 262.125 134.389C261.967 134.307 261.677 134.269 261.255 134.274V133.949H264.076V139.337C264.076 140.087 264.205 140.579 264.463 140.813C264.727 141.048 265.043 141.165 265.412 141.165C265.664 141.165 265.949 141.086 266.265 140.928C266.587 140.77 266.968 140.468 267.408 140.022V135.461C267.408 135.004 267.323 134.696 267.153 134.538C266.989 134.374 266.643 134.286 266.116 134.274V133.949H268.858ZM277.983 133.712V136.454H277.693C277.471 135.593 277.183 135.007 276.832 134.696C276.486 134.386 276.044 134.23 275.505 134.23C275.095 134.23 274.763 134.339 274.512 134.556C274.26 134.772 274.134 135.013 274.134 135.276C274.134 135.604 274.227 135.886 274.415 136.12C274.596 136.36 274.966 136.615 275.522 136.885L276.805 137.509C277.995 138.089 278.59 138.854 278.59 139.803C278.59 140.535 278.311 141.127 277.755 141.578C277.204 142.023 276.586 142.246 275.9 142.246C275.408 142.246 274.846 142.158 274.213 141.982C274.019 141.924 273.861 141.895 273.738 141.895C273.603 141.895 273.498 141.971 273.422 142.123H273.132V139.249H273.422C273.586 140.069 273.899 140.688 274.362 141.104C274.825 141.52 275.344 141.728 275.918 141.728C276.322 141.728 276.65 141.61 276.902 141.376C277.16 141.136 277.289 140.849 277.289 140.515C277.289 140.11 277.145 139.771 276.858 139.495C276.577 139.22 276.012 138.871 275.162 138.449C274.312 138.027 273.756 137.646 273.492 137.307C273.228 136.973 273.096 136.551 273.096 136.041C273.096 135.379 273.322 134.825 273.773 134.38C274.23 133.935 274.819 133.712 275.54 133.712C275.856 133.712 276.24 133.779 276.691 133.914C276.99 134.002 277.189 134.046 277.289 134.046C277.383 134.046 277.456 134.025 277.509 133.984C277.561 133.943 277.623 133.853 277.693 133.712H277.983ZM283.127 136.981C283.121 138.177 283.411 139.114 283.997 139.794C284.583 140.474 285.272 140.813 286.063 140.813C286.59 140.813 287.047 140.67 287.434 140.383C287.826 140.09 288.155 139.592 288.418 138.889L288.691 139.064C288.568 139.867 288.21 140.6 287.618 141.262C287.027 141.918 286.285 142.246 285.395 142.246C284.428 142.246 283.599 141.871 282.908 141.121C282.222 140.365 281.879 139.352 281.879 138.08C281.879 136.703 282.231 135.631 282.934 134.863C283.643 134.09 284.531 133.703 285.597 133.703C286.499 133.703 287.241 134.002 287.821 134.6C288.401 135.191 288.691 135.985 288.691 136.981H283.127ZM283.127 136.472H286.854C286.825 135.956 286.763 135.593 286.669 135.382C286.523 135.054 286.303 134.796 286.01 134.608C285.723 134.421 285.421 134.327 285.105 134.327C284.618 134.327 284.182 134.518 283.795 134.898C283.414 135.273 283.192 135.798 283.127 136.472ZM294.107 133.712V135.522C294.781 134.315 295.473 133.712 296.181 133.712C296.504 133.712 296.77 133.812 296.981 134.011C297.192 134.204 297.298 134.43 297.298 134.688C297.298 134.916 297.222 135.109 297.069 135.268C296.917 135.426 296.735 135.505 296.524 135.505C296.319 135.505 296.088 135.405 295.83 135.206C295.578 135.001 295.39 134.898 295.267 134.898C295.162 134.898 295.048 134.957 294.925 135.074C294.661 135.314 294.389 135.71 294.107 136.261V140.119C294.107 140.564 294.163 140.901 294.274 141.13C294.35 141.288 294.485 141.42 294.679 141.525C294.872 141.631 295.15 141.684 295.514 141.684V142H291.391V141.684C291.802 141.684 292.106 141.619 292.306 141.49C292.452 141.396 292.555 141.247 292.613 141.042C292.642 140.942 292.657 140.658 292.657 140.189V137.069C292.657 136.132 292.637 135.575 292.596 135.399C292.56 135.218 292.49 135.086 292.385 135.004C292.285 134.922 292.159 134.881 292.007 134.881C291.825 134.881 291.62 134.925 291.391 135.013L291.304 134.696L293.738 133.712H294.107ZM301.413 140.295C301.689 140.295 301.92 140.392 302.108 140.585C302.295 140.772 302.389 141.001 302.389 141.271C302.389 141.54 302.292 141.771 302.099 141.965C301.911 142.152 301.683 142.246 301.413 142.246C301.144 142.246 300.912 142.152 300.719 141.965C300.532 141.771 300.438 141.54 300.438 141.271C300.438 140.995 300.532 140.764 300.719 140.576C300.912 140.389 301.144 140.295 301.413 140.295Z" fill="#D9D9D9"/>
<defs>
<linearGradient id="paint0_linear_257_1785" x1="0" y1="25.5" x2="366" y2="25.5" gradientUnits="userSpaceOnUse">
<stop offset="0.025" stop-color="white"/>
<stop offset="0.53" stop-color="#FFEFBA"/>
<stop offset="0.975" stop-color="#6E6E6E"/>
</linearGradient>
</defs>
</svg>
