<svg width="501" height="140" viewBox="0 0 501 140" fill="none" xmlns="http://www.w3.org/2000/svg">
<path d="M196.613 10.8672V11.6621C196.069 11.7051 195.611 11.8555 195.238 12.1133C194.866 12.3711 194.536 12.765 194.25 13.2949C194.164 13.4668 193.713 14.5768 192.896 16.625L183.766 40.666H182.928L175.709 21.8887L167.76 40.666H166.965L157.383 16.8828C156.409 14.4909 155.729 13.0443 155.342 12.543C154.955 12.0417 154.303 11.748 153.387 11.6621V10.8672H166.02V11.6621C165.003 11.6908 164.322 11.8483 163.979 12.1348C163.649 12.4069 163.484 12.7507 163.484 13.166C163.484 13.7103 163.835 14.8633 164.537 16.625L170.252 30.7617L174.828 19.7188L173.625 16.625C172.966 14.9349 172.458 13.8105 172.1 13.252C171.742 12.679 171.326 12.2708 170.854 12.0273C170.395 11.7839 169.715 11.6621 168.812 11.6621V10.8672H182.928V11.6621C181.939 11.6764 181.23 11.7552 180.801 11.8984C180.5 11.9987 180.264 12.1706 180.092 12.4141C179.92 12.6432 179.834 12.9082 179.834 13.209C179.834 13.5384 180.156 14.5482 180.801 16.2383L186.107 30.0312L190.855 17.5488C191.357 16.2598 191.665 15.3789 191.779 14.9062C191.894 14.4336 191.951 13.9967 191.951 13.5957C191.951 13.0085 191.751 12.5501 191.35 12.2207C190.949 11.877 190.182 11.6908 189.051 11.6621V10.8672H196.613ZM220.338 29.2363H209.317C209.445 31.9004 210.154 34.0059 211.444 35.5527C212.432 36.7415 213.621 37.3359 215.01 37.3359C215.869 37.3359 216.65 37.0996 217.352 36.627C218.054 36.14 218.805 35.2734 219.608 34.0273L220.338 34.5C219.25 36.7201 218.046 38.2956 216.729 39.2266C215.411 40.1432 213.886 40.6016 212.153 40.6016C209.173 40.6016 206.917 39.4557 205.385 37.1641C204.153 35.3164 203.537 33.0247 203.537 30.2891C203.537 26.9375 204.44 24.2734 206.244 22.2969C208.063 20.306 210.19 19.3105 212.625 19.3105C214.659 19.3105 216.421 20.1484 217.91 21.8242C219.414 23.4857 220.223 25.9564 220.338 29.2363ZM215.053 27.7969C215.053 25.4909 214.924 23.9082 214.666 23.0488C214.423 22.1895 214.036 21.5378 213.506 21.0938C213.205 20.8359 212.804 20.707 212.303 20.707C211.558 20.707 210.949 21.0723 210.477 21.8027C209.632 23.0775 209.209 24.8249 209.209 27.0449V27.7969H215.053ZM235.491 10.8672V21.9316C237.181 20.1842 239.028 19.3105 241.034 19.3105C242.409 19.3105 243.705 19.7188 244.922 20.5352C246.14 21.3372 247.092 22.4831 247.78 23.9727C248.467 25.4622 248.811 27.181 248.811 29.1289C248.811 31.3203 248.374 33.3112 247.5 35.1016C246.627 36.8919 245.459 38.2598 243.998 39.2051C242.537 40.1361 240.869 40.6016 238.993 40.6016C237.904 40.6016 236.937 40.4297 236.092 40.0859C235.247 39.7422 234.416 39.1836 233.6 38.4102L230.27 40.5801H229.539V15.0352C229.539 13.875 229.489 13.1589 229.389 12.8867C229.246 12.4857 229.017 12.1921 228.701 12.0059C228.401 11.8053 227.885 11.6908 227.155 11.6621V10.8672H235.491ZM235.491 23.8438V32.7812C235.491 34.6003 235.534 35.7604 235.619 36.2617C235.763 37.1068 236.106 37.7943 236.651 38.3242C237.195 38.8398 237.89 39.0977 238.735 39.0977C239.465 39.0977 240.088 38.89 240.604 38.4746C241.134 38.0592 241.571 37.2357 241.914 36.0039C242.272 34.7721 242.451 32.5521 242.451 29.3438C242.451 26.2643 242.065 24.1517 241.291 23.0059C240.733 22.1751 239.981 21.7598 239.035 21.7598C237.804 21.7598 236.622 22.4544 235.491 23.8438ZM271.983 40V39.2051H272.95C273.795 39.2051 274.439 39.0762 274.883 38.8184C275.342 38.5462 275.678 38.181 275.893 37.7227C276.022 37.4219 276.087 36.5195 276.087 35.0156V15.8516C276.087 14.362 276.008 13.431 275.85 13.0586C275.693 12.6862 275.37 12.3639 274.883 12.0918C274.411 11.8053 273.766 11.6621 272.95 11.6621H271.983V10.8672H285.024C288.505 10.8672 291.305 11.3398 293.424 12.2852C296.017 13.4453 297.979 15.1999 299.311 17.5488C300.658 19.8978 301.331 22.5547 301.331 25.5195C301.331 27.5677 301.001 29.4583 300.342 31.1914C299.684 32.9102 298.831 34.3353 297.786 35.4668C296.74 36.584 295.53 37.4863 294.155 38.1738C292.794 38.847 291.126 39.3698 289.149 39.7422C288.275 39.9141 286.9 40 285.024 40H271.983ZM283.09 12.5215V35.252C283.09 36.4551 283.148 37.1927 283.262 37.4648C283.377 37.737 283.57 37.9447 283.842 38.0879C284.229 38.3027 284.788 38.4102 285.518 38.4102C287.91 38.4102 289.736 37.5938 290.997 35.9609C292.715 33.7552 293.575 30.332 293.575 25.6914C293.575 21.9531 292.988 18.9668 291.813 16.7324C290.882 14.985 289.686 13.7962 288.225 13.166C287.194 12.722 285.482 12.5072 283.09 12.5215ZM326.538 29.2363H315.516C315.645 31.9004 316.354 34.0059 317.643 35.5527C318.632 36.7415 319.82 37.3359 321.21 37.3359C322.069 37.3359 322.85 37.0996 323.552 36.627C324.253 36.14 325.005 35.2734 325.807 34.0273L326.538 34.5C325.449 36.7201 324.246 38.2956 322.929 39.2266C321.611 40.1432 320.085 40.6016 318.352 40.6016C315.373 40.6016 313.117 39.4557 311.585 37.1641C310.353 35.3164 309.737 33.0247 309.737 30.2891C309.737 26.9375 310.639 24.2734 312.444 22.2969C314.263 20.306 316.39 19.3105 318.825 19.3105C320.859 19.3105 322.621 20.1484 324.11 21.8242C325.614 23.4857 326.423 25.9564 326.538 29.2363ZM321.253 27.7969C321.253 25.4909 321.124 23.9082 320.866 23.0488C320.623 22.1895 320.236 21.5378 319.706 21.0938C319.405 20.8359 319.004 20.707 318.503 20.707C317.758 20.707 317.149 21.0723 316.677 21.8027C315.832 23.0775 315.409 24.8249 315.409 27.0449V27.7969H321.253ZM342.979 40.6016L336.212 25.0254C335.395 23.1491 334.758 21.9603 334.3 21.459C333.97 21.0866 333.483 20.8359 332.839 20.707V19.9121H343.517V20.707C342.843 20.707 342.385 20.8288 342.142 21.0723C341.798 21.3874 341.626 21.7598 341.626 22.1895C341.626 22.7194 341.941 23.7148 342.571 25.1758L345.88 32.7168L348.522 26.207C349.282 24.3451 349.661 23.0273 349.661 22.2539C349.661 21.8099 349.496 21.4518 349.167 21.1797C348.852 20.8932 348.286 20.7357 347.47 20.707V19.9121H354.044V20.707C353.414 20.793 352.898 21.0293 352.497 21.416C352.096 21.8027 351.494 22.9414 350.692 24.832L343.989 40.6016H342.979ZM377.769 29.2363H366.747C366.876 31.9004 367.585 34.0059 368.874 35.5527C369.862 36.7415 371.051 37.3359 372.441 37.3359C373.3 37.3359 374.081 37.0996 374.782 36.627C375.484 36.14 376.236 35.2734 377.038 34.0273L377.769 34.5C376.68 36.7201 375.477 38.2956 374.159 39.2266C372.842 40.1432 371.316 40.6016 369.583 40.6016C366.604 40.6016 364.348 39.4557 362.816 37.1641C361.584 35.3164 360.968 33.0247 360.968 30.2891C360.968 26.9375 361.87 24.2734 363.675 22.2969C365.494 20.306 367.621 19.3105 370.056 19.3105C372.09 19.3105 373.851 20.1484 375.341 21.8242C376.845 23.4857 377.654 25.9564 377.769 29.2363ZM372.484 27.7969C372.484 25.4909 372.355 23.9082 372.097 23.0488C371.853 22.1895 371.467 21.5378 370.937 21.0938C370.636 20.8359 370.235 20.707 369.734 20.707C368.989 20.707 368.38 21.0723 367.907 21.8027C367.062 23.0775 366.64 24.8249 366.64 27.0449V27.7969H372.484ZM393.007 10.8672V35.832C393.007 37.25 393.172 38.1595 393.501 38.5605C393.831 38.9473 394.475 39.1693 395.435 39.2266V40H384.585V39.2266C385.473 39.1979 386.132 38.9401 386.562 38.4531C386.848 38.1237 386.991 37.25 386.991 35.832V15.0352C386.991 13.6315 386.827 12.7363 386.497 12.3496C386.168 11.9486 385.531 11.7194 384.585 11.6621V10.8672H393.007ZM411.705 19.3105C413.452 19.3105 415.078 19.7617 416.581 20.6641C418.085 21.5664 419.224 22.8483 419.997 24.5098C420.785 26.1712 421.179 27.9902 421.179 29.9668C421.179 32.8171 420.456 35.2018 419.009 37.1211C417.262 39.4414 414.848 40.6016 411.769 40.6016C408.747 40.6016 406.419 39.5417 404.787 37.4219C403.154 35.3021 402.337 32.8457 402.337 30.0527C402.337 27.1738 403.168 24.6673 404.83 22.5332C406.505 20.3848 408.797 19.3105 411.705 19.3105ZM411.79 20.8359C411.06 20.8359 410.43 21.1152 409.9 21.6738C409.384 22.2181 409.04 23.3066 408.869 24.9395C408.711 26.5579 408.632 28.8138 408.632 31.707C408.632 33.2396 408.733 34.6719 408.933 36.0039C409.091 37.0208 409.427 37.7943 409.943 38.3242C410.458 38.8542 411.046 39.1191 411.705 39.1191C412.349 39.1191 412.886 38.9401 413.316 38.582C413.874 38.0951 414.247 37.4147 414.433 36.541C414.72 35.1803 414.863 32.4303 414.863 28.291C414.863 25.8561 414.727 24.1875 414.455 23.2852C414.182 22.3685 413.781 21.7025 413.251 21.2871C412.879 20.9863 412.392 20.8359 411.79 20.8359ZM436.847 37.959V45.4355C436.847 46.4668 436.926 47.1686 437.084 47.541C437.255 47.9134 437.513 48.1855 437.857 48.3574C438.201 48.5293 438.874 48.6152 439.877 48.6152V49.4102H428.425V48.6152C429.313 48.5866 429.972 48.3359 430.402 47.8633C430.688 47.5339 430.832 46.6816 430.832 45.3066V24.1016C430.832 22.6836 430.667 21.7812 430.337 21.3945C430.008 20.9935 429.371 20.7643 428.425 20.707V19.9121H436.847V22.5547C437.549 21.5234 438.265 20.7786 438.996 20.3203C440.041 19.6471 441.18 19.3105 442.412 19.3105C443.887 19.3105 445.226 19.776 446.429 20.707C447.647 21.638 448.571 22.9271 449.201 24.5742C449.831 26.207 450.146 27.9688 450.146 29.8594C450.146 31.8932 449.817 33.7552 449.158 35.4453C448.513 37.1211 447.568 38.403 446.322 39.291C445.09 40.1647 443.715 40.6016 442.197 40.6016C441.094 40.6016 440.063 40.3581 439.103 39.8711C438.387 39.4987 437.635 38.8613 436.847 37.959ZM436.847 35.7891C438.079 37.5365 439.397 38.4102 440.8 38.4102C441.574 38.4102 442.211 38.002 442.712 37.1855C443.457 35.9824 443.83 33.6908 443.83 30.3105C443.83 26.8444 443.421 24.474 442.605 23.1992C442.061 22.3542 441.33 21.9316 440.414 21.9316C438.967 21.9316 437.778 22.9772 436.847 25.0684V35.7891ZM475.418 29.2363H464.396C464.525 31.9004 465.234 34.0059 466.523 35.5527C467.511 36.7415 468.7 37.3359 470.09 37.3359C470.949 37.3359 471.73 37.0996 472.431 36.627C473.133 36.14 473.885 35.2734 474.687 34.0273L475.418 34.5C474.329 36.7201 473.126 38.2956 471.808 39.2266C470.491 40.1432 468.965 40.6016 467.232 40.6016C464.253 40.6016 461.997 39.4557 460.465 37.1641C459.233 35.3164 458.617 33.0247 458.617 30.2891C458.617 26.9375 459.519 24.2734 461.324 22.2969C463.143 20.306 465.27 19.3105 467.705 19.3105C469.739 19.3105 471.5 20.1484 472.99 21.8242C474.494 23.4857 475.303 25.9564 475.418 29.2363ZM470.133 27.7969C470.133 25.4909 470.004 23.9082 469.746 23.0488C469.502 22.1895 469.116 21.5378 468.586 21.0938C468.285 20.8359 467.884 20.707 467.383 20.707C466.638 20.707 466.029 21.0723 465.556 21.8027C464.711 23.0775 464.289 24.8249 464.289 27.0449V27.7969H470.133ZM491.129 19.9121V24.4668C492.461 22.39 493.628 21.015 494.631 20.3418C495.633 19.6543 496.6 19.3105 497.531 19.3105C498.333 19.3105 498.971 19.5612 499.443 20.0625C499.93 20.5495 500.174 21.2441 500.174 22.1465C500.174 23.1061 499.937 23.8509 499.465 24.3809C499.006 24.9108 498.448 25.1758 497.789 25.1758C497.03 25.1758 496.371 24.9323 495.812 24.4453C495.254 23.9583 494.924 23.6862 494.824 23.6289C494.681 23.543 494.516 23.5 494.33 23.5C493.915 23.5 493.521 23.6576 493.148 23.9727C492.561 24.4596 492.117 25.1543 491.816 26.0566C491.358 27.446 491.129 28.9785 491.129 30.6543V35.2734L491.15 36.4766C491.15 37.293 491.2 37.8158 491.301 38.0449C491.473 38.4316 491.723 38.7181 492.053 38.9043C492.396 39.0762 492.969 39.1836 493.771 39.2266V40H482.922V39.2266C483.796 39.1549 484.383 38.9186 484.684 38.5176C484.999 38.1022 485.156 37.0208 485.156 35.2734V24.166C485.156 23.0202 485.099 22.2897 484.984 21.9746C484.841 21.5736 484.633 21.2799 484.361 21.0938C484.089 20.9076 483.609 20.7786 482.922 20.707V19.9121H491.129Z" fill="url(#paint0_linear_257_1784)"/>
<path d="M5.55469 103.675V104H0.448242V103.675H0.870117C1.3623 103.675 1.71973 103.531 1.94238 103.244C2.08301 103.057 2.15332 102.605 2.15332 101.891V94.1914C2.15332 93.5879 2.11523 93.1895 2.03906 92.9961C1.98047 92.8496 1.86035 92.7236 1.67871 92.6182C1.4209 92.4775 1.15137 92.4072 0.870117 92.4072H0.448242V92.082H5.55469V92.4072H5.12402C4.6377 92.4072 4.2832 92.5508 4.06055 92.8379C3.91406 93.0254 3.84082 93.4766 3.84082 94.1914V101.891C3.84082 102.494 3.87891 102.893 3.95508 103.086C4.01367 103.232 4.13672 103.358 4.32422 103.464C4.57617 103.604 4.84277 103.675 5.12402 103.675H5.55469ZM14.5684 95.9492H17.9434V96.2744C17.6329 96.2979 17.4278 96.3535 17.3282 96.4414C17.2344 96.5293 17.1875 96.6553 17.1875 96.8193C17.1875 97.001 17.2373 97.2207 17.337 97.4785L19.0596 102.11L20.7911 98.3398L20.334 97.1533C20.1934 96.8018 20.0088 96.5586 19.7803 96.4238C19.6514 96.3418 19.4112 96.292 19.0596 96.2744V95.9492H22.8916V96.2744C22.4698 96.292 22.1709 96.3682 21.9952 96.5029C21.878 96.5967 21.8194 96.7461 21.8194 96.9512C21.8194 97.0684 21.8428 97.1885 21.8897 97.3115L23.7178 101.935L25.4141 97.4785C25.5313 97.1621 25.5899 96.9102 25.5899 96.7227C25.5899 96.6113 25.5313 96.5117 25.4141 96.4238C25.3028 96.3359 25.0801 96.2861 24.7461 96.2744V95.9492H27.2862V96.2744C26.7764 96.3506 26.4014 96.6963 26.1612 97.3115L23.4717 104.246H23.1114L21.0987 99.1045L18.752 104.246H18.4268L15.8428 97.4785C15.6729 97.0508 15.5059 96.7637 15.3418 96.6172C15.1778 96.4648 14.92 96.3506 14.5684 96.2744V95.9492ZM32.3599 95.7119V97.5225C33.0338 96.3154 33.7252 95.7119 34.4341 95.7119C34.7564 95.7119 35.023 95.8115 35.2339 96.0107C35.4449 96.2041 35.5504 96.4297 35.5504 96.6875C35.5504 96.916 35.4742 97.1094 35.3218 97.2676C35.1695 97.4258 34.9879 97.5049 34.7769 97.5049C34.5718 97.5049 34.3404 97.4053 34.0826 97.2061C33.8306 97.001 33.6431 96.8984 33.5201 96.8984C33.4146 96.8984 33.3004 96.957 33.1773 97.0742C32.9136 97.3145 32.6412 97.71 32.3599 98.2607V102.119C32.3599 102.564 32.4156 102.901 32.5269 103.13C32.6031 103.288 32.7379 103.42 32.9312 103.525C33.1246 103.631 33.4029 103.684 33.7662 103.684V104H29.6441V103.684C30.0543 103.684 30.3589 103.619 30.5582 103.49C30.7046 103.396 30.8072 103.247 30.8658 103.042C30.8951 102.942 30.9097 102.658 30.9097 102.189V99.0693C30.9097 98.1318 30.8892 97.5752 30.8482 97.3994C30.813 97.2178 30.7427 97.0859 30.6373 97.0039C30.5377 96.9219 30.4117 96.8809 30.2593 96.8809C30.0777 96.8809 29.8726 96.9248 29.6441 97.0127L29.5562 96.6963L31.9908 95.7119H32.3599ZM40.0264 91.502C40.2725 91.502 40.4805 91.5898 40.6505 91.7656C40.8262 91.9355 40.9141 92.1436 40.9141 92.3896C40.9141 92.6357 40.8262 92.8467 40.6505 93.0225C40.4805 93.1982 40.2725 93.2861 40.0264 93.2861C39.7803 93.2861 39.5694 93.1982 39.3936 93.0225C39.2178 92.8467 39.13 92.6357 39.13 92.3896C39.13 92.1436 39.2149 91.9355 39.3848 91.7656C39.5606 91.5898 39.7745 91.502 40.0264 91.502ZM40.7559 95.7119V102.181C40.7559 102.685 40.7911 103.021 40.8614 103.191C40.9376 103.355 41.046 103.479 41.1866 103.561C41.3331 103.643 41.5968 103.684 41.9776 103.684V104H38.0665V103.684C38.4591 103.684 38.7227 103.646 38.8575 103.569C38.9923 103.493 39.0977 103.367 39.1739 103.191C39.2559 103.016 39.297 102.679 39.297 102.181V99.0781C39.297 98.2051 39.2706 97.6396 39.2178 97.3818C39.1768 97.1943 39.1124 97.0654 39.0245 96.9951C38.9366 96.9189 38.8165 96.8809 38.6641 96.8809C38.5001 96.8809 38.3009 96.9248 38.0665 97.0127L37.9434 96.6963L40.3692 95.7119H40.7559ZM47.3063 93.3037V95.9492H49.1871V96.5645H47.3063V101.785C47.3063 102.307 47.3795 102.658 47.526 102.84C47.6783 103.021 47.8717 103.112 48.1061 103.112C48.2994 103.112 48.4869 103.054 48.6686 102.937C48.8502 102.813 48.9908 102.635 49.0904 102.4H49.4332C49.2281 102.975 48.9381 103.408 48.5631 103.701C48.1881 103.988 47.8014 104.132 47.4029 104.132C47.1334 104.132 46.8697 104.059 46.6119 103.912C46.3541 103.76 46.1637 103.546 46.0406 103.271C45.9176 102.989 45.8561 102.559 45.8561 101.979V96.5645H44.5816V96.2744C44.9039 96.1455 45.232 95.9287 45.566 95.624C45.9059 95.3135 46.2076 94.9473 46.4713 94.5254C46.6061 94.3027 46.7936 93.8955 47.0338 93.3037H47.3063ZM53.3116 98.9814C53.3058 100.177 53.5958 101.114 54.1818 101.794C54.7677 102.474 55.4562 102.813 56.2472 102.813C56.7745 102.813 57.2316 102.67 57.6183 102.383C58.0109 102.09 58.339 101.592 58.6027 100.889L58.8751 101.064C58.7521 101.867 58.3946 102.6 57.8029 103.262C57.2111 103.918 56.4698 104.246 55.5792 104.246C54.6124 104.246 53.7833 103.871 53.0919 103.121C52.4064 102.365 52.0636 101.352 52.0636 100.08C52.0636 98.7031 52.4152 97.6309 53.1183 96.8633C53.8273 96.0898 54.715 95.7031 55.7814 95.7031C56.6837 95.7031 57.4249 96.002 58.005 96.5996C58.5851 97.1914 58.8751 97.9854 58.8751 98.9814H53.3116ZM53.3116 98.4717H57.0382C57.0089 97.9561 56.9474 97.5928 56.8536 97.3818C56.7071 97.0537 56.4874 96.7959 56.1945 96.6084C55.9073 96.4209 55.6056 96.3271 55.2892 96.3271C54.8029 96.3271 54.3663 96.5176 53.9796 96.8984C53.5988 97.2734 53.3761 97.7979 53.3116 98.4717ZM75.2541 100.941C75.0373 102.002 74.6125 102.819 73.9796 103.394C73.3468 103.962 72.6466 104.246 71.8791 104.246C70.965 104.246 70.1681 103.862 69.4884 103.095C68.8087 102.327 68.4689 101.29 68.4689 99.9834C68.4689 98.7178 68.8439 97.6895 69.5939 96.8984C70.3498 96.1074 71.255 95.7119 72.3097 95.7119C73.1007 95.7119 73.7511 95.9229 74.2609 96.3447C74.7707 96.7607 75.0255 97.1943 75.0255 97.6455C75.0255 97.8682 74.9523 98.0498 74.8058 98.1904C74.6652 98.3252 74.466 98.3926 74.2082 98.3926C73.8625 98.3926 73.6017 98.2812 73.4259 98.0586C73.3263 97.9355 73.2589 97.7012 73.2238 97.3555C73.1945 97.0098 73.0773 96.7461 72.8722 96.5645C72.6671 96.3887 72.383 96.3008 72.0197 96.3008C71.4337 96.3008 70.9621 96.5176 70.6046 96.9512C70.13 97.5254 69.8927 98.2842 69.8927 99.2275C69.8927 100.188 70.1271 101.038 70.5959 101.776C71.0705 102.509 71.7091 102.875 72.5119 102.875C73.0861 102.875 73.6017 102.679 74.0587 102.286C74.381 102.017 74.6945 101.527 74.9992 100.818L75.2541 100.941ZM81.1628 91.502V102.181C81.1628 102.685 81.1979 103.019 81.2682 103.183C81.3444 103.347 81.4587 103.473 81.611 103.561C81.7634 103.643 82.0475 103.684 82.4636 103.684V104H78.5173V103.684C78.8864 103.684 79.1384 103.646 79.2731 103.569C79.4079 103.493 79.5134 103.367 79.5895 103.191C79.6657 103.016 79.7038 102.679 79.7038 102.181V94.8682C79.7038 93.96 79.6833 93.4033 79.6423 93.1982C79.6012 92.9873 79.5339 92.8438 79.4401 92.7676C79.3522 92.6914 79.238 92.6533 79.0973 92.6533C78.945 92.6533 78.7516 92.7002 78.5173 92.7939L78.3679 92.4863L80.7673 91.502H81.1628ZM86.7375 98.9814C86.7316 100.177 87.0217 101.114 87.6076 101.794C88.1936 102.474 88.882 102.813 89.673 102.813C90.2004 102.813 90.6574 102.67 91.0441 102.383C91.4367 102.09 91.7648 101.592 92.0285 100.889L92.301 101.064C92.1779 101.867 91.8205 102.6 91.2287 103.262C90.6369 103.918 89.8957 104.246 89.0051 104.246C88.0383 104.246 87.2092 103.871 86.5178 103.121C85.8322 102.365 85.4895 101.352 85.4895 100.08C85.4895 98.7031 85.841 97.6309 86.5441 96.8633C87.2531 96.0898 88.1408 95.7031 89.2072 95.7031C90.1096 95.7031 90.8508 96.002 91.4309 96.5996C92.0109 97.1914 92.301 97.9854 92.301 98.9814H86.7375ZM86.7375 98.4717H90.4641C90.4348 97.9561 90.3732 97.5928 90.2795 97.3818C90.133 97.0537 89.9133 96.7959 89.6203 96.6084C89.3332 96.4209 89.0314 96.3271 88.715 96.3271C88.2287 96.3271 87.7922 96.5176 87.4055 96.8984C87.0246 97.2734 86.802 97.7979 86.7375 98.4717ZM99.9236 102.84C99.0974 103.479 98.5788 103.848 98.3679 103.947C98.0515 104.094 97.7146 104.167 97.3571 104.167C96.8005 104.167 96.3405 103.977 95.9773 103.596C95.6198 103.215 95.4411 102.714 95.4411 102.093C95.4411 101.7 95.529 101.36 95.7048 101.073C95.945 100.675 96.3611 100.3 96.9529 99.9482C97.5505 99.5967 98.5407 99.1689 99.9236 98.665V98.3486C99.9236 97.5459 99.7946 96.9951 99.5368 96.6963C99.2849 96.3975 98.9157 96.248 98.4294 96.248C98.0603 96.248 97.7673 96.3477 97.5505 96.5469C97.3279 96.7461 97.2165 96.9746 97.2165 97.2324L97.2341 97.7422C97.2341 98.0117 97.1638 98.2197 97.0232 98.3662C96.8884 98.5127 96.7097 98.5859 96.487 98.5859C96.2702 98.5859 96.0915 98.5098 95.9509 98.3574C95.8161 98.2051 95.7487 97.9971 95.7487 97.7334C95.7487 97.2295 96.0066 96.7666 96.5222 96.3447C97.0378 95.9229 97.7614 95.7119 98.6931 95.7119C99.4079 95.7119 99.9939 95.832 100.451 96.0723C100.797 96.2539 101.051 96.5381 101.216 96.9248C101.321 97.1768 101.374 97.6924 101.374 98.4717V101.205C101.374 101.973 101.388 102.444 101.418 102.62C101.447 102.79 101.494 102.904 101.558 102.963C101.629 103.021 101.708 103.051 101.796 103.051C101.889 103.051 101.971 103.03 102.042 102.989C102.165 102.913 102.402 102.699 102.754 102.348V102.84C102.097 103.719 101.47 104.158 100.873 104.158C100.586 104.158 100.357 104.059 100.187 103.859C100.017 103.66 99.9294 103.32 99.9236 102.84ZM99.9236 102.269V99.2012C99.0388 99.5527 98.4675 99.8018 98.2097 99.9482C97.7468 100.206 97.4157 100.476 97.2165 100.757C97.0173 101.038 96.9177 101.346 96.9177 101.68C96.9177 102.102 97.0437 102.453 97.2956 102.734C97.5476 103.01 97.8376 103.147 98.1657 103.147C98.6111 103.147 99.197 102.854 99.9236 102.269ZM107.687 97.417C108.63 96.2803 109.53 95.7119 110.385 95.7119C110.824 95.7119 111.202 95.8232 111.519 96.0459C111.835 96.2627 112.087 96.623 112.275 97.127C112.404 97.4785 112.468 98.0176 112.468 98.7441V102.181C112.468 102.69 112.509 103.036 112.591 103.218C112.656 103.364 112.758 103.479 112.899 103.561C113.045 103.643 113.312 103.684 113.698 103.684V104H109.717V103.684H109.884C110.259 103.684 110.52 103.628 110.666 103.517C110.819 103.399 110.924 103.229 110.983 103.007C111.006 102.919 111.018 102.644 111.018 102.181V98.8848C111.018 98.1523 110.921 97.6221 110.728 97.2939C110.54 96.96 110.221 96.793 109.77 96.793C109.073 96.793 108.378 97.1738 107.687 97.9355V102.181C107.687 102.726 107.719 103.062 107.783 103.191C107.865 103.361 107.977 103.487 108.117 103.569C108.264 103.646 108.557 103.684 108.996 103.684V104H105.015V103.684H105.191C105.601 103.684 105.876 103.581 106.017 103.376C106.163 103.165 106.237 102.767 106.237 102.181V99.1924C106.237 98.2256 106.213 97.6367 106.166 97.4258C106.125 97.2148 106.058 97.0713 105.964 96.9951C105.876 96.9189 105.756 96.8809 105.604 96.8809C105.44 96.8809 105.243 96.9248 105.015 97.0127L104.883 96.6963L107.309 95.7119H107.687V97.417ZM129.638 100.941C129.421 102.002 128.996 102.819 128.364 103.394C127.731 103.962 127.031 104.246 126.263 104.246C125.349 104.246 124.552 103.862 123.872 103.095C123.193 102.327 122.853 101.29 122.853 99.9834C122.853 98.7178 123.228 97.6895 123.978 96.8984C124.734 96.1074 125.639 95.7119 126.694 95.7119C127.485 95.7119 128.135 95.9229 128.645 96.3447C129.155 96.7607 129.409 97.1943 129.409 97.6455C129.409 97.8682 129.336 98.0498 129.19 98.1904C129.049 98.3252 128.85 98.3926 128.592 98.3926C128.246 98.3926 127.986 98.2812 127.81 98.0586C127.71 97.9355 127.643 97.7012 127.608 97.3555C127.578 97.0098 127.461 96.7461 127.256 96.5645C127.051 96.3887 126.767 96.3008 126.404 96.3008C125.818 96.3008 125.346 96.5176 124.989 96.9512C124.514 97.5254 124.277 98.2842 124.277 99.2275C124.277 100.188 124.511 101.038 124.98 101.776C125.454 102.509 126.093 102.875 126.896 102.875C127.47 102.875 127.986 102.679 128.443 102.286C128.765 102.017 129.078 101.527 129.383 100.818L129.638 100.941ZM136.716 95.7119C137.934 95.7119 138.913 96.1748 139.651 97.1006C140.278 97.8916 140.592 98.7998 140.592 99.8252C140.592 100.546 140.419 101.275 140.073 102.014C139.727 102.752 139.25 103.309 138.64 103.684C138.037 104.059 137.363 104.246 136.619 104.246C135.406 104.246 134.442 103.763 133.727 102.796C133.124 101.981 132.822 101.067 132.822 100.054C132.822 99.3154 133.004 98.583 133.367 97.8564C133.736 97.124 134.22 96.585 134.817 96.2393C135.415 95.8877 136.048 95.7119 136.716 95.7119ZM136.443 96.2832C136.133 96.2832 135.819 96.377 135.503 96.5645C135.192 96.7461 134.94 97.0684 134.747 97.5312C134.554 97.9941 134.457 98.5889 134.457 99.3154C134.457 100.487 134.688 101.498 135.151 102.348C135.62 103.197 136.235 103.622 136.997 103.622C137.565 103.622 138.034 103.388 138.403 102.919C138.772 102.45 138.957 101.645 138.957 100.502C138.957 99.0723 138.649 97.9473 138.034 97.127C137.618 96.5645 137.088 96.2832 136.443 96.2832ZM149.445 103.095C149.052 103.505 148.668 103.801 148.293 103.982C147.918 104.158 147.514 104.246 147.08 104.246C146.201 104.246 145.434 103.88 144.778 103.147C144.121 102.409 143.793 101.463 143.793 100.309C143.793 99.1543 144.157 98.0996 144.883 97.1445C145.61 96.1836 146.544 95.7031 147.687 95.7031C148.396 95.7031 148.982 95.9287 149.445 96.3799V94.8945C149.445 93.9746 149.421 93.4092 149.374 93.1982C149.333 92.9873 149.266 92.8438 149.172 92.7676C149.078 92.6914 148.961 92.6533 148.821 92.6533C148.668 92.6533 148.466 92.7002 148.214 92.7939L148.1 92.4863L150.499 91.502H150.895V100.81C150.895 101.753 150.915 102.33 150.956 102.541C151.003 102.746 151.074 102.89 151.167 102.972C151.267 103.054 151.381 103.095 151.51 103.095C151.668 103.095 151.879 103.045 152.143 102.945L152.24 103.253L149.849 104.246H149.445V103.095ZM149.445 102.479V98.3311C149.409 97.9326 149.304 97.5693 149.128 97.2412C148.952 96.9131 148.718 96.667 148.425 96.5029C148.138 96.333 147.857 96.248 147.581 96.248C147.066 96.248 146.606 96.4795 146.201 96.9424C145.668 97.5518 145.402 98.4424 145.402 99.6143C145.402 100.798 145.659 101.706 146.175 102.339C146.691 102.966 147.265 103.279 147.898 103.279C148.431 103.279 148.947 103.013 149.445 102.479ZM156.092 98.9814C156.086 100.177 156.376 101.114 156.962 101.794C157.548 102.474 158.236 102.813 159.027 102.813C159.555 102.813 160.012 102.67 160.398 102.383C160.791 102.09 161.119 101.592 161.383 100.889L161.655 101.064C161.532 101.867 161.175 102.6 160.583 103.262C159.991 103.918 159.25 104.246 158.359 104.246C157.392 104.246 156.563 103.871 155.872 103.121C155.186 102.365 154.844 101.352 154.844 100.08C154.844 98.7031 155.195 97.6309 155.898 96.8633C156.607 96.0898 157.495 95.7031 158.561 95.7031C159.464 95.7031 160.205 96.002 160.785 96.5996C161.365 97.1914 161.655 97.9854 161.655 98.9814H156.092ZM156.092 98.4717H159.818C159.789 97.9561 159.727 97.5928 159.634 97.3818C159.487 97.0537 159.267 96.7959 158.974 96.6084C158.687 96.4209 158.386 96.3271 158.069 96.3271C157.583 96.3271 157.146 96.5176 156.76 96.8984C156.379 97.2734 156.156 97.7979 156.092 98.4717ZM173.534 93.3037V95.9492H175.415V96.5645H173.534V101.785C173.534 102.307 173.607 102.658 173.754 102.84C173.906 103.021 174.099 103.112 174.334 103.112C174.527 103.112 174.715 103.054 174.896 102.937C175.078 102.813 175.219 102.635 175.318 102.4H175.661C175.456 102.975 175.166 103.408 174.791 103.701C174.416 103.988 174.029 104.132 173.631 104.132C173.361 104.132 173.098 104.059 172.84 103.912C172.582 103.76 172.391 103.546 172.268 103.271C172.145 102.989 172.084 102.559 172.084 101.979V96.5645H170.809V96.2744C171.132 96.1455 171.46 95.9287 171.794 95.624C172.134 95.3135 172.435 94.9473 172.699 94.5254C172.834 94.3027 173.021 93.8955 173.262 93.3037H173.534ZM180.55 91.502V97.3906C181.201 96.6758 181.716 96.2188 182.097 96.0195C182.478 95.8145 182.859 95.7119 183.24 95.7119C183.697 95.7119 184.089 95.8379 184.417 96.0898C184.746 96.3418 184.989 96.7373 185.147 97.2764C185.258 97.6514 185.314 98.3369 185.314 99.333V102.181C185.314 102.69 185.355 103.039 185.437 103.227C185.496 103.367 185.595 103.479 185.736 103.561C185.876 103.643 186.134 103.684 186.509 103.684V104H182.554V103.684H182.739C183.114 103.684 183.374 103.628 183.521 103.517C183.667 103.399 183.77 103.229 183.829 103.007C183.846 102.913 183.855 102.638 183.855 102.181V99.333C183.855 98.4541 183.808 97.877 183.714 97.6016C183.626 97.3262 183.483 97.1211 183.284 96.9863C183.084 96.8457 182.844 96.7754 182.563 96.7754C182.276 96.7754 181.977 96.8516 181.666 97.0039C181.356 97.1562 180.984 97.4639 180.55 97.9268V102.181C180.55 102.731 180.579 103.074 180.638 103.209C180.703 103.344 180.817 103.458 180.981 103.552C181.151 103.64 181.441 103.684 181.851 103.684V104H177.861V103.684C178.218 103.684 178.499 103.628 178.704 103.517C178.822 103.458 178.915 103.347 178.986 103.183C179.056 103.019 179.091 102.685 179.091 102.181V94.8945C179.091 93.9746 179.068 93.4092 179.021 93.1982C178.98 92.9873 178.913 92.8438 178.819 92.7676C178.731 92.6914 178.611 92.6533 178.458 92.6533C178.335 92.6533 178.136 92.7002 177.861 92.7939L177.738 92.4863L180.146 91.502H180.55ZM193.727 102.84C192.901 103.479 192.383 103.848 192.172 103.947C191.855 104.094 191.518 104.167 191.161 104.167C190.604 104.167 190.144 103.977 189.781 103.596C189.424 103.215 189.245 102.714 189.245 102.093C189.245 101.7 189.333 101.36 189.509 101.073C189.749 100.675 190.165 100.3 190.757 99.9482C191.354 99.5967 192.345 99.1689 193.727 98.665V98.3486C193.727 97.5459 193.599 96.9951 193.341 96.6963C193.089 96.3975 192.72 96.248 192.233 96.248C191.864 96.248 191.571 96.3477 191.354 96.5469C191.132 96.7461 191.02 96.9746 191.02 97.2324L191.038 97.7422C191.038 98.0117 190.968 98.2197 190.827 98.3662C190.692 98.5127 190.514 98.5859 190.291 98.5859C190.074 98.5859 189.895 98.5098 189.755 98.3574C189.62 98.2051 189.553 97.9971 189.553 97.7334C189.553 97.2295 189.81 96.7666 190.326 96.3447C190.842 95.9229 191.565 95.7119 192.497 95.7119C193.212 95.7119 193.798 95.832 194.255 96.0723C194.601 96.2539 194.855 96.5381 195.019 96.9248C195.125 97.1768 195.178 97.6924 195.178 98.4717V101.205C195.178 101.973 195.192 102.444 195.222 102.62C195.251 102.79 195.298 102.904 195.362 102.963C195.433 103.021 195.512 103.051 195.6 103.051C195.693 103.051 195.775 103.03 195.846 102.989C195.969 102.913 196.206 102.699 196.558 102.348V102.84C195.901 103.719 195.274 104.158 194.677 104.158C194.39 104.158 194.161 104.059 193.991 103.859C193.821 103.66 193.733 103.32 193.727 102.84ZM193.727 102.269V99.2012C192.843 99.5527 192.271 99.8018 192.014 99.9482C191.551 100.206 191.22 100.476 191.02 100.757C190.821 101.038 190.722 101.346 190.722 101.68C190.722 102.102 190.848 102.453 191.1 102.734C191.351 103.01 191.642 103.147 191.97 103.147C192.415 103.147 193.001 102.854 193.727 102.269ZM201.482 93.3037V95.9492H203.363V96.5645H201.482V101.785C201.482 102.307 201.555 102.658 201.702 102.84C201.854 103.021 202.047 103.112 202.282 103.112C202.475 103.112 202.663 103.054 202.844 102.937C203.026 102.813 203.166 102.635 203.266 102.4H203.609C203.404 102.975 203.114 103.408 202.739 103.701C202.364 103.988 201.977 104.132 201.579 104.132C201.309 104.132 201.045 104.059 200.788 103.912C200.53 103.76 200.339 103.546 200.216 103.271C200.093 102.989 200.032 102.559 200.032 101.979V96.5645H198.757V96.2744C199.08 96.1455 199.408 95.9287 199.742 95.624C200.081 95.3135 200.383 94.9473 200.647 94.5254C200.782 94.3027 200.969 93.8955 201.209 93.3037H201.482ZM207.663 96.3623V95.9492C208.267 95.5918 208.677 95.2578 208.894 94.9473C209.046 94.7246 209.122 94.458 209.122 94.1475C209.122 93.9658 209.09 93.8311 209.025 93.7432C208.955 93.6553 208.879 93.6113 208.797 93.6113C208.732 93.6113 208.647 93.6318 208.542 93.6729C208.39 93.7256 208.264 93.752 208.164 93.752C207.93 93.752 207.722 93.6641 207.54 93.4883C207.358 93.3125 207.268 93.0928 207.268 92.8291C207.268 92.5361 207.358 92.3076 207.54 92.1436C207.786 91.9209 208.079 91.8096 208.419 91.8096C208.811 91.8096 209.163 91.9766 209.474 92.3105C209.79 92.6387 209.948 93.0488 209.948 93.541C209.948 94.2324 209.687 94.8623 209.166 95.4307C208.82 95.8057 208.319 96.1162 207.663 96.3623ZM219.311 95.7119V98.4541H219.021C218.798 97.5928 218.511 97.0068 218.16 96.6963C217.814 96.3857 217.372 96.2305 216.833 96.2305C216.422 96.2305 216.091 96.3389 215.839 96.5557C215.587 96.7725 215.461 97.0127 215.461 97.2764C215.461 97.6045 215.555 97.8857 215.743 98.1201C215.924 98.3604 216.293 98.6152 216.85 98.8848L218.133 99.5088C219.323 100.089 219.917 100.854 219.917 101.803C219.917 102.535 219.639 103.127 219.083 103.578C218.532 104.023 217.914 104.246 217.228 104.246C216.736 104.246 216.173 104.158 215.541 103.982C215.347 103.924 215.189 103.895 215.066 103.895C214.931 103.895 214.826 103.971 214.749 104.123H214.459V101.249H214.749C214.914 102.069 215.227 102.688 215.69 103.104C216.153 103.52 216.671 103.728 217.246 103.728C217.65 103.728 217.978 103.61 218.23 103.376C218.488 103.136 218.617 102.849 218.617 102.515C218.617 102.11 218.473 101.771 218.186 101.495C217.905 101.22 217.339 100.871 216.49 100.449C215.64 100.027 215.083 99.6465 214.82 99.3066C214.556 98.9727 214.424 98.5508 214.424 98.041C214.424 97.3789 214.65 96.8252 215.101 96.3799C215.558 95.9346 216.147 95.7119 216.868 95.7119C217.184 95.7119 217.568 95.7793 218.019 95.9141C218.318 96.002 218.517 96.0459 218.617 96.0459C218.71 96.0459 218.784 96.0254 218.836 95.9844C218.889 95.9434 218.951 95.8525 219.021 95.7119H219.311ZM234.785 95.7119V98.4541H234.495C234.272 97.5928 233.985 97.0068 233.633 96.6963C233.288 96.3857 232.845 96.2305 232.306 96.2305C231.896 96.2305 231.565 96.3389 231.313 96.5557C231.061 96.7725 230.935 97.0127 230.935 97.2764C230.935 97.6045 231.029 97.8857 231.216 98.1201C231.398 98.3604 231.767 98.6152 232.324 98.8848L233.607 99.5088C234.796 100.089 235.391 100.854 235.391 101.803C235.391 102.535 235.113 103.127 234.556 103.578C234.005 104.023 233.387 104.246 232.702 104.246C232.209 104.246 231.647 104.158 231.014 103.982C230.821 103.924 230.663 103.895 230.54 103.895C230.405 103.895 230.299 103.971 230.223 104.123H229.933V101.249H230.223C230.387 102.069 230.701 102.688 231.164 103.104C231.626 103.52 232.145 103.728 232.719 103.728C233.124 103.728 233.452 103.61 233.704 103.376C233.961 103.136 234.09 102.849 234.09 102.515C234.09 102.11 233.947 101.771 233.66 101.495C233.378 101.22 232.813 100.871 231.963 100.449C231.114 100.027 230.557 99.6465 230.293 99.3066C230.03 98.9727 229.898 98.5508 229.898 98.041C229.898 97.3789 230.124 96.8252 230.575 96.3799C231.032 95.9346 231.621 95.7119 232.341 95.7119C232.658 95.7119 233.042 95.7793 233.493 95.9141C233.792 96.002 233.991 96.0459 234.09 96.0459C234.184 96.0459 234.257 96.0254 234.31 95.9844C234.363 95.9434 234.424 95.8525 234.495 95.7119H234.785ZM242.513 95.7119C243.731 95.7119 244.71 96.1748 245.448 97.1006C246.075 97.8916 246.389 98.7998 246.389 99.8252C246.389 100.546 246.216 101.275 245.87 102.014C245.524 102.752 245.047 103.309 244.438 103.684C243.834 104.059 243.16 104.246 242.416 104.246C241.203 104.246 240.239 103.763 239.524 102.796C238.921 101.981 238.619 101.067 238.619 100.054C238.619 99.3154 238.801 98.583 239.164 97.8564C239.533 97.124 240.017 96.585 240.614 96.2393C241.212 95.8877 241.845 95.7119 242.513 95.7119ZM242.24 96.2832C241.93 96.2832 241.616 96.377 241.3 96.5645C240.989 96.7461 240.737 97.0684 240.544 97.5312C240.351 97.9941 240.254 98.5889 240.254 99.3154C240.254 100.487 240.485 101.498 240.948 102.348C241.417 103.197 242.032 103.622 242.794 103.622C243.362 103.622 243.831 103.388 244.2 102.919C244.569 102.45 244.754 101.645 244.754 100.502C244.754 99.0723 244.446 97.9473 243.831 97.127C243.415 96.5645 242.885 96.2832 242.24 96.2832ZM5.76562 123.712V126.454H5.47559C5.25293 125.593 4.96582 125.007 4.61426 124.696C4.26855 124.386 3.82617 124.23 3.28711 124.23C2.87695 124.23 2.5459 124.339 2.29395 124.556C2.04199 124.772 1.91602 125.013 1.91602 125.276C1.91602 125.604 2.00977 125.886 2.19727 126.12C2.37891 126.36 2.74805 126.615 3.30469 126.885L4.58789 127.509C5.77734 128.089 6.37207 128.854 6.37207 129.803C6.37207 130.535 6.09375 131.127 5.53711 131.578C4.98633 132.023 4.36816 132.246 3.68262 132.246C3.19043 132.246 2.62793 132.158 1.99512 131.982C1.80176 131.924 1.64355 131.895 1.52051 131.895C1.38574 131.895 1.28027 131.971 1.2041 132.123H0.914062V129.249H1.2041C1.36816 130.069 1.68164 130.688 2.14453 131.104C2.60742 131.52 3.12598 131.728 3.7002 131.728C4.10449 131.728 4.43262 131.61 4.68457 131.376C4.94238 131.136 5.07129 130.849 5.07129 130.515C5.07129 130.11 4.92773 129.771 4.64062 129.495C4.35938 129.22 3.79395 128.871 2.94434 128.449C2.09473 128.027 1.53809 127.646 1.27441 127.307C1.01074 126.973 0.878906 126.551 0.878906 126.041C0.878906 125.379 1.10449 124.825 1.55566 124.38C2.0127 123.935 2.60156 123.712 3.32227 123.712C3.63867 123.712 4.02246 123.779 4.47363 123.914C4.77246 124.002 4.97168 124.046 5.07129 124.046C5.16504 124.046 5.23828 124.025 5.29102 123.984C5.34375 123.943 5.40527 123.853 5.47559 123.712H5.76562ZM11.8941 121.304V123.949H13.7749V124.564H11.8941V129.785C11.8941 130.307 11.9673 130.658 12.1138 130.84C12.2661 131.021 12.4595 131.112 12.6939 131.112C12.8872 131.112 13.0747 131.054 13.2564 130.937C13.438 130.813 13.5786 130.635 13.6782 130.4H14.021C13.8159 130.975 13.5259 131.408 13.1509 131.701C12.7759 131.988 12.3892 132.132 11.9907 132.132C11.7212 132.132 11.4575 132.059 11.1997 131.912C10.9419 131.76 10.7515 131.546 10.6284 131.271C10.5054 130.989 10.4439 130.559 10.4439 129.979V124.564H9.16945V124.274C9.49172 124.146 9.81984 123.929 10.1538 123.624C10.4937 123.313 10.7954 122.947 11.0591 122.525C11.1939 122.303 11.3814 121.896 11.6216 121.304H11.8941ZM18.9014 123.712V125.522C19.5752 124.315 20.2666 123.712 20.9756 123.712C21.2979 123.712 21.5645 123.812 21.7754 124.011C21.9864 124.204 22.0918 124.43 22.0918 124.688C22.0918 124.916 22.0157 125.109 21.8633 125.268C21.711 125.426 21.5293 125.505 21.3184 125.505C21.1133 125.505 20.8819 125.405 20.6241 125.206C20.3721 125.001 20.1846 124.898 20.0616 124.898C19.9561 124.898 19.8418 124.957 19.7188 125.074C19.4551 125.314 19.1827 125.71 18.9014 126.261V130.119C18.9014 130.564 18.9571 130.901 19.0684 131.13C19.1446 131.288 19.2793 131.42 19.4727 131.525C19.6661 131.631 19.9444 131.684 20.3077 131.684V132H16.1856V131.684C16.5957 131.684 16.9004 131.619 17.0996 131.49C17.2461 131.396 17.3487 131.247 17.4073 131.042C17.4366 130.942 17.4512 130.658 17.4512 130.189V127.069C17.4512 126.132 17.4307 125.575 17.3897 125.399C17.3545 125.218 17.2842 125.086 17.1788 125.004C17.0791 124.922 16.9532 124.881 16.8008 124.881C16.6192 124.881 16.4141 124.925 16.1856 125.013L16.0977 124.696L18.5323 123.712H18.9014ZM25.8736 126.981C25.8677 128.177 26.1578 129.114 26.7437 129.794C27.3296 130.474 28.0181 130.813 28.8091 130.813C29.3365 130.813 29.7935 130.67 30.1802 130.383C30.5728 130.09 30.9009 129.592 31.1646 128.889L31.4371 129.064C31.314 129.867 30.9566 130.6 30.3648 131.262C29.773 131.918 29.0318 132.246 28.1412 132.246C27.1744 132.246 26.3453 131.871 25.6539 131.121C24.9683 130.365 24.6255 129.352 24.6255 128.08C24.6255 126.703 24.9771 125.631 25.6802 124.863C26.3892 124.09 27.2769 123.703 28.3433 123.703C29.2457 123.703 29.9869 124.002 30.567 124.6C31.147 125.191 31.4371 125.985 31.4371 126.981H25.8736ZM25.8736 126.472H29.6002C29.5709 125.956 29.5093 125.593 29.4156 125.382C29.2691 125.054 29.0494 124.796 28.7564 124.608C28.4693 124.421 28.1675 124.327 27.8511 124.327C27.3648 124.327 26.9283 124.518 26.5416 124.898C26.1607 125.273 25.938 125.798 25.8736 126.472ZM39.0596 130.84C38.2335 131.479 37.7149 131.848 37.504 131.947C37.1876 132.094 36.8507 132.167 36.4932 132.167C35.9366 132.167 35.4766 131.977 35.1134 131.596C34.7559 131.215 34.5772 130.714 34.5772 130.093C34.5772 129.7 34.6651 129.36 34.8409 129.073C35.0811 128.675 35.4971 128.3 36.0889 127.948C36.6866 127.597 37.6768 127.169 39.0596 126.665V126.349C39.0596 125.546 38.9307 124.995 38.6729 124.696C38.421 124.397 38.0518 124.248 37.5655 124.248C37.1964 124.248 36.9034 124.348 36.6866 124.547C36.4639 124.746 36.3526 124.975 36.3526 125.232L36.3702 125.742C36.3702 126.012 36.2999 126.22 36.1593 126.366C36.0245 126.513 35.8458 126.586 35.6231 126.586C35.4063 126.586 35.2276 126.51 35.087 126.357C34.9522 126.205 34.8848 125.997 34.8848 125.733C34.8848 125.229 35.1427 124.767 35.6583 124.345C36.1739 123.923 36.8975 123.712 37.8292 123.712C38.544 123.712 39.13 123.832 39.587 124.072C39.9327 124.254 40.1876 124.538 40.3516 124.925C40.4571 125.177 40.5098 125.692 40.5098 126.472V129.205C40.5098 129.973 40.5245 130.444 40.5538 130.62C40.5831 130.79 40.63 130.904 40.6944 130.963C40.7647 131.021 40.8438 131.051 40.9317 131.051C41.0255 131.051 41.1075 131.03 41.1778 130.989C41.3009 130.913 41.5382 130.699 41.8897 130.348V130.84C41.2335 131.719 40.6065 132.158 40.0089 132.158C39.7218 132.158 39.4932 132.059 39.3233 131.859C39.1534 131.66 39.0655 131.32 39.0596 130.84ZM39.0596 130.269V127.201C38.1749 127.553 37.6036 127.802 37.3458 127.948C36.8829 128.206 36.5518 128.476 36.3526 128.757C36.1534 129.038 36.0538 129.346 36.0538 129.68C36.0538 130.102 36.1798 130.453 36.4317 130.734C36.6837 131.01 36.9737 131.147 37.3018 131.147C37.7471 131.147 38.3331 130.854 39.0596 130.269ZM46.8668 125.426C47.4527 124.84 47.7984 124.503 47.9039 124.415C48.1676 124.192 48.4518 124.02 48.7564 123.896C49.0611 123.773 49.3629 123.712 49.6617 123.712C50.1656 123.712 50.5992 123.858 50.9625 124.151C51.3258 124.444 51.5689 124.869 51.692 125.426C52.2955 124.723 52.8053 124.263 53.2213 124.046C53.6373 123.823 54.065 123.712 54.5045 123.712C54.9322 123.712 55.3102 123.823 55.6383 124.046C55.9723 124.263 56.2359 124.62 56.4293 125.118C56.5582 125.458 56.6227 125.991 56.6227 126.718V130.181C56.6227 130.685 56.6607 131.03 56.7369 131.218C56.7955 131.347 56.9039 131.458 57.0621 131.552C57.2203 131.64 57.4781 131.684 57.8355 131.684V132H53.8629V131.684H54.0299C54.3756 131.684 54.6451 131.616 54.8385 131.481C54.9732 131.388 55.0699 131.238 55.1285 131.033C55.152 130.934 55.1637 130.649 55.1637 130.181V126.718C55.1637 126.062 55.0846 125.599 54.9264 125.329C54.6979 124.954 54.3316 124.767 53.8277 124.767C53.5172 124.767 53.2037 124.846 52.8873 125.004C52.5768 125.156 52.1988 125.443 51.7535 125.865L51.7359 125.962L51.7535 126.34V130.181C51.7535 130.731 51.7828 131.074 51.8414 131.209C51.9059 131.344 52.023 131.458 52.193 131.552C52.3629 131.64 52.6529 131.684 53.0631 131.684V132H48.9938V131.684C49.4391 131.684 49.7438 131.631 49.9078 131.525C50.0777 131.42 50.1949 131.262 50.2594 131.051C50.2887 130.951 50.3033 130.661 50.3033 130.181V126.718C50.3033 126.062 50.2066 125.59 50.0133 125.303C49.7555 124.928 49.3951 124.74 48.9322 124.74C48.6158 124.74 48.3023 124.825 47.9918 124.995C47.5055 125.253 47.1305 125.543 46.8668 125.865V130.181C46.8668 130.708 46.902 131.051 46.9723 131.209C47.0484 131.367 47.1568 131.487 47.2975 131.569C47.4439 131.646 47.7369 131.684 48.1764 131.684V132H44.1949V131.684C44.5641 131.684 44.8219 131.646 44.9684 131.569C45.1148 131.487 45.2262 131.361 45.3023 131.191C45.3785 131.016 45.4166 130.679 45.4166 130.181V127.104C45.4166 126.22 45.3902 125.648 45.3375 125.391C45.2965 125.197 45.232 125.065 45.1441 124.995C45.0563 124.919 44.9361 124.881 44.7838 124.881C44.6197 124.881 44.4234 124.925 44.1949 125.013L44.0631 124.696L46.4889 123.712H46.8668V125.426ZM63.2345 119.502V130.181C63.2345 130.685 63.2696 131.019 63.34 131.183C63.4161 131.347 63.5304 131.473 63.6827 131.561C63.8351 131.643 64.1193 131.684 64.5353 131.684V132H60.589V131.684C60.9581 131.684 61.2101 131.646 61.3448 131.569C61.4796 131.493 61.5851 131.367 61.6613 131.191C61.7374 131.016 61.7755 130.679 61.7755 130.181V122.868C61.7755 121.96 61.755 121.403 61.714 121.198C61.673 120.987 61.6056 120.844 61.5118 120.768C61.4239 120.691 61.3097 120.653 61.1691 120.653C61.0167 120.653 60.8234 120.7 60.589 120.794L60.4396 120.486L62.839 119.502H63.2345ZM69.5036 119.502C69.7496 119.502 69.9577 119.59 70.1276 119.766C70.3034 119.936 70.3913 120.144 70.3913 120.39C70.3913 120.636 70.3034 120.847 70.1276 121.022C69.9577 121.198 69.7496 121.286 69.5036 121.286C69.2575 121.286 69.0465 121.198 68.8707 121.022C68.695 120.847 68.6071 120.636 68.6071 120.39C68.6071 120.144 68.692 119.936 68.862 119.766C69.0377 119.59 69.2516 119.502 69.5036 119.502ZM70.233 123.712V130.181C70.233 130.685 70.2682 131.021 70.3385 131.191C70.4147 131.355 70.5231 131.479 70.6637 131.561C70.8102 131.643 71.0739 131.684 71.4547 131.684V132H67.5436V131.684C67.9362 131.684 68.1998 131.646 68.3346 131.569C68.4694 131.493 68.5748 131.367 68.651 131.191C68.733 131.016 68.7741 130.679 68.7741 130.181V127.078C68.7741 126.205 68.7477 125.64 68.695 125.382C68.6539 125.194 68.5895 125.065 68.5016 124.995C68.4137 124.919 68.2936 124.881 68.1413 124.881C67.9772 124.881 67.778 124.925 67.5436 125.013L67.4205 124.696L69.8463 123.712H70.233ZM76.7921 125.417C77.7355 124.28 78.6349 123.712 79.4904 123.712C79.9298 123.712 80.3078 123.823 80.6242 124.046C80.9406 124.263 81.1925 124.623 81.38 125.127C81.5089 125.479 81.5734 126.018 81.5734 126.744V130.181C81.5734 130.69 81.6144 131.036 81.6964 131.218C81.7609 131.364 81.8634 131.479 82.0041 131.561C82.1505 131.643 82.4171 131.684 82.8039 131.684V132H78.8224V131.684H78.9894C79.3644 131.684 79.6252 131.628 79.7716 131.517C79.924 131.399 80.0294 131.229 80.088 131.007C80.1115 130.919 80.1232 130.644 80.1232 130.181V126.885C80.1232 126.152 80.0265 125.622 79.8332 125.294C79.6457 124.96 79.3263 124.793 78.8752 124.793C78.1779 124.793 77.4836 125.174 76.7921 125.936V130.181C76.7921 130.726 76.8244 131.062 76.8888 131.191C76.9709 131.361 77.0822 131.487 77.2228 131.569C77.3693 131.646 77.6623 131.684 78.1017 131.684V132H74.1203V131.684H74.2961C74.7062 131.684 74.9816 131.581 75.1222 131.376C75.2687 131.165 75.3419 130.767 75.3419 130.181V127.192C75.3419 126.226 75.3185 125.637 75.2716 125.426C75.2306 125.215 75.1632 125.071 75.0695 124.995C74.9816 124.919 74.8615 124.881 74.7091 124.881C74.5451 124.881 74.3488 124.925 74.1203 125.013L73.9884 124.696L76.4142 123.712H76.7921V125.417ZM86.779 126.981C86.7731 128.177 87.0632 129.114 87.6491 129.794C88.235 130.474 88.9235 130.813 89.7145 130.813C90.2419 130.813 90.6989 130.67 91.0856 130.383C91.4782 130.09 91.8063 129.592 92.07 128.889L92.3425 129.064C92.2194 129.867 91.862 130.6 91.2702 131.262C90.6784 131.918 89.9372 132.246 89.0466 132.246C88.0798 132.246 87.2507 131.871 86.5593 131.121C85.8737 130.365 85.5309 129.352 85.5309 128.08C85.5309 126.703 85.8825 125.631 86.5856 124.863C87.2946 124.09 88.1823 123.703 89.2487 123.703C90.1511 123.703 90.8923 124.002 91.4723 124.6C92.0524 125.191 92.3425 125.985 92.3425 126.981H86.779ZM86.779 126.472H90.5055C90.4762 125.956 90.4147 125.593 90.321 125.382C90.1745 125.054 89.9548 124.796 89.6618 124.608C89.3747 124.421 89.0729 124.327 88.7565 124.327C88.2702 124.327 87.8337 124.518 87.447 124.898C87.0661 125.273 86.8434 125.798 86.779 126.472ZM101.09 131.095C100.697 131.505 100.314 131.801 99.9387 131.982C99.5637 132.158 99.1594 132.246 98.7258 132.246C97.8469 132.246 97.0793 131.88 96.423 131.147C95.7668 130.409 95.4387 129.463 95.4387 128.309C95.4387 127.154 95.802 126.1 96.5285 125.145C97.2551 124.184 98.1897 123.703 99.3322 123.703C100.041 123.703 100.627 123.929 101.09 124.38V122.895C101.09 121.975 101.067 121.409 101.02 121.198C100.979 120.987 100.911 120.844 100.818 120.768C100.724 120.691 100.607 120.653 100.466 120.653C100.314 120.653 100.112 120.7 99.8596 120.794L99.7453 120.486L102.145 119.502H102.54V128.81C102.54 129.753 102.561 130.33 102.602 130.541C102.649 130.746 102.719 130.89 102.813 130.972C102.912 131.054 103.027 131.095 103.155 131.095C103.314 131.095 103.525 131.045 103.788 130.945L103.885 131.253L101.494 132.246H101.09V131.095ZM101.09 130.479V126.331C101.055 125.933 100.949 125.569 100.774 125.241C100.598 124.913 100.363 124.667 100.071 124.503C99.7834 124.333 99.5022 124.248 99.2268 124.248C98.7111 124.248 98.2512 124.479 97.8469 124.942C97.3137 125.552 97.0471 126.442 97.0471 127.614C97.0471 128.798 97.3049 129.706 97.8205 130.339C98.3361 130.966 98.9104 131.279 99.5432 131.279C100.076 131.279 100.592 131.013 101.09 130.479ZM106.788 134.997V134.61C107.391 134.411 107.857 134.101 108.185 133.679C108.519 133.263 108.686 132.82 108.686 132.352C108.686 132.24 108.66 132.146 108.607 132.07C108.566 132.018 108.525 131.991 108.484 131.991C108.42 131.991 108.279 132.05 108.062 132.167C107.957 132.22 107.845 132.246 107.728 132.246C107.441 132.246 107.213 132.161 107.043 131.991C106.873 131.821 106.788 131.587 106.788 131.288C106.788 131.001 106.896 130.755 107.113 130.55C107.336 130.345 107.605 130.242 107.922 130.242C108.308 130.242 108.651 130.412 108.95 130.752C109.255 131.086 109.407 131.531 109.407 132.088C109.407 132.691 109.196 133.251 108.774 133.767C108.358 134.288 107.696 134.698 106.788 134.997ZM121.391 119.502C121.637 119.502 121.845 119.59 122.015 119.766C122.191 119.936 122.279 120.144 122.279 120.39C122.279 120.636 122.191 120.847 122.015 121.022C121.845 121.198 121.637 121.286 121.391 121.286C121.145 121.286 120.934 121.198 120.759 121.022C120.583 120.847 120.495 120.636 120.495 120.39C120.495 120.144 120.58 119.936 120.75 119.766C120.926 119.59 121.139 119.502 121.391 119.502ZM122.121 123.712V130.181C122.121 130.685 122.156 131.021 122.226 131.191C122.302 131.355 122.411 131.479 122.552 131.561C122.698 131.643 122.962 131.684 123.343 131.684V132H119.431V131.684C119.824 131.684 120.088 131.646 120.222 131.569C120.357 131.493 120.463 131.367 120.539 131.191C120.621 131.016 120.662 130.679 120.662 130.181V127.078C120.662 126.205 120.636 125.64 120.583 125.382C120.542 125.194 120.477 125.065 120.389 124.995C120.302 124.919 120.181 124.881 120.029 124.881C119.865 124.881 119.666 124.925 119.431 125.013L119.308 124.696L121.734 123.712H122.121ZM128.671 121.304V123.949H130.552V124.564H128.671V129.785C128.671 130.307 128.744 130.658 128.891 130.84C129.043 131.021 129.237 131.112 129.471 131.112C129.664 131.112 129.852 131.054 130.033 130.937C130.215 130.813 130.356 130.635 130.455 130.4H130.798C130.593 130.975 130.303 131.408 129.928 131.701C129.553 131.988 129.166 132.132 128.768 132.132C128.498 132.132 128.235 132.059 127.977 131.912C127.719 131.76 127.529 131.546 127.406 131.271C127.283 130.989 127.221 130.559 127.221 129.979V124.564H125.947V124.274C126.269 124.146 126.597 123.929 126.931 123.624C127.271 123.313 127.573 122.947 127.836 122.525C127.971 122.303 128.158 121.896 128.399 121.304H128.671ZM142.194 125.426C142.78 124.84 143.125 124.503 143.231 124.415C143.494 124.192 143.779 124.02 144.083 123.896C144.388 123.773 144.69 123.712 144.989 123.712C145.492 123.712 145.926 123.858 146.289 124.151C146.653 124.444 146.896 124.869 147.019 125.426C147.622 124.723 148.132 124.263 148.548 124.046C148.964 123.823 149.392 123.712 149.831 123.712C150.259 123.712 150.637 123.823 150.965 124.046C151.299 124.263 151.563 124.62 151.756 125.118C151.885 125.458 151.95 125.991 151.95 126.718V130.181C151.95 130.685 151.988 131.03 152.064 131.218C152.122 131.347 152.231 131.458 152.389 131.552C152.547 131.64 152.805 131.684 153.162 131.684V132H149.19V131.684H149.357C149.702 131.684 149.972 131.616 150.165 131.481C150.3 131.388 150.397 131.238 150.455 131.033C150.479 130.934 150.491 130.649 150.491 130.181V126.718C150.491 126.062 150.411 125.599 150.253 125.329C150.025 124.954 149.659 124.767 149.155 124.767C148.844 124.767 148.531 124.846 148.214 125.004C147.904 125.156 147.526 125.443 147.08 125.865L147.063 125.962L147.08 126.34V130.181C147.08 130.731 147.11 131.074 147.168 131.209C147.233 131.344 147.35 131.458 147.52 131.552C147.69 131.64 147.98 131.684 148.39 131.684V132H144.321V131.684C144.766 131.684 145.071 131.631 145.235 131.525C145.405 131.42 145.522 131.262 145.586 131.051C145.616 130.951 145.63 130.661 145.63 130.181V126.718C145.63 126.062 145.534 125.59 145.34 125.303C145.082 124.928 144.722 124.74 144.259 124.74C143.943 124.74 143.629 124.825 143.319 124.995C142.832 125.253 142.457 125.543 142.194 125.865V130.181C142.194 130.708 142.229 131.051 142.299 131.209C142.375 131.367 142.484 131.487 142.624 131.569C142.771 131.646 143.064 131.684 143.503 131.684V132H139.522V131.684C139.891 131.684 140.149 131.646 140.295 131.569C140.442 131.487 140.553 131.361 140.629 131.191C140.705 131.016 140.743 130.679 140.743 130.181V127.104C140.743 126.22 140.717 125.648 140.664 125.391C140.623 125.197 140.559 125.065 140.471 124.995C140.383 124.919 140.263 124.881 140.111 124.881C139.947 124.881 139.75 124.925 139.522 125.013L139.39 124.696L141.816 123.712H142.194V125.426ZM160.354 130.84C159.528 131.479 159.01 131.848 158.799 131.947C158.482 132.094 158.145 132.167 157.788 132.167C157.231 132.167 156.771 131.977 156.408 131.596C156.051 131.215 155.872 130.714 155.872 130.093C155.872 129.7 155.96 129.36 156.136 129.073C156.376 128.675 156.792 128.3 157.384 127.948C157.981 127.597 158.972 127.169 160.354 126.665V126.349C160.354 125.546 160.225 124.995 159.968 124.696C159.716 124.397 159.347 124.248 158.86 124.248C158.491 124.248 158.198 124.348 157.981 124.547C157.759 124.746 157.647 124.975 157.647 125.232L157.665 125.742C157.665 126.012 157.595 126.22 157.454 126.366C157.319 126.513 157.14 126.586 156.918 126.586C156.701 126.586 156.522 126.51 156.382 126.357C156.247 126.205 156.18 125.997 156.18 125.733C156.18 125.229 156.437 124.767 156.953 124.345C157.469 123.923 158.192 123.712 159.124 123.712C159.839 123.712 160.425 123.832 160.882 124.072C161.227 124.254 161.482 124.538 161.646 124.925C161.752 125.177 161.805 125.692 161.805 126.472V129.205C161.805 129.973 161.819 130.444 161.848 130.62C161.878 130.79 161.925 130.904 161.989 130.963C162.059 131.021 162.139 131.051 162.226 131.051C162.32 131.051 162.402 131.03 162.473 130.989C162.596 130.913 162.833 130.699 163.184 130.348V130.84C162.528 131.719 161.901 132.158 161.304 132.158C161.016 132.158 160.788 132.059 160.618 131.859C160.448 131.66 160.36 131.32 160.354 130.84ZM160.354 130.269V127.201C159.47 127.553 158.898 127.802 158.64 127.948C158.178 128.206 157.847 128.476 157.647 128.757C157.448 129.038 157.348 129.346 157.348 129.68C157.348 130.102 157.474 130.453 157.726 130.734C157.978 131.01 158.268 131.147 158.597 131.147C159.042 131.147 159.628 130.854 160.354 130.269ZM168.153 119.502V127.518L170.201 125.646C170.634 125.247 170.886 124.995 170.956 124.89C171.003 124.819 171.027 124.749 171.027 124.679C171.027 124.562 170.977 124.462 170.877 124.38C170.784 124.292 170.625 124.242 170.403 124.23V123.949H173.901V124.23C173.42 124.242 173.019 124.315 172.697 124.45C172.38 124.585 172.032 124.825 171.651 125.171L169.585 127.078L171.651 129.688C172.225 130.409 172.612 130.866 172.811 131.06C173.092 131.335 173.338 131.514 173.549 131.596C173.696 131.654 173.951 131.684 174.314 131.684V132H170.403V131.684C170.625 131.678 170.775 131.646 170.851 131.587C170.933 131.522 170.974 131.435 170.974 131.323C170.974 131.188 170.857 130.972 170.622 130.673L168.153 127.518V130.189C168.153 130.711 168.188 131.054 168.258 131.218C168.334 131.382 168.44 131.499 168.575 131.569C168.709 131.64 169.002 131.678 169.453 131.684V132H165.358V131.684C165.768 131.684 166.076 131.634 166.281 131.534C166.404 131.47 166.497 131.37 166.562 131.235C166.65 131.042 166.694 130.708 166.694 130.233V122.903C166.694 121.972 166.673 121.403 166.632 121.198C166.591 120.987 166.524 120.844 166.43 120.768C166.336 120.686 166.213 120.645 166.061 120.645C165.938 120.645 165.753 120.694 165.507 120.794L165.358 120.486L167.748 119.502H168.153ZM178.104 126.981C178.099 128.177 178.389 129.114 178.974 129.794C179.56 130.474 180.249 130.813 181.04 130.813C181.567 130.813 182.024 130.67 182.411 130.383C182.804 130.09 183.132 129.592 183.395 128.889L183.668 129.064C183.545 129.867 183.187 130.6 182.596 131.262C182.004 131.918 181.263 132.246 180.372 132.246C179.405 132.246 178.576 131.871 177.885 131.121C177.199 130.365 176.856 129.352 176.856 128.08C176.856 126.703 177.208 125.631 177.911 124.863C178.62 124.09 179.508 123.703 180.574 123.703C181.476 123.703 182.218 124.002 182.798 124.6C183.378 125.191 183.668 125.985 183.668 126.981H178.104ZM178.104 126.472H181.831C181.802 125.956 181.74 125.593 181.646 125.382C181.5 125.054 181.28 124.796 180.987 124.608C180.7 124.421 180.398 124.327 180.082 124.327C179.596 124.327 179.159 124.518 178.772 124.898C178.391 125.273 178.169 125.798 178.104 126.472ZM191.932 123.712V126.454H191.642C191.419 125.593 191.132 125.007 190.781 124.696C190.435 124.386 189.993 124.23 189.454 124.23C189.043 124.23 188.712 124.339 188.46 124.556C188.208 124.772 188.082 125.013 188.082 125.276C188.082 125.604 188.176 125.886 188.364 126.12C188.545 126.36 188.914 126.615 189.471 126.885L190.754 127.509C191.944 128.089 192.538 128.854 192.538 129.803C192.538 130.535 192.26 131.127 191.704 131.578C191.153 132.023 190.535 132.246 189.849 132.246C189.357 132.246 188.794 132.158 188.162 131.982C187.968 131.924 187.81 131.895 187.687 131.895C187.552 131.895 187.447 131.971 187.371 132.123H187.08V129.249H187.371C187.535 130.069 187.848 130.688 188.311 131.104C188.774 131.52 189.292 131.728 189.867 131.728C190.271 131.728 190.599 131.61 190.851 131.376C191.109 131.136 191.238 130.849 191.238 130.515C191.238 130.11 191.094 129.771 190.807 129.495C190.526 129.22 189.96 128.871 189.111 128.449C188.261 128.027 187.704 127.646 187.441 127.307C187.177 126.973 187.045 126.551 187.045 126.041C187.045 125.379 187.271 124.825 187.722 124.38C188.179 123.935 188.768 123.712 189.489 123.712C189.805 123.712 190.189 123.779 190.64 123.914C190.939 124.002 191.138 124.046 191.238 124.046C191.331 124.046 191.405 124.025 191.457 123.984C191.51 123.943 191.572 123.853 191.642 123.712H191.932ZM204.54 121.304V123.949H206.421V124.564H204.54V129.785C204.54 130.307 204.614 130.658 204.76 130.84C204.913 131.021 205.106 131.112 205.34 131.112C205.534 131.112 205.721 131.054 205.903 130.937C206.084 130.813 206.225 130.635 206.325 130.4H206.667C206.462 130.975 206.172 131.408 205.797 131.701C205.422 131.988 205.036 132.132 204.637 132.132C204.368 132.132 204.104 132.059 203.846 131.912C203.588 131.76 203.398 131.546 203.275 131.271C203.152 130.989 203.09 130.559 203.09 129.979V124.564H201.816V124.274C202.138 124.146 202.466 123.929 202.8 123.624C203.14 123.313 203.442 122.947 203.706 122.525C203.84 122.303 204.028 121.896 204.268 121.304H204.54ZM211.557 119.502V125.391C212.207 124.676 212.723 124.219 213.103 124.02C213.484 123.814 213.865 123.712 214.246 123.712C214.703 123.712 215.096 123.838 215.424 124.09C215.752 124.342 215.995 124.737 216.153 125.276C216.265 125.651 216.32 126.337 216.32 127.333V130.181C216.32 130.69 216.361 131.039 216.443 131.227C216.502 131.367 216.602 131.479 216.742 131.561C216.883 131.643 217.141 131.684 217.516 131.684V132H213.561V131.684H213.745C214.12 131.684 214.381 131.628 214.527 131.517C214.674 131.399 214.776 131.229 214.835 131.007C214.852 130.913 214.861 130.638 214.861 130.181V127.333C214.861 126.454 214.814 125.877 214.721 125.602C214.633 125.326 214.489 125.121 214.29 124.986C214.091 124.846 213.851 124.775 213.569 124.775C213.282 124.775 212.983 124.852 212.673 125.004C212.362 125.156 211.99 125.464 211.557 125.927V130.181C211.557 130.731 211.586 131.074 211.644 131.209C211.709 131.344 211.823 131.458 211.987 131.552C212.157 131.64 212.447 131.684 212.857 131.684V132H208.867V131.684C209.225 131.684 209.506 131.628 209.711 131.517C209.828 131.458 209.922 131.347 209.992 131.183C210.062 131.019 210.098 130.685 210.098 130.181V122.895C210.098 121.975 210.074 121.409 210.027 121.198C209.986 120.987 209.919 120.844 209.825 120.768C209.737 120.691 209.617 120.653 209.465 120.653C209.342 120.653 209.143 120.7 208.867 120.794L208.744 120.486L211.152 119.502H211.557ZM221.526 126.981C221.52 128.177 221.81 129.114 222.396 129.794C222.982 130.474 223.67 130.813 224.461 130.813C224.989 130.813 225.446 130.67 225.833 130.383C226.225 130.09 226.553 129.592 226.817 128.889L227.089 129.064C226.966 129.867 226.609 130.6 226.017 131.262C225.425 131.918 224.684 132.246 223.793 132.246C222.827 132.246 221.998 131.871 221.306 131.121C220.621 130.365 220.278 129.352 220.278 128.08C220.278 126.703 220.629 125.631 221.333 124.863C222.041 124.09 222.929 123.703 223.996 123.703C224.898 123.703 225.639 124.002 226.219 124.6C226.799 125.191 227.089 125.985 227.089 126.981H221.526ZM221.526 126.472H225.252C225.223 125.956 225.162 125.593 225.068 125.382C224.921 125.054 224.702 124.796 224.409 124.608C224.122 124.421 223.82 124.327 223.503 124.327C223.017 124.327 222.581 124.518 222.194 124.898C221.813 125.273 221.59 125.798 221.526 126.472ZM241.834 123.712V126.454H241.543C241.321 125.593 241.034 125.007 240.682 124.696C240.336 124.386 239.894 124.23 239.355 124.23C238.945 124.23 238.614 124.339 238.362 124.556C238.11 124.772 237.984 125.013 237.984 125.276C237.984 125.604 238.078 125.886 238.265 126.12C238.447 126.36 238.816 126.615 239.373 126.885L240.656 127.509C241.845 128.089 242.44 128.854 242.44 129.803C242.44 130.535 242.162 131.127 241.605 131.578C241.054 132.023 240.436 132.246 239.751 132.246C239.258 132.246 238.696 132.158 238.063 131.982C237.87 131.924 237.711 131.895 237.588 131.895C237.454 131.895 237.348 131.971 237.272 132.123H236.982V129.249H237.272C237.436 130.069 237.75 130.688 238.212 131.104C238.675 131.52 239.194 131.728 239.768 131.728C240.172 131.728 240.501 131.61 240.752 131.376C241.01 131.136 241.139 130.849 241.139 130.515C241.139 130.11 240.996 129.771 240.709 129.495C240.427 129.22 239.862 128.871 239.012 128.449C238.163 128.027 237.606 127.646 237.342 127.307C237.079 126.973 236.947 126.551 236.947 126.041C236.947 125.379 237.172 124.825 237.624 124.38C238.081 123.935 238.669 123.712 239.39 123.712C239.707 123.712 240.09 123.779 240.542 123.914C240.84 124.002 241.04 124.046 241.139 124.046C241.233 124.046 241.306 124.025 241.359 123.984C241.412 123.943 241.473 123.853 241.543 123.712H241.834ZM246.978 126.981C246.972 128.177 247.262 129.114 247.848 129.794C248.434 130.474 249.122 130.813 249.913 130.813C250.44 130.813 250.898 130.67 251.284 130.383C251.677 130.09 252.005 129.592 252.269 128.889L252.541 129.064C252.418 129.867 252.061 130.6 251.469 131.262C250.877 131.918 250.136 132.246 249.245 132.246C248.278 132.246 247.449 131.871 246.758 131.121C246.072 130.365 245.73 129.352 245.73 128.08C245.73 126.703 246.081 125.631 246.784 124.863C247.493 124.09 248.381 123.703 249.447 123.703C250.35 123.703 251.091 124.002 251.671 124.6C252.251 125.191 252.541 125.985 252.541 126.981H246.978ZM246.978 126.472H250.704C250.675 125.956 250.613 125.593 250.52 125.382C250.373 125.054 250.153 124.796 249.86 124.608C249.573 124.421 249.272 124.327 248.955 124.327C248.469 124.327 248.032 124.518 247.646 124.898C247.265 125.273 247.042 125.798 246.978 126.472ZM257.958 123.712V125.522C258.631 124.315 259.323 123.712 260.032 123.712C260.354 123.712 260.621 123.812 260.832 124.011C261.043 124.204 261.148 124.43 261.148 124.688C261.148 124.916 261.072 125.109 260.919 125.268C260.767 125.426 260.586 125.505 260.375 125.505C260.169 125.505 259.938 125.405 259.68 125.206C259.428 125.001 259.241 124.898 259.118 124.898C259.012 124.898 258.898 124.957 258.775 125.074C258.511 125.314 258.239 125.71 257.958 126.261V130.119C257.958 130.564 258.013 130.901 258.125 131.13C258.201 131.288 258.336 131.42 258.529 131.525C258.722 131.631 259.001 131.684 259.364 131.684V132H255.242V131.684C255.652 131.684 255.957 131.619 256.156 131.49C256.302 131.396 256.405 131.247 256.463 131.042C256.493 130.942 256.507 130.658 256.507 130.189V127.069C256.507 126.132 256.487 125.575 256.446 125.399C256.411 125.218 256.34 125.086 256.235 125.004C256.135 124.922 256.009 124.881 255.857 124.881C255.675 124.881 255.47 124.925 255.242 125.013L255.154 124.696L257.588 123.712H257.958ZM263.163 123.949H266.951V124.274H266.705C266.477 124.274 266.301 124.33 266.178 124.441C266.061 124.553 266.002 124.702 266.002 124.89C266.002 125.095 266.064 125.338 266.187 125.619L268.059 130.066L269.94 125.452C270.074 125.124 270.142 124.875 270.142 124.705C270.142 124.623 270.118 124.556 270.071 124.503C270.007 124.415 269.925 124.356 269.825 124.327C269.726 124.292 269.524 124.274 269.219 124.274V123.949H271.847V124.274C271.542 124.298 271.331 124.359 271.214 124.459C271.009 124.635 270.824 124.928 270.66 125.338L267.804 132.246H267.443L264.569 125.452C264.441 125.136 264.317 124.91 264.2 124.775C264.083 124.635 263.934 124.518 263.752 124.424C263.652 124.371 263.456 124.321 263.163 124.274V123.949ZM275.91 126.981C275.904 128.177 276.194 129.114 276.78 129.794C277.366 130.474 278.054 130.813 278.845 130.813C279.373 130.813 279.83 130.67 280.216 130.383C280.609 130.09 280.937 129.592 281.201 128.889L281.473 129.064C281.35 129.867 280.993 130.6 280.401 131.262C279.809 131.918 279.068 132.246 278.177 132.246C277.211 132.246 276.381 131.871 275.69 131.121C275.004 130.365 274.662 129.352 274.662 128.08C274.662 126.703 275.013 125.631 275.716 124.863C276.425 124.09 277.313 123.703 278.379 123.703C279.282 123.703 280.023 124.002 280.603 124.6C281.183 125.191 281.473 125.985 281.473 126.981H275.91ZM275.91 126.472H279.636C279.607 125.956 279.546 125.593 279.452 125.382C279.305 125.054 279.086 124.796 278.793 124.608C278.505 124.421 278.204 124.327 277.887 124.327C277.401 124.327 276.964 124.518 276.578 124.898C276.197 125.273 275.974 125.798 275.91 126.472ZM286.89 123.712V125.522C287.564 124.315 288.255 123.712 288.964 123.712C289.286 123.712 289.553 123.812 289.764 124.011C289.975 124.204 290.08 124.43 290.08 124.688C290.08 124.916 290.004 125.109 289.852 125.268C289.699 125.426 289.518 125.505 289.307 125.505C289.102 125.505 288.87 125.405 288.612 125.206C288.36 125.001 288.173 124.898 288.05 124.898C287.944 124.898 287.83 124.957 287.707 125.074C287.443 125.314 287.171 125.71 286.89 126.261V130.119C286.89 130.564 286.945 130.901 287.057 131.13C287.133 131.288 287.268 131.42 287.461 131.525C287.654 131.631 287.933 131.684 288.296 131.684V132H284.174V131.684C284.584 131.684 284.889 131.619 285.088 131.49C285.234 131.396 285.337 131.247 285.396 131.042C285.425 130.942 285.44 130.658 285.44 130.189V127.069C285.44 126.132 285.419 125.575 285.378 125.399C285.343 125.218 285.273 125.086 285.167 125.004C285.068 124.922 284.942 124.881 284.789 124.881C284.608 124.881 284.402 124.925 284.174 125.013L284.086 124.696L286.521 123.712H286.89ZM298.408 124.749L300.887 123.747H301.221V125.628C301.637 124.919 302.053 124.424 302.469 124.143C302.891 123.855 303.333 123.712 303.796 123.712C304.605 123.712 305.278 124.028 305.818 124.661C306.48 125.435 306.811 126.442 306.811 127.685C306.811 129.073 306.412 130.222 305.615 131.13C304.959 131.874 304.133 132.246 303.137 132.246C302.703 132.246 302.328 132.185 302.012 132.062C301.777 131.974 301.514 131.798 301.221 131.534V133.986C301.221 134.537 301.253 134.886 301.318 135.032C301.388 135.185 301.505 135.305 301.669 135.393C301.839 135.48 302.144 135.524 302.583 135.524V135.85H298.364V135.524H298.584C298.906 135.53 299.182 135.469 299.41 135.34C299.522 135.275 299.607 135.17 299.665 135.023C299.73 134.883 299.762 134.52 299.762 133.934V126.322C299.762 125.801 299.738 125.47 299.692 125.329C299.645 125.188 299.569 125.083 299.463 125.013C299.363 124.942 299.226 124.907 299.05 124.907C298.909 124.907 298.731 124.948 298.514 125.03L298.408 124.749ZM301.221 126.146V129.152C301.221 129.803 301.247 130.23 301.3 130.436C301.382 130.775 301.581 131.074 301.898 131.332C302.22 131.59 302.624 131.719 303.111 131.719C303.696 131.719 304.171 131.49 304.534 131.033C305.009 130.436 305.246 129.595 305.246 128.511C305.246 127.28 304.977 126.334 304.438 125.672C304.063 125.215 303.617 124.986 303.102 124.986C302.82 124.986 302.542 125.057 302.267 125.197C302.056 125.303 301.707 125.619 301.221 126.146ZM317.026 123.949V128.827C317.026 129.759 317.047 130.33 317.088 130.541C317.134 130.746 317.205 130.89 317.299 130.972C317.398 131.054 317.512 131.095 317.641 131.095C317.823 131.095 318.028 131.045 318.257 130.945L318.38 131.253L315.971 132.246H315.576V130.541C314.884 131.291 314.357 131.763 313.994 131.956C313.631 132.149 313.247 132.246 312.842 132.246C312.391 132.246 311.999 132.117 311.665 131.859C311.337 131.596 311.108 131.259 310.979 130.849C310.85 130.438 310.786 129.858 310.786 129.108V125.514C310.786 125.133 310.745 124.869 310.663 124.723C310.581 124.576 310.458 124.465 310.294 124.389C310.135 124.307 309.845 124.269 309.424 124.274V123.949H312.245V129.337C312.245 130.087 312.374 130.579 312.632 130.813C312.895 131.048 313.212 131.165 313.581 131.165C313.833 131.165 314.117 131.086 314.433 130.928C314.756 130.77 315.136 130.468 315.576 130.022V125.461C315.576 125.004 315.491 124.696 315.321 124.538C315.157 124.374 314.811 124.286 314.284 124.274V123.949H317.026ZM323.304 123.712V125.522C323.978 124.315 324.669 123.712 325.378 123.712C325.7 123.712 325.967 123.812 326.178 124.011C326.389 124.204 326.494 124.43 326.494 124.688C326.494 124.916 326.418 125.109 326.266 125.268C326.113 125.426 325.932 125.505 325.721 125.505C325.516 125.505 325.284 125.405 325.027 125.206C324.775 125.001 324.587 124.898 324.464 124.898C324.359 124.898 324.244 124.957 324.121 125.074C323.858 125.314 323.585 125.71 323.304 126.261V130.119C323.304 130.564 323.36 130.901 323.471 131.13C323.547 131.288 323.682 131.42 323.875 131.525C324.069 131.631 324.347 131.684 324.71 131.684V132H320.588V131.684C320.998 131.684 321.303 131.619 321.502 131.49C321.649 131.396 321.751 131.247 321.81 131.042C321.839 130.942 321.854 130.658 321.854 130.189V127.069C321.854 126.132 321.833 125.575 321.792 125.399C321.757 125.218 321.687 125.086 321.581 125.004C321.482 124.922 321.356 124.881 321.203 124.881C321.022 124.881 320.817 124.925 320.588 125.013L320.5 124.696L322.935 123.712H323.304ZM331.278 123.712V125.522C331.952 124.315 332.643 123.712 333.352 123.712C333.675 123.712 333.941 123.812 334.152 124.011C334.363 124.204 334.468 124.43 334.468 124.688C334.468 124.916 334.392 125.109 334.24 125.268C334.088 125.426 333.906 125.505 333.695 125.505C333.49 125.505 333.259 125.405 333.001 125.206C332.749 125.001 332.561 124.898 332.438 124.898C332.333 124.898 332.218 124.957 332.095 125.074C331.832 125.314 331.559 125.71 331.278 126.261V130.119C331.278 130.564 331.334 130.901 331.445 131.13C331.521 131.288 331.656 131.42 331.849 131.525C332.043 131.631 332.321 131.684 332.684 131.684V132H328.562V131.684C328.972 131.684 329.277 131.619 329.476 131.49C329.623 131.396 329.725 131.247 329.784 131.042C329.813 130.942 329.828 130.658 329.828 130.189V127.069C329.828 126.132 329.807 125.575 329.766 125.399C329.731 125.218 329.661 125.086 329.555 125.004C329.456 124.922 329.33 124.881 329.177 124.881C328.996 124.881 328.791 124.925 328.562 125.013L328.474 124.696L330.909 123.712H331.278ZM338.584 130.295C338.86 130.295 339.091 130.392 339.279 130.585C339.466 130.772 339.56 131.001 339.56 131.271C339.56 131.54 339.463 131.771 339.27 131.965C339.082 132.152 338.854 132.246 338.584 132.246C338.315 132.246 338.083 132.152 337.89 131.965C337.702 131.771 337.609 131.54 337.609 131.271C337.609 130.995 337.702 130.764 337.89 130.576C338.083 130.389 338.315 130.295 338.584 130.295Z" fill="#D9D9D9"/>
<defs>
<linearGradient id="paint0_linear_257_1784" x1="501" y1="25.5" x2="153" y2="25.5" gradientUnits="userSpaceOnUse">
<stop offset="0.035" stop-color="#594915"/>
<stop offset="0.475" stop-color="#99802E"/>
<stop offset="1" stop-color="#FFD54D"/>
</linearGradient>
</defs>
</svg>
