<svg width="237" height="21" viewBox="0 0 237 21" fill="none" xmlns="http://www.w3.org/2000/svg">
<path d="M1 11.5H236" stroke="#D9D9D9" stroke-linecap="round"/>
<rect width="148" height="21" transform="translate(45)" fill="#252C37"/>
<path d="M60.4981 12.8154L60.1569 16H52.1018V15.7525H52.4028C52.666 15.7525 52.8778 15.7056 53.0384 15.612C53.1544 15.5495 53.2436 15.4425 53.306 15.2908C53.3551 15.1838 53.3796 14.9028 53.3796 14.4478V8.48009C53.3796 8.01623 53.3551 7.72632 53.306 7.61035C53.2569 7.49439 53.1566 7.39403 53.0049 7.30929C52.8578 7.22008 52.657 7.17548 52.4028 7.17548H52.1018V6.92794H56.9388V7.17548H56.5441C56.281 7.17548 56.0691 7.22231 55.9085 7.31598C55.7926 7.37842 55.7011 7.48547 55.6342 7.63711C55.5852 7.74416 55.5606 8.02515 55.5606 8.48009V14.2605C55.5606 14.7244 55.5874 15.021 55.6409 15.1503C55.6944 15.2752 55.7993 15.3689 55.9554 15.4313C56.0669 15.4715 56.3367 15.4915 56.7649 15.4915H57.5209C58.0026 15.4915 58.404 15.4068 58.7252 15.2373C59.0463 15.0678 59.3228 14.8002 59.5548 14.4345C59.7911 14.0687 60.0142 13.529 60.2238 12.8154H60.4981ZM64.4606 6.71385C64.7505 6.71385 64.9959 6.81643 65.1966 7.0216C65.3973 7.22231 65.4976 7.46539 65.4976 7.75085C65.4976 8.0363 65.395 8.27938 65.1899 8.48009C64.9892 8.6808 64.7461 8.78116 64.4606 8.78116C64.1752 8.78116 63.9321 8.6808 63.7314 8.48009C63.5307 8.27938 63.4303 8.0363 63.4303 7.75085C63.4303 7.46539 63.5307 7.22231 63.7314 7.0216C63.9321 6.81643 64.1752 6.71385 64.4606 6.71385ZM65.3973 9.74456V14.7021C65.3973 15.1436 65.4486 15.4269 65.5511 15.5517C65.6537 15.6722 65.8544 15.7413 66.1533 15.7591V16H62.7747V15.7591C63.0512 15.7502 63.2564 15.6699 63.3902 15.5183C63.4794 15.4157 63.524 15.1436 63.524 14.7021V11.0492C63.524 10.6076 63.4727 10.3266 63.3701 10.2062C63.2675 10.0813 63.069 10.0099 62.7747 9.9921V9.74456H65.3973ZM71.019 10.4002V14.7422C71.019 15.1615 71.0636 15.4246 71.1528 15.5317C71.2955 15.6967 71.5587 15.7725 71.9423 15.7591V16H68.2559V15.7591C68.5369 15.7547 68.7354 15.7235 68.8513 15.6655C68.9718 15.603 69.0543 15.5183 69.0989 15.4113C69.1435 15.3042 69.1658 15.0812 69.1658 14.7422V10.4002H68.2559V9.74456H69.1658V9.28293L69.1591 8.96848C69.1591 8.32621 69.3933 7.79099 69.8616 7.36281C70.3344 6.93463 70.9722 6.72054 71.775 6.72054C72.3236 6.72054 72.7295 6.82312 72.9926 7.02829C73.2603 7.23346 73.3941 7.46093 73.3941 7.71071C73.3941 7.91142 73.3116 8.08536 73.1465 8.23255C72.9815 8.37974 72.7629 8.45333 72.4909 8.45333C72.2589 8.45333 72.0738 8.39312 71.9356 8.27269C71.8018 8.15227 71.7349 8.01846 71.7349 7.87127C71.7349 7.83113 71.7482 7.74862 71.775 7.62373C71.7929 7.54791 71.8018 7.47655 71.8018 7.40964C71.8018 7.31598 71.775 7.24684 71.7215 7.20224C71.6501 7.13534 71.5631 7.10189 71.4606 7.10189C71.3312 7.10189 71.2219 7.15541 71.1327 7.26246C71.048 7.3695 71.0056 7.54122 71.0056 7.77761L71.019 8.94841V9.74456H71.9423V10.4002H71.019ZM79.6447 12.6482H76.2126C76.2527 13.4778 76.4735 14.1334 76.8749 14.6151C77.1827 14.9853 77.5528 15.1704 77.9855 15.1704C78.2531 15.1704 78.4962 15.0968 78.7147 14.9496C78.9333 14.798 79.1674 14.5281 79.4172 14.1401L79.6447 14.2873C79.3057 14.9786 78.9311 15.4692 78.5207 15.7591C78.1104 16.0446 77.6354 16.1873 77.0957 16.1873C76.168 16.1873 75.4655 15.8305 74.9882 15.1169C74.6047 14.5415 74.4129 13.8279 74.4129 12.976C74.4129 11.9323 74.6939 11.1027 75.2558 10.4872C75.8223 9.86722 76.4846 9.55723 77.2429 9.55723C77.8762 9.55723 78.4248 9.81815 78.8887 10.34C79.357 10.8574 79.609 11.6268 79.6447 12.6482ZM77.9989 12.1999C77.9989 11.4818 77.9587 10.989 77.8784 10.7213C77.8026 10.4537 77.6822 10.2508 77.5172 10.1125C77.4235 10.0322 77.2986 9.9921 77.1425 9.9921C76.9106 9.9921 76.721 10.1058 76.5738 10.3333C76.3107 10.7303 76.1791 11.2744 76.1791 11.9657V12.1999H77.9989ZM82.7375 11.1763V10.8819C83.2549 10.6589 83.6295 10.3712 83.8615 10.0189C84.0978 9.66205 84.216 9.29631 84.216 8.92165C84.216 8.85029 84.2004 8.79454 84.1692 8.75439C84.138 8.71871 84.1068 8.70087 84.0755 8.70087C84.0488 8.70087 84.0086 8.71648 83.9551 8.7477C83.8258 8.82353 83.6652 8.86144 83.4734 8.86144C83.2103 8.86144 82.9806 8.75885 82.7843 8.55369C82.5925 8.34852 82.4966 8.10766 82.4966 7.83113C82.4966 7.53676 82.6081 7.27807 82.8311 7.05506C83.0542 6.83205 83.324 6.72054 83.6407 6.72054C84.0243 6.72054 84.3521 6.86996 84.6241 7.16879C84.8962 7.46316 85.0323 7.86904 85.0323 8.38643C85.0323 9.02424 84.8382 9.59068 84.4502 10.0858C84.0666 10.5808 83.4957 10.9444 82.7375 11.1763ZM91.9653 9.57061L92.0656 11.7048H91.8382C91.5661 11.0715 91.2829 10.6388 90.9885 10.4069C90.6986 10.175 90.4087 10.059 90.1188 10.059C89.9359 10.059 89.7798 10.1214 89.6504 10.2463C89.5211 10.3668 89.4564 10.5073 89.4564 10.6678C89.4564 10.7882 89.501 10.9042 89.5902 11.0157C89.733 11.1986 90.1321 11.513 90.7878 11.9591C91.4435 12.4006 91.8739 12.7775 92.079 13.0897C92.2887 13.3975 92.3935 13.7431 92.3935 14.1267C92.3935 14.4746 92.3065 14.8158 92.1326 15.1503C91.9586 15.4848 91.7133 15.7413 91.3966 15.9197C91.0799 16.0981 90.7298 16.1873 90.3462 16.1873C90.0474 16.1873 89.6482 16.0937 89.1487 15.9063C89.0149 15.8573 88.9234 15.8327 88.8744 15.8327C88.7272 15.8327 88.6045 15.9442 88.5064 16.1673H88.2856L88.1786 13.9193H88.406C88.6068 14.5081 88.8811 14.9496 89.229 15.244C89.5813 15.5384 89.9136 15.6856 90.2258 15.6856C90.4399 15.6856 90.6139 15.6209 90.7477 15.4915C90.8859 15.3577 90.9551 15.1972 90.9551 15.0098C90.9551 14.7957 90.8882 14.6106 90.7543 14.4545C90.6205 14.2984 90.3217 14.062 89.8578 13.7454C89.1754 13.2726 88.7339 12.9113 88.5332 12.6615C88.2388 12.2958 88.0916 11.8921 88.0916 11.4506C88.0916 10.9689 88.2566 10.534 88.5867 10.146C88.9212 9.75348 89.4029 9.55723 90.0318 9.55723C90.3708 9.55723 90.6986 9.63975 91.0153 9.80477C91.1357 9.87168 91.2338 9.90513 91.3096 9.90513C91.3899 9.90513 91.4546 9.88952 91.5037 9.8583C91.5527 9.82261 91.6308 9.72672 91.7378 9.57061H91.9653ZM108.474 6.72054V9.86499H108.213C108.017 9.04431 107.651 8.41542 107.116 7.97832C106.581 7.54122 105.974 7.32267 105.296 7.32267C104.73 7.32267 104.21 7.48547 103.737 7.81106C103.265 8.13666 102.919 8.56261 102.7 9.08891C102.419 9.7624 102.279 10.5117 102.279 11.3369C102.279 12.1486 102.381 12.889 102.587 13.558C102.792 14.2226 103.113 14.7266 103.55 15.07C103.987 15.409 104.554 15.5785 105.249 15.5785C105.82 15.5785 106.342 15.4536 106.815 15.2039C107.292 14.9541 107.794 14.5237 108.32 13.9126V14.6954C107.812 15.2262 107.281 15.612 106.728 15.8528C106.179 16.0892 105.537 16.2074 104.801 16.2074C103.833 16.2074 102.972 16.0134 102.219 15.6253C101.469 15.2373 100.889 14.6798 100.479 13.9528C100.073 13.2258 99.8703 12.4519 99.8703 11.6312C99.8703 10.7659 100.096 9.94527 100.546 9.16919C101.001 8.39312 101.612 7.79099 102.379 7.36281C103.151 6.93463 103.969 6.72054 104.835 6.72054C105.472 6.72054 106.146 6.85881 106.855 7.13534C107.265 7.29591 107.526 7.37619 107.638 7.37619C107.78 7.37619 107.903 7.3249 108.006 7.22231C108.113 7.11527 108.182 6.94801 108.213 6.72054H108.474ZM114.149 9.55723C114.693 9.55723 115.2 9.69773 115.668 9.97872C116.136 10.2597 116.491 10.6589 116.732 11.1763C116.977 11.6937 117.1 12.2601 117.1 12.8756C117.1 13.7632 116.874 14.5058 116.424 15.1035C115.88 15.8261 115.128 16.1873 114.169 16.1873C113.228 16.1873 112.503 15.8573 111.995 15.1972C111.487 14.5371 111.232 13.7721 111.232 12.9024C111.232 12.0059 111.491 11.2253 112.008 10.5608C112.53 9.89175 113.244 9.55723 114.149 9.55723ZM114.176 10.0322C113.949 10.0322 113.752 10.1192 113.587 10.2932C113.427 10.4627 113.32 10.8016 113.266 11.3101C113.217 11.8141 113.193 12.5166 113.193 13.4175C113.193 13.8948 113.224 14.3408 113.286 14.7556C113.335 15.0723 113.44 15.3131 113.601 15.4782C113.761 15.6432 113.944 15.7257 114.149 15.7257C114.35 15.7257 114.517 15.6699 114.651 15.5584C114.825 15.4068 114.941 15.1949 114.999 14.9229C115.088 14.4991 115.133 13.6428 115.133 12.3538C115.133 11.5955 115.09 11.0759 115.006 10.7949C114.921 10.5095 114.796 10.3021 114.631 10.1727C114.515 10.0791 114.363 10.0322 114.176 10.0322ZM122.507 9.55723C123.052 9.55723 123.558 9.69773 124.026 9.97872C124.494 10.2597 124.849 10.6589 125.09 11.1763C125.335 11.6937 125.458 12.2601 125.458 12.8756C125.458 13.7632 125.233 14.5058 124.782 15.1035C124.238 15.8261 123.486 16.1873 122.527 16.1873C121.586 16.1873 120.862 15.8573 120.353 15.1972C119.845 14.5371 119.59 13.7721 119.59 12.9024C119.59 12.0059 119.849 11.2253 120.366 10.5608C120.888 9.89175 121.602 9.55723 122.507 9.55723ZM122.534 10.0322C122.307 10.0322 122.11 10.1192 121.945 10.2932C121.785 10.4627 121.678 10.8016 121.624 11.3101C121.575 11.8141 121.551 12.5166 121.551 13.4175C121.551 13.8948 121.582 14.3408 121.644 14.7556C121.693 15.0723 121.798 15.3131 121.959 15.4782C122.119 15.6432 122.302 15.7257 122.507 15.7257C122.708 15.7257 122.875 15.6699 123.009 15.5584C123.183 15.4068 123.299 15.1949 123.357 14.9229C123.446 14.4991 123.491 13.6428 123.491 12.3538C123.491 11.5955 123.448 11.0759 123.364 10.7949C123.279 10.5095 123.154 10.3021 122.989 10.1727C122.873 10.0791 122.721 10.0322 122.534 10.0322ZM130.511 9.74456V11.1629C130.926 10.5162 131.289 10.088 131.601 9.87837C131.914 9.66428 132.215 9.55723 132.505 9.55723C132.754 9.55723 132.953 9.63529 133.1 9.79139C133.252 9.94304 133.327 10.1594 133.327 10.4404C133.327 10.7392 133.254 10.9711 133.107 11.1361C132.964 11.3012 132.79 11.3837 132.585 11.3837C132.348 11.3837 132.143 11.3079 131.969 11.1562C131.795 11.0046 131.693 10.9198 131.662 10.902C131.617 10.8752 131.566 10.8618 131.508 10.8618C131.378 10.8618 131.256 10.9109 131.14 11.009C130.957 11.1607 130.819 11.377 130.725 11.658C130.582 12.0906 130.511 12.5679 130.511 13.0897V14.5281L130.518 14.9028C130.518 15.157 130.533 15.3198 130.564 15.3912C130.618 15.5116 130.696 15.6008 130.799 15.6588C130.906 15.7123 131.084 15.7458 131.334 15.7591V16H127.955V15.7591C128.227 15.7368 128.41 15.6633 128.504 15.5384C128.602 15.409 128.651 15.0723 128.651 14.5281V11.0692C128.651 10.7124 128.633 10.485 128.597 10.3868C128.553 10.2619 128.488 10.1705 128.403 10.1125C128.319 10.0545 128.169 10.0144 127.955 9.9921V9.74456H130.511ZM141.592 6.92794V14.1267C141.592 14.6129 141.605 14.9006 141.632 14.9898C141.668 15.137 141.735 15.2462 141.833 15.3176C141.935 15.389 142.111 15.4336 142.361 15.4514V15.6722L139.719 16.1873V15.1972C139.402 15.5807 139.119 15.8417 138.869 15.9799C138.624 16.1182 138.345 16.1873 138.033 16.1873C137.234 16.1873 136.603 15.8305 136.139 15.1169C135.765 14.5371 135.577 13.8256 135.577 12.9827C135.577 12.3092 135.693 11.7071 135.925 11.1763C136.157 10.6411 136.474 10.2374 136.875 9.96534C137.281 9.69327 137.716 9.55723 138.18 9.55723C138.479 9.55723 138.744 9.61521 138.976 9.73118C139.208 9.84715 139.455 10.0501 139.719 10.34V8.45333C139.719 7.97609 139.699 7.68841 139.658 7.59028C139.605 7.46093 139.525 7.36504 139.418 7.3026C139.31 7.24015 139.11 7.20893 138.815 7.20893V6.92794H141.592ZM139.719 11.1696C139.389 10.5362 138.985 10.2196 138.508 10.2196C138.343 10.2196 138.207 10.2642 138.1 10.3534C137.934 10.4916 137.798 10.7347 137.691 11.0826C137.589 11.4305 137.538 11.9635 137.538 12.6816C137.538 13.4711 137.596 14.0553 137.711 14.4345C137.827 14.8136 137.986 15.0879 138.186 15.2574C138.289 15.3421 138.43 15.3845 138.608 15.3845C139 15.3845 139.371 15.0767 139.719 14.4612V11.1696ZM146.15 6.71385C146.44 6.71385 146.685 6.81643 146.886 7.0216C147.086 7.22231 147.187 7.46539 147.187 7.75085C147.187 8.0363 147.084 8.27938 146.879 8.48009C146.678 8.6808 146.435 8.78116 146.15 8.78116C145.864 8.78116 145.621 8.6808 145.421 8.48009C145.22 8.27938 145.12 8.0363 145.12 7.75085C145.12 7.46539 145.22 7.22231 145.421 7.0216C145.621 6.81643 145.864 6.71385 146.15 6.71385ZM147.086 9.74456V14.7021C147.086 15.1436 147.138 15.4269 147.24 15.5517C147.343 15.6722 147.544 15.7413 147.842 15.7591V16H144.464V15.7591C144.74 15.7502 144.946 15.6699 145.079 15.5183C145.169 15.4157 145.213 15.1436 145.213 14.7021V11.0492C145.213 10.6076 145.162 10.3266 145.059 10.2062C144.957 10.0813 144.758 10.0099 144.464 9.9921V9.74456H147.086ZM152.521 9.74456V10.5541C152.842 10.2062 153.15 9.95419 153.444 9.79808C153.739 9.63752 154.055 9.55723 154.394 9.55723C154.8 9.55723 155.137 9.67097 155.404 9.89844C155.672 10.1214 155.85 10.4002 155.94 10.7347C156.011 10.989 156.047 11.4774 156.047 12.1999V14.6352C156.047 15.1169 156.089 15.4179 156.174 15.5384C156.263 15.6543 156.446 15.7279 156.722 15.7591V16H153.558V15.7591C153.794 15.7279 153.964 15.6298 154.066 15.4648C154.138 15.3533 154.173 15.0767 154.173 14.6352V11.852C154.173 11.3391 154.153 11.0157 154.113 10.8819C154.073 10.7481 154.004 10.6455 153.906 10.5742C153.812 10.4983 153.707 10.4604 153.591 10.4604C153.208 10.4604 152.851 10.7347 152.521 11.2833V14.6352C152.521 15.1035 152.563 15.4001 152.648 15.525C152.737 15.6499 152.9 15.7279 153.136 15.7591V16H149.972V15.7591C150.235 15.7324 150.422 15.6476 150.534 15.5049C150.61 15.4068 150.648 15.1169 150.648 14.6352V11.1027C150.648 10.6299 150.603 10.3355 150.514 10.2196C150.429 10.1036 150.248 10.0278 149.972 9.9921V9.74456H152.521ZM162.552 15.0767C161.789 15.7502 161.104 16.087 160.498 16.087C160.141 16.087 159.844 15.971 159.608 15.7391C159.371 15.5027 159.253 15.2083 159.253 14.856C159.253 14.3787 159.458 13.9505 159.869 13.5714C160.279 13.1878 161.173 12.6794 162.552 12.046V11.4171C162.552 10.9444 162.525 10.6478 162.471 10.5273C162.422 10.4024 162.326 10.2954 162.184 10.2062C162.041 10.1125 161.88 10.0657 161.702 10.0657C161.412 10.0657 161.173 10.1304 160.986 10.2597C160.87 10.34 160.812 10.4337 160.812 10.5407C160.812 10.6344 160.875 10.7503 160.999 10.8886C161.169 11.0804 161.254 11.2655 161.254 11.4439C161.254 11.6624 161.171 11.8498 161.006 12.0059C160.846 12.1575 160.634 12.2334 160.371 12.2334C160.09 12.2334 159.853 12.1486 159.661 11.9791C159.474 11.8096 159.38 11.6112 159.38 11.3837C159.38 11.0626 159.507 10.757 159.762 10.4671C160.016 10.1727 160.371 9.9475 160.825 9.79139C161.28 9.63529 161.753 9.55723 162.244 9.55723C162.837 9.55723 163.305 9.68435 163.649 9.93858C163.997 10.1884 164.222 10.4604 164.324 10.7548C164.387 10.9421 164.418 11.3725 164.418 12.046V14.4746C164.418 14.7601 164.429 14.9407 164.452 15.0165C164.474 15.0879 164.507 15.1414 164.552 15.1771C164.597 15.2128 164.648 15.2306 164.706 15.2306C164.822 15.2306 164.94 15.1481 165.06 14.9831L165.261 15.1436C165.038 15.4737 164.806 15.7145 164.565 15.8662C164.329 16.0134 164.059 16.087 163.756 16.087C163.399 16.087 163.12 16.0045 162.92 15.8394C162.719 15.6699 162.596 15.4157 162.552 15.0767ZM162.552 14.5883V12.4943C162.012 12.811 161.61 13.1499 161.347 13.5112C161.173 13.7521 161.086 13.9951 161.086 14.2404C161.086 14.4456 161.16 14.6263 161.307 14.7824C161.419 14.9028 161.575 14.963 161.775 14.963C161.998 14.963 162.257 14.8381 162.552 14.5883ZM169.94 7.45647V9.74456H171.425V10.4069H169.94V14.2672C169.94 14.6285 169.955 14.8626 169.986 14.9697C170.022 15.0723 170.082 15.157 170.167 15.2239C170.252 15.2864 170.33 15.3176 170.401 15.3176C170.691 15.3176 170.965 15.0968 171.224 14.6552L171.425 14.8024C171.063 15.6588 170.477 16.087 169.665 16.087C169.268 16.087 168.932 15.9777 168.655 15.7591C168.383 15.5361 168.209 15.2886 168.133 15.0165C168.089 14.8649 168.066 14.4545 168.066 13.7855V10.4069H167.25V10.1727C167.812 9.77578 168.289 9.35875 168.682 8.92165C169.079 8.48455 169.424 7.99616 169.719 7.45647H169.94ZM178.826 12.6482H175.394C175.434 13.4778 175.655 14.1334 176.056 14.6151C176.364 14.9853 176.734 15.1704 177.167 15.1704C177.435 15.1704 177.678 15.0968 177.896 14.9496C178.115 14.798 178.349 14.5281 178.599 14.1401L178.826 14.2873C178.487 14.9786 178.112 15.4692 177.702 15.7591C177.292 16.0446 176.817 16.1873 176.277 16.1873C175.349 16.1873 174.647 15.8305 174.17 15.1169C173.786 14.5415 173.594 13.8279 173.594 12.976C173.594 11.9323 173.875 11.1027 174.437 10.4872C175.004 9.86722 175.666 9.55723 176.424 9.55723C177.058 9.55723 177.606 9.81815 178.07 10.34C178.538 10.8574 178.79 11.6268 178.826 12.6482ZM177.18 12.1999C177.18 11.4818 177.14 10.989 177.06 10.7213C176.984 10.4537 176.864 10.2508 176.699 10.1125C176.605 10.0322 176.48 9.9921 176.324 9.9921C176.092 9.9921 175.902 10.1058 175.755 10.3333C175.492 10.7303 175.361 11.2744 175.361 11.9657V12.1999H177.18ZM185.077 9.57061L185.177 11.7048H184.95C184.678 11.0715 184.394 10.6388 184.1 10.4069C183.81 10.175 183.52 10.059 183.23 10.059C183.047 10.059 182.891 10.1214 182.762 10.2463C182.633 10.3668 182.568 10.5073 182.568 10.6678C182.568 10.7882 182.612 10.9042 182.702 11.0157C182.844 11.1986 183.244 11.513 183.899 11.9591C184.555 12.4006 184.985 12.7775 185.19 13.0897C185.4 13.3975 185.505 13.7431 185.505 14.1267C185.505 14.4746 185.418 14.8158 185.244 15.1503C185.07 15.4848 184.825 15.7413 184.508 15.9197C184.191 16.0981 183.841 16.1873 183.458 16.1873C183.159 16.1873 182.76 16.0937 182.26 15.9063C182.126 15.8573 182.035 15.8327 181.986 15.8327C181.839 15.8327 181.716 15.9442 181.618 16.1673H181.397L181.29 13.9193H181.517C181.718 14.5081 181.993 14.9496 182.34 15.244C182.693 15.5384 183.025 15.6856 183.337 15.6856C183.551 15.6856 183.725 15.6209 183.859 15.4915C183.997 15.3577 184.067 15.1972 184.067 15.0098C184.067 14.7957 184 14.6106 183.866 14.4545C183.732 14.2984 183.433 14.062 182.969 13.7454C182.287 13.2726 181.845 12.9113 181.645 12.6615C181.35 12.2958 181.203 11.8921 181.203 11.4506C181.203 10.9689 181.368 10.534 181.698 10.146C182.033 9.75348 182.514 9.55723 183.143 9.55723C183.482 9.55723 183.81 9.63975 184.127 9.80477C184.247 9.87168 184.345 9.90513 184.421 9.90513C184.501 9.90513 184.566 9.88952 184.615 9.8583C184.664 9.82261 184.742 9.72672 184.849 9.57061H185.077Z" fill="white"/>
</svg>
