<svg width="237" height="21" viewBox="0 0 237 21" fill="none" xmlns="http://www.w3.org/2000/svg">
<path d="M1 11.5H236" stroke="#D9D9D9" stroke-linecap="round"/>
<rect width="91" height="21" transform="translate(73)" fill="#252C37"/>
<path d="M88.5471 6.80082C89.9922 6.7473 91.1652 7.16879 92.0662 8.06529C92.9716 8.96179 93.4243 10.0835 93.4243 11.4305C93.4243 12.5813 93.0876 13.5937 92.4141 14.4679C91.5221 15.6276 90.262 16.2074 88.6341 16.2074C87.0016 16.2074 85.7394 15.6543 84.8474 14.5482C84.1426 13.674 83.7903 12.637 83.7903 11.4372C83.7903 10.0902 84.2475 8.96848 85.1618 8.07198C86.0806 7.17102 87.209 6.7473 88.5471 6.80082ZM88.6274 7.229C87.7978 7.229 87.1667 7.65272 86.734 8.50016C86.3817 9.19595 86.2055 10.195 86.2055 11.4974C86.2055 13.0451 86.4776 14.1892 87.0217 14.9296C87.4008 15.4469 87.9316 15.7056 88.614 15.7056C89.0734 15.7056 89.457 15.5941 89.7647 15.3711C90.1572 15.0857 90.4628 14.6307 90.6813 14.0063C90.8999 13.3774 91.0091 12.559 91.0091 11.5509C91.0091 10.3511 90.8976 9.45465 90.6746 8.86144C90.4516 8.26377 90.1661 7.84228 89.8183 7.59697C89.4748 7.35166 89.0779 7.229 88.6274 7.229ZM98.3101 6.92794V10.3734C98.8364 9.8293 99.4118 9.55723 100.036 9.55723C100.464 9.55723 100.868 9.68435 101.247 9.93858C101.626 10.1884 101.923 10.5452 102.137 11.009C102.351 11.4729 102.458 12.0081 102.458 12.6147C102.458 13.2971 102.322 13.9171 102.05 14.4746C101.778 15.0321 101.414 15.4581 100.959 15.7525C100.505 16.0424 99.9849 16.1873 99.4006 16.1873C99.0617 16.1873 98.7606 16.1338 98.4975 16.0268C98.2343 15.9197 97.9756 15.7458 97.7214 15.5049L96.6844 16.1806H96.4569V8.22586C96.4569 7.86458 96.4413 7.64157 96.4101 7.55683C96.3655 7.43194 96.2941 7.34051 96.196 7.28253C96.1023 7.22008 95.9418 7.1844 95.7143 7.17548V6.92794H98.3101ZM98.3101 10.9689V13.7521C98.3101 14.3185 98.3235 14.6798 98.3503 14.8359C98.3949 15.099 98.5019 15.3131 98.6714 15.4782C98.8409 15.6387 99.0572 15.719 99.3204 15.719C99.5478 15.719 99.7419 15.6543 99.9024 15.525C100.067 15.3956 100.203 15.1392 100.311 14.7556C100.422 14.372 100.478 13.6807 100.478 12.6816C100.478 11.7227 100.357 11.0648 100.117 10.708C99.9426 10.4493 99.7084 10.3199 99.414 10.3199C99.0305 10.3199 98.6625 10.5362 98.3101 10.9689ZM108.976 9.57061L109.077 11.7048H108.849C108.577 11.0715 108.294 10.6388 108 10.4069C107.71 10.175 107.42 10.059 107.13 10.059C106.947 10.059 106.791 10.1214 106.662 10.2463C106.532 10.3668 106.467 10.5073 106.467 10.6678C106.467 10.7882 106.512 10.9042 106.601 11.0157C106.744 11.1986 107.143 11.513 107.799 11.9591C108.455 12.4006 108.885 12.7775 109.09 13.0897C109.3 13.3975 109.405 13.7431 109.405 14.1267C109.405 14.4746 109.318 14.8158 109.144 15.1503C108.97 15.4848 108.724 15.7413 108.408 15.9197C108.091 16.0981 107.741 16.1873 107.357 16.1873C107.058 16.1873 106.659 16.0937 106.16 15.9063C106.026 15.8573 105.934 15.8327 105.885 15.8327C105.738 15.8327 105.616 15.9442 105.517 16.1673H105.297L105.19 13.9193H105.417C105.618 14.5081 105.892 14.9496 106.24 15.244C106.592 15.5384 106.925 15.6856 107.237 15.6856C107.451 15.6856 107.625 15.6209 107.759 15.4915C107.897 15.3577 107.966 15.1972 107.966 15.0098C107.966 14.7957 107.899 14.6106 107.765 14.4545C107.632 14.2984 107.333 14.062 106.869 13.7454C106.186 13.2726 105.745 12.9113 105.544 12.6615C105.25 12.2958 105.103 11.8921 105.103 11.4506C105.103 10.9689 105.268 10.534 105.598 10.146C105.932 9.75348 106.414 9.55723 107.043 9.55723C107.382 9.55723 107.71 9.63975 108.026 9.80477C108.147 9.87168 108.245 9.90513 108.321 9.90513C108.401 9.90513 108.466 9.88952 108.515 9.8583C108.564 9.82261 108.642 9.72672 108.749 9.57061H108.976ZM117.167 12.6482H113.735C113.775 13.4778 113.996 14.1334 114.397 14.6151C114.705 14.9853 115.075 15.1704 115.508 15.1704C115.776 15.1704 116.019 15.0968 116.237 14.9496C116.456 14.798 116.69 14.5281 116.94 14.1401L117.167 14.2873C116.828 14.9786 116.454 15.4692 116.043 15.7591C115.633 16.0446 115.158 16.1873 114.618 16.1873C113.69 16.1873 112.988 15.8305 112.511 15.1169C112.127 14.5415 111.935 13.8279 111.935 12.976C111.935 11.9323 112.216 11.1027 112.778 10.4872C113.345 9.86722 114.007 9.55723 114.765 9.55723C115.399 9.55723 115.947 9.81815 116.411 10.34C116.879 10.8574 117.131 11.6268 117.167 12.6482ZM115.521 12.1999C115.521 11.4818 115.481 10.989 115.401 10.7213C115.325 10.4537 115.205 10.2508 115.04 10.1125C114.946 10.0322 114.821 9.9921 114.665 9.9921C114.433 9.9921 114.244 10.1058 114.096 10.3333C113.833 10.7303 113.702 11.2744 113.702 11.9657V12.1999H115.521ZM123.418 9.57061L123.518 11.7048H123.291C123.019 11.0715 122.735 10.6388 122.441 10.4069C122.151 10.175 121.861 10.059 121.571 10.059C121.388 10.059 121.232 10.1214 121.103 10.2463C120.974 10.3668 120.909 10.5073 120.909 10.6678C120.909 10.7882 120.954 10.9042 121.043 11.0157C121.185 11.1986 121.585 11.513 122.24 11.9591C122.896 12.4006 123.326 12.7775 123.532 13.0897C123.741 13.3975 123.846 13.7431 123.846 14.1267C123.846 14.4746 123.759 14.8158 123.585 15.1503C123.411 15.4848 123.166 15.7413 122.849 15.9197C122.532 16.0981 122.182 16.1873 121.799 16.1873C121.5 16.1873 121.101 16.0937 120.601 15.9063C120.467 15.8573 120.376 15.8327 120.327 15.8327C120.18 15.8327 120.057 15.9442 119.959 16.1673H119.738L119.631 13.9193H119.859C120.059 14.5081 120.334 14.9496 120.681 15.244C121.034 15.5384 121.366 15.6856 121.678 15.6856C121.892 15.6856 122.066 15.6209 122.2 15.4915C122.338 15.3577 122.408 15.1972 122.408 15.0098C122.408 14.7957 122.341 14.6106 122.207 14.4545C122.073 14.2984 121.774 14.062 121.31 13.7454C120.628 13.2726 120.186 12.9113 119.986 12.6615C119.691 12.2958 119.544 11.8921 119.544 11.4506C119.544 10.9689 119.709 10.534 120.039 10.146C120.374 9.75348 120.855 9.55723 121.484 9.55723C121.823 9.55723 122.151 9.63975 122.468 9.80477C122.588 9.87168 122.686 9.90513 122.762 9.90513C122.842 9.90513 122.907 9.88952 122.956 9.8583C123.005 9.82261 123.083 9.72672 123.19 9.57061H123.418ZM130.264 9.57061L130.364 11.7048H130.137C129.865 11.0715 129.581 10.6388 129.287 10.4069C128.997 10.175 128.707 10.059 128.417 10.059C128.234 10.059 128.078 10.1214 127.949 10.2463C127.82 10.3668 127.755 10.5073 127.755 10.6678C127.755 10.7882 127.8 10.9042 127.889 11.0157C128.032 11.1986 128.431 11.513 129.086 11.9591C129.742 12.4006 130.172 12.7775 130.378 13.0897C130.587 13.3975 130.692 13.7431 130.692 14.1267C130.692 14.4746 130.605 14.8158 130.431 15.1503C130.257 15.4848 130.012 15.7413 129.695 15.9197C129.379 16.0981 129.028 16.1873 128.645 16.1873C128.346 16.1873 127.947 16.0937 127.447 15.9063C127.313 15.8573 127.222 15.8327 127.173 15.8327C127.026 15.8327 126.903 15.9442 126.805 16.1673H126.584L126.477 13.9193H126.705C126.905 14.5081 127.18 14.9496 127.528 15.244C127.88 15.5384 128.212 15.6856 128.524 15.6856C128.738 15.6856 128.912 15.6209 129.046 15.4915C129.184 15.3577 129.254 15.1972 129.254 15.0098C129.254 14.7957 129.187 14.6106 129.053 14.4545C128.919 14.2984 128.62 14.062 128.156 13.7454C127.474 13.2726 127.032 12.9113 126.832 12.6615C126.537 12.2958 126.39 11.8921 126.39 11.4506C126.39 10.9689 126.555 10.534 126.885 10.146C127.22 9.75348 127.701 9.55723 128.33 9.55723C128.669 9.55723 128.997 9.63975 129.314 9.80477C129.434 9.87168 129.532 9.90513 129.608 9.90513C129.688 9.90513 129.753 9.88952 129.802 9.8583C129.851 9.82261 129.929 9.72672 130.036 9.57061H130.264ZM134.661 6.71385C134.951 6.71385 135.196 6.81643 135.397 7.0216C135.598 7.22231 135.698 7.46539 135.698 7.75085C135.698 8.0363 135.596 8.27938 135.391 8.48009C135.19 8.6808 134.947 8.78116 134.661 8.78116C134.376 8.78116 134.133 8.6808 133.932 8.48009C133.731 8.27938 133.631 8.0363 133.631 7.75085C133.631 7.46539 133.731 7.22231 133.932 7.0216C134.133 6.81643 134.376 6.71385 134.661 6.71385ZM135.598 9.74456V14.7021C135.598 15.1436 135.649 15.4269 135.752 15.5517C135.854 15.6722 136.055 15.7413 136.354 15.7591V16H132.975V15.7591C133.252 15.7502 133.457 15.6699 133.591 15.5183C133.68 15.4157 133.725 15.1436 133.725 14.7021V11.0492C133.725 10.6076 133.673 10.3266 133.571 10.2062C133.468 10.0813 133.27 10.0099 132.975 9.9921V9.74456H135.598ZM141.427 9.55723C141.971 9.55723 142.477 9.69773 142.946 9.97872C143.414 10.2597 143.769 10.6589 144.009 11.1763C144.255 11.6937 144.377 12.2601 144.377 12.8756C144.377 13.7632 144.152 14.5058 143.702 15.1035C143.158 15.8261 142.406 16.1873 141.447 16.1873C140.506 16.1873 139.781 15.8573 139.273 15.1972C138.764 14.5371 138.51 13.7721 138.51 12.9024C138.51 12.0059 138.769 11.2253 139.286 10.5608C139.808 9.89175 140.522 9.55723 141.427 9.55723ZM141.454 10.0322C141.226 10.0322 141.03 10.1192 140.865 10.2932C140.704 10.4627 140.597 10.8016 140.544 11.3101C140.495 11.8141 140.47 12.5166 140.47 13.4175C140.47 13.8948 140.502 14.3408 140.564 14.7556C140.613 15.0723 140.718 15.3131 140.878 15.4782C141.039 15.6432 141.222 15.7257 141.427 15.7257C141.628 15.7257 141.795 15.6699 141.929 15.5584C142.103 15.4068 142.219 15.1949 142.277 14.9229C142.366 14.4991 142.411 13.6428 142.411 12.3538C142.411 11.5955 142.368 11.0759 142.283 10.7949C142.199 10.5095 142.074 10.3021 141.909 10.1727C141.793 10.0791 141.641 10.0322 141.454 10.0322ZM149.39 9.74456V10.5541C149.712 10.2062 150.019 9.95419 150.314 9.79808C150.608 9.63752 150.925 9.55723 151.264 9.55723C151.67 9.55723 152.006 9.67097 152.274 9.89844C152.542 10.1214 152.72 10.4002 152.809 10.7347C152.88 10.989 152.916 11.4774 152.916 12.1999V14.6352C152.916 15.1169 152.959 15.4179 153.043 15.5384C153.132 15.6543 153.315 15.7279 153.592 15.7591V16H150.427V15.7591C150.664 15.7279 150.833 15.6298 150.936 15.4648C151.007 15.3533 151.043 15.0767 151.043 14.6352V11.852C151.043 11.3391 151.023 11.0157 150.983 10.8819C150.943 10.7481 150.873 10.6455 150.775 10.5742C150.682 10.4983 150.577 10.4604 150.461 10.4604C150.077 10.4604 149.72 10.7347 149.39 11.2833V14.6352C149.39 15.1035 149.433 15.4001 149.517 15.525C149.607 15.6499 149.769 15.7279 150.006 15.7591V16H146.841V15.7591C147.105 15.7324 147.292 15.6476 147.403 15.5049C147.479 15.4068 147.517 15.1169 147.517 14.6352V11.1027C147.517 10.6299 147.472 10.3355 147.383 10.2196C147.299 10.1036 147.118 10.0278 146.841 9.9921V9.74456H149.39Z" fill="white"/>
</svg>
