<svg width="237" height="21" viewBox="0 0 237 21" fill="none" xmlns="http://www.w3.org/2000/svg">
<path d="M1 11.5H236" stroke="#D9D9D9" stroke-linecap="round"/>
<rect width="134" height="21" transform="translate(42)" fill="#252C37"/>
<path d="M63.5608 6.92794V9.38328H63.3199C63.1772 8.81684 63.0189 8.41096 62.8449 8.16565C62.671 7.91588 62.4324 7.7174 62.1291 7.57021C61.9596 7.48993 61.663 7.44978 61.2393 7.44978H60.5635V14.4478C60.5635 14.9117 60.5881 15.2016 60.6371 15.3176C60.6906 15.4336 60.791 15.5361 60.9382 15.6253C61.0898 15.7101 61.295 15.7525 61.5537 15.7525H61.8548V16H57.1046V15.7525H57.4057C57.6689 15.7525 57.8807 15.7056 58.0413 15.612C58.1572 15.5495 58.2487 15.4425 58.3156 15.2908C58.3646 15.1838 58.3892 14.9028 58.3892 14.4478V7.44978H57.7335C57.1225 7.44978 56.6787 7.57913 56.4022 7.83782C56.0141 8.1991 55.7688 8.71425 55.6662 9.38328H55.412V6.92794H63.5608ZM69.4769 15.0767C68.7142 15.7502 68.0296 16.087 67.423 16.087C67.0662 16.087 66.7696 15.971 66.5332 15.7391C66.2968 15.5027 66.1786 15.2083 66.1786 14.856C66.1786 14.3787 66.3837 13.9505 66.7941 13.5714C67.2044 13.1878 68.0987 12.6794 69.4769 12.046V11.4171C69.4769 10.9444 69.4501 10.6478 69.3966 10.5273C69.3475 10.4024 69.2517 10.2954 69.1089 10.2062C68.9662 10.1125 68.8056 10.0657 68.6272 10.0657C68.3373 10.0657 68.0987 10.1304 67.9114 10.2597C67.7954 10.34 67.7374 10.4337 67.7374 10.5407C67.7374 10.6344 67.7999 10.7503 67.9247 10.8886C68.0942 11.0804 68.179 11.2655 68.179 11.4439C68.179 11.6624 68.0965 11.8498 67.9314 12.0059C67.7709 12.1575 67.559 12.2334 67.2959 12.2334C67.0149 12.2334 66.7785 12.1486 66.5867 11.9791C66.3994 11.8096 66.3057 11.6112 66.3057 11.3837C66.3057 11.0626 66.4328 10.757 66.687 10.4671C66.9413 10.1727 67.2959 9.9475 67.7508 9.79139C68.2057 9.63529 68.6785 9.55723 69.1691 9.55723C69.7623 9.55723 70.2307 9.68435 70.5741 9.93858C70.922 10.1884 71.1472 10.4604 71.2498 10.7548C71.3123 10.9421 71.3435 11.3725 71.3435 12.046V14.4746C71.3435 14.7601 71.3546 14.9407 71.3769 15.0165C71.3992 15.0879 71.4327 15.1414 71.4773 15.1771C71.5219 15.2128 71.5732 15.2306 71.6312 15.2306C71.7471 15.2306 71.8653 15.1481 71.9858 14.9831L72.1865 15.1436C71.9635 15.4737 71.7315 15.7145 71.4907 15.8662C71.2543 16.0134 70.9844 16.087 70.6812 16.087C70.3243 16.087 70.0456 16.0045 69.8449 15.8394C69.6442 15.6699 69.5215 15.4157 69.4769 15.0767ZM69.4769 14.5883V12.4943C68.9372 12.811 68.5358 13.1499 68.2726 13.5112C68.0987 13.7521 68.0117 13.9951 68.0117 14.2404C68.0117 14.4456 68.0853 14.6263 68.2325 14.7824C68.344 14.9028 68.5001 14.963 68.7008 14.963C68.9238 14.963 69.1825 14.8381 69.4769 14.5883ZM76.8314 6.92794V14.7021C76.8314 15.1436 76.8827 15.4269 76.9853 15.5517C77.0879 15.6722 77.2886 15.7413 77.5874 15.7591V16H74.2088V15.7591C74.4854 15.7502 74.6905 15.6699 74.8243 15.5183C74.9135 15.4157 74.9581 15.1436 74.9581 14.7021V8.22586C74.9581 7.78876 74.9068 7.51 74.8043 7.38957C74.7017 7.26469 74.5032 7.19332 74.2088 7.17548V6.92794H76.8314ZM85.0022 12.6482H81.57C81.6102 13.4778 81.831 14.1334 82.2324 14.6151C82.5401 14.9853 82.9103 15.1704 83.343 15.1704C83.6106 15.1704 83.8537 15.0968 84.0722 14.9496C84.2908 14.798 84.5249 14.5281 84.7747 14.1401L85.0022 14.2873C84.6632 14.9786 84.2885 15.4692 83.8782 15.7591C83.4678 16.0446 82.9928 16.1873 82.4532 16.1873C81.5254 16.1873 80.8229 15.8305 80.3457 15.1169C79.9621 14.5415 79.7703 13.8279 79.7703 12.976C79.7703 11.9323 80.0513 11.1027 80.6133 10.4872C81.1798 9.86722 81.8421 9.55723 82.6003 9.55723C83.2337 9.55723 83.7823 9.81815 84.2462 10.34C84.7145 10.8574 84.9665 11.6268 85.0022 12.6482ZM83.3563 12.1999C83.3563 11.4818 83.3162 10.989 83.2359 10.7213C83.1601 10.4537 83.0397 10.2508 82.8746 10.1125C82.781 10.0322 82.6561 9.9921 82.5 9.9921C82.2681 9.9921 82.0785 10.1058 81.9313 10.3333C81.6682 10.7303 81.5366 11.2744 81.5366 11.9657V12.1999H83.3563ZM89.8545 9.74456V10.5541C90.1756 10.2062 90.4834 9.95419 90.7778 9.79808C91.0721 9.63752 91.3888 9.55723 91.7278 9.55723C92.1337 9.55723 92.4704 9.67097 92.738 9.89844C93.0056 10.1214 93.1841 10.4002 93.2733 10.7347C93.3446 10.989 93.3803 11.4774 93.3803 12.1999V14.6352C93.3803 15.1169 93.4227 15.4179 93.5074 15.5384C93.5966 15.6543 93.7795 15.7279 94.056 15.7591V16H90.8915V15.7591C91.1279 15.7279 91.2974 15.6298 91.4 15.4648C91.4713 15.3533 91.507 15.0767 91.507 14.6352V11.852C91.507 11.3391 91.4869 11.0157 91.4468 10.8819C91.4067 10.7481 91.3375 10.6455 91.2394 10.5742C91.1457 10.4983 91.0409 10.4604 90.925 10.4604C90.5414 10.4604 90.1846 10.7347 89.8545 11.2833V14.6352C89.8545 15.1035 89.8969 15.4001 89.9816 15.525C90.0708 15.6499 90.2336 15.7279 90.47 15.7591V16H87.3055V15.7591C87.5687 15.7324 87.756 15.6476 87.8675 15.5049C87.9433 15.4068 87.9812 15.1169 87.9812 14.6352V11.1027C87.9812 10.6299 87.9366 10.3355 87.8474 10.2196C87.7627 10.1036 87.582 10.0278 87.3055 9.9921V9.74456H89.8545ZM98.9151 7.45647V9.74456H100.4V10.4069H98.9151V14.2672C98.9151 14.6285 98.9307 14.8626 98.9619 14.9697C98.9976 15.0723 99.0578 15.157 99.1425 15.2239C99.2273 15.2864 99.3053 15.3176 99.3767 15.3176C99.6666 15.3176 99.9409 15.0968 100.2 14.6552L100.4 14.8024C100.039 15.6588 99.4525 16.087 98.6408 16.087C98.2438 16.087 97.9071 15.9777 97.6305 15.7591C97.3584 15.5361 97.1845 15.2886 97.1087 15.0165C97.0641 14.8649 97.0418 14.4545 97.0418 13.7855V10.4069H96.2256V10.1727C96.7875 9.77578 97.2648 9.35875 97.6573 8.92165C98.0542 8.48455 98.3999 7.99616 98.6943 7.45647H98.9151ZM115.618 6.92794V9.38328H115.377C115.234 8.81684 115.076 8.41096 114.902 8.16565C114.728 7.91588 114.489 7.7174 114.186 7.57021C114.017 7.48993 113.72 7.44978 113.296 7.44978H112.621V14.4478C112.621 14.9117 112.645 15.2016 112.694 15.3176C112.748 15.4336 112.848 15.5361 112.995 15.6253C113.147 15.7101 113.352 15.7525 113.611 15.7525H113.912V16H109.162V15.7525H109.463C109.726 15.7525 109.938 15.7056 110.098 15.612C110.214 15.5495 110.306 15.4425 110.373 15.2908C110.422 15.1838 110.446 14.9028 110.446 14.4478V7.44978H109.791C109.18 7.44978 108.736 7.57913 108.459 7.83782C108.071 8.1991 107.826 8.71425 107.723 9.38328H107.469V6.92794H115.618ZM121.032 9.55723C121.576 9.55723 122.083 9.69773 122.551 9.97872C123.019 10.2597 123.374 10.6589 123.615 11.1763C123.86 11.6937 123.983 12.2601 123.983 12.8756C123.983 13.7632 123.757 14.5058 123.307 15.1035C122.763 15.8261 122.011 16.1873 121.052 16.1873C120.111 16.1873 119.386 15.8573 118.878 15.1972C118.369 14.5371 118.115 13.7721 118.115 12.9024C118.115 12.0059 118.374 11.2253 118.891 10.5608C119.413 9.89175 120.127 9.55723 121.032 9.55723ZM121.059 10.0322C120.831 10.0322 120.635 10.1192 120.47 10.2932C120.31 10.4627 120.203 10.8016 120.149 11.3101C120.1 11.8141 120.075 12.5166 120.075 13.4175C120.075 13.8948 120.107 14.3408 120.169 14.7556C120.218 15.0723 120.323 15.3131 120.484 15.4782C120.644 15.6432 120.827 15.7257 121.032 15.7257C121.233 15.7257 121.4 15.6699 121.534 15.5584C121.708 15.4068 121.824 15.1949 121.882 14.9229C121.971 14.4991 122.016 13.6428 122.016 12.3538C122.016 11.5955 121.973 11.0759 121.889 10.7949C121.804 10.5095 121.679 10.3021 121.514 10.1727C121.398 10.0791 121.246 10.0322 121.059 10.0322ZM129.39 9.55723C129.934 9.55723 130.441 9.69773 130.909 9.97872C131.377 10.2597 131.732 10.6589 131.973 11.1763C132.218 11.6937 132.341 12.2601 132.341 12.8756C132.341 13.7632 132.115 14.5058 131.665 15.1035C131.121 15.8261 130.369 16.1873 129.41 16.1873C128.469 16.1873 127.744 15.8573 127.236 15.1972C126.727 14.5371 126.473 13.7721 126.473 12.9024C126.473 12.0059 126.732 11.2253 127.249 10.5608C127.771 9.89175 128.485 9.55723 129.39 9.55723ZM129.417 10.0322C129.19 10.0322 128.993 10.1192 128.828 10.2932C128.668 10.4627 128.561 10.8016 128.507 11.3101C128.458 11.8141 128.434 12.5166 128.434 13.4175C128.434 13.8948 128.465 14.3408 128.527 14.7556C128.576 15.0723 128.681 15.3131 128.842 15.4782C129.002 15.6432 129.185 15.7257 129.39 15.7257C129.591 15.7257 129.758 15.6699 129.892 15.5584C130.066 15.4068 130.182 15.1949 130.24 14.9229C130.329 14.4991 130.374 13.6428 130.374 12.3538C130.374 11.5955 130.331 11.0759 130.247 10.7949C130.162 10.5095 130.037 10.3021 129.872 10.1727C129.756 10.0791 129.604 10.0322 129.417 10.0322ZM137.247 6.92794V14.7021C137.247 15.1436 137.298 15.4269 137.4 15.5517C137.503 15.6722 137.704 15.7413 138.003 15.7591V16H134.624V15.7591C134.9 15.7502 135.106 15.6699 135.239 15.5183C135.329 15.4157 135.373 15.1436 135.373 14.7021V8.22586C135.373 7.78876 135.322 7.51 135.219 7.38957C135.117 7.26469 134.918 7.19332 134.624 7.17548V6.92794H137.247ZM142.54 6.92794V10.3734C143.067 9.8293 143.642 9.55723 144.267 9.55723C144.695 9.55723 145.098 9.68435 145.477 9.93858C145.857 10.1884 146.153 10.5452 146.367 11.009C146.581 11.4729 146.688 12.0081 146.688 12.6147C146.688 13.2971 146.552 13.9171 146.28 14.4746C146.008 15.0321 145.645 15.4581 145.19 15.7525C144.735 16.0424 144.215 16.1873 143.631 16.1873C143.292 16.1873 142.991 16.1338 142.728 16.0268C142.465 15.9197 142.206 15.7458 141.952 15.5049L140.915 16.1806H140.687V8.22586C140.687 7.86458 140.672 7.64157 140.64 7.55683C140.596 7.43194 140.524 7.34051 140.426 7.28253C140.333 7.22008 140.172 7.1844 139.945 7.17548V6.92794H142.54ZM142.54 10.9689V13.7521C142.54 14.3185 142.554 14.6798 142.581 14.8359C142.625 15.099 142.732 15.3131 142.902 15.4782C143.071 15.6387 143.288 15.719 143.551 15.719C143.778 15.719 143.972 15.6543 144.133 15.525C144.298 15.3956 144.434 15.1392 144.541 14.7556C144.652 14.372 144.708 13.6807 144.708 12.6816C144.708 11.7227 144.588 11.0648 144.347 10.708C144.173 10.4493 143.939 10.3199 143.644 10.3199C143.261 10.3199 142.893 10.5362 142.54 10.9689ZM152.203 9.55723C152.747 9.55723 153.253 9.69773 153.722 9.97872C154.19 10.2597 154.545 10.6589 154.786 11.1763C155.031 11.6937 155.154 12.2601 155.154 12.8756C155.154 13.7632 154.928 14.5058 154.478 15.1035C153.934 15.8261 153.182 16.1873 152.223 16.1873C151.282 16.1873 150.557 15.8573 150.049 15.1972C149.54 14.5371 149.286 13.7721 149.286 12.9024C149.286 12.0059 149.545 11.2253 150.062 10.5608C150.584 9.89175 151.298 9.55723 152.203 9.55723ZM152.23 10.0322C152.002 10.0322 151.806 10.1192 151.641 10.2932C151.481 10.4627 151.374 10.8016 151.32 11.3101C151.271 11.8141 151.246 12.5166 151.246 13.4175C151.246 13.8948 151.278 14.3408 151.34 14.7556C151.389 15.0723 151.494 15.3131 151.655 15.4782C151.815 15.6432 151.998 15.7257 152.203 15.7257C152.404 15.7257 152.571 15.6699 152.705 15.5584C152.879 15.4068 152.995 15.1949 153.053 14.9229C153.142 14.4991 153.187 13.6428 153.187 12.3538C153.187 11.5955 153.144 11.0759 153.059 10.7949C152.975 10.5095 152.85 10.3021 152.685 10.1727C152.569 10.0791 152.417 10.0322 152.23 10.0322ZM161.31 12.1665L162.394 14.2271C162.769 14.9452 163.066 15.4001 163.284 15.5919C163.405 15.6945 163.57 15.7502 163.779 15.7591V16H160.294V15.7591C160.566 15.7368 160.733 15.7012 160.795 15.6521C160.862 15.603 160.896 15.5361 160.896 15.4514C160.896 15.3265 160.824 15.1303 160.682 14.8626L160.14 13.8457L159.678 14.5214C159.468 14.8292 159.35 15.0121 159.323 15.07C159.288 15.1548 159.27 15.2306 159.27 15.2975C159.27 15.4001 159.29 15.4871 159.33 15.5584C159.375 15.6253 159.433 15.6766 159.504 15.7123C159.58 15.7435 159.716 15.7591 159.912 15.7591V16H157.464V15.7591C157.767 15.7591 158.043 15.6766 158.293 15.5116C158.547 15.3421 158.915 14.9028 159.397 14.1936L159.912 13.4309L158.835 11.4372C158.483 10.786 158.22 10.3868 158.046 10.2396C157.872 10.0925 157.678 10.0099 157.464 9.9921V9.74456H160.929V9.9921L160.749 9.99879L160.401 10.1192C160.365 10.1504 160.347 10.2017 160.347 10.2731C160.347 10.34 160.358 10.4091 160.381 10.4805C160.394 10.5117 160.456 10.6321 160.568 10.8418L161.056 11.7517L161.31 11.3904C161.667 10.8998 161.846 10.5563 161.846 10.3601C161.846 10.2664 161.806 10.1884 161.725 10.1259C161.649 10.059 161.511 10.0144 161.31 9.9921V9.74456H163.525V9.9921C163.253 10.001 162.999 10.0858 162.762 10.2463C162.526 10.4024 162.261 10.708 161.966 11.1629L161.31 12.1665Z" fill="white"/>
</svg>
