<svg width="616" height="296" viewBox="0 0 616 296" fill="none" xmlns="http://www.w3.org/2000/svg">
<path d="M204.616 73.3462L216.623 76.1047C214.46 84.6507 211.918 93.0885 208.997 101.418C206.076 109.64 202.831 117.374 199.261 124.622C195.691 131.762 191.797 138.036 187.578 143.445C186.929 142.796 185.955 141.984 184.657 141.011C183.467 139.929 182.223 138.955 180.925 138.09C179.735 137.116 178.653 136.305 177.68 135.656C181.79 130.68 185.522 124.892 188.876 118.294C192.229 111.587 195.204 104.447 197.8 96.8747C200.505 89.1941 202.777 81.3513 204.616 73.3462ZM201.857 142.147L213.702 144.581C212.08 151.72 210.024 158.698 207.536 165.513C205.048 172.22 202.29 178.548 199.261 184.498C196.34 190.339 193.203 195.532 189.849 200.075C189.092 199.426 188.065 198.669 186.766 197.804C185.468 196.938 184.17 196.127 182.872 195.37C181.574 194.612 180.438 193.963 179.465 193.423C184.441 187.256 188.822 179.63 192.608 170.543C196.502 161.348 199.585 151.883 201.857 142.147ZM202.993 104.014H276.012V115.373H198.45L202.993 104.014ZM228.306 108.558H240.314V207.215C240.314 210.569 239.881 213.219 239.016 215.166C238.15 217.113 236.636 218.628 234.472 219.71C232.201 220.683 229.28 221.332 225.71 221.657C222.248 221.981 217.975 222.143 212.891 222.143C212.567 220.413 211.972 218.303 211.106 215.815C210.349 213.435 209.484 211.434 208.51 209.811C212.404 209.92 215.92 209.974 219.057 209.974C222.303 209.974 224.466 209.92 225.548 209.811C226.521 209.811 227.225 209.649 227.657 209.325C228.09 209 228.306 208.297 228.306 207.215V108.558ZM251.997 144.581L263.031 141.011C266.168 146.744 269.089 152.856 271.793 159.347C274.498 165.837 276.878 172.274 278.933 178.656C280.988 184.931 282.449 190.556 283.314 195.532L271.631 199.589C270.874 194.612 269.468 188.933 267.412 182.551C265.465 176.168 263.139 169.678 260.435 163.079C257.839 156.48 255.026 150.314 251.997 144.581ZM272.443 104.014H274.227L276.337 103.528L284.612 105.312C283.531 111.262 282.341 117.482 281.043 123.973C279.744 130.355 278.555 135.764 277.473 140.2L267.088 138.252C267.629 135.44 268.224 132.194 268.873 128.516C269.522 124.838 270.171 121.052 270.82 117.158C271.469 113.155 272.01 109.369 272.443 105.799V104.014ZM171.838 73.3462L183.359 76.7538C179.897 85.9488 175.786 95.0357 171.027 104.014C166.267 112.885 161.129 121.269 155.612 129.165C150.094 137.062 144.361 144.04 138.411 150.098C138.087 149.124 137.492 147.88 136.626 146.366C135.869 144.851 135.004 143.337 134.03 141.822C133.165 140.2 132.353 138.955 131.596 138.09C137.005 132.789 142.198 126.677 147.174 119.754C152.15 112.831 156.747 105.421 160.966 97.5238C165.185 89.5187 168.809 81.4595 171.838 73.3462ZM154.962 115.048L166.483 103.528L166.646 103.69V221.657H154.962V115.048ZM363.798 80.9727H435.195V92.3313H363.798V80.9727ZM358.281 138.09H447.527V149.611H358.281V138.09ZM396.575 116.509H408.745V206.566C408.745 210.244 408.259 213.057 407.285 215.004C406.311 216.951 404.526 218.465 401.93 219.547C399.334 220.413 395.872 220.954 391.545 221.17C387.218 221.494 381.809 221.657 375.319 221.657C374.994 220.034 374.345 218.033 373.372 215.653C372.506 213.381 371.641 211.38 370.775 209.649C375.968 209.757 380.619 209.811 384.73 209.811C388.841 209.92 391.599 209.92 393.006 209.811C394.412 209.703 395.331 209.433 395.764 209C396.305 208.567 396.575 207.756 396.575 206.566V116.509ZM430.813 80.9727H433.734L436.168 80.3236L444.281 86.1652C441.036 90.8168 437.304 95.5766 433.085 100.445C428.866 105.204 424.431 109.748 419.779 114.075C415.236 118.402 410.747 122.242 406.311 125.596C405.446 124.406 404.256 123.108 402.742 121.701C401.335 120.187 400.145 119.051 399.172 118.294C403.066 115.373 407.015 111.911 411.017 107.909C415.02 103.798 418.752 99.6332 422.213 95.4143C425.783 91.1954 428.65 87.301 430.813 83.7312V80.9727ZM298.243 106.124H351.79V117.645H298.243V106.124ZM322.745 72.6972L334.428 73.9953C332.805 82.1086 331.02 90.7627 329.073 99.9577C327.126 109.153 325.071 118.402 322.907 127.705C320.743 137.008 318.634 145.933 316.579 154.479C314.523 163.025 312.522 170.651 310.575 177.358L300.514 171.841C302.245 165.675 304.084 158.535 306.031 150.422C308.087 142.201 310.142 133.601 312.197 124.622C314.253 115.535 316.2 106.557 318.039 97.686C319.878 88.7073 321.447 80.3777 322.745 72.6972ZM306.356 166.811L313.171 158.211C319.229 161.564 325.449 165.459 331.832 169.894C338.214 174.221 344.11 178.656 349.519 183.2C355.036 187.743 359.417 192.016 362.662 196.019L355.198 205.917C352.061 201.914 347.788 197.533 342.379 192.773C337.078 188.014 331.291 183.362 325.016 178.819C318.742 174.275 312.522 170.273 306.356 166.811ZM347.734 106.124H349.681L351.79 105.799L359.092 107.26C357.686 128.138 354.765 146.095 350.33 161.132C346.003 176.06 340.215 188.5 332.967 198.453C325.72 208.405 317.12 216.356 307.167 222.306C306.41 220.791 305.274 219.06 303.76 217.113C302.353 215.274 301.001 213.76 299.703 212.57C308.682 207.702 316.525 200.67 323.232 191.475C329.938 182.172 335.347 170.651 339.458 156.913C343.569 143.066 346.327 127.002 347.734 108.72V106.124ZM529.308 169.732L526.063 106.773L525.739 87.6256H543.588L543.263 106.773L540.018 169.732H529.308ZM534.663 209.811C531.742 209.811 529.254 208.838 527.199 206.891C525.252 204.943 524.278 202.347 524.278 199.102C524.278 195.857 525.306 193.26 527.361 191.313C529.417 189.258 531.851 188.23 534.663 188.23C537.476 188.23 539.91 189.258 541.965 191.313C544.02 193.26 545.048 195.857 545.048 199.102C545.048 202.347 544.02 204.943 541.965 206.891C539.91 208.838 537.476 209.811 534.663 209.811Z" fill="url(#paint0_linear_59_7818)"/>
<path d="M3.4478 97V95.0567C7.96129 94.3044 11.2419 92.5701 13.2897 89.8536C14.8778 87.8476 15.6718 83.8566 15.6718 77.8804V30.5514C15.6718 26.7484 15.4629 23.9901 15.045 22.2767C14.6271 20.5632 13.8539 19.1005 12.7255 17.8886C10.636 15.5482 7.54338 14.0437 3.4478 13.3751V11.4318H42.502V13.3751C37.9885 14.1273 34.687 15.8617 32.5974 18.5781C31.7616 19.6647 31.1556 21.1274 30.7795 22.9662C30.4034 24.7633 30.2153 27.2917 30.2153 30.5514V51.489H74.2845V30.5514C74.2845 26.7484 74.0756 23.9901 73.6576 22.2767C73.2397 20.5632 72.4666 19.1005 71.3382 17.8886C69.2486 15.5482 66.1561 14.0437 62.0605 13.3751V11.4318H101.115V13.3751C96.6012 14.1273 93.2997 15.8617 91.2101 18.5781C90.3743 19.6647 89.7683 21.1274 89.3922 22.9662C89.0161 24.7633 88.828 27.2917 88.828 30.5514V77.8804C88.828 81.4326 89.0369 84.1282 89.4549 85.967C89.9146 87.7641 90.7086 89.2895 91.837 90.5432C93.9266 92.8835 97.0191 94.388 101.115 95.0567V97H62.0605V95.0567C66.574 94.3044 69.8546 92.5701 71.9024 89.8536C73.4905 87.8476 74.2845 83.8566 74.2845 77.8804V54.3726H30.2153V77.8804C30.2153 81.4326 30.4243 84.1282 30.8422 85.967C31.3019 87.7641 32.0959 89.2895 33.2243 90.5432C35.3139 92.8835 38.4065 94.388 42.502 95.0567V97H3.4478ZM12.224 93.8029H30.5287L28.0839 91.985C26.663 90.9402 25.7436 90.1044 25.3257 89.4775C24.9496 88.8506 24.7615 87.9103 24.7615 86.6566C24.7615 85.9879 24.7406 85.5491 24.6988 85.3402C24.6988 85.0894 24.6988 84.8387 24.6988 84.5879V83.5222V24.9095V23.8439C24.6988 23.5931 24.6988 23.3424 24.6988 23.0916C24.7406 22.8409 24.7615 22.402 24.7615 21.7752C24.7615 20.5214 24.9496 19.5811 25.3257 18.9542C25.7436 18.3274 26.663 17.4915 28.0839 16.4467L31.6571 13.8139H11.0957L14.6688 16.4467C16.0898 17.4915 16.9883 18.3274 17.3644 18.9542C17.7823 19.5811 17.9913 20.5214 17.9913 21.7752C18.0331 22.4856 18.054 23.1752 18.054 23.8439V24.9095V83.5222V84.5879C18.054 85.2566 18.0331 85.9461 17.9913 86.6566C17.9913 87.9521 17.8032 88.9133 17.4271 89.5402C17.051 90.1253 16.1315 90.9402 14.6688 91.985L12.224 93.8029ZM70.8367 93.8029H89.1414L86.6966 91.985C85.2757 90.9402 84.3563 90.1044 83.9384 89.4775C83.5623 88.8506 83.3742 87.9103 83.3742 86.6566C83.3742 85.4446 83.3533 84.7551 83.3115 84.5879V83.5222V24.9095V23.8439C83.3533 23.6349 83.3742 22.9453 83.3742 21.7752C83.3742 20.5214 83.5623 19.5811 83.9384 18.9542C84.3563 18.3274 85.2757 17.4915 86.6966 16.4467L90.2698 13.8139H69.7083L73.2815 16.4467C74.7024 17.4915 75.601 18.3274 75.9771 18.9542C76.395 19.5811 76.604 20.5214 76.604 21.7752C76.6457 22.4856 76.6666 23.1752 76.6666 23.8439V24.9095V83.5222V84.5879C76.6666 85.2566 76.6457 85.9461 76.604 86.6566C76.604 87.9521 76.4159 88.9133 76.0398 89.5402C75.6636 90.1253 74.7442 90.9402 73.2815 91.985L70.8367 93.8029ZM121.676 67.7877V69.1668C121.676 74.14 122.408 78.5072 123.87 82.2685C125.333 85.9879 127.402 88.8715 130.076 90.9193C132.793 92.9671 135.969 93.991 139.605 93.991C141.527 93.991 143.45 93.6776 145.372 93.0507C147.336 92.382 149.259 91.4417 151.139 90.2298C153.062 89.0178 155.214 87.3044 157.596 85.0894L158.85 86.782C154.545 90.9611 150.45 93.9492 146.563 95.7463C142.718 97.5433 138.414 98.4418 133.649 98.4418C128.676 98.4418 124.205 97.3552 120.234 95.1821C116.306 93.0089 113.255 89.9372 111.082 85.967C108.909 81.9968 107.822 77.5251 107.822 72.5519C107.822 67.328 109.013 62.5428 111.395 58.1965C113.819 53.8502 117.1 50.4442 121.237 47.9785C125.417 45.5128 130.076 44.2799 135.217 44.2799C139.605 44.2799 143.617 45.1784 147.253 46.9755C150.93 48.7725 153.793 51.3009 155.841 54.5607C158.014 57.904 159.226 62.313 159.477 67.7877H121.676ZM121.676 65.5936H146.688C146.647 59.9518 146.082 55.898 144.996 53.4323C144.035 51.1755 142.656 49.4412 140.858 48.2292C139.061 46.9755 137.055 46.3486 134.841 46.3486C126.817 46.3486 122.428 52.7636 121.676 65.5936ZM136.345 96.5612C133.378 96.1851 130.996 95.6209 129.199 94.8686C127.402 94.1164 125.646 92.9462 123.933 91.3581C121.384 89.0178 119.399 85.9461 117.978 82.1431C116.557 78.2983 115.846 74.1191 115.846 69.6056C115.846 66.4713 116.139 63.5876 116.724 60.9548C117.351 58.3219 118.291 55.9607 119.545 53.8711C120.84 51.7815 122.575 49.7964 124.748 47.9158C119.984 50.5069 116.327 53.9338 113.778 58.1965C111.228 62.4593 109.954 67.2235 109.954 72.4892C109.954 77.0027 110.978 81.1192 113.025 84.8387C115.073 88.5163 117.915 91.3999 121.551 93.4895C125.228 95.5791 129.282 96.6239 133.712 96.6239C134.715 96.6239 135.593 96.603 136.345 96.5612ZM154.274 65.5936C154.148 62.5011 153.584 59.701 152.581 57.1935C151.578 54.686 150.178 52.5756 148.381 50.8621C146.626 49.1069 144.536 47.8531 142.112 47.1009C144.536 49.0233 146.271 51.3009 147.315 53.9338C148.402 56.5667 148.945 59.8682 148.945 63.8384C148.945 64.5071 148.924 65.0921 148.882 65.5936H154.274ZM165.871 97V95.3074C168.713 94.8059 170.656 93.8447 171.701 92.4238C172.745 90.9611 173.268 88.4745 173.268 84.964V24.408C173.268 20.8975 172.725 18.4109 171.638 16.9482C170.593 15.4437 168.671 14.4825 165.871 14.0646V12.6855L186.056 10.3661V84.964C186.056 88.4327 186.558 90.8984 187.561 92.3611C188.605 93.8238 190.549 94.8059 193.391 95.3074V97H165.871ZM172.139 94.2418H184.677L183.172 93.1134C183.089 93.0298 183.005 92.9671 182.922 92.9253L182.107 92.2984C181.522 91.7134 181.208 90.9193 181.166 89.9163V88.6626V88.0357V12.9989L170.886 14.1273L173.331 15.8826C173.372 15.8826 173.456 15.9452 173.581 16.0706L174.396 16.6975C174.814 16.99 175.086 17.4288 175.211 18.0139C175.337 18.5572 175.399 19.5393 175.399 20.9602V88.0357C175.399 89.7492 175.316 90.8148 175.148 91.2328C174.981 91.6507 174.48 92.2149 173.644 92.9253C173.644 92.9253 173.602 92.9462 173.519 92.988C173.477 93.0298 173.456 93.0716 173.456 93.1134L172.139 94.2418ZM199.346 97V95.3074C202.188 94.8059 204.131 93.8447 205.176 92.4238C206.221 90.9611 206.743 88.4745 206.743 84.964V24.408C206.743 20.8975 206.2 18.4109 205.113 16.9482C204.068 15.4437 202.146 14.4825 199.346 14.0646V12.6855L219.531 10.3661V84.964C219.531 88.4327 220.033 90.8984 221.036 92.3611C222.08 93.8238 224.024 94.8059 226.866 95.3074V97H199.346ZM205.615 94.2418H218.152L216.648 93.1134C216.564 93.0298 216.48 92.9671 216.397 92.9253L215.582 92.2984C214.997 91.7134 214.683 90.9193 214.642 89.9163V88.6626V88.0357V12.9989L204.361 14.1273L206.806 15.8826C206.847 15.8826 206.931 15.9452 207.056 16.0706L207.871 16.6975C208.289 16.99 208.561 17.4288 208.686 18.0139C208.812 18.5572 208.874 19.5393 208.874 20.9602V88.0357C208.874 89.7492 208.791 90.8148 208.624 91.2328C208.456 91.6507 207.955 92.2149 207.119 92.9253C207.119 92.9253 207.077 92.9462 206.994 92.988C206.952 93.0298 206.931 93.0716 206.931 93.1134L205.615 94.2418ZM232.821 71.2982C232.821 66.4504 234.116 61.9578 236.707 57.8204C239.34 53.6412 242.872 50.3606 247.302 47.9785C251.773 45.5546 256.663 44.3426 261.97 44.3426C265.941 44.3426 269.681 45.0322 273.192 46.4113C276.702 47.7486 279.795 49.671 282.469 52.1785C285.144 54.6442 287.213 57.5488 288.675 60.8921C290.18 64.1936 290.932 67.6623 290.932 71.2982C290.932 76.1042 289.636 80.5968 287.045 84.776C284.496 88.9551 280.986 92.2567 276.514 94.6806C272.084 97.0627 267.257 98.2537 262.033 98.2537C256.726 98.2537 251.836 97.0627 247.364 94.6806C242.893 92.2984 239.34 89.0387 236.707 84.9013C234.116 80.7222 232.821 76.1878 232.821 71.2982ZM246.549 70.9221C246.549 74.5579 246.905 77.9013 247.615 80.952C248.367 84.0028 249.433 86.6148 250.812 88.788C252.191 90.9193 253.821 92.5701 255.702 93.7403C257.624 94.9104 259.714 95.4955 261.97 95.4955C264.185 95.4955 266.254 94.9104 268.177 93.7403C270.099 92.5283 271.729 90.8775 273.066 88.788C274.403 86.6566 275.427 84.0446 276.138 80.952C276.89 77.8595 277.266 74.5161 277.266 70.9221C277.266 66.116 276.618 61.8533 275.323 58.1338C274.069 54.4144 272.272 51.5308 269.932 49.483C267.633 47.4352 264.959 46.4113 261.908 46.4113C257.269 46.4113 253.549 48.668 250.749 53.1815C247.949 57.695 246.549 63.6085 246.549 70.9221ZM251.376 94.6806C249.37 93.0925 247.991 91.9223 247.239 91.1701C246.528 90.376 245.755 89.3312 244.92 88.0357C242.245 83.6894 240.908 78.0893 240.908 71.2355C240.908 59.8682 244.773 51.886 252.505 47.2889C248.994 48.5845 245.902 50.4651 243.227 52.9308C240.594 55.3965 238.546 58.1965 237.084 61.3309C235.663 64.4653 234.952 67.7877 234.952 71.2982C234.952 74.7251 235.663 78.0266 237.084 81.2028C238.505 84.3789 240.49 87.1163 243.039 89.4148C244.418 90.5432 245.525 91.379 246.361 91.9223C247.197 92.4656 248.869 93.385 251.376 94.6806ZM268.302 95.6836C273.818 93.2597 278.018 89.9581 280.902 85.779C283.827 81.558 285.29 76.7311 285.29 71.2982C285.29 65.7399 283.869 60.7876 281.027 56.4413C278.227 52.095 274.487 49.0233 269.806 47.2262C276.201 51.9069 279.398 59.8682 279.398 71.1101C279.398 76.7938 278.583 81.5371 276.953 85.3402C275.365 89.1432 272.815 92.3402 269.305 94.9313L268.302 95.6836ZM354.21 65.9311L351.642 16.1183L351.385 0.96898H365.507L365.251 16.1183L362.683 65.9311H354.21ZM358.446 97.6419C356.135 97.6419 354.167 96.8716 352.541 95.331C351 93.7904 350.23 91.7363 350.23 89.1686C350.23 86.6009 351.043 84.5468 352.669 83.0062C354.295 81.38 356.221 80.5669 358.446 80.5669C360.672 80.5669 362.597 81.38 364.224 83.0062C365.85 84.5468 366.663 86.6009 366.663 89.1686C366.663 91.7363 365.85 93.7904 364.224 95.331C362.597 96.8716 360.672 97.6419 358.446 97.6419Z" fill="url(#paint1_linear_59_7818)"/>
<path d="M331.385 216.077H336.395V256.281H331.385V216.077ZM334.826 232.678H344.424V236.843H334.826V232.678ZM302.409 265.396H338.81V269.501H302.409V265.396ZM302.409 252.176H307.359V267.026H302.409V252.176ZM309.23 219.941C311.967 219.941 314.402 220.524 316.535 221.691C318.668 222.818 320.358 224.388 321.605 226.4C322.853 228.412 323.477 230.746 323.477 233.402C323.477 235.978 322.853 238.292 321.605 240.345C320.358 242.397 318.668 244.007 316.535 245.174C314.402 246.301 311.967 246.864 309.23 246.864C306.534 246.864 304.099 246.301 301.926 245.174C299.793 244.007 298.103 242.397 296.855 240.345C295.608 238.292 294.984 235.978 294.984 233.402C294.984 230.746 295.608 228.412 296.855 226.4C298.103 224.388 299.793 222.818 301.926 221.691C304.099 220.524 306.534 219.941 309.23 219.941ZM309.23 224.287C307.46 224.287 305.87 224.67 304.462 225.434C303.053 226.199 301.926 227.265 301.081 228.634C300.276 230.002 299.874 231.591 299.874 233.402C299.874 235.173 300.276 236.743 301.081 238.111C301.926 239.479 303.053 240.546 304.462 241.31C305.87 242.075 307.46 242.457 309.23 242.457C311.001 242.457 312.591 242.075 313.999 241.31C315.448 240.546 316.575 239.479 317.38 238.111C318.225 236.743 318.648 235.173 318.648 233.402C318.648 231.591 318.225 230.002 317.38 228.634C316.575 227.265 315.448 226.199 313.999 225.434C312.591 224.67 311.001 224.287 309.23 224.287ZM352.81 219.398H357.82V242.88H352.81V219.398ZM352.81 241.733H356.915C360.134 241.733 363.052 241.693 365.668 241.612C368.324 241.491 370.859 241.29 373.274 241.009C375.729 240.727 378.224 240.324 380.759 239.801L381.363 243.906C378.787 244.429 376.252 244.852 373.757 245.174C371.262 245.455 368.646 245.657 365.909 245.777C363.213 245.858 360.215 245.898 356.915 245.898H352.81V241.733ZM389.452 216.077H394.462V249.58H389.452V216.077ZM374.119 222.476H390.78V226.46H374.119V222.476ZM374.119 232.135H390.78V236.059H374.119V232.135ZM376.473 250.063C382.107 250.063 386.534 250.969 389.754 252.78C393.014 254.591 394.643 257.126 394.643 260.386C394.643 263.605 393.014 266.121 389.754 267.932C386.534 269.743 382.107 270.648 376.473 270.648C370.839 270.648 366.392 269.743 363.132 267.932C359.913 266.121 358.303 263.605 358.303 260.386C358.303 257.126 359.913 254.591 363.132 252.78C366.392 250.969 370.839 250.063 376.473 250.063ZM376.473 254.048C373.737 254.048 371.382 254.309 369.411 254.832C367.439 255.315 365.909 256.04 364.823 257.005C363.776 257.931 363.253 259.058 363.253 260.386C363.253 261.674 363.776 262.801 364.823 263.766C365.909 264.692 367.439 265.416 369.411 265.94C371.382 266.423 373.737 266.664 376.473 266.664C379.25 266.664 381.604 266.423 383.536 265.94C385.508 265.416 387.017 264.692 388.064 263.766C389.15 262.801 389.693 261.674 389.693 260.386C389.693 259.058 389.15 257.931 388.064 257.005C387.017 256.04 385.508 255.315 383.536 254.832C381.604 254.309 379.25 254.048 376.473 254.048ZM442.086 216.077H447.036V270.709H442.086V216.077ZM445.889 238.534H455.97V242.759H445.889V238.534ZM404.78 224.83H436.955V228.935H404.78V224.83ZM421.139 233.402C423.715 233.402 425.989 233.946 427.961 235.032C429.973 236.119 431.542 237.608 432.669 239.499C433.836 241.351 434.42 243.504 434.42 245.959C434.42 248.413 433.836 250.587 432.669 252.478C431.542 254.37 429.973 255.859 427.961 256.945C425.989 257.991 423.715 258.515 421.139 258.515C418.564 258.515 416.27 257.991 414.258 256.945C412.286 255.859 410.716 254.37 409.549 252.478C408.382 250.587 407.799 248.413 407.799 245.959C407.799 243.504 408.382 241.351 409.549 239.499C410.716 237.608 412.286 236.119 414.258 235.032C416.27 233.946 418.564 233.402 421.139 233.402ZM421.139 237.568C419.489 237.568 418.02 237.93 416.733 238.654C415.445 239.379 414.419 240.365 413.654 241.612C412.93 242.86 412.567 244.309 412.567 245.959C412.567 247.609 412.93 249.077 413.654 250.365C414.419 251.613 415.445 252.599 416.733 253.323C418.02 254.007 419.489 254.349 421.139 254.349C422.749 254.349 424.198 254.007 425.486 253.323C426.774 252.599 427.78 251.613 428.504 250.365C429.269 249.077 429.651 247.609 429.651 245.959C429.651 244.309 429.269 242.86 428.504 241.612C427.78 240.365 426.774 239.379 425.486 238.654C424.198 237.93 422.749 237.568 421.139 237.568ZM418.544 216.741H423.554V226.641H418.544V216.741ZM482.104 235.636H492.608V239.801H482.104V235.636ZM471.963 221.209H475.886V231.652C475.886 234.469 475.585 237.246 474.981 239.982C474.418 242.719 473.572 245.295 472.446 247.709C471.359 250.124 470.031 252.297 468.461 254.229C466.892 256.16 465.121 257.73 463.149 258.937L460.01 255.195C461.861 254.068 463.532 252.659 465.021 250.969C466.51 249.279 467.757 247.387 468.763 245.295C469.81 243.162 470.594 240.948 471.118 238.654C471.681 236.32 471.963 233.986 471.963 231.652V221.209ZM472.929 221.209H476.792V231.471C476.792 233.644 477.033 235.837 477.516 238.051C478.04 240.224 478.764 242.316 479.69 244.329C480.655 246.301 481.843 248.112 483.251 249.762C484.66 251.412 486.249 252.78 488.02 253.866L485.183 257.73C483.211 256.523 481.46 254.993 479.931 253.142C478.402 251.251 477.114 249.138 476.068 246.804C475.021 244.429 474.236 241.934 473.713 239.318C473.19 236.702 472.929 234.087 472.929 231.471V221.209ZM502.206 216.077H507.035V270.709H502.206V216.077ZM491.099 217.224H495.807V267.932H491.099V217.224ZM528.279 244.208H533.229V260.507H528.279V244.208ZM548.442 244.208H553.452V260.507H548.442V244.208ZM516.146 259.541H565.646V263.706H516.146V259.541ZM540.775 219.518C544.638 219.518 548.059 220.102 551.037 221.269C554.015 222.436 556.349 224.066 558.04 226.159C559.77 228.251 560.635 230.726 560.635 233.584C560.635 236.401 559.77 238.876 558.04 241.009C556.349 243.101 554.015 244.731 551.037 245.898C548.059 247.025 544.638 247.588 540.775 247.588C536.952 247.588 533.531 247.025 530.513 245.898C527.535 244.731 525.201 243.101 523.51 241.009C521.82 238.876 520.975 236.401 520.975 233.584C520.975 230.726 521.82 228.251 523.51 226.159C525.201 224.066 527.535 222.436 530.513 221.269C533.531 220.102 536.952 219.518 540.775 219.518ZM540.775 223.502C537.877 223.502 535.302 223.925 533.048 224.77C530.795 225.615 529.024 226.802 527.736 228.332C526.448 229.821 525.804 231.571 525.804 233.584C525.804 235.596 526.448 237.366 527.736 238.896C529.024 240.385 530.795 241.552 533.048 242.397C535.302 243.242 537.877 243.665 540.775 243.665C543.713 243.665 546.309 243.242 548.562 242.397C550.816 241.552 552.587 240.385 553.874 238.896C555.162 237.366 555.806 235.596 555.806 233.584C555.806 231.571 555.162 229.821 553.874 228.332C552.587 226.802 550.816 225.615 548.562 224.77C546.309 223.925 543.713 223.502 540.775 223.502ZM576.264 254.475L576.235 253.709C576.058 250.25 575.792 247.381 575.439 245.102C575.105 242.822 574.545 240.022 573.759 236.701C573.13 234.068 572.815 232.054 572.815 230.659C572.815 228.969 573.169 227.633 573.877 226.65C574.604 225.648 575.566 225.147 576.765 225.147C577.551 225.147 578.239 225.373 578.828 225.825C579.438 226.257 579.899 226.886 580.214 227.711C580.548 228.537 580.715 229.48 580.715 230.541C580.715 231.622 580.361 233.675 579.654 236.701C579.104 239.118 578.671 241.182 578.357 242.891C578.042 244.581 577.787 246.32 577.59 248.108C577.414 249.877 577.276 251.744 577.178 253.709L577.148 254.475H576.264ZM572.933 262.669C572.933 261.962 573.091 261.323 573.405 260.753C573.739 260.183 574.191 259.732 574.761 259.397C575.35 259.044 575.999 258.867 576.706 258.867C577.414 258.867 578.052 259.044 578.622 259.397C579.212 259.732 579.664 260.183 579.978 260.753C580.312 261.323 580.479 261.962 580.479 262.669C580.479 263.711 580.116 264.605 579.388 265.352C578.661 266.098 577.767 266.472 576.706 266.472C575.684 266.472 574.8 266.098 574.053 265.352C573.307 264.605 572.933 263.711 572.933 262.669ZM576.588 246.782C576.588 245.878 576.598 245.131 576.618 244.542C576.637 243.952 576.667 243.215 576.706 242.331C576.765 241.447 576.824 240.464 576.883 239.384C577.021 237.438 577.276 234.952 577.649 231.926C577.787 230.983 577.856 230.168 577.856 229.48C577.856 227.436 577.296 226.414 576.176 226.414C575.508 226.414 574.957 226.778 574.525 227.505C574.112 228.232 573.906 229.175 573.906 230.335C573.906 231.435 574.132 233.086 574.584 235.287L575.35 239.059C575.861 241.732 576.156 243.333 576.235 243.864C576.372 244.709 576.49 245.682 576.588 246.782ZM577.237 264.88V260.459C577.237 259.967 577.001 259.722 576.529 259.722C575.842 259.722 575.223 260.016 574.672 260.606C574.142 261.195 573.877 261.883 573.877 262.669C573.877 263.436 574.142 264.123 574.672 264.733C575.223 265.322 575.842 265.617 576.529 265.617C577.001 265.617 577.237 265.371 577.237 264.88Z" fill="url(#paint2_linear_59_7818)"/>
<defs>
<linearGradient id="paint0_linear_59_7818" x1="129" y1="152.5" x2="616" y2="152.5" gradientUnits="userSpaceOnUse">
<stop offset="0.025" stop-color="white"/>
<stop offset="0.53" stop-color="#FFEFBA"/>
<stop offset="0.975" stop-color="#6E6E6E"/>
</linearGradient>
<linearGradient id="paint1_linear_59_7818" x1="423" y1="85" x2="0" y2="85" gradientUnits="userSpaceOnUse">
<stop offset="0.035" stop-color="#594915"/>
<stop offset="0.475" stop-color="#99802E"/>
<stop offset="1" stop-color="#FFD54D"/>
</linearGradient>
<linearGradient id="paint2_linear_59_7818" x1="585" y1="260.5" x2="291" y2="260.5" gradientUnits="userSpaceOnUse">
<stop offset="0.035" stop-color="#594915"/>
<stop offset="0.475" stop-color="#99802E"/>
<stop offset="1" stop-color="#FFD54D"/>
</linearGradient>
</defs>
</svg>
