<svg width="528" height="164" viewBox="0 0 528 164" fill="none" xmlns="http://www.w3.org/2000/svg">
<path d="M20.0244 6.68262V13.5674H19.4531C19.0234 11.7705 18.2227 10.3936 17.0508 9.43652C15.8789 8.47949 14.5508 8.00098 13.0664 8.00098C11.8262 8.00098 10.6885 8.35742 9.65332 9.07031C8.61816 9.7832 7.86133 10.7158 7.38281 11.8682C6.76758 13.3428 6.45996 14.9834 6.45996 16.79C6.45996 18.5674 6.68457 20.1885 7.13379 21.6533C7.58301 23.1084 8.28613 24.2119 9.24316 24.9639C10.2002 25.7061 11.4404 26.0771 12.9639 26.0771C14.2139 26.0771 15.3564 25.8037 16.3916 25.2568C17.4365 24.71 18.5352 23.7676 19.6875 22.4297V24.1436C18.5742 25.3057 17.4121 26.1504 16.2012 26.6777C15 27.1953 13.5938 27.4541 11.9824 27.4541C9.86328 27.4541 7.97852 27.0293 6.32812 26.1797C4.6875 25.3301 3.41797 24.1094 2.51953 22.5176C1.63086 20.9258 1.18652 19.2314 1.18652 17.4346C1.18652 15.54 1.67969 13.7432 2.66602 12.0439C3.66211 10.3447 5 9.02637 6.67969 8.08887C8.36914 7.15137 10.1611 6.68262 12.0557 6.68262C13.4521 6.68262 14.9268 6.98535 16.4795 7.59082C17.3779 7.94238 17.9492 8.11816 18.1934 8.11816C18.5059 8.11816 18.7744 8.00586 18.999 7.78125C19.2334 7.54688 19.3848 7.18066 19.4531 6.68262H20.0244ZM31.5861 7.13672V15.0615C32.3381 14.2705 33.0266 13.7139 33.6516 13.3916C34.2766 13.0596 34.926 12.8936 35.5998 12.8936C36.4592 12.8936 37.1916 13.1377 37.7971 13.626C38.4123 14.1143 38.8176 14.6904 39.0129 15.3545C39.218 16.0088 39.3205 17.1172 39.3205 18.6797V24.0264C39.3205 25.0713 39.4182 25.7256 39.6135 25.9893C39.8088 26.2432 40.2043 26.4043 40.8 26.4727V27H33.8566V26.4727C34.3449 26.4043 34.7111 26.209 34.9553 25.8867C35.1311 25.6328 35.2189 25.0127 35.2189 24.0264V17.918C35.2189 16.7852 35.175 16.0771 35.0871 15.7939C34.9992 15.501 34.8479 15.2764 34.633 15.1201C34.4279 14.9541 34.1936 14.8711 33.9299 14.8711C33.5393 14.8711 33.1584 15.0078 32.7873 15.2812C32.4162 15.5449 32.0158 16.0137 31.5861 16.6875V24.0264C31.5861 25.0029 31.6594 25.6133 31.8059 25.8574C31.9914 26.1895 32.3723 26.3945 32.9484 26.4727V27H26.0051V26.4727C26.5812 26.4141 26.9914 26.2285 27.2355 25.916C27.4016 25.7012 27.4846 25.0713 27.4846 24.0264V10.1104C27.4846 9.0752 27.3869 8.43066 27.1916 8.17676C27.0061 7.92285 26.6105 7.75684 26.0051 7.67871V7.13672H31.5861ZM49.2855 6.66797C49.9203 6.66797 50.4574 6.89258 50.8969 7.3418C51.3363 7.78125 51.5561 8.31348 51.5561 8.93848C51.5561 9.56348 51.3314 10.0957 50.8822 10.5352C50.4428 10.9746 49.9105 11.1943 49.2855 11.1943C48.6605 11.1943 48.1283 10.9746 47.6889 10.5352C47.2494 10.0957 47.0297 9.56348 47.0297 8.93848C47.0297 8.31348 47.2494 7.78125 47.6889 7.3418C48.1283 6.89258 48.6605 6.66797 49.2855 6.66797ZM51.3363 13.3037V24.1582C51.3363 25.125 51.4486 25.7451 51.6732 26.0186C51.8979 26.2822 52.3373 26.4336 52.9916 26.4727V27H45.5941V26.4727C46.1996 26.4531 46.6488 26.2773 46.9418 25.9453C47.1371 25.7207 47.2348 25.125 47.2348 24.1582V16.1602C47.2348 15.1934 47.1225 14.5781 46.8979 14.3145C46.6732 14.041 46.2387 13.8848 45.5941 13.8457V13.3037H51.3363ZM63.235 13.3037V15.0762C63.9381 14.3145 64.6119 13.7627 65.2564 13.4209C65.901 13.0693 66.5943 12.8936 67.3365 12.8936C68.2252 12.8936 68.9625 13.1426 69.5484 13.6406C70.1344 14.1289 70.525 14.7393 70.7203 15.4717C70.8766 16.0283 70.9547 17.0977 70.9547 18.6797V24.0117C70.9547 25.0664 71.0475 25.7256 71.233 25.9893C71.4283 26.2432 71.8287 26.4043 72.4342 26.4727V27H65.5055V26.4727C66.023 26.4043 66.3941 26.1895 66.6188 25.8281C66.775 25.584 66.8531 24.9785 66.8531 24.0117V17.918C66.8531 16.7949 66.8092 16.0869 66.7213 15.7939C66.6334 15.501 66.482 15.2764 66.2672 15.1201C66.0621 14.9541 65.8326 14.8711 65.5787 14.8711C64.7389 14.8711 63.9576 15.4717 63.235 16.6729V24.0117C63.235 25.0371 63.3277 25.6865 63.5133 25.96C63.7086 26.2334 64.065 26.4043 64.5826 26.4727V27H57.6539V26.4727C58.2301 26.4141 58.6402 26.2285 58.8844 25.916C59.0504 25.7012 59.1334 25.0664 59.1334 24.0117V16.2773C59.1334 15.2422 59.0357 14.5977 58.8404 14.3438C58.6549 14.0898 58.2594 13.9238 57.6539 13.8457V13.3037H63.235ZM89.24 19.6611H81.7254C81.8133 21.4775 82.2967 22.9131 83.1756 23.9678C83.8494 24.7783 84.66 25.1836 85.6072 25.1836C86.1932 25.1836 86.7254 25.0225 87.2039 24.7002C87.6824 24.3682 88.1951 23.7773 88.742 22.9277L89.24 23.25C88.4978 24.7637 87.6775 25.8379 86.7791 26.4727C85.8807 27.0977 84.8406 27.4102 83.659 27.4102C81.6277 27.4102 80.0896 26.6289 79.0447 25.0664C78.2049 23.8066 77.785 22.2441 77.785 20.3789C77.785 18.0938 78.4002 16.2773 79.6307 14.9297C80.8709 13.5723 82.3211 12.8936 83.9812 12.8936C85.368 12.8936 86.5691 13.4648 87.5848 14.6074C88.6102 15.7402 89.1619 17.4248 89.24 19.6611ZM85.6365 18.6797C85.6365 17.1074 85.5486 16.0283 85.3728 15.4424C85.2068 14.8564 84.9432 14.4121 84.5818 14.1094C84.3768 13.9336 84.1033 13.8457 83.7615 13.8457C83.2537 13.8457 82.8387 14.0947 82.5164 14.5928C81.9402 15.4619 81.6521 16.6533 81.6521 18.167V18.6797H85.6365ZM102.926 12.9229L103.146 17.5957H102.647C102.052 16.209 101.432 15.2617 100.787 14.7539C100.152 14.2461 99.5176 13.9922 98.8828 13.9922C98.4824 13.9922 98.1406 14.1289 97.8574 14.4023C97.5742 14.666 97.4326 14.9736 97.4326 15.3252C97.4326 15.5889 97.5303 15.8428 97.7256 16.0869C98.0381 16.4873 98.9121 17.1758 100.348 18.1523C101.783 19.1191 102.726 19.9443 103.175 20.6279C103.634 21.3018 103.863 22.0586 103.863 22.8984C103.863 23.6602 103.673 24.4072 103.292 25.1396C102.911 25.8721 102.374 26.4336 101.681 26.8242C100.987 27.2148 100.221 27.4102 99.3809 27.4102C98.7266 27.4102 97.8525 27.2051 96.7588 26.7949C96.4658 26.6875 96.2656 26.6338 96.1582 26.6338C95.8359 26.6338 95.5674 26.8779 95.3525 27.3662H94.8691L94.6348 22.4443H95.1328C95.5723 23.7334 96.1729 24.7002 96.9346 25.3447C97.7061 25.9893 98.4336 26.3115 99.1172 26.3115C99.5859 26.3115 99.9668 26.1699 100.26 25.8867C100.562 25.5938 100.714 25.2422 100.714 24.832C100.714 24.3633 100.567 23.958 100.274 23.6162C99.9814 23.2744 99.3271 22.7568 98.3115 22.0635C96.8174 21.0283 95.8506 20.2373 95.4111 19.6904C94.7666 18.8896 94.4443 18.0059 94.4443 17.0391C94.4443 15.9844 94.8057 15.0322 95.5283 14.1826C96.2607 13.3232 97.3154 12.8936 98.6924 12.8936C99.4346 12.8936 100.152 13.0742 100.846 13.4355C101.109 13.582 101.324 13.6553 101.49 13.6553C101.666 13.6553 101.808 13.6211 101.915 13.5527C102.022 13.4746 102.193 13.2646 102.428 12.9229H102.926ZM120.86 19.6611H113.345C113.433 21.4775 113.916 22.9131 114.795 23.9678C115.469 24.7783 116.279 25.1836 117.227 25.1836C117.813 25.1836 118.345 25.0225 118.823 24.7002C119.302 24.3682 119.815 23.7773 120.362 22.9277L120.86 23.25C120.117 24.7637 119.297 25.8379 118.399 26.4727C117.5 27.0977 116.46 27.4102 115.279 27.4102C113.247 27.4102 111.709 26.6289 110.664 25.0664C109.824 23.8066 109.404 22.2441 109.404 20.3789C109.404 18.0938 110.02 16.2773 111.25 14.9297C112.49 13.5723 113.941 12.8936 115.601 12.8936C116.988 12.8936 118.189 13.4648 119.204 14.6074C120.23 15.7402 120.781 17.4248 120.86 19.6611ZM117.256 18.6797C117.256 17.1074 117.168 16.0283 116.992 15.4424C116.826 14.8564 116.563 14.4121 116.201 14.1094C115.996 13.9336 115.723 13.8457 115.381 13.8457C114.873 13.8457 114.458 14.0947 114.136 14.5928C113.56 15.4619 113.272 16.6533 113.272 18.167V18.6797H117.256ZM129.887 12.9082C130.561 12.9082 131.132 13.1475 131.601 13.626C132.079 14.0947 132.319 14.666 132.319 15.3398C132.319 16.0137 132.079 16.5898 131.601 17.0684C131.132 17.5371 130.561 17.7715 129.887 17.7715C129.213 17.7715 128.637 17.5371 128.159 17.0684C127.69 16.5898 127.455 16.0137 127.455 15.3398C127.455 14.666 127.69 14.0947 128.159 13.626C128.637 13.1475 129.213 12.9082 129.887 12.9082ZM129.872 22.4883C130.556 22.4883 131.132 22.7275 131.601 23.2061C132.079 23.6846 132.319 24.2607 132.319 24.9346C132.319 25.6084 132.079 26.1846 131.601 26.6631C131.122 27.1318 130.546 27.3662 129.872 27.3662C129.199 27.3662 128.622 27.1318 128.144 26.6631C127.675 26.1846 127.441 25.6084 127.441 24.9346C127.441 24.2607 127.675 23.6846 128.144 23.2061C128.622 22.7275 129.199 22.4883 129.872 22.4883Z" fill="white"/>
<path d="M154.684 9.10938H158.996L168.711 21.0273V11.8633C168.711 10.8867 168.602 10.2773 168.383 10.0352C168.094 9.70703 167.637 9.54297 167.012 9.54297H166.461V9.10938H171.992V9.54297H171.43C170.758 9.54297 170.281 9.74609 170 10.1523C169.828 10.4023 169.742 10.9727 169.742 11.8633V25.2578H169.32L158.844 12.4609V22.2461C158.844 23.2227 158.949 23.832 159.16 24.0742C159.457 24.4023 159.914 24.5664 160.531 24.5664H161.094V25H155.562V24.5664H156.113C156.793 24.5664 157.273 24.3633 157.555 23.957C157.727 23.707 157.812 23.1367 157.812 22.2461V11.1953C157.352 10.6562 157 10.3008 156.758 10.1289C156.523 9.95703 156.176 9.79688 155.715 9.64844C155.488 9.57812 155.145 9.54297 154.684 9.54297V9.10938ZM181.816 23.4531C180.714 24.3047 180.023 24.7969 179.742 24.9297C179.32 25.125 178.87 25.2227 178.394 25.2227C177.652 25.2227 177.038 24.9688 176.554 24.4609C176.077 23.9531 175.839 23.2852 175.839 22.457C175.839 21.9336 175.956 21.4805 176.191 21.0977C176.511 20.5664 177.066 20.0664 177.855 19.5977C178.652 19.1289 179.972 18.5586 181.816 17.8867V17.4648C181.816 16.3945 181.644 15.6602 181.3 15.2617C180.964 14.8633 180.472 14.6641 179.824 14.6641C179.331 14.6641 178.941 14.7969 178.652 15.0625C178.355 15.3281 178.206 15.6328 178.206 15.9766L178.23 16.6562C178.23 17.0156 178.136 17.293 177.949 17.4883C177.769 17.6836 177.531 17.7812 177.234 17.7812C176.945 17.7812 176.706 17.6797 176.519 17.4766C176.339 17.2734 176.249 16.9961 176.249 16.6445C176.249 15.9727 176.593 15.3555 177.281 14.793C177.968 14.2305 178.933 13.9492 180.175 13.9492C181.128 13.9492 181.91 14.1094 182.519 14.4297C182.98 14.6719 183.32 15.0508 183.538 15.5664C183.679 15.9023 183.749 16.5898 183.749 17.6289V21.2734C183.749 22.2969 183.769 22.9258 183.808 23.1602C183.847 23.3867 183.91 23.5391 183.995 23.6172C184.089 23.6953 184.195 23.7344 184.312 23.7344C184.437 23.7344 184.546 23.707 184.64 23.6523C184.804 23.5508 185.12 23.2656 185.589 22.7969V23.4531C184.714 24.625 183.878 25.2109 183.081 25.2109C182.699 25.2109 182.394 25.0781 182.167 24.8125C181.941 24.5469 181.824 24.0938 181.816 23.4531ZM181.816 22.6914V18.6016C180.636 19.0703 179.874 19.4023 179.531 19.5977C178.913 19.9414 178.472 20.3008 178.206 20.6758C177.941 21.0508 177.808 21.4609 177.808 21.9062C177.808 22.4688 177.976 22.9375 178.312 23.3125C178.648 23.6797 179.035 23.8633 179.472 23.8633C180.066 23.8633 180.847 23.4727 181.816 22.6914ZM192.155 10.7383V14.2656H194.663V15.0859H192.155V22.0469C192.155 22.7422 192.253 23.2109 192.448 23.4531C192.651 23.6953 192.909 23.8164 193.221 23.8164C193.479 23.8164 193.729 23.7383 193.971 23.582C194.214 23.418 194.401 23.1797 194.534 22.8672H194.991C194.717 23.6328 194.331 24.2109 193.831 24.6016C193.331 24.9844 192.815 25.1758 192.284 25.1758C191.925 25.1758 191.573 25.0781 191.229 24.8828C190.885 24.6797 190.632 24.3945 190.467 24.0273C190.303 23.6523 190.221 23.0781 190.221 22.3047V15.0859H188.522V14.6992C188.952 14.5273 189.389 14.2383 189.835 13.832C190.288 13.418 190.69 12.9297 191.042 12.3672C191.221 12.0703 191.471 11.5273 191.792 10.7383H192.155ZM201.088 8.33594C201.416 8.33594 201.693 8.45312 201.92 8.6875C202.154 8.91406 202.272 9.19141 202.272 9.51953C202.272 9.84766 202.154 10.1289 201.92 10.3633C201.693 10.5977 201.416 10.7148 201.088 10.7148C200.76 10.7148 200.479 10.5977 200.244 10.3633C200.01 10.1289 199.893 9.84766 199.893 9.51953C199.893 9.19141 200.006 8.91406 200.233 8.6875C200.467 8.45312 200.752 8.33594 201.088 8.33594ZM202.061 13.9492V22.5742C202.061 23.2461 202.108 23.6953 202.201 23.9219C202.303 24.1406 202.447 24.3047 202.635 24.4141C202.83 24.5234 203.182 24.5781 203.69 24.5781V25H198.475V24.5781C198.998 24.5781 199.35 24.5273 199.529 24.4258C199.709 24.3242 199.85 24.1562 199.951 23.9219C200.061 23.6875 200.115 23.2383 200.115 22.5742V18.4375C200.115 17.2734 200.08 16.5195 200.01 16.1758C199.955 15.9258 199.869 15.7539 199.752 15.6602C199.635 15.5586 199.475 15.5078 199.272 15.5078C199.053 15.5078 198.787 15.5664 198.475 15.6836L198.311 15.2617L201.545 13.9492H202.061ZM207.126 14.2656H212.177V14.6992H211.849C211.544 14.6992 211.31 14.7734 211.146 14.9219C210.99 15.0703 210.912 15.2695 210.912 15.5195C210.912 15.793 210.994 16.1172 211.158 16.4922L213.654 22.4219L216.162 16.2695C216.341 15.832 216.431 15.5 216.431 15.2734C216.431 15.1641 216.4 15.0742 216.337 15.0039C216.251 14.8867 216.142 14.8086 216.009 14.7695C215.876 14.7227 215.607 14.6992 215.201 14.6992V14.2656H218.705V14.6992C218.298 14.7305 218.017 14.8125 217.861 14.9453C217.587 15.1797 217.341 15.5703 217.123 16.1172L213.314 25.3281H212.833L209.001 16.2695C208.83 15.8477 208.665 15.5469 208.509 15.3672C208.353 15.1797 208.154 15.0234 207.912 14.8984C207.779 14.8281 207.517 14.7617 207.126 14.6992V14.2656ZM224.122 18.3086C224.114 19.9023 224.501 21.1523 225.282 22.0586C226.063 22.9648 226.981 23.418 228.036 23.418C228.739 23.418 229.348 23.2266 229.864 22.8438C230.387 22.4531 230.825 21.7891 231.177 20.8516L231.54 21.0859C231.376 22.1562 230.899 23.1328 230.11 24.0156C229.321 24.8906 228.333 25.3281 227.145 25.3281C225.856 25.3281 224.751 24.8281 223.829 23.8281C222.915 22.8203 222.458 21.4688 222.458 19.7734C222.458 17.9375 222.927 16.5078 223.864 15.4844C224.809 14.4531 225.993 13.9375 227.415 13.9375C228.618 13.9375 229.606 14.3359 230.38 15.1328C231.153 15.9219 231.54 16.9805 231.54 18.3086H224.122ZM224.122 17.6289H229.091C229.052 16.9414 228.97 16.457 228.845 16.1758C228.649 15.7383 228.356 15.3945 227.966 15.1445C227.583 14.8945 227.18 14.7695 226.759 14.7695C226.11 14.7695 225.528 15.0234 225.012 15.5312C224.505 16.0312 224.208 16.7305 224.122 17.6289ZM251.199 13.9492V17.6055H250.812C250.515 16.457 250.132 15.6758 249.664 15.2617C249.203 14.8477 248.613 14.6406 247.894 14.6406C247.347 14.6406 246.906 14.7852 246.57 15.0742C246.234 15.3633 246.066 15.6836 246.066 16.0352C246.066 16.4727 246.191 16.8477 246.441 17.1602C246.683 17.4805 247.175 17.8203 247.918 18.1797L249.628 19.0117C251.214 19.7852 252.007 20.8047 252.007 22.0703C252.007 23.0469 251.636 23.8359 250.894 24.4375C250.16 25.0312 249.335 25.3281 248.421 25.3281C247.765 25.3281 247.015 25.2109 246.171 24.9766C245.914 24.8984 245.703 24.8594 245.539 24.8594C245.359 24.8594 245.218 24.9609 245.117 25.1641H244.73V21.332H245.117C245.335 22.4258 245.753 23.25 246.371 23.8047C246.988 24.3594 247.679 24.6367 248.445 24.6367C248.984 24.6367 249.421 24.4805 249.757 24.168C250.101 23.8477 250.273 23.4648 250.273 23.0195C250.273 22.4805 250.082 22.0273 249.699 21.6602C249.324 21.293 248.57 20.8281 247.437 20.2656C246.304 19.7031 245.562 19.1953 245.21 18.7422C244.859 18.2969 244.683 17.7344 244.683 17.0547C244.683 16.1719 244.984 15.4336 245.585 14.8398C246.195 14.2461 246.98 13.9492 247.941 13.9492C248.363 13.9492 248.875 14.0391 249.476 14.2188C249.875 14.3359 250.14 14.3945 250.273 14.3945C250.398 14.3945 250.496 14.3672 250.566 14.3125C250.636 14.2578 250.718 14.1367 250.812 13.9492H251.199ZM255.479 15.332L258.784 13.9961H259.229V16.5039C259.784 15.5586 260.339 14.8984 260.893 14.5234C261.456 14.1406 262.046 13.9492 262.663 13.9492C263.741 13.9492 264.64 14.3711 265.358 15.2148C266.241 16.2461 266.683 17.5898 266.683 19.2461C266.683 21.0977 266.151 22.6289 265.089 23.8398C264.214 24.832 263.112 25.3281 261.784 25.3281C261.206 25.3281 260.706 25.2461 260.284 25.082C259.972 24.9648 259.62 24.7305 259.229 24.3789V27.6484C259.229 28.3828 259.272 28.8477 259.358 29.043C259.452 29.2461 259.608 29.4062 259.827 29.5234C260.054 29.6406 260.46 29.6992 261.046 29.6992V30.1328H255.421V29.6992H255.714C256.143 29.707 256.511 29.625 256.815 29.4531C256.964 29.3672 257.077 29.2266 257.155 29.0312C257.241 28.8438 257.284 28.3594 257.284 27.5781V17.4297C257.284 16.7344 257.253 16.293 257.19 16.1055C257.128 15.918 257.026 15.7773 256.886 15.6836C256.753 15.5898 256.569 15.543 256.335 15.543C256.147 15.543 255.909 15.5977 255.62 15.707L255.479 15.332ZM259.229 17.1953V21.2031C259.229 22.0703 259.265 22.6406 259.335 22.9141C259.444 23.3672 259.71 23.7656 260.132 24.1094C260.561 24.4531 261.1 24.625 261.749 24.625C262.53 24.625 263.163 24.3203 263.647 23.7109C264.28 22.9141 264.597 21.793 264.597 20.3477C264.597 18.707 264.237 17.4453 263.518 16.5625C263.018 15.9531 262.425 15.6484 261.737 15.6484C261.362 15.6484 260.991 15.7422 260.624 15.9297C260.343 16.0703 259.878 16.4922 259.229 17.1953ZM272.698 18.3086C272.69 19.9023 273.076 21.1523 273.858 22.0586C274.639 22.9648 275.557 23.418 276.612 23.418C277.315 23.418 277.924 23.2266 278.44 22.8438C278.963 22.4531 279.401 21.7891 279.752 20.8516L280.115 21.0859C279.951 22.1562 279.475 23.1328 278.686 24.0156C277.897 24.8906 276.908 25.3281 275.721 25.3281C274.432 25.3281 273.326 24.8281 272.405 23.8281C271.49 22.8203 271.033 21.4688 271.033 19.7734C271.033 17.9375 271.502 16.5078 272.44 15.4844C273.385 14.4531 274.569 13.9375 275.99 13.9375C277.194 13.9375 278.182 14.3359 278.955 15.1328C279.729 15.9219 280.115 16.9805 280.115 18.3086H272.698ZM272.698 17.6289H277.666C277.627 16.9414 277.545 16.457 277.42 16.1758C277.225 15.7383 276.932 15.3945 276.541 15.1445C276.158 14.8945 275.756 14.7695 275.334 14.7695C274.686 14.7695 274.104 15.0234 273.588 15.5312C273.08 16.0312 272.783 16.7305 272.698 17.6289ZM290.279 23.4531C289.177 24.3047 288.486 24.7969 288.205 24.9297C287.783 25.125 287.334 25.2227 286.857 25.2227C286.115 25.2227 285.502 24.9688 285.017 24.4609C284.541 23.9531 284.302 23.2852 284.302 22.457C284.302 21.9336 284.42 21.4805 284.654 21.0977C284.974 20.5664 285.529 20.0664 286.318 19.5977C287.115 19.1289 288.435 18.5586 290.279 17.8867V17.4648C290.279 16.3945 290.107 15.6602 289.763 15.2617C289.427 14.8633 288.935 14.6641 288.287 14.6641C287.795 14.6641 287.404 14.7969 287.115 15.0625C286.818 15.3281 286.67 15.6328 286.67 15.9766L286.693 16.6562C286.693 17.0156 286.599 17.293 286.412 17.4883C286.232 17.6836 285.994 17.7812 285.697 17.7812C285.408 17.7812 285.17 17.6797 284.982 17.4766C284.802 17.2734 284.712 16.9961 284.712 16.6445C284.712 15.9727 285.056 15.3555 285.744 14.793C286.431 14.2305 287.396 13.9492 288.638 13.9492C289.591 13.9492 290.373 14.1094 290.982 14.4297C291.443 14.6719 291.783 15.0508 292.002 15.5664C292.142 15.9023 292.212 16.5898 292.212 17.6289V21.2734C292.212 22.2969 292.232 22.9258 292.271 23.1602C292.31 23.3867 292.373 23.5391 292.459 23.6172C292.552 23.6953 292.658 23.7344 292.775 23.7344C292.9 23.7344 293.009 23.707 293.103 23.6523C293.267 23.5508 293.584 23.2656 294.052 22.7969V23.4531C293.177 24.625 292.341 25.2109 291.545 25.2109C291.162 25.2109 290.857 25.0781 290.63 24.8125C290.404 24.5469 290.287 24.0938 290.279 23.4531ZM290.279 22.6914V18.6016C289.099 19.0703 288.337 19.4023 287.994 19.5977C287.377 19.9414 286.935 20.3008 286.67 20.6758C286.404 21.0508 286.271 21.4609 286.271 21.9062C286.271 22.4688 286.439 22.9375 286.775 23.3125C287.111 23.6797 287.498 23.8633 287.935 23.8633C288.529 23.8633 289.31 23.4727 290.279 22.6914ZM300.677 8.33594V19.0234L303.407 16.5273C303.985 15.9961 304.321 15.6602 304.415 15.5195C304.478 15.4258 304.509 15.332 304.509 15.2383C304.509 15.082 304.442 14.9492 304.31 14.8398C304.185 14.7227 303.974 14.6562 303.677 14.6406V14.2656H308.341V14.6406C307.7 14.6562 307.165 14.7539 306.735 14.9336C306.313 15.1133 305.849 15.4336 305.341 15.8945L302.587 18.4375L305.341 21.918C306.106 22.8789 306.622 23.4883 306.888 23.7461C307.263 24.1133 307.591 24.3516 307.872 24.4609C308.067 24.5391 308.407 24.5781 308.892 24.5781V25H303.677V24.5781C303.974 24.5703 304.173 24.5273 304.274 24.4492C304.384 24.3633 304.438 24.2461 304.438 24.0977C304.438 23.918 304.282 23.6289 303.97 23.2305L300.677 19.0234V22.5859C300.677 23.2812 300.724 23.7383 300.817 23.957C300.919 24.1758 301.06 24.332 301.239 24.4258C301.419 24.5195 301.81 24.5703 302.411 24.5781V25H296.95V24.5781C297.497 24.5781 297.907 24.5117 298.181 24.3789C298.345 24.293 298.47 24.1602 298.556 23.9805C298.673 23.7227 298.731 23.2773 298.731 22.6445V12.8711C298.731 11.6289 298.704 10.8711 298.649 10.5977C298.595 10.3164 298.505 10.125 298.38 10.0234C298.255 9.91406 298.091 9.85938 297.888 9.85938C297.724 9.85938 297.478 9.92578 297.149 10.0586L296.95 9.64844L300.138 8.33594H300.677ZM313.946 18.3086C313.938 19.9023 314.325 21.1523 315.106 22.0586C315.887 22.9648 316.805 23.418 317.86 23.418C318.563 23.418 319.172 23.2266 319.688 22.8438C320.211 22.4531 320.649 21.7891 321 20.8516L321.364 21.0859C321.2 22.1562 320.723 23.1328 319.934 24.0156C319.145 24.8906 318.157 25.3281 316.969 25.3281C315.68 25.3281 314.575 24.8281 313.653 23.8281C312.739 22.8203 312.282 21.4688 312.282 19.7734C312.282 17.9375 312.75 16.5078 313.688 15.4844C314.633 14.4531 315.817 13.9375 317.239 13.9375C318.442 13.9375 319.43 14.3359 320.203 15.1328C320.977 15.9219 321.364 16.9805 321.364 18.3086H313.946ZM313.946 17.6289H318.914C318.875 16.9414 318.793 16.457 318.668 16.1758C318.473 15.7383 318.18 15.3945 317.789 15.1445C317.407 14.8945 317.004 14.7695 316.582 14.7695C315.934 14.7695 315.352 15.0234 314.836 15.5312C314.328 16.0312 314.032 16.7305 313.946 17.6289ZM328.586 13.9492V16.3633C329.484 14.7539 330.406 13.9492 331.351 13.9492C331.781 13.9492 332.136 14.082 332.418 14.3477C332.699 14.6055 332.84 14.9062 332.84 15.25C332.84 15.5547 332.738 15.8125 332.535 16.0234C332.332 16.2344 332.09 16.3398 331.808 16.3398C331.535 16.3398 331.226 16.207 330.883 15.9414C330.547 15.668 330.297 15.5312 330.133 15.5312C329.992 15.5312 329.84 15.6094 329.675 15.7656C329.324 16.0859 328.961 16.6133 328.586 17.3477V22.4922C328.586 23.0859 328.66 23.5352 328.808 23.8398C328.91 24.0508 329.09 24.2266 329.347 24.3672C329.605 24.5078 329.976 24.5781 330.461 24.5781V25H324.965V24.5781C325.511 24.5781 325.918 24.4922 326.183 24.3203C326.379 24.1953 326.515 23.9961 326.593 23.7227C326.633 23.5898 326.652 23.2109 326.652 22.5859V18.4258C326.652 17.1758 326.625 16.4336 326.57 16.1992C326.523 15.957 326.429 15.7812 326.289 15.6719C326.156 15.5625 325.988 15.5078 325.785 15.5078C325.543 15.5078 325.269 15.5664 324.965 15.6836L324.847 15.2617L328.093 13.9492H328.586ZM338.327 22.7266C338.694 22.7266 339.003 22.8555 339.253 23.1133C339.503 23.3633 339.628 23.668 339.628 24.0273C339.628 24.3867 339.499 24.6953 339.241 24.9531C338.991 25.2031 338.687 25.3281 338.327 25.3281C337.968 25.3281 337.659 25.2031 337.401 24.9531C337.151 24.6953 337.026 24.3867 337.026 24.0273C337.026 23.6602 337.151 23.3516 337.401 23.1016C337.659 22.8516 337.968 22.7266 338.327 22.7266Z" fill="#D9D9D9"/>
<path d="M8.17383 73.2793V81.3652H8.56934C9.8291 81.3652 10.7422 80.9697 11.3086 80.1787C11.875 79.3877 12.2363 78.2207 12.3926 76.6777H12.9492V87.0781H12.3926C12.2754 85.9453 12.0264 85.0176 11.6455 84.2949C11.2744 83.5723 10.8398 83.0889 10.3418 82.8447C9.84375 82.5908 9.12109 82.4639 8.17383 82.4639V88.0596C8.17383 89.1533 8.21777 89.8223 8.30566 90.0664C8.40332 90.3105 8.5791 90.5107 8.83301 90.667C9.08691 90.8232 9.49707 90.9014 10.0635 90.9014H11.25C13.1055 90.9014 14.5898 90.4717 15.7031 89.6123C16.8262 88.7529 17.6318 87.4443 18.1201 85.6865H18.6621L17.7686 92H0.600586V91.458H1.25977C1.83594 91.458 2.2998 91.3555 2.65137 91.1504C2.90527 91.0137 3.10059 90.7793 3.2373 90.4473C3.34473 90.2129 3.39844 89.5977 3.39844 88.6016V75.5352C3.39844 74.6367 3.37402 74.085 3.3252 73.8799C3.22754 73.5381 3.04688 73.2744 2.7832 73.0889C2.41211 72.8154 1.9043 72.6787 1.25977 72.6787H0.600586V72.1367H17.2266V78.0107H16.6699C16.3867 76.5752 15.9863 75.5449 15.4688 74.9199C14.9609 74.2949 14.2383 73.8359 13.3008 73.543C12.7539 73.3672 11.7285 73.2793 10.2246 73.2793H8.17383ZM29.9162 78.3037V80.0762C30.6193 79.3145 31.2932 78.7627 31.9377 78.4209C32.5822 78.0693 33.2756 77.8936 34.0178 77.8936C34.9064 77.8936 35.6437 78.1426 36.2297 78.6406C36.8156 79.1289 37.2062 79.7393 37.4016 80.4717C37.5578 81.0283 37.6359 82.0977 37.6359 83.6797V89.0117C37.6359 90.0664 37.7287 90.7256 37.9143 90.9893C38.1096 91.2432 38.51 91.4043 39.1154 91.4727V92H32.1867V91.4727C32.7043 91.4043 33.0754 91.1895 33.3 90.8281C33.4562 90.584 33.5344 89.9785 33.5344 89.0117V82.918C33.5344 81.7949 33.4904 81.0869 33.4025 80.7939C33.3146 80.501 33.1633 80.2764 32.9484 80.1201C32.7434 79.9541 32.5139 79.8711 32.26 79.8711C31.4201 79.8711 30.6389 80.4717 29.9162 81.6729V89.0117C29.9162 90.0371 30.009 90.6865 30.1945 90.96C30.3898 91.2334 30.7463 91.4043 31.2639 91.4727V92H24.3352V91.4727C24.9113 91.4141 25.3215 91.2285 25.5656 90.916C25.7316 90.7012 25.8146 90.0664 25.8146 89.0117V81.2773C25.8146 80.2422 25.717 79.5977 25.5217 79.3438C25.3361 79.0898 24.9406 78.9238 24.3352 78.8457V78.3037H29.9162ZM53.1088 78.4648H57.723V80.0762H55.101C55.5795 80.5547 55.9115 80.9893 56.0971 81.3799C56.3314 81.9072 56.4486 82.459 56.4486 83.0352C56.4486 84.0117 56.1752 84.8613 55.6283 85.584C55.0912 86.2969 54.3539 86.8584 53.4164 87.2686C52.4887 87.6689 51.6635 87.8691 50.9408 87.8691C50.8822 87.8691 50.2963 87.8447 49.183 87.7959C48.7436 87.7959 48.3725 87.9424 48.0697 88.2354C47.7768 88.5186 47.6303 88.8604 47.6303 89.2607C47.6303 89.6123 47.7621 89.9004 48.0258 90.125C48.2992 90.3496 48.7387 90.4619 49.3441 90.4619L51.8783 90.4326C53.9291 90.4326 55.3402 90.6572 56.1117 91.1064C57.2152 91.7314 57.767 92.6934 57.767 93.9922C57.767 94.8223 57.5131 95.5742 57.0053 96.248C56.4975 96.9316 55.8285 97.4346 54.9984 97.7568C53.7387 98.2354 52.2885 98.4746 50.6479 98.4746C49.4174 98.4746 48.2943 98.3525 47.2787 98.1084C46.2631 97.874 45.5355 97.542 45.0961 97.1123C44.6566 96.6924 44.4369 96.248 44.4369 95.7793C44.4369 95.3301 44.6029 94.9248 44.935 94.5635C45.2768 94.2119 45.9066 93.9141 46.8246 93.6699C45.5551 93.0449 44.9203 92.1758 44.9203 91.0625C44.9203 90.3887 45.1791 89.7344 45.6967 89.0996C46.2143 88.4648 47.0346 87.9131 48.1576 87.4443C46.849 86.9658 45.9018 86.3359 45.3158 85.5547C44.7299 84.7734 44.4369 83.8701 44.4369 82.8447C44.4369 81.5068 44.9838 80.3496 46.0775 79.373C47.1713 78.3867 48.5775 77.8936 50.2963 77.8936C51.2045 77.8936 52.142 78.084 53.1088 78.4648ZM50.5746 78.8018C50.0082 78.8018 49.5297 79.0898 49.1391 79.666C48.7484 80.2324 48.5531 81.4141 48.5531 83.2109C48.5531 84.666 48.7436 85.667 49.1244 86.2139C49.515 86.751 49.974 87.0195 50.5014 87.0195C51.0873 87.0195 51.5756 86.751 51.9662 86.2139C52.3568 85.6768 52.5521 84.6318 52.5521 83.0791C52.5521 81.3311 52.3324 80.1396 51.893 79.5049C51.5805 79.0361 51.141 78.8018 50.5746 78.8018ZM49.7104 94.0215C48.7143 94.0215 48.0551 94.1045 47.7328 94.2705C47.1762 94.5732 46.8979 94.9834 46.8979 95.501C46.8979 95.999 47.1859 96.4482 47.7621 96.8486C48.3383 97.2588 49.4223 97.4639 51.0141 97.4639C52.3715 97.4639 53.4359 97.2832 54.2074 96.9219C54.9887 96.5605 55.3793 96.0527 55.3793 95.3984C55.3793 95.1543 55.3061 94.9492 55.1596 94.7832C54.8959 94.4902 54.4955 94.29 53.9584 94.1826C53.4311 94.0752 52.015 94.0215 49.7104 94.0215ZM67.9811 72.1367V89.1582C67.9811 90.125 68.0934 90.7451 68.318 91.0186C68.5426 91.2822 68.982 91.4336 69.6363 91.4727V92H62.2389V91.4727C62.8443 91.4531 63.2936 91.2773 63.5865 90.9453C63.7818 90.7207 63.8795 90.125 63.8795 89.1582V74.9785C63.8795 74.0215 63.7672 73.4111 63.5426 73.1475C63.318 72.874 62.8834 72.7178 62.2389 72.6787V72.1367H67.9811ZM77.5652 71.668C78.2 71.668 78.7371 71.8926 79.1766 72.3418C79.616 72.7812 79.8357 73.3135 79.8357 73.9385C79.8357 74.5635 79.6111 75.0957 79.1619 75.5352C78.7225 75.9746 78.1902 76.1943 77.5652 76.1943C76.9402 76.1943 76.408 75.9746 75.9686 75.5352C75.5291 75.0957 75.3094 74.5635 75.3094 73.9385C75.3094 73.3135 75.5291 72.7812 75.9686 72.3418C76.408 71.8926 76.9402 71.668 77.5652 71.668ZM79.616 78.3037V89.1582C79.616 90.125 79.7283 90.7451 79.9529 91.0186C80.1775 91.2822 80.617 91.4336 81.2713 91.4727V92H73.8738V91.4727C74.4793 91.4531 74.9285 91.2773 75.2215 90.9453C75.4168 90.7207 75.5145 90.125 75.5145 89.1582V81.1602C75.5145 80.1934 75.4021 79.5781 75.1775 79.3145C74.9529 79.041 74.5184 78.8848 73.8738 78.8457V78.3037H79.616ZM94.5762 77.9229L94.7959 82.5957H94.2979C93.7021 81.209 93.082 80.2617 92.4375 79.7539C91.8027 79.2461 91.168 78.9922 90.5332 78.9922C90.1328 78.9922 89.791 79.1289 89.5078 79.4023C89.2246 79.666 89.083 79.9736 89.083 80.3252C89.083 80.5889 89.1807 80.8428 89.376 81.0869C89.6885 81.4873 90.5625 82.1758 91.998 83.1523C93.4336 84.1191 94.376 84.9443 94.8252 85.6279C95.2842 86.3018 95.5137 87.0586 95.5137 87.8984C95.5137 88.6602 95.3232 89.4072 94.9424 90.1396C94.5615 90.8721 94.0244 91.4336 93.3311 91.8242C92.6377 92.2148 91.8711 92.4102 91.0312 92.4102C90.377 92.4102 89.5029 92.2051 88.4092 91.7949C88.1162 91.6875 87.916 91.6338 87.8086 91.6338C87.4863 91.6338 87.2178 91.8779 87.0029 92.3662H86.5195L86.2852 87.4443H86.7832C87.2227 88.7334 87.8232 89.7002 88.585 90.3447C89.3564 90.9893 90.084 91.3115 90.7676 91.3115C91.2363 91.3115 91.6172 91.1699 91.9102 90.8867C92.2129 90.5938 92.3643 90.2422 92.3643 89.832C92.3643 89.3633 92.2178 88.958 91.9248 88.6162C91.6318 88.2744 90.9775 87.7568 89.9619 87.0635C88.4678 86.0283 87.501 85.2373 87.0615 84.6904C86.417 83.8896 86.0947 83.0059 86.0947 82.0391C86.0947 80.9844 86.4561 80.0322 87.1787 79.1826C87.9111 78.3232 88.9658 77.8936 90.3428 77.8936C91.085 77.8936 91.8027 78.0742 92.4961 78.4355C92.7598 78.582 92.9746 78.6553 93.1406 78.6553C93.3164 78.6553 93.458 78.6211 93.5654 78.5527C93.6729 78.4746 93.8438 78.2646 94.0781 77.9229H94.5762ZM106.504 72.1367V80.0615C107.256 79.2705 107.945 78.7139 108.57 78.3916C109.195 78.0596 109.844 77.8936 110.518 77.8936C111.377 77.8936 112.11 78.1377 112.715 78.626C113.33 79.1143 113.736 79.6904 113.931 80.3545C114.136 81.0088 114.238 82.1172 114.238 83.6797V89.0264C114.238 90.0713 114.336 90.7256 114.531 90.9893C114.727 91.2432 115.122 91.4043 115.718 91.4727V92H108.775V91.4727C109.263 91.4043 109.629 91.209 109.873 90.8867C110.049 90.6328 110.137 90.0127 110.137 89.0264V82.918C110.137 81.7852 110.093 81.0771 110.005 80.7939C109.917 80.501 109.766 80.2764 109.551 80.1201C109.346 79.9541 109.112 79.8711 108.848 79.8711C108.457 79.8711 108.076 80.0078 107.705 80.2812C107.334 80.5449 106.934 81.0137 106.504 81.6875V89.0264C106.504 90.0029 106.577 90.6133 106.724 90.8574C106.909 91.1895 107.29 91.3945 107.866 91.4727V92H100.923V91.4727C101.499 91.4141 101.909 91.2285 102.154 90.916C102.32 90.7012 102.403 90.0713 102.403 89.0264V75.1104C102.403 74.0752 102.305 73.4307 102.11 73.1768C101.924 72.9229 101.529 72.7568 100.923 72.6787V72.1367H106.504ZM124.907 77.9082C125.58 77.9082 126.152 78.1475 126.621 78.626C127.099 79.0947 127.338 79.666 127.338 80.3398C127.338 81.0137 127.099 81.5898 126.621 82.0684C126.152 82.5371 125.58 82.7715 124.907 82.7715C124.233 82.7715 123.657 82.5371 123.178 82.0684C122.709 81.5898 122.475 81.0137 122.475 80.3398C122.475 79.666 122.709 79.0947 123.178 78.626C123.657 78.1475 124.233 77.9082 124.907 77.9082ZM124.892 87.4883C125.576 87.4883 126.152 87.7275 126.621 88.2061C127.099 88.6846 127.338 89.2607 127.338 89.9346C127.338 90.6084 127.099 91.1846 126.621 91.6631C126.142 92.1318 125.566 92.3662 124.892 92.3662C124.218 92.3662 123.642 92.1318 123.163 91.6631C122.695 91.1846 122.46 90.6084 122.46 89.9346C122.46 89.2607 122.695 88.6846 123.163 88.2061C123.642 87.7275 124.218 87.4883 124.892 87.4883Z" fill="white"/>
<path d="M154.922 82.5586V87.1875C154.922 88.1875 155.031 88.8086 155.25 89.0508C155.547 89.3945 155.996 89.5664 156.598 89.5664H157.207V90H150.398V89.5664H150.996C151.668 89.5664 152.148 89.3477 152.438 88.9102C152.594 88.668 152.672 88.0938 152.672 87.1875V76.9219C152.672 75.9219 152.566 75.3008 152.355 75.0586C152.051 74.7148 151.598 74.543 150.996 74.543H150.398V74.1094H156.223C157.645 74.1094 158.766 74.2578 159.586 74.5547C160.406 74.8438 161.098 75.3359 161.66 76.0312C162.223 76.7266 162.504 77.5508 162.504 78.5039C162.504 79.8008 162.074 80.8555 161.215 81.668C160.363 82.4805 159.156 82.8867 157.594 82.8867C157.211 82.8867 156.797 82.8594 156.352 82.8047C155.906 82.75 155.43 82.668 154.922 82.5586ZM154.922 81.8906C155.336 81.9688 155.703 82.0273 156.023 82.0664C156.344 82.1055 156.617 82.125 156.844 82.125C157.656 82.125 158.355 81.8125 158.941 81.1875C159.535 80.5547 159.832 79.7383 159.832 78.7383C159.832 78.0508 159.691 77.4141 159.41 76.8281C159.129 76.2344 158.73 75.793 158.215 75.5039C157.699 75.207 157.113 75.0586 156.457 75.0586C156.059 75.0586 155.547 75.1328 154.922 75.2812V81.8906ZM169.89 78.9492V81.3633C170.788 79.7539 171.71 78.9492 172.656 78.9492C173.085 78.9492 173.441 79.082 173.722 79.3477C174.003 79.6055 174.144 79.9062 174.144 80.25C174.144 80.5547 174.042 80.8125 173.839 81.0234C173.636 81.2344 173.394 81.3398 173.113 81.3398C172.839 81.3398 172.531 81.207 172.187 80.9414C171.851 80.668 171.601 80.5312 171.437 80.5312C171.296 80.5312 171.144 80.6094 170.98 80.7656C170.628 81.0859 170.265 81.6133 169.89 82.3477V87.4922C169.89 88.0859 169.964 88.5352 170.113 88.8398C170.214 89.0508 170.394 89.2266 170.652 89.3672C170.91 89.5078 171.281 89.5781 171.765 89.5781V90H166.269V89.5781C166.816 89.5781 167.222 89.4922 167.488 89.3203C167.683 89.1953 167.82 88.9961 167.898 88.7227C167.937 88.5898 167.956 88.2109 167.956 87.5859V83.4258C167.956 82.1758 167.929 81.4336 167.874 81.1992C167.828 80.957 167.734 80.7812 167.593 80.6719C167.46 80.5625 167.292 80.5078 167.089 80.5078C166.847 80.5078 166.574 80.5664 166.269 80.6836L166.152 80.2617L169.398 78.9492H169.89ZM182.632 78.9492C184.257 78.9492 185.561 79.5664 186.546 80.8008C187.382 81.8555 187.8 83.0664 187.8 84.4336C187.8 85.3945 187.569 86.3672 187.108 87.3516C186.647 88.3359 186.01 89.0781 185.198 89.5781C184.393 90.0781 183.495 90.3281 182.503 90.3281C180.885 90.3281 179.6 89.6836 178.647 88.3945C177.843 87.3086 177.44 86.0898 177.44 84.7383C177.44 83.7539 177.682 82.7773 178.167 81.8086C178.659 80.832 179.303 80.1133 180.1 79.6523C180.897 79.1836 181.741 78.9492 182.632 78.9492ZM182.268 79.7109C181.854 79.7109 181.436 79.8359 181.014 80.0859C180.6 80.3281 180.264 80.7578 180.007 81.375C179.749 81.9922 179.62 82.7852 179.62 83.7539C179.62 85.3164 179.928 86.6641 180.546 87.7969C181.171 88.9297 181.991 89.4961 183.007 89.4961C183.764 89.4961 184.389 89.1836 184.882 88.5586C185.374 87.9336 185.62 86.8594 185.62 85.3359C185.62 83.4297 185.21 81.9297 184.389 80.8359C183.835 80.0859 183.128 79.7109 182.268 79.7109ZM196.217 80.1094V87.1641C196.217 88.1641 196.326 88.7969 196.545 89.0625C196.834 89.4062 197.221 89.5781 197.705 89.5781H198.678V90H192.268V89.5781H192.748C193.061 89.5781 193.346 89.5 193.604 89.3438C193.861 89.1875 194.037 88.9766 194.131 88.7109C194.233 88.4453 194.283 87.9297 194.283 87.1641V80.1094H192.197V79.2656H194.283V78.5625C194.283 77.4922 194.455 76.5859 194.799 75.8438C195.143 75.1016 195.666 74.5039 196.369 74.0508C197.08 73.5898 197.877 73.3594 198.76 73.3594C199.58 73.3594 200.334 73.625 201.022 74.1562C201.475 74.5078 201.701 74.9023 201.701 75.3398C201.701 75.5742 201.6 75.7969 201.397 76.0078C201.193 76.2109 200.975 76.3125 200.74 76.3125C200.561 76.3125 200.369 76.25 200.166 76.125C199.971 75.9922 199.729 75.7148 199.44 75.293C199.15 74.8633 198.885 74.5742 198.643 74.4258C198.4 74.2773 198.131 74.2031 197.834 74.2031C197.475 74.2031 197.17 74.3008 196.92 74.4961C196.67 74.6836 196.49 74.9805 196.381 75.3867C196.272 75.7852 196.217 76.8203 196.217 78.4922V79.2656H198.983V80.1094H196.217ZM205.384 73.3359C205.712 73.3359 205.99 73.4531 206.216 73.6875C206.451 73.9141 206.568 74.1914 206.568 74.5195C206.568 74.8477 206.451 75.1289 206.216 75.3633C205.99 75.5977 205.712 75.7148 205.384 75.7148C205.056 75.7148 204.775 75.5977 204.54 75.3633C204.306 75.1289 204.189 74.8477 204.189 74.5195C204.189 74.1914 204.302 73.9141 204.529 73.6875C204.763 73.4531 205.048 73.3359 205.384 73.3359ZM206.357 78.9492V87.5742C206.357 88.2461 206.404 88.6953 206.498 88.9219C206.599 89.1406 206.744 89.3047 206.931 89.4141C207.126 89.5234 207.478 89.5781 207.986 89.5781V90H202.771V89.5781C203.294 89.5781 203.646 89.5273 203.826 89.4258C204.005 89.3242 204.146 89.1562 204.248 88.9219C204.357 88.6875 204.412 88.2383 204.412 87.5742V83.4375C204.412 82.2734 204.376 81.5195 204.306 81.1758C204.251 80.9258 204.165 80.7539 204.048 80.6602C203.931 80.5586 203.771 80.5078 203.568 80.5078C203.349 80.5078 203.083 80.5664 202.771 80.6836L202.607 80.2617L205.841 78.9492H206.357ZM221.091 85.9219C220.802 87.3359 220.235 88.4258 219.391 89.1914C218.548 89.9492 217.614 90.3281 216.591 90.3281C215.372 90.3281 214.309 89.8164 213.403 88.793C212.497 87.7695 212.044 86.3867 212.044 84.6445C212.044 82.957 212.544 81.5859 213.544 80.5312C214.552 79.4766 215.759 78.9492 217.165 78.9492C218.22 78.9492 219.087 79.2305 219.766 79.793C220.446 80.3477 220.786 80.9258 220.786 81.5273C220.786 81.8242 220.688 82.0664 220.493 82.2539C220.305 82.4336 220.04 82.5234 219.696 82.5234C219.235 82.5234 218.888 82.375 218.653 82.0781C218.52 81.9141 218.43 81.6016 218.384 81.1406C218.345 80.6797 218.188 80.3281 217.915 80.0859C217.641 79.8516 217.263 79.7344 216.778 79.7344C215.997 79.7344 215.368 80.0234 214.891 80.6016C214.259 81.3672 213.942 82.3789 213.942 83.6367C213.942 84.918 214.255 86.0508 214.88 87.0352C215.513 88.0117 216.364 88.5 217.434 88.5C218.2 88.5 218.888 88.2383 219.497 87.7148C219.927 87.3555 220.345 86.7031 220.751 85.7578L221.091 85.9219ZM228.008 73.3359C228.336 73.3359 228.613 73.4531 228.84 73.6875C229.074 73.9141 229.192 74.1914 229.192 74.5195C229.192 74.8477 229.074 75.1289 228.84 75.3633C228.613 75.5977 228.336 75.7148 228.008 75.7148C227.68 75.7148 227.399 75.5977 227.164 75.3633C226.93 75.1289 226.813 74.8477 226.813 74.5195C226.813 74.1914 226.926 73.9141 227.153 73.6875C227.387 73.4531 227.672 73.3359 228.008 73.3359ZM228.981 78.9492V87.5742C228.981 88.2461 229.028 88.6953 229.121 88.9219C229.223 89.1406 229.367 89.3047 229.555 89.4141C229.75 89.5234 230.102 89.5781 230.61 89.5781V90H225.395V89.5781C225.918 89.5781 226.27 89.5273 226.449 89.4258C226.629 89.3242 226.77 89.1562 226.871 88.9219C226.981 88.6875 227.035 88.2383 227.035 87.5742V83.4375C227.035 82.2734 227 81.5195 226.93 81.1758C226.875 80.9258 226.789 80.7539 226.672 80.6602C226.555 80.5586 226.395 80.5078 226.192 80.5078C225.973 80.5078 225.707 80.5664 225.395 80.6836L225.231 80.2617L228.465 78.9492H228.981ZM236.402 83.3086C236.394 84.9023 236.781 86.1523 237.562 87.0586C238.343 87.9648 239.261 88.418 240.316 88.418C241.019 88.418 241.628 88.2266 242.144 87.8438C242.668 87.4531 243.105 86.7891 243.457 85.8516L243.82 86.0859C243.656 87.1562 243.179 88.1328 242.39 89.0156C241.601 89.8906 240.613 90.3281 239.425 90.3281C238.136 90.3281 237.031 89.8281 236.109 88.8281C235.195 87.8203 234.738 86.4688 234.738 84.7734C234.738 82.9375 235.207 81.5078 236.144 80.4844C237.089 79.4531 238.273 78.9375 239.695 78.9375C240.898 78.9375 241.886 79.3359 242.66 80.1328C243.433 80.9219 243.82 81.9805 243.82 83.3086H236.402ZM236.402 82.6289H241.371C241.332 81.9414 241.25 81.457 241.125 81.1758C240.929 80.7383 240.636 80.3945 240.246 80.1445C239.863 79.8945 239.46 79.7695 239.039 79.7695C238.39 79.7695 237.808 80.0234 237.293 80.5312C236.785 81.0312 236.488 81.7305 236.402 82.6289ZM251.03 81.2227C252.288 79.707 253.487 78.9492 254.628 78.9492C255.214 78.9492 255.718 79.0977 256.14 79.3945C256.561 79.6836 256.897 80.1641 257.147 80.8359C257.319 81.3047 257.405 82.0234 257.405 82.9922V87.5742C257.405 88.2539 257.46 88.7148 257.569 88.957C257.655 89.1523 257.792 89.3047 257.979 89.4141C258.175 89.5234 258.53 89.5781 259.046 89.5781V90H253.737V89.5781H253.96C254.46 89.5781 254.808 89.5039 255.003 89.3555C255.206 89.1992 255.347 88.9727 255.425 88.6758C255.456 88.5586 255.472 88.1914 255.472 87.5742V83.1797C255.472 82.2031 255.343 81.4961 255.085 81.0586C254.835 80.6133 254.409 80.3906 253.808 80.3906C252.878 80.3906 251.952 80.8984 251.03 81.9141V87.5742C251.03 88.3008 251.073 88.75 251.159 88.9219C251.268 89.1484 251.417 89.3164 251.604 89.4258C251.8 89.5273 252.19 89.5781 252.776 89.5781V90H247.468V89.5781H247.702C248.249 89.5781 248.616 89.4414 248.804 89.168C248.999 88.8867 249.097 88.3555 249.097 87.5742V83.5898C249.097 82.3008 249.065 81.5156 249.003 81.2344C248.948 80.9531 248.858 80.7617 248.733 80.6602C248.616 80.5586 248.456 80.5078 248.253 80.5078C248.034 80.5078 247.772 80.5664 247.468 80.6836L247.292 80.2617L250.526 78.9492H251.03V81.2227ZM265.658 75.7383V79.2656H268.166V80.0859H265.658V87.0469C265.658 87.7422 265.756 88.2109 265.951 88.4531C266.155 88.6953 266.412 88.8164 266.725 88.8164C266.983 88.8164 267.233 88.7383 267.475 88.582C267.717 88.418 267.905 88.1797 268.037 87.8672H268.494C268.221 88.6328 267.834 89.2109 267.334 89.6016C266.834 89.9844 266.319 90.1758 265.787 90.1758C265.428 90.1758 265.076 90.0781 264.733 89.8828C264.389 89.6797 264.135 89.3945 263.971 89.0273C263.807 88.6523 263.725 88.0781 263.725 87.3047V80.0859H262.026V79.6992C262.455 79.5273 262.893 79.2383 263.338 78.832C263.791 78.418 264.194 77.9297 264.545 77.3672C264.725 77.0703 264.975 76.5273 265.295 75.7383H265.658ZM284.696 80.1094V87.1641C284.696 88.1641 284.806 88.7969 285.024 89.0625C285.313 89.4062 285.7 89.5781 286.185 89.5781H287.157V90H280.747V89.5781H281.228C281.54 89.5781 281.825 89.5 282.083 89.3438C282.341 89.1875 282.517 88.9766 282.61 88.7109C282.712 88.4453 282.763 87.9297 282.763 87.1641V80.1094H280.677V79.2656H282.763V78.5625C282.763 77.4922 282.935 76.5859 283.278 75.8438C283.622 75.1016 284.145 74.5039 284.849 74.0508C285.56 73.5898 286.356 73.3594 287.239 73.3594C288.06 73.3594 288.813 73.625 289.501 74.1562C289.954 74.5078 290.181 74.9023 290.181 75.3398C290.181 75.5742 290.079 75.7969 289.876 76.0078C289.673 76.2109 289.454 76.3125 289.22 76.3125C289.04 76.3125 288.849 76.25 288.645 76.125C288.45 75.9922 288.208 75.7148 287.919 75.293C287.63 74.8633 287.364 74.5742 287.122 74.4258C286.88 74.2773 286.61 74.2031 286.313 74.2031C285.954 74.2031 285.649 74.3008 285.399 74.4961C285.149 74.6836 284.97 74.9805 284.86 75.3867C284.751 75.7852 284.696 76.8203 284.696 78.4922V79.2656H287.462V80.1094H284.696ZM296.383 78.9492C298.008 78.9492 299.313 79.5664 300.297 80.8008C301.133 81.8555 301.551 83.0664 301.551 84.4336C301.551 85.3945 301.321 86.3672 300.86 87.3516C300.399 88.3359 299.762 89.0781 298.95 89.5781C298.145 90.0781 297.246 90.3281 296.254 90.3281C294.637 90.3281 293.352 89.6836 292.399 88.3945C291.594 87.3086 291.192 86.0898 291.192 84.7383C291.192 83.7539 291.434 82.7773 291.918 81.8086C292.41 80.832 293.055 80.1133 293.852 79.6523C294.649 79.1836 295.493 78.9492 296.383 78.9492ZM296.02 79.7109C295.606 79.7109 295.188 79.8359 294.766 80.0859C294.352 80.3281 294.016 80.7578 293.758 81.375C293.5 81.9922 293.371 82.7852 293.371 83.7539C293.371 85.3164 293.68 86.6641 294.297 87.7969C294.922 88.9297 295.743 89.4961 296.758 89.4961C297.516 89.4961 298.141 89.1836 298.633 88.5586C299.125 87.9336 299.371 86.8594 299.371 85.3359C299.371 83.4297 298.961 81.9297 298.141 80.8359C297.586 80.0859 296.879 79.7109 296.02 79.7109ZM308.914 78.9492V81.3633C309.812 79.7539 310.734 78.9492 311.679 78.9492C312.109 78.9492 312.465 79.082 312.746 79.3477C313.027 79.6055 313.168 79.9062 313.168 80.25C313.168 80.5547 313.066 80.8125 312.863 81.0234C312.66 81.2344 312.418 81.3398 312.136 81.3398C311.863 81.3398 311.554 81.207 311.211 80.9414C310.875 80.668 310.625 80.5312 310.461 80.5312C310.32 80.5312 310.168 80.6094 310.004 80.7656C309.652 81.0859 309.289 81.6133 308.914 82.3477V87.4922C308.914 88.0859 308.988 88.5352 309.136 88.8398C309.238 89.0508 309.418 89.2266 309.675 89.3672C309.933 89.5078 310.304 89.5781 310.789 89.5781V90H305.293V89.5781C305.84 89.5781 306.246 89.4922 306.511 89.3203C306.707 89.1953 306.843 88.9961 306.922 88.7227C306.961 88.5898 306.98 88.2109 306.98 87.5859V83.4258C306.98 82.1758 306.953 81.4336 306.898 81.1992C306.851 80.957 306.758 80.7812 306.617 80.6719C306.484 80.5625 306.316 80.5078 306.113 80.5078C305.871 80.5078 305.597 80.5664 305.293 80.6836L305.175 80.2617L308.422 78.9492H308.914ZM324.272 80.332L327.577 78.9961H328.022V81.5039C328.577 80.5586 329.131 79.8984 329.686 79.5234C330.248 79.1406 330.838 78.9492 331.455 78.9492C332.534 78.9492 333.432 79.3711 334.151 80.2148C335.034 81.2461 335.475 82.5898 335.475 84.2461C335.475 86.0977 334.944 87.6289 333.881 88.8398C333.006 89.832 331.905 90.3281 330.577 90.3281C329.998 90.3281 329.498 90.2461 329.077 90.082C328.764 89.9648 328.413 89.7305 328.022 89.3789V92.6484C328.022 93.3828 328.065 93.8477 328.151 94.043C328.245 94.2461 328.401 94.4062 328.62 94.5234C328.846 94.6406 329.252 94.6992 329.838 94.6992V95.1328H324.213V94.6992H324.506C324.936 94.707 325.303 94.625 325.608 94.4531C325.756 94.3672 325.87 94.2266 325.948 94.0312C326.034 93.8438 326.077 93.3594 326.077 92.5781V82.4297C326.077 81.7344 326.045 81.293 325.983 81.1055C325.92 80.918 325.819 80.7773 325.678 80.6836C325.545 80.5898 325.362 80.543 325.127 80.543C324.94 80.543 324.702 80.5977 324.413 80.707L324.272 80.332ZM328.022 82.1953V86.2031C328.022 87.0703 328.057 87.6406 328.127 87.9141C328.237 88.3672 328.502 88.7656 328.924 89.1094C329.354 89.4531 329.893 89.625 330.541 89.625C331.323 89.625 331.955 89.3203 332.44 88.7109C333.073 87.9141 333.389 86.793 333.389 85.3477C333.389 83.707 333.03 82.4453 332.311 81.5625C331.811 80.9531 331.217 80.6484 330.53 80.6484C330.155 80.6484 329.784 80.7422 329.416 80.9297C329.135 81.0703 328.67 81.4922 328.022 82.1953ZM342.826 78.9492V81.3633C343.724 79.7539 344.646 78.9492 345.592 78.9492C346.021 78.9492 346.377 79.082 346.658 79.3477C346.939 79.6055 347.08 79.9062 347.08 80.25C347.08 80.5547 346.978 80.8125 346.775 81.0234C346.572 81.2344 346.33 81.3398 346.049 81.3398C345.775 81.3398 345.467 81.207 345.123 80.9414C344.787 80.668 344.537 80.5312 344.373 80.5312C344.232 80.5312 344.08 80.6094 343.916 80.7656C343.564 81.0859 343.201 81.6133 342.826 82.3477V87.4922C342.826 88.0859 342.9 88.5352 343.049 88.8398C343.15 89.0508 343.33 89.2266 343.588 89.3672C343.845 89.5078 344.217 89.5781 344.701 89.5781V90H339.205V89.5781C339.752 89.5781 340.158 89.4922 340.424 89.3203C340.619 89.1953 340.756 88.9961 340.834 88.7227C340.873 88.5898 340.892 88.2109 340.892 87.5859V83.4258C340.892 82.1758 340.865 81.4336 340.81 81.1992C340.763 80.957 340.67 80.7812 340.529 80.6719C340.396 80.5625 340.228 80.5078 340.025 80.5078C339.783 80.5078 339.51 80.5664 339.205 80.6836L339.088 80.2617L342.334 78.9492H342.826ZM355.568 78.9492C357.193 78.9492 358.497 79.5664 359.482 80.8008C360.318 81.8555 360.735 83.0664 360.735 84.4336C360.735 85.3945 360.505 86.3672 360.044 87.3516C359.583 88.3359 358.946 89.0781 358.134 89.5781C357.329 90.0781 356.431 90.3281 355.439 90.3281C353.821 90.3281 352.536 89.6836 351.583 88.3945C350.778 87.3086 350.376 86.0898 350.376 84.7383C350.376 83.7539 350.618 82.7773 351.103 81.8086C351.595 80.832 352.239 80.1133 353.036 79.6523C353.833 79.1836 354.677 78.9492 355.568 78.9492ZM355.204 79.7109C354.79 79.7109 354.372 79.8359 353.95 80.0859C353.536 80.3281 353.2 80.7578 352.943 81.375C352.685 81.9922 352.556 82.7852 352.556 83.7539C352.556 85.3164 352.864 86.6641 353.482 87.7969C354.107 88.9297 354.927 89.4961 355.943 89.4961C356.7 89.4961 357.325 89.1836 357.818 88.5586C358.31 87.9336 358.556 86.8594 358.556 85.3359C358.556 83.4297 358.146 81.9297 357.325 80.8359C356.771 80.0859 356.064 79.7109 355.204 79.7109ZM369.153 80.1094V87.1641C369.153 88.1641 369.262 88.7969 369.481 89.0625C369.77 89.4062 370.157 89.5781 370.641 89.5781H371.614V90H365.204V89.5781H365.684C365.997 89.5781 366.282 89.5 366.54 89.3438C366.797 89.1875 366.973 88.9766 367.067 88.7109C367.168 88.4453 367.219 87.9297 367.219 87.1641V80.1094H365.133V79.2656H367.219V78.5625C367.219 77.4922 367.391 76.5859 367.735 75.8438C368.079 75.1016 368.602 74.5039 369.305 74.0508C370.016 73.5898 370.813 73.3594 371.696 73.3594C372.516 73.3594 373.27 73.625 373.958 74.1562C374.411 74.5078 374.637 74.9023 374.637 75.3398C374.637 75.5742 374.536 75.7969 374.333 76.0078C374.129 76.2109 373.911 76.3125 373.676 76.3125C373.497 76.3125 373.305 76.25 373.102 76.125C372.907 75.9922 372.665 75.7148 372.375 75.293C372.086 74.8633 371.821 74.5742 371.579 74.4258C371.336 74.2773 371.067 74.2031 370.77 74.2031C370.411 74.2031 370.106 74.3008 369.856 74.4961C369.606 74.6836 369.426 74.9805 369.317 75.3867C369.208 75.7852 369.153 76.8203 369.153 78.4922V79.2656H371.918V80.1094H369.153ZM377.394 83.3086C377.387 84.9023 377.773 86.1523 378.555 87.0586C379.336 87.9648 380.254 88.418 381.308 88.418C382.012 88.418 382.621 88.2266 383.137 87.8438C383.66 87.4531 384.098 86.7891 384.449 85.8516L384.812 86.0859C384.648 87.1562 384.172 88.1328 383.383 89.0156C382.594 89.8906 381.605 90.3281 380.418 90.3281C379.129 90.3281 378.023 89.8281 377.101 88.8281C376.187 87.8203 375.73 86.4688 375.73 84.7734C375.73 82.9375 376.199 81.5078 377.137 80.4844C378.082 79.4531 379.265 78.9375 380.687 78.9375C381.89 78.9375 382.879 79.3359 383.652 80.1328C384.426 80.9219 384.812 81.9805 384.812 83.3086H377.394ZM377.394 82.6289H382.363C382.324 81.9414 382.242 81.457 382.117 81.1758C381.922 80.7383 381.629 80.3945 381.238 80.1445C380.855 79.8945 380.453 79.7695 380.031 79.7695C379.383 79.7695 378.801 80.0234 378.285 80.5312C377.777 81.0312 377.48 81.7305 377.394 82.6289ZM395.831 78.9492V82.6055H395.445C395.148 81.457 394.765 80.6758 394.296 80.2617C393.835 79.8477 393.245 79.6406 392.527 79.6406C391.98 79.6406 391.538 79.7852 391.202 80.0742C390.866 80.3633 390.698 80.6836 390.698 81.0352C390.698 81.4727 390.823 81.8477 391.073 82.1602C391.316 82.4805 391.808 82.8203 392.55 83.1797L394.261 84.0117C395.847 84.7852 396.64 85.8047 396.64 87.0703C396.64 88.0469 396.269 88.8359 395.527 89.4375C394.792 90.0312 393.968 90.3281 393.054 90.3281C392.398 90.3281 391.648 90.2109 390.804 89.9766C390.546 89.8984 390.335 89.8594 390.171 89.8594C389.991 89.8594 389.851 89.9609 389.749 90.1641H389.363V86.332H389.749C389.968 87.4258 390.386 88.25 391.003 88.8047C391.62 89.3594 392.312 89.6367 393.077 89.6367C393.616 89.6367 394.054 89.4805 394.39 89.168C394.734 88.8477 394.905 88.4648 394.905 88.0195C394.905 87.4805 394.714 87.0273 394.331 86.6602C393.956 86.293 393.202 85.8281 392.07 85.2656C390.937 84.7031 390.195 84.1953 389.843 83.7422C389.491 83.2969 389.316 82.7344 389.316 82.0547C389.316 81.1719 389.616 80.4336 390.218 79.8398C390.827 79.2461 391.613 78.9492 392.573 78.9492C392.995 78.9492 393.507 79.0391 394.109 79.2188C394.507 79.3359 394.773 79.3945 394.905 79.3945C395.03 79.3945 395.128 79.3672 395.198 79.3125C395.269 79.2578 395.351 79.1367 395.445 78.9492H395.831ZM407.823 78.9492V82.6055H407.436C407.139 81.457 406.756 80.6758 406.288 80.2617C405.827 79.8477 405.237 79.6406 404.518 79.6406C403.971 79.6406 403.53 79.7852 403.194 80.0742C402.858 80.3633 402.69 80.6836 402.69 81.0352C402.69 81.4727 402.815 81.8477 403.065 82.1602C403.307 82.4805 403.799 82.8203 404.542 83.1797L406.253 84.0117C407.838 84.7852 408.631 85.8047 408.631 87.0703C408.631 88.0469 408.26 88.8359 407.518 89.4375C406.784 90.0312 405.96 90.3281 405.045 90.3281C404.389 90.3281 403.639 90.2109 402.795 89.9766C402.538 89.8984 402.327 89.8594 402.163 89.8594C401.983 89.8594 401.842 89.9609 401.741 90.1641H401.354V86.332H401.741C401.96 87.4258 402.378 88.25 402.995 88.8047C403.612 89.3594 404.303 89.6367 405.069 89.6367C405.608 89.6367 406.045 89.4805 406.381 89.168C406.725 88.8477 406.897 88.4648 406.897 88.0195C406.897 87.4805 406.706 87.0273 406.323 86.6602C405.948 86.293 405.194 85.8281 404.061 85.2656C402.928 84.7031 402.186 84.1953 401.835 83.7422C401.483 83.2969 401.307 82.7344 401.307 82.0547C401.307 81.1719 401.608 80.4336 402.21 79.8398C402.819 79.2461 403.604 78.9492 404.565 78.9492C404.987 78.9492 405.499 79.0391 406.1 79.2188C406.499 79.3359 406.764 79.3945 406.897 79.3945C407.022 79.3945 407.12 79.3672 407.19 79.3125C407.26 79.2578 407.342 79.1367 407.436 78.9492H407.823ZM415.607 73.3359C415.935 73.3359 416.213 73.4531 416.439 73.6875C416.674 73.9141 416.791 74.1914 416.791 74.5195C416.791 74.8477 416.674 75.1289 416.439 75.3633C416.213 75.5977 415.935 75.7148 415.607 75.7148C415.279 75.7148 414.998 75.5977 414.764 75.3633C414.529 75.1289 414.412 74.8477 414.412 74.5195C414.412 74.1914 414.525 73.9141 414.752 73.6875C414.986 73.4531 415.271 73.3359 415.607 73.3359ZM416.58 78.9492V87.5742C416.58 88.2461 416.627 88.6953 416.721 88.9219C416.822 89.1406 416.967 89.3047 417.154 89.4141C417.35 89.5234 417.701 89.5781 418.209 89.5781V90H412.994V89.5781C413.518 89.5781 413.869 89.5273 414.049 89.4258C414.228 89.3242 414.369 89.1562 414.471 88.9219C414.58 88.6875 414.635 88.2383 414.635 87.5742V83.4375C414.635 82.2734 414.6 81.5195 414.529 81.1758C414.475 80.9258 414.389 80.7539 414.271 80.6602C414.154 80.5586 413.994 80.5078 413.791 80.5078C413.572 80.5078 413.307 80.5664 412.994 80.6836L412.83 80.2617L416.064 78.9492H416.58ZM427.447 78.9492C429.072 78.9492 430.376 79.5664 431.361 80.8008C432.197 81.8555 432.615 83.0664 432.615 84.4336C432.615 85.3945 432.384 86.3672 431.923 87.3516C431.462 88.3359 430.825 89.0781 430.013 89.5781C429.208 90.0781 428.31 90.3281 427.318 90.3281C425.7 90.3281 424.415 89.6836 423.462 88.3945C422.658 87.3086 422.255 86.0898 422.255 84.7383C422.255 83.7539 422.497 82.7773 422.982 81.8086C423.474 80.832 424.118 80.1133 424.915 79.6523C425.712 79.1836 426.556 78.9492 427.447 78.9492ZM427.083 79.7109C426.669 79.7109 426.251 79.8359 425.829 80.0859C425.415 80.3281 425.079 80.7578 424.822 81.375C424.564 81.9922 424.435 82.7852 424.435 83.7539C424.435 85.3164 424.743 86.6641 425.361 87.7969C425.986 88.9297 426.806 89.4961 427.822 89.4961C428.579 89.4961 429.204 89.1836 429.697 88.5586C430.189 87.9336 430.435 86.8594 430.435 85.3359C430.435 83.4297 430.025 81.9297 429.204 80.8359C428.65 80.0859 427.943 79.7109 427.083 79.7109ZM439.965 81.2227C441.223 79.707 442.423 78.9492 443.563 78.9492C444.149 78.9492 444.653 79.0977 445.075 79.3945C445.497 79.6836 445.833 80.1641 446.083 80.8359C446.255 81.3047 446.34 82.0234 446.34 82.9922V87.5742C446.34 88.2539 446.395 88.7148 446.505 88.957C446.59 89.1523 446.727 89.3047 446.915 89.4141C447.11 89.5234 447.465 89.5781 447.981 89.5781V90H442.673V89.5781H442.895C443.395 89.5781 443.743 89.5039 443.938 89.3555C444.141 89.1992 444.282 88.9727 444.36 88.6758C444.391 88.5586 444.407 88.1914 444.407 87.5742V83.1797C444.407 82.2031 444.278 81.4961 444.02 81.0586C443.77 80.6133 443.344 80.3906 442.743 80.3906C441.813 80.3906 440.887 80.8984 439.965 81.9141V87.5742C439.965 88.3008 440.008 88.75 440.094 88.9219C440.204 89.1484 440.352 89.3164 440.54 89.4258C440.735 89.5273 441.126 89.5781 441.712 89.5781V90H436.403V89.5781H436.637C437.184 89.5781 437.551 89.4414 437.739 89.168C437.934 88.8867 438.032 88.3555 438.032 87.5742V83.5898C438.032 82.3008 438.001 81.5156 437.938 81.2344C437.883 80.9531 437.794 80.7617 437.669 80.6602C437.551 80.5586 437.391 80.5078 437.188 80.5078C436.969 80.5078 436.708 80.5664 436.403 80.6836L436.227 80.2617L439.462 78.9492H439.965V81.2227ZM457.559 88.4531C456.457 89.3047 455.766 89.7969 455.484 89.9297C455.062 90.125 454.613 90.2227 454.137 90.2227C453.395 90.2227 452.781 89.9688 452.297 89.4609C451.82 88.9531 451.582 88.2852 451.582 87.457C451.582 86.9336 451.699 86.4805 451.934 86.0977C452.254 85.5664 452.809 85.0664 453.598 84.5977C454.395 84.1289 455.715 83.5586 457.559 82.8867V82.4648C457.559 81.3945 457.387 80.6602 457.043 80.2617C456.707 79.8633 456.215 79.6641 455.566 79.6641C455.074 79.6641 454.684 79.7969 454.395 80.0625C454.098 80.3281 453.949 80.6328 453.949 80.9766L453.973 81.6562C453.973 82.0156 453.879 82.293 453.691 82.4883C453.512 82.6836 453.273 82.7812 452.977 82.7812C452.688 82.7812 452.449 82.6797 452.262 82.4766C452.082 82.2734 451.992 81.9961 451.992 81.6445C451.992 80.9727 452.336 80.3555 453.023 79.793C453.711 79.2305 454.676 78.9492 455.918 78.9492C456.871 78.9492 457.652 79.1094 458.262 79.4297C458.723 79.6719 459.062 80.0508 459.281 80.5664C459.422 80.9023 459.492 81.5898 459.492 82.6289V86.2734C459.492 87.2969 459.512 87.9258 459.551 88.1602C459.59 88.3867 459.652 88.5391 459.738 88.6172C459.832 88.6953 459.938 88.7344 460.055 88.7344C460.18 88.7344 460.289 88.707 460.383 88.6523C460.547 88.5508 460.863 88.2656 461.332 87.7969V88.4531C460.457 89.625 459.621 90.2109 458.824 90.2109C458.441 90.2109 458.137 90.0781 457.91 89.8125C457.684 89.5469 457.566 89.0938 457.559 88.4531ZM457.559 87.6914V83.6016C456.379 84.0703 455.617 84.4023 455.273 84.5977C454.656 84.9414 454.215 85.3008 453.949 85.6758C453.684 86.0508 453.551 86.4609 453.551 86.9062C453.551 87.4688 453.719 87.9375 454.055 88.3125C454.391 88.6797 454.777 88.8633 455.215 88.8633C455.809 88.8633 456.59 88.4727 457.559 87.6914ZM468.472 73.3359V87.5742C468.472 88.2461 468.519 88.6914 468.613 88.9102C468.714 89.1289 468.867 89.2969 469.07 89.4141C469.273 89.5234 469.652 89.5781 470.206 89.5781V90H464.945V89.5781C465.437 89.5781 465.773 89.5273 465.953 89.4258C466.132 89.3242 466.273 89.1562 466.374 88.9219C466.476 88.6875 466.527 88.2383 466.527 87.5742V77.8242C466.527 76.6133 466.499 75.8711 466.445 75.5977C466.39 75.3164 466.3 75.125 466.175 75.0234C466.058 74.9219 465.906 74.8711 465.718 74.8711C465.515 74.8711 465.257 74.9336 464.945 75.0586L464.745 74.6484L467.945 73.3359H468.472ZM492.15 79.2656V85.7695C492.15 87.0117 492.178 87.7734 492.233 88.0547C492.295 88.3281 492.389 88.5195 492.514 88.6289C492.647 88.7383 492.799 88.793 492.971 88.793C493.213 88.793 493.486 88.7266 493.791 88.5938L493.955 89.0039L490.744 90.3281H490.217V88.0547C489.295 89.0547 488.592 89.6836 488.108 89.9414C487.623 90.1992 487.111 90.3281 486.572 90.3281C485.971 90.3281 485.447 90.1562 485.002 89.8125C484.565 89.4609 484.26 89.0117 484.088 88.4648C483.916 87.918 483.83 87.1445 483.83 86.1445V81.3516C483.83 80.8438 483.775 80.4922 483.666 80.2969C483.557 80.1016 483.393 79.9531 483.174 79.8516C482.963 79.7422 482.576 79.6914 482.014 79.6992V79.2656H485.775V86.4492C485.775 87.4492 485.947 88.1055 486.291 88.418C486.643 88.7305 487.065 88.8867 487.557 88.8867C487.893 88.8867 488.272 88.7812 488.693 88.5703C489.123 88.3594 489.631 87.957 490.217 87.3633V81.2812C490.217 80.6719 490.104 80.2617 489.877 80.0508C489.658 79.832 489.197 79.7148 488.494 79.6992V79.2656H492.15ZM504.318 78.9492V82.6055H503.931C503.634 81.457 503.251 80.6758 502.783 80.2617C502.322 79.8477 501.732 79.6406 501.013 79.6406C500.466 79.6406 500.025 79.7852 499.689 80.0742C499.353 80.3633 499.185 80.6836 499.185 81.0352C499.185 81.4727 499.31 81.8477 499.56 82.1602C499.802 82.4805 500.294 82.8203 501.037 83.1797L502.747 84.0117C504.333 84.7852 505.126 85.8047 505.126 87.0703C505.126 88.0469 504.755 88.8359 504.013 89.4375C503.279 90.0312 502.455 90.3281 501.54 90.3281C500.884 90.3281 500.134 90.2109 499.29 89.9766C499.033 89.8984 498.822 89.8594 498.658 89.8594C498.478 89.8594 498.337 89.9609 498.236 90.1641H497.849V86.332H498.236C498.455 87.4258 498.872 88.25 499.49 88.8047C500.107 89.3594 500.798 89.6367 501.564 89.6367C502.103 89.6367 502.54 89.4805 502.876 89.168C503.22 88.8477 503.392 88.4648 503.392 88.0195C503.392 87.4805 503.201 87.0273 502.818 86.6602C502.443 86.293 501.689 85.8281 500.556 85.2656C499.423 84.7031 498.681 84.1953 498.33 83.7422C497.978 83.2969 497.802 82.7344 497.802 82.0547C497.802 81.1719 498.103 80.4336 498.705 79.8398C499.314 79.2461 500.099 78.9492 501.06 78.9492C501.482 78.9492 501.994 79.0391 502.595 79.2188C502.994 79.3359 503.259 79.3945 503.392 79.3945C503.517 79.3945 503.615 79.3672 503.685 79.3125C503.755 79.2578 503.837 79.1367 503.931 78.9492H504.318ZM511.177 83.3086C511.169 84.9023 511.555 86.1523 512.337 87.0586C513.118 87.9648 514.036 88.418 515.091 88.418C515.794 88.418 516.403 88.2266 516.919 87.8438C517.442 87.4531 517.88 86.7891 518.231 85.8516L518.595 86.0859C518.43 87.1562 517.954 88.1328 517.165 89.0156C516.376 89.8906 515.388 90.3281 514.2 90.3281C512.911 90.3281 511.805 89.8281 510.884 88.8281C509.97 87.8203 509.513 86.4688 509.513 84.7734C509.513 82.9375 509.981 81.5078 510.919 80.4844C511.864 79.4531 513.048 78.9375 514.47 78.9375C515.673 78.9375 516.661 79.3359 517.434 80.1328C518.208 80.9219 518.595 81.9805 518.595 83.3086H511.177ZM511.177 82.6289H516.145C516.106 81.9414 516.024 81.457 515.899 81.1758C515.704 80.7383 515.411 80.3945 515.02 80.1445C514.638 79.8945 514.235 79.7695 513.813 79.7695C513.165 79.7695 512.583 80.0234 512.067 80.5312C511.559 81.0312 511.263 81.7305 511.177 82.6289ZM524.926 87.7266C525.293 87.7266 525.602 87.8555 525.852 88.1133C526.102 88.3633 526.227 88.668 526.227 89.0273C526.227 89.3867 526.098 89.6953 525.84 89.9531C525.59 90.2031 525.285 90.3281 524.926 90.3281C524.567 90.3281 524.258 90.2031 524 89.9531C523.75 89.6953 523.625 89.3867 523.625 89.0273C523.625 88.6602 523.75 88.3516 524 88.1016C524.258 87.8516 524.567 87.7266 524.926 87.7266Z" fill="#D9D9D9"/>
<path d="M12.4951 144.739L19.4824 153.484C20.4688 154.715 21.3184 155.55 22.0312 155.989C22.5488 156.302 23.0957 156.458 23.6719 156.458V157H13.3301V156.458C13.9844 156.399 14.4043 156.297 14.5898 156.15C14.7852 156.004 14.8828 155.823 14.8828 155.608C14.8828 155.198 14.4336 154.427 13.5352 153.294L8.97949 147.566L8.24707 148.182V153.602C8.24707 154.637 8.30566 155.281 8.42285 155.535C8.54004 155.789 8.76465 156.009 9.09668 156.194C9.42871 156.37 9.96094 156.458 10.6934 156.458V157H0.673828V156.458H1.33301C1.90918 156.458 2.37305 156.355 2.72461 156.15C2.97852 156.014 3.17383 155.779 3.31055 155.447C3.41797 155.213 3.47168 154.598 3.47168 153.602V140.535C3.47168 139.52 3.41797 138.885 3.31055 138.631C3.20312 138.377 2.9834 138.157 2.65137 137.972C2.3291 137.776 1.88965 137.679 1.33301 137.679H0.673828V137.137H10.5615V137.679C9.8877 137.679 9.375 137.776 9.02344 137.972C8.76953 138.108 8.56934 138.338 8.42285 138.66C8.30566 138.904 8.24707 139.529 8.24707 140.535V146.717L15.6152 140.755C16.6406 139.925 17.1533 139.261 17.1533 138.763C17.1533 138.392 16.9434 138.099 16.5234 137.884C16.3086 137.776 15.7764 137.708 14.9268 137.679V137.137H22.6758V137.679C21.9824 137.728 21.4355 137.854 21.0352 138.06C20.6445 138.255 19.7363 138.929 18.3105 140.081L12.4951 144.739ZM34.1203 142.894C35.3117 142.894 36.4201 143.201 37.4455 143.816C38.4709 144.432 39.2473 145.306 39.7746 146.438C40.3117 147.571 40.5803 148.812 40.5803 150.159C40.5803 152.103 40.0871 153.729 39.1008 155.037C37.9094 156.619 36.2639 157.41 34.1643 157.41C32.1037 157.41 30.5168 156.688 29.4035 155.242C28.2902 153.797 27.7336 152.122 27.7336 150.218C27.7336 148.255 28.3 146.546 29.4328 145.091C30.5754 143.626 32.1379 142.894 34.1203 142.894ZM34.1789 143.934C33.6809 143.934 33.2512 144.124 32.8898 144.505C32.5383 144.876 32.3039 145.618 32.1867 146.731C32.0793 147.835 32.0256 149.373 32.0256 151.346C32.0256 152.391 32.0939 153.367 32.2307 154.275C32.3381 154.969 32.5676 155.496 32.9191 155.857C33.2707 156.219 33.6711 156.399 34.1203 156.399C34.5598 156.399 34.926 156.277 35.2189 156.033C35.5998 155.701 35.8537 155.237 35.9807 154.642C36.176 153.714 36.2736 151.839 36.2736 149.017C36.2736 147.356 36.1809 146.219 35.9953 145.604C35.8098 144.979 35.5363 144.524 35.175 144.241C34.9211 144.036 34.5891 143.934 34.1789 143.934ZM51.6439 143.304V146.409C52.5521 144.993 53.348 144.056 54.0316 143.597C54.7152 143.128 55.3744 142.894 56.0092 142.894C56.5561 142.894 56.9906 143.064 57.3129 143.406C57.6449 143.738 57.8109 144.212 57.8109 144.827C57.8109 145.481 57.6498 145.989 57.3275 146.351C57.015 146.712 56.6342 146.893 56.185 146.893C55.6674 146.893 55.2182 146.727 54.8373 146.395C54.4564 146.062 54.2318 145.877 54.1635 145.838C54.0658 145.779 53.9535 145.75 53.8266 145.75C53.5434 145.75 53.2748 145.857 53.0209 146.072C52.6205 146.404 52.3178 146.878 52.1127 147.493C51.8002 148.44 51.6439 149.485 51.6439 150.628V153.777L51.6586 154.598C51.6586 155.154 51.6928 155.511 51.7611 155.667C51.8783 155.931 52.0492 156.126 52.2738 156.253C52.5082 156.37 52.8988 156.443 53.4457 156.473V157H46.0482V156.473C46.6439 156.424 47.0443 156.263 47.2494 155.989C47.4643 155.706 47.5717 154.969 47.5717 153.777V146.204C47.5717 145.423 47.5326 144.925 47.4545 144.71C47.3568 144.437 47.2152 144.236 47.0297 144.109C46.8441 143.982 46.517 143.895 46.0482 143.846V143.304H51.6439ZM74.192 149.661H66.6773C66.7652 151.478 67.2486 152.913 68.1275 153.968C68.8014 154.778 69.6119 155.184 70.5592 155.184C71.1451 155.184 71.6773 155.022 72.1559 154.7C72.6344 154.368 73.1471 153.777 73.6939 152.928L74.192 153.25C73.4498 154.764 72.6295 155.838 71.7311 156.473C70.8326 157.098 69.7926 157.41 68.6109 157.41C66.5797 157.41 65.0416 156.629 63.9967 155.066C63.1568 153.807 62.7369 152.244 62.7369 150.379C62.7369 148.094 63.3521 146.277 64.5826 144.93C65.8229 143.572 67.273 142.894 68.9332 142.894C70.3199 142.894 71.5211 143.465 72.5367 144.607C73.5621 145.74 74.1139 147.425 74.192 149.661ZM70.5885 148.68C70.5885 147.107 70.5006 146.028 70.3248 145.442C70.1588 144.856 69.8951 144.412 69.5338 144.109C69.3287 143.934 69.0553 143.846 68.7135 143.846C68.2057 143.846 67.7906 144.095 67.4684 144.593C66.8922 145.462 66.6041 146.653 66.6041 148.167V148.68H70.5885ZM86.7791 154.979C85.1092 156.453 83.6102 157.19 82.282 157.19C81.5008 157.19 80.8514 156.937 80.3338 156.429C79.8162 155.911 79.5574 155.267 79.5574 154.495C79.5574 153.45 80.0066 152.513 80.9051 151.683C81.8035 150.843 83.7615 149.729 86.7791 148.343V146.966C86.7791 145.931 86.7205 145.281 86.6033 145.018C86.4959 144.744 86.2859 144.51 85.9734 144.314C85.6609 144.109 85.3094 144.007 84.9187 144.007C84.284 144.007 83.7615 144.148 83.3514 144.432C83.0975 144.607 82.9705 144.812 82.9705 145.047C82.9705 145.252 83.1072 145.506 83.3807 145.809C83.7518 146.229 83.9373 146.634 83.9373 147.024C83.9373 147.503 83.7566 147.913 83.3953 148.255C83.0437 148.587 82.5799 148.753 82.0037 148.753C81.3885 148.753 80.8709 148.567 80.451 148.196C80.0408 147.825 79.8357 147.391 79.8357 146.893C79.8357 146.189 80.1141 145.521 80.6707 144.886C81.2273 144.241 82.0037 143.748 82.9998 143.406C83.9959 143.064 85.0311 142.894 86.1053 142.894C87.4041 142.894 88.4295 143.172 89.1814 143.729C89.9432 144.275 90.4363 144.871 90.6609 145.516C90.7977 145.926 90.866 146.868 90.866 148.343V153.66C90.866 154.285 90.8904 154.681 90.9393 154.847C90.9881 155.003 91.0613 155.12 91.159 155.198C91.2566 155.276 91.3689 155.315 91.4959 155.315C91.7498 155.315 92.0086 155.135 92.2723 154.773L92.7117 155.125C92.2234 155.848 91.7156 156.375 91.1883 156.707C90.6707 157.029 90.0799 157.19 89.4158 157.19C88.6346 157.19 88.0242 157.01 87.5848 156.648C87.1453 156.277 86.8768 155.721 86.7791 154.979ZM86.7791 153.909V149.324C85.5975 150.018 84.7186 150.76 84.1424 151.551C83.7615 152.078 83.5711 152.61 83.5711 153.147C83.5711 153.597 83.7322 153.992 84.0545 154.334C84.2986 154.598 84.6404 154.729 85.0799 154.729C85.5682 154.729 86.1346 154.456 86.7791 153.909ZM103.116 143.304V145.076C103.819 144.314 104.493 143.763 105.138 143.421C105.782 143.069 106.476 142.894 107.218 142.894C108.106 142.894 108.844 143.143 109.43 143.641C110.016 144.129 110.406 144.739 110.602 145.472C110.758 146.028 110.836 147.098 110.836 148.68V154.012C110.836 155.066 110.929 155.726 111.114 155.989C111.31 156.243 111.71 156.404 112.315 156.473V157H105.387V156.473C105.904 156.404 106.275 156.189 106.5 155.828C106.656 155.584 106.734 154.979 106.734 154.012V147.918C106.734 146.795 106.69 146.087 106.603 145.794C106.515 145.501 106.363 145.276 106.148 145.12C105.943 144.954 105.714 144.871 105.46 144.871C104.62 144.871 103.839 145.472 103.116 146.673V154.012C103.116 155.037 103.209 155.687 103.395 155.96C103.59 156.233 103.946 156.404 104.464 156.473V157H97.5352V156.473C98.1113 156.414 98.5215 156.229 98.7656 155.916C98.9316 155.701 99.0146 155.066 99.0146 154.012V146.277C99.0146 145.242 98.917 144.598 98.7217 144.344C98.5361 144.09 98.1406 143.924 97.5352 143.846V143.304H103.116ZM121.519 142.908C122.193 142.908 122.764 143.147 123.233 143.626C123.711 144.095 123.95 144.666 123.95 145.34C123.95 146.014 123.711 146.59 123.233 147.068C122.764 147.537 122.193 147.771 121.519 147.771C120.845 147.771 120.269 147.537 119.79 147.068C119.321 146.59 119.087 146.014 119.087 145.34C119.087 144.666 119.321 144.095 119.79 143.626C120.269 143.147 120.845 142.908 121.519 142.908ZM121.504 152.488C122.188 152.488 122.764 152.728 123.233 153.206C123.711 153.685 123.95 154.261 123.95 154.935C123.95 155.608 123.711 156.185 123.233 156.663C122.754 157.132 122.178 157.366 121.504 157.366C120.83 157.366 120.254 157.132 119.776 156.663C119.307 156.185 119.072 155.608 119.072 154.935C119.072 154.261 119.307 153.685 119.776 153.206C120.254 152.728 120.83 152.488 121.504 152.488Z" fill="white"/>
<path d="M161.449 138.746L161.812 144.148H161.449C160.965 142.531 160.273 141.367 159.375 140.656C158.477 139.945 157.398 139.59 156.141 139.59C155.086 139.59 154.133 139.859 153.281 140.398C152.43 140.93 151.758 141.781 151.266 142.953C150.781 144.125 150.539 145.582 150.539 147.324C150.539 148.762 150.77 150.008 151.23 151.062C151.691 152.117 152.383 152.926 153.305 153.488C154.234 154.051 155.293 154.332 156.48 154.332C157.512 154.332 158.422 154.113 159.211 153.676C160 153.23 160.867 152.352 161.812 151.039L162.176 151.273C161.379 152.688 160.449 153.723 159.387 154.379C158.324 155.035 157.062 155.363 155.602 155.363C152.969 155.363 150.93 154.387 149.484 152.434C148.406 150.98 147.867 149.27 147.867 147.301C147.867 145.715 148.223 144.258 148.934 142.93C149.645 141.602 150.621 140.574 151.863 139.848C153.113 139.113 154.477 138.746 155.953 138.746C157.102 138.746 158.234 139.027 159.352 139.59C159.68 139.762 159.914 139.848 160.055 139.848C160.266 139.848 160.449 139.773 160.605 139.625C160.809 139.414 160.953 139.121 161.039 138.746H161.449ZM171.648 143.949C173.273 143.949 174.577 144.566 175.562 145.801C176.398 146.855 176.816 148.066 176.816 149.434C176.816 150.395 176.585 151.367 176.124 152.352C175.663 153.336 175.027 154.078 174.214 154.578C173.41 155.078 172.511 155.328 171.519 155.328C169.902 155.328 168.617 154.684 167.663 153.395C166.859 152.309 166.456 151.09 166.456 149.738C166.456 148.754 166.699 147.777 167.183 146.809C167.675 145.832 168.32 145.113 169.117 144.652C169.913 144.184 170.757 143.949 171.648 143.949ZM171.285 144.711C170.87 144.711 170.452 144.836 170.031 145.086C169.617 145.328 169.281 145.758 169.023 146.375C168.765 146.992 168.636 147.785 168.636 148.754C168.636 150.316 168.945 151.664 169.562 152.797C170.187 153.93 171.007 154.496 172.023 154.496C172.781 154.496 173.406 154.184 173.898 153.559C174.39 152.934 174.636 151.859 174.636 150.336C174.636 148.43 174.226 146.93 173.406 145.836C172.851 145.086 172.144 144.711 171.285 144.711ZM184.167 146.223C185.425 144.707 186.624 143.949 187.764 143.949C188.35 143.949 188.854 144.098 189.276 144.395C189.698 144.684 190.034 145.164 190.284 145.836C190.456 146.305 190.542 147.023 190.542 147.992V152.574C190.542 153.254 190.596 153.715 190.706 153.957C190.792 154.152 190.928 154.305 191.116 154.414C191.311 154.523 191.667 154.578 192.182 154.578V155H186.874V154.578H187.096C187.596 154.578 187.944 154.504 188.139 154.355C188.342 154.199 188.483 153.973 188.561 153.676C188.592 153.559 188.608 153.191 188.608 152.574V148.18C188.608 147.203 188.479 146.496 188.221 146.059C187.971 145.613 187.546 145.391 186.944 145.391C186.014 145.391 185.089 145.898 184.167 146.914V152.574C184.167 153.301 184.21 153.75 184.296 153.922C184.405 154.148 184.553 154.316 184.741 154.426C184.936 154.527 185.327 154.578 185.913 154.578V155H180.604V154.578H180.839C181.385 154.578 181.753 154.441 181.94 154.168C182.135 153.887 182.233 153.355 182.233 152.574V148.59C182.233 147.301 182.202 146.516 182.139 146.234C182.085 145.953 181.995 145.762 181.87 145.66C181.753 145.559 181.592 145.508 181.389 145.508C181.171 145.508 180.909 145.566 180.604 145.684L180.428 145.262L183.663 143.949H184.167V146.223ZM195.127 144.266H200.178V144.699H199.85C199.545 144.699 199.311 144.773 199.147 144.922C198.99 145.07 198.912 145.27 198.912 145.52C198.912 145.793 198.994 146.117 199.158 146.492L201.654 152.422L204.162 146.27C204.342 145.832 204.432 145.5 204.432 145.273C204.432 145.164 204.4 145.074 204.338 145.004C204.252 144.887 204.143 144.809 204.01 144.77C203.877 144.723 203.608 144.699 203.201 144.699V144.266H206.705V144.699C206.299 144.73 206.018 144.812 205.861 144.945C205.588 145.18 205.342 145.57 205.123 146.117L201.315 155.328H200.834L197.002 146.27C196.83 145.848 196.666 145.547 196.51 145.367C196.354 145.18 196.154 145.023 195.912 144.898C195.779 144.828 195.518 144.762 195.127 144.699V144.266ZM212.123 148.309C212.115 149.902 212.501 151.152 213.283 152.059C214.064 152.965 214.982 153.418 216.037 153.418C216.74 153.418 217.349 153.227 217.865 152.844C218.388 152.453 218.826 151.789 219.177 150.852L219.54 151.086C219.376 152.156 218.9 153.133 218.111 154.016C217.322 154.891 216.333 155.328 215.146 155.328C213.857 155.328 212.751 154.828 211.83 153.828C210.915 152.82 210.458 151.469 210.458 149.773C210.458 147.938 210.927 146.508 211.865 145.484C212.81 144.453 213.994 143.938 215.415 143.938C216.619 143.938 217.607 144.336 218.38 145.133C219.154 145.922 219.54 146.98 219.54 148.309H212.123ZM212.123 147.629H217.091C217.052 146.941 216.97 146.457 216.845 146.176C216.65 145.738 216.357 145.395 215.966 145.145C215.583 144.895 215.181 144.77 214.759 144.77C214.111 144.77 213.529 145.023 213.013 145.531C212.505 146.031 212.208 146.73 212.123 147.629ZM226.762 143.949V146.363C227.661 144.754 228.583 143.949 229.528 143.949C229.958 143.949 230.313 144.082 230.595 144.348C230.876 144.605 231.016 144.906 231.016 145.25C231.016 145.555 230.915 145.812 230.712 146.023C230.509 146.234 230.266 146.34 229.985 146.34C229.712 146.34 229.403 146.207 229.059 145.941C228.723 145.668 228.473 145.531 228.309 145.531C228.169 145.531 228.016 145.609 227.852 145.766C227.501 146.086 227.137 146.613 226.762 147.348V152.492C226.762 153.086 226.837 153.535 226.985 153.84C227.087 154.051 227.266 154.227 227.524 154.367C227.782 154.508 228.153 154.578 228.637 154.578V155H223.141V154.578C223.688 154.578 224.095 154.492 224.36 154.32C224.555 154.195 224.692 153.996 224.77 153.723C224.809 153.59 224.829 153.211 224.829 152.586V148.426C224.829 147.176 224.802 146.434 224.747 146.199C224.7 145.957 224.606 145.781 224.466 145.672C224.333 145.562 224.165 145.508 223.962 145.508C223.72 145.508 223.446 145.566 223.141 145.684L223.024 145.262L226.27 143.949H226.762ZM241.192 143.949V147.605H240.805C240.508 146.457 240.125 145.676 239.656 145.262C239.195 144.848 238.606 144.641 237.887 144.641C237.34 144.641 236.899 144.785 236.563 145.074C236.227 145.363 236.059 145.684 236.059 146.035C236.059 146.473 236.184 146.848 236.434 147.16C236.676 147.48 237.168 147.82 237.91 148.18L239.621 149.012C241.207 149.785 242 150.805 242 152.07C242 153.047 241.629 153.836 240.887 154.438C240.153 155.031 239.328 155.328 238.414 155.328C237.758 155.328 237.008 155.211 236.164 154.977C235.906 154.898 235.695 154.859 235.531 154.859C235.352 154.859 235.211 154.961 235.11 155.164H234.723V151.332H235.11C235.328 152.426 235.746 153.25 236.363 153.805C236.981 154.359 237.672 154.637 238.438 154.637C238.977 154.637 239.414 154.48 239.75 154.168C240.094 153.848 240.266 153.465 240.266 153.02C240.266 152.48 240.074 152.027 239.692 151.66C239.317 151.293 238.563 150.828 237.43 150.266C236.297 149.703 235.555 149.195 235.203 148.742C234.852 148.297 234.676 147.734 234.676 147.055C234.676 146.172 234.977 145.434 235.578 144.84C236.188 144.246 236.973 143.949 237.934 143.949C238.356 143.949 238.867 144.039 239.469 144.219C239.867 144.336 240.133 144.395 240.266 144.395C240.391 144.395 240.488 144.367 240.559 144.312C240.629 144.258 240.711 144.137 240.805 143.949H241.192ZM252.328 153.453C251.226 154.305 250.535 154.797 250.253 154.93C249.832 155.125 249.382 155.223 248.906 155.223C248.164 155.223 247.55 154.969 247.066 154.461C246.589 153.953 246.351 153.285 246.351 152.457C246.351 151.934 246.468 151.48 246.703 151.098C247.023 150.566 247.578 150.066 248.367 149.598C249.164 149.129 250.484 148.559 252.328 147.887V147.465C252.328 146.395 252.156 145.66 251.812 145.262C251.476 144.863 250.984 144.664 250.335 144.664C249.843 144.664 249.453 144.797 249.164 145.062C248.867 145.328 248.718 145.633 248.718 145.977L248.742 146.656C248.742 147.016 248.648 147.293 248.46 147.488C248.281 147.684 248.043 147.781 247.746 147.781C247.457 147.781 247.218 147.68 247.031 147.477C246.851 147.273 246.761 146.996 246.761 146.645C246.761 145.973 247.105 145.355 247.793 144.793C248.48 144.23 249.445 143.949 250.687 143.949C251.64 143.949 252.421 144.109 253.031 144.43C253.492 144.672 253.832 145.051 254.05 145.566C254.191 145.902 254.261 146.59 254.261 147.629V151.273C254.261 152.297 254.281 152.926 254.32 153.16C254.359 153.387 254.421 153.539 254.507 153.617C254.601 153.695 254.707 153.734 254.824 153.734C254.949 153.734 255.058 153.707 255.152 153.652C255.316 153.551 255.632 153.266 256.101 152.797V153.453C255.226 154.625 254.39 155.211 253.593 155.211C253.21 155.211 252.906 155.078 252.679 154.812C252.453 154.547 252.335 154.094 252.328 153.453ZM252.328 152.691V148.602C251.148 149.07 250.386 149.402 250.043 149.598C249.425 149.941 248.984 150.301 248.718 150.676C248.453 151.051 248.32 151.461 248.32 151.906C248.32 152.469 248.488 152.938 248.824 153.312C249.16 153.68 249.546 153.863 249.984 153.863C250.578 153.863 251.359 153.473 252.328 152.691ZM262.667 140.738V144.266H265.175V145.086H262.667V152.047C262.667 152.742 262.765 153.211 262.96 153.453C263.163 153.695 263.421 153.816 263.733 153.816C263.991 153.816 264.241 153.738 264.483 153.582C264.725 153.418 264.913 153.18 265.046 152.867H265.503C265.229 153.633 264.843 154.211 264.343 154.602C263.843 154.984 263.327 155.176 262.796 155.176C262.436 155.176 262.085 155.078 261.741 154.883C261.397 154.68 261.143 154.395 260.979 154.027C260.815 153.652 260.733 153.078 260.733 152.305V145.086H259.034V144.699C259.464 144.527 259.901 144.238 260.347 143.832C260.8 143.418 261.202 142.93 261.554 142.367C261.733 142.07 261.983 141.527 262.304 140.738H262.667ZM271.6 138.336C271.928 138.336 272.205 138.453 272.432 138.688C272.666 138.914 272.783 139.191 272.783 139.52C272.783 139.848 272.666 140.129 272.432 140.363C272.205 140.598 271.928 140.715 271.6 140.715C271.272 140.715 270.99 140.598 270.756 140.363C270.522 140.129 270.405 139.848 270.405 139.52C270.405 139.191 270.518 138.914 270.744 138.688C270.979 138.453 271.264 138.336 271.6 138.336ZM272.573 143.949V152.574C272.573 153.246 272.619 153.695 272.713 153.922C272.815 154.141 272.959 154.305 273.147 154.414C273.342 154.523 273.694 154.578 274.201 154.578V155H268.987V154.578C269.51 154.578 269.862 154.527 270.041 154.426C270.221 154.324 270.362 154.156 270.463 153.922C270.573 153.688 270.627 153.238 270.627 152.574V148.438C270.627 147.273 270.592 146.52 270.522 146.176C270.467 145.926 270.381 145.754 270.264 145.66C270.147 145.559 269.987 145.508 269.783 145.508C269.565 145.508 269.299 145.566 268.987 145.684L268.823 145.262L272.057 143.949H272.573ZM283.439 143.949C285.064 143.949 286.369 144.566 287.353 145.801C288.189 146.855 288.607 148.066 288.607 149.434C288.607 150.395 288.377 151.367 287.916 152.352C287.455 153.336 286.818 154.078 286.005 154.578C285.201 155.078 284.302 155.328 283.31 155.328C281.693 155.328 280.408 154.684 279.455 153.395C278.65 152.309 278.248 151.09 278.248 149.738C278.248 148.754 278.49 147.777 278.974 146.809C279.466 145.832 280.111 145.113 280.908 144.652C281.705 144.184 282.548 143.949 283.439 143.949ZM283.076 144.711C282.662 144.711 282.244 144.836 281.822 145.086C281.408 145.328 281.072 145.758 280.814 146.375C280.556 146.992 280.427 147.785 280.427 148.754C280.427 150.316 280.736 151.664 281.353 152.797C281.978 153.93 282.798 154.496 283.814 154.496C284.572 154.496 285.197 154.184 285.689 153.559C286.181 152.934 286.427 151.859 286.427 150.336C286.427 148.43 286.017 146.93 285.197 145.836C284.642 145.086 283.935 144.711 283.076 144.711ZM295.958 146.223C297.216 144.707 298.415 143.949 299.556 143.949C300.142 143.949 300.645 144.098 301.067 144.395C301.489 144.684 301.825 145.164 302.075 145.836C302.247 146.305 302.333 147.023 302.333 147.992V152.574C302.333 153.254 302.388 153.715 302.497 153.957C302.583 154.152 302.72 154.305 302.907 154.414C303.103 154.523 303.458 154.578 303.974 154.578V155H298.665V154.578H298.888C299.388 154.578 299.735 154.504 299.931 154.355C300.134 154.199 300.274 153.973 300.353 153.676C300.384 153.559 300.399 153.191 300.399 152.574V148.18C300.399 147.203 300.27 146.496 300.013 146.059C299.763 145.613 299.337 145.391 298.735 145.391C297.806 145.391 296.88 145.898 295.958 146.914V152.574C295.958 153.301 296.001 153.75 296.087 153.922C296.196 154.148 296.345 154.316 296.532 154.426C296.728 154.527 297.118 154.578 297.704 154.578V155H292.395V154.578H292.63C293.177 154.578 293.544 154.441 293.731 154.168C293.927 153.887 294.024 153.355 294.024 152.574V148.59C294.024 147.301 293.993 146.516 293.931 146.234C293.876 145.953 293.786 145.762 293.661 145.66C293.544 145.559 293.384 145.508 293.181 145.508C292.962 145.508 292.7 145.566 292.395 145.684L292.22 145.262L295.454 143.949H295.958V146.223ZM313.551 153.453C312.45 154.305 311.758 154.797 311.477 154.93C311.055 155.125 310.606 155.223 310.129 155.223C309.387 155.223 308.774 154.969 308.289 154.461C307.813 153.953 307.575 153.285 307.575 152.457C307.575 151.934 307.692 151.48 307.926 151.098C308.246 150.566 308.801 150.066 309.59 149.598C310.387 149.129 311.707 148.559 313.551 147.887V147.465C313.551 146.395 313.379 145.66 313.035 145.262C312.7 144.863 312.207 144.664 311.559 144.664C311.067 144.664 310.676 144.797 310.387 145.062C310.09 145.328 309.942 145.633 309.942 145.977L309.965 146.656C309.965 147.016 309.871 147.293 309.684 147.488C309.504 147.684 309.266 147.781 308.969 147.781C308.68 147.781 308.442 147.68 308.254 147.477C308.075 147.273 307.985 146.996 307.985 146.645C307.985 145.973 308.328 145.355 309.016 144.793C309.703 144.23 310.668 143.949 311.91 143.949C312.864 143.949 313.645 144.109 314.254 144.43C314.715 144.672 315.055 145.051 315.274 145.566C315.414 145.902 315.485 146.59 315.485 147.629V151.273C315.485 152.297 315.504 152.926 315.543 153.16C315.582 153.387 315.645 153.539 315.731 153.617C315.825 153.695 315.93 153.734 316.047 153.734C316.172 153.734 316.282 153.707 316.375 153.652C316.539 153.551 316.856 153.266 317.325 152.797V153.453C316.45 154.625 315.614 155.211 314.817 155.211C314.434 155.211 314.129 155.078 313.903 154.812C313.676 154.547 313.559 154.094 313.551 153.453ZM313.551 152.691V148.602C312.371 149.07 311.61 149.402 311.266 149.598C310.649 149.941 310.207 150.301 309.942 150.676C309.676 151.051 309.543 151.461 309.543 151.906C309.543 152.469 309.711 152.938 310.047 153.312C310.383 153.68 310.77 153.863 311.207 153.863C311.801 153.863 312.582 153.473 313.551 152.691ZM324.465 138.336V152.574C324.465 153.246 324.511 153.691 324.605 153.91C324.707 154.129 324.859 154.297 325.062 154.414C325.265 154.523 325.644 154.578 326.199 154.578V155H320.937V154.578C321.429 154.578 321.765 154.527 321.945 154.426C322.125 154.324 322.265 154.156 322.367 153.922C322.468 153.688 322.519 153.238 322.519 152.574V142.824C322.519 141.613 322.492 140.871 322.437 140.598C322.383 140.316 322.293 140.125 322.168 140.023C322.05 139.922 321.898 139.871 321.711 139.871C321.508 139.871 321.25 139.934 320.937 140.059L320.738 139.648L323.937 138.336H324.465ZM337.959 145.332L341.264 143.996H341.709V146.504C342.264 145.559 342.819 144.898 343.373 144.523C343.936 144.141 344.526 143.949 345.143 143.949C346.221 143.949 347.12 144.371 347.838 145.215C348.721 146.246 349.163 147.59 349.163 149.246C349.163 151.098 348.631 152.629 347.569 153.84C346.694 154.832 345.592 155.328 344.264 155.328C343.686 155.328 343.186 155.246 342.764 155.082C342.452 154.965 342.1 154.73 341.709 154.379V157.648C341.709 158.383 341.752 158.848 341.838 159.043C341.932 159.246 342.088 159.406 342.307 159.523C342.534 159.641 342.94 159.699 343.526 159.699V160.133H337.901V159.699H338.194C338.623 159.707 338.991 159.625 339.295 159.453C339.444 159.367 339.557 159.227 339.635 159.031C339.721 158.844 339.764 158.359 339.764 157.578V147.43C339.764 146.734 339.733 146.293 339.67 146.105C339.608 145.918 339.506 145.777 339.366 145.684C339.233 145.59 339.049 145.543 338.815 145.543C338.627 145.543 338.389 145.598 338.1 145.707L337.959 145.332ZM341.709 147.195V151.203C341.709 152.07 341.745 152.641 341.815 152.914C341.924 153.367 342.19 153.766 342.612 154.109C343.041 154.453 343.58 154.625 344.229 154.625C345.01 154.625 345.643 154.32 346.127 153.711C346.76 152.914 347.077 151.793 347.077 150.348C347.077 148.707 346.717 147.445 345.998 146.562C345.498 145.953 344.905 145.648 344.217 145.648C343.842 145.648 343.471 145.742 343.104 145.93C342.823 146.07 342.358 146.492 341.709 147.195ZM356.513 143.949V146.363C357.412 144.754 358.334 143.949 359.279 143.949C359.709 143.949 360.064 144.082 360.345 144.348C360.627 144.605 360.767 144.906 360.767 145.25C360.767 145.555 360.666 145.812 360.463 146.023C360.26 146.234 360.017 146.34 359.736 146.34C359.463 146.34 359.154 146.207 358.81 145.941C358.474 145.668 358.224 145.531 358.06 145.531C357.92 145.531 357.767 145.609 357.603 145.766C357.252 146.086 356.888 146.613 356.513 147.348V152.492C356.513 153.086 356.588 153.535 356.736 153.84C356.838 154.051 357.017 154.227 357.275 154.367C357.533 154.508 357.904 154.578 358.388 154.578V155H352.892V154.578C353.439 154.578 353.845 154.492 354.111 154.32C354.306 154.195 354.443 153.996 354.521 153.723C354.56 153.59 354.58 153.211 354.58 152.586V148.426C354.58 147.176 354.553 146.434 354.498 146.199C354.451 145.957 354.357 145.781 354.217 145.672C354.084 145.562 353.916 145.508 353.713 145.508C353.47 145.508 353.197 145.566 352.892 145.684L352.775 145.262L356.021 143.949H356.513ZM369.255 143.949C370.88 143.949 372.185 144.566 373.169 145.801C374.005 146.855 374.423 148.066 374.423 149.434C374.423 150.395 374.193 151.367 373.732 152.352C373.271 153.336 372.634 154.078 371.821 154.578C371.017 155.078 370.118 155.328 369.126 155.328C367.509 155.328 366.224 154.684 365.271 153.395C364.466 152.309 364.064 151.09 364.064 149.738C364.064 148.754 364.306 147.777 364.79 146.809C365.282 145.832 365.927 145.113 366.724 144.652C367.521 144.184 368.364 143.949 369.255 143.949ZM368.892 144.711C368.478 144.711 368.06 144.836 367.638 145.086C367.224 145.328 366.888 145.758 366.63 146.375C366.372 146.992 366.243 147.785 366.243 148.754C366.243 150.316 366.552 151.664 367.169 152.797C367.794 153.93 368.614 154.496 369.63 154.496C370.388 154.496 371.013 154.184 371.505 153.559C371.997 152.934 372.243 151.859 372.243 150.336C372.243 148.43 371.833 146.93 371.013 145.836C370.458 145.086 369.751 144.711 368.892 144.711ZM382.84 145.109V152.164C382.84 153.164 382.95 153.797 383.168 154.062C383.458 154.406 383.844 154.578 384.329 154.578H385.301V155H378.891V154.578H379.372C379.684 154.578 379.969 154.5 380.227 154.344C380.485 154.188 380.661 153.977 380.754 153.711C380.856 153.445 380.907 152.93 380.907 152.164V145.109H378.821V144.266H380.907V143.562C380.907 142.492 381.079 141.586 381.422 140.844C381.766 140.102 382.29 139.504 382.993 139.051C383.704 138.59 384.5 138.359 385.383 138.359C386.204 138.359 386.958 138.625 387.645 139.156C388.098 139.508 388.325 139.902 388.325 140.34C388.325 140.574 388.223 140.797 388.02 141.008C387.817 141.211 387.598 141.312 387.364 141.312C387.184 141.312 386.993 141.25 386.79 141.125C386.594 140.992 386.352 140.715 386.063 140.293C385.774 139.863 385.508 139.574 385.266 139.426C385.024 139.277 384.754 139.203 384.458 139.203C384.098 139.203 383.793 139.301 383.543 139.496C383.293 139.684 383.114 139.98 383.004 140.387C382.895 140.785 382.84 141.82 382.84 143.492V144.266H385.606V145.109H382.84ZM392.008 138.336C392.336 138.336 392.613 138.453 392.84 138.688C393.074 138.914 393.191 139.191 393.191 139.52C393.191 139.848 393.074 140.129 392.84 140.363C392.613 140.598 392.336 140.715 392.008 140.715C391.68 140.715 391.398 140.598 391.164 140.363C390.93 140.129 390.812 139.848 390.812 139.52C390.812 139.191 390.926 138.914 391.152 138.688C391.387 138.453 391.672 138.336 392.008 138.336ZM392.98 143.949V152.574C392.98 153.246 393.027 153.695 393.121 153.922C393.223 154.141 393.367 154.305 393.555 154.414C393.75 154.523 394.101 154.578 394.609 154.578V155H389.394V154.578C389.918 154.578 390.269 154.527 390.449 154.426C390.629 154.324 390.769 154.156 390.871 153.922C390.98 153.688 391.035 153.238 391.035 152.574V148.438C391.035 147.273 391 146.52 390.93 146.176C390.875 145.926 390.789 145.754 390.672 145.66C390.555 145.559 390.394 145.508 390.191 145.508C389.973 145.508 389.707 145.566 389.394 145.684L389.23 145.262L392.465 143.949H392.98ZM407.714 150.922C407.425 152.336 406.859 153.426 406.015 154.191C405.171 154.949 404.238 155.328 403.214 155.328C401.995 155.328 400.933 154.816 400.027 153.793C399.12 152.77 398.667 151.387 398.667 149.645C398.667 147.957 399.167 146.586 400.167 145.531C401.175 144.477 402.382 143.949 403.788 143.949C404.843 143.949 405.71 144.23 406.39 144.793C407.07 145.348 407.409 145.926 407.409 146.527C407.409 146.824 407.312 147.066 407.116 147.254C406.929 147.434 406.663 147.523 406.32 147.523C405.859 147.523 405.511 147.375 405.277 147.078C405.144 146.914 405.054 146.602 405.007 146.141C404.968 145.68 404.812 145.328 404.538 145.086C404.265 144.852 403.886 144.734 403.402 144.734C402.62 144.734 401.991 145.023 401.515 145.602C400.882 146.367 400.566 147.379 400.566 148.637C400.566 149.918 400.878 151.051 401.503 152.035C402.136 153.012 402.988 153.5 404.058 153.5C404.823 153.5 405.511 153.238 406.12 152.715C406.55 152.355 406.968 151.703 407.374 150.758L407.714 150.922ZM414.631 138.336C414.96 138.336 415.237 138.453 415.463 138.688C415.698 138.914 415.815 139.191 415.815 139.52C415.815 139.848 415.698 140.129 415.463 140.363C415.237 140.598 414.96 140.715 414.631 140.715C414.303 140.715 414.022 140.598 413.788 140.363C413.553 140.129 413.436 139.848 413.436 139.52C413.436 139.191 413.549 138.914 413.776 138.688C414.01 138.453 414.295 138.336 414.631 138.336ZM415.604 143.949V152.574C415.604 153.246 415.651 153.695 415.745 153.922C415.846 154.141 415.991 154.305 416.178 154.414C416.374 154.523 416.725 154.578 417.233 154.578V155H412.018V154.578C412.542 154.578 412.893 154.527 413.073 154.426C413.253 154.324 413.393 154.156 413.495 153.922C413.604 153.688 413.659 153.238 413.659 152.574V148.438C413.659 147.273 413.624 146.52 413.553 146.176C413.499 145.926 413.413 145.754 413.295 145.66C413.178 145.559 413.018 145.508 412.815 145.508C412.596 145.508 412.331 145.566 412.018 145.684L411.854 145.262L415.088 143.949H415.604ZM423.025 148.309C423.018 149.902 423.404 151.152 424.185 152.059C424.967 152.965 425.885 153.418 426.939 153.418C427.643 153.418 428.252 153.227 428.768 152.844C429.291 152.453 429.728 151.789 430.08 150.852L430.443 151.086C430.279 152.156 429.803 153.133 429.014 154.016C428.225 154.891 427.236 155.328 426.049 155.328C424.76 155.328 423.654 154.828 422.732 153.828C421.818 152.82 421.361 151.469 421.361 149.773C421.361 147.938 421.83 146.508 422.768 145.484C423.713 144.453 424.896 143.938 426.318 143.938C427.521 143.938 428.51 144.336 429.283 145.133C430.057 145.922 430.443 146.98 430.443 148.309H423.025ZM423.025 147.629H427.994C427.955 146.941 427.873 146.457 427.748 146.176C427.553 145.738 427.26 145.395 426.869 145.145C426.486 144.895 426.084 144.77 425.662 144.77C425.014 144.77 424.432 145.023 423.916 145.531C423.408 146.031 423.111 146.73 423.025 147.629ZM437.654 146.223C438.911 144.707 440.111 143.949 441.251 143.949C441.837 143.949 442.341 144.098 442.763 144.395C443.185 144.684 443.521 145.164 443.771 145.836C443.943 146.305 444.029 147.023 444.029 147.992V152.574C444.029 153.254 444.083 153.715 444.193 153.957C444.279 154.152 444.415 154.305 444.603 154.414C444.798 154.523 445.154 154.578 445.669 154.578V155H440.361V154.578H440.583C441.083 154.578 441.431 154.504 441.626 154.355C441.829 154.199 441.97 153.973 442.048 153.676C442.079 153.559 442.095 153.191 442.095 152.574V148.18C442.095 147.203 441.966 146.496 441.708 146.059C441.458 145.613 441.033 145.391 440.431 145.391C439.501 145.391 438.575 145.898 437.654 146.914V152.574C437.654 153.301 437.697 153.75 437.783 153.922C437.892 154.148 438.04 154.316 438.228 154.426C438.423 154.527 438.814 154.578 439.4 154.578V155H434.091V154.578H434.325C434.872 154.578 435.24 154.441 435.427 154.168C435.622 153.887 435.72 153.355 435.72 152.574V148.59C435.72 147.301 435.689 146.516 435.626 146.234C435.572 145.953 435.482 145.762 435.357 145.66C435.24 145.559 435.079 145.508 434.876 145.508C434.658 145.508 434.396 145.566 434.091 145.684L433.915 145.262L437.15 143.949H437.654V146.223ZM458.282 150.922C457.993 152.336 457.426 153.426 456.583 154.191C455.739 154.949 454.805 155.328 453.782 155.328C452.563 155.328 451.501 154.816 450.594 153.793C449.688 152.77 449.235 151.387 449.235 149.645C449.235 147.957 449.735 146.586 450.735 145.531C451.743 144.477 452.95 143.949 454.356 143.949C455.411 143.949 456.278 144.23 456.958 144.793C457.637 145.348 457.977 145.926 457.977 146.527C457.977 146.824 457.88 147.066 457.684 147.254C457.497 147.434 457.231 147.523 456.887 147.523C456.426 147.523 456.079 147.375 455.844 147.078C455.712 146.914 455.622 146.602 455.575 146.141C455.536 145.68 455.38 145.328 455.106 145.086C454.833 144.852 454.454 144.734 453.969 144.734C453.188 144.734 452.559 145.023 452.083 145.602C451.45 146.367 451.133 147.379 451.133 148.637C451.133 149.918 451.446 151.051 452.071 152.035C452.704 153.012 453.555 153.5 454.626 153.5C455.391 153.5 456.079 153.238 456.688 152.715C457.118 152.355 457.536 151.703 457.942 150.758L458.282 150.922ZM461.859 144.266H466.863V144.699H466.617C466.266 144.699 466 144.777 465.82 144.934C465.648 145.082 465.562 145.27 465.562 145.496C465.562 145.801 465.691 146.223 465.949 146.762L468.562 152.176L470.965 146.246C471.098 145.926 471.164 145.609 471.164 145.297C471.164 145.156 471.137 145.051 471.082 144.98C471.02 144.895 470.922 144.828 470.789 144.781C470.656 144.727 470.422 144.699 470.086 144.699V144.266H473.578V144.699C473.289 144.73 473.066 144.793 472.91 144.887C472.754 144.98 472.582 145.156 472.395 145.414C472.324 145.523 472.191 145.824 471.996 146.316L467.625 157.027C467.203 158.066 466.648 158.852 465.961 159.383C465.281 159.914 464.625 160.18 463.992 160.18C463.531 160.18 463.152 160.047 462.855 159.781C462.559 159.516 462.41 159.211 462.41 158.867C462.41 158.539 462.516 158.273 462.727 158.07C462.945 157.875 463.242 157.777 463.617 157.777C463.875 157.777 464.227 157.863 464.672 158.035C464.984 158.152 465.18 158.211 465.258 158.211C465.492 158.211 465.746 158.09 466.02 157.848C466.301 157.605 466.582 157.137 466.863 156.441L467.625 154.578L463.77 146.48C463.652 146.238 463.465 145.938 463.207 145.578C463.012 145.305 462.852 145.121 462.727 145.027C462.547 144.902 462.258 144.793 461.859 144.699V144.266ZM479.359 152.727C479.726 152.727 480.035 152.855 480.285 153.113C480.535 153.363 480.66 153.668 480.66 154.027C480.66 154.387 480.531 154.695 480.273 154.953C480.023 155.203 479.718 155.328 479.359 155.328C478.999 155.328 478.691 155.203 478.433 154.953C478.183 154.695 478.058 154.387 478.058 154.027C478.058 153.66 478.183 153.352 478.433 153.102C478.691 152.852 478.999 152.727 479.359 152.727Z" fill="#D9D9D9"/>
</svg>
