<svg width="621" height="94" viewBox="0 0 621 94" fill="none" xmlns="http://www.w3.org/2000/svg">
<g clip-path="url(#clip0_241_2428)">
<path d="M84.0787 39.1667H70.4997V7.83333C70.4997 5.7558 69.6744 3.76337 68.2053 2.29433C66.7363 0.825295 64.7438 0 62.6663 0L31.333 0C29.2554 0 27.263 0.825295 25.794 2.29433C24.3249 3.76337 23.4996 5.7558 23.4996 7.83333V39.1667H9.92056C1.33327 39.1667 -3.18265 48.3708 2.58269 54.1068L39.6618 91.0625C41.6395 92.9481 44.2671 94 46.9996 94C49.7322 94 52.3598 92.9481 54.3375 91.0625L91.4166 54.1068C97.1819 48.3708 92.666 39.1667 84.0787 39.1667Z" fill="#FBED96"/>
<path d="M84.0792 39.1667H76.2459C84.8332 39.1667 89.3491 48.3709 83.5838 54.1069L46.5047 91.0626C45.5295 92.0278 44.3645 92.78 43.0835 93.2716C44.9749 94.0142 47.0392 94.2008 49.0331 93.8095C51.0271 93.4181 52.8676 92.465 54.338 91.0626L91.4171 54.1069C97.1825 48.3709 92.6665 39.1667 84.0792 39.1667Z" fill="#AB9600"/>
<path d="M70.5002 39.1667V7.83333C70.5002 5.7558 69.6749 3.76337 68.2058 2.29433C66.7368 0.825295 64.7444 0 62.6668 0L54.8335 0C56.911 0 58.9035 0.825295 60.3725 2.29433C61.8415 3.76337 62.6668 5.7558 62.6668 7.83333V39.1667H70.5002Z" fill="#AB9600"/>
</g>
<path d="M113.58 61.5V60.7051H114.547C115.392 60.7051 116.036 60.5762 116.48 60.3184C116.939 60.0462 117.275 59.681 117.49 59.2227C117.619 58.9219 117.684 58.0195 117.684 56.5156V37.3516C117.684 35.862 117.605 34.931 117.447 34.5586C117.29 34.1862 116.967 33.8639 116.48 33.5918C116.008 33.3053 115.363 33.1621 114.547 33.1621H113.58V32.3672H126.621C130.102 32.3672 132.902 32.8398 135.021 33.7852C137.614 34.9453 139.576 36.6999 140.908 39.0488C142.255 41.3978 142.928 44.0547 142.928 47.0195C142.928 49.0677 142.598 50.9583 141.939 52.6914C141.281 54.4102 140.428 55.8353 139.383 56.9668C138.337 58.084 137.127 58.9863 135.752 59.6738C134.391 60.347 132.723 60.8698 130.746 61.2422C129.872 61.4141 128.497 61.5 126.621 61.5H113.58ZM124.688 34.0215V56.752C124.688 57.9551 124.745 58.6927 124.859 58.9648C124.974 59.237 125.167 59.4447 125.439 59.5879C125.826 59.8027 126.385 59.9102 127.115 59.9102C129.507 59.9102 131.333 59.0938 132.594 57.4609C134.312 55.2552 135.172 51.832 135.172 47.1914C135.172 43.4531 134.585 40.4668 133.41 38.2324C132.479 36.485 131.283 35.2962 129.822 34.666C128.791 34.222 127.079 34.0072 124.688 34.0215ZM160.594 40.8105C162.341 40.8105 163.967 41.2617 165.471 42.1641C166.975 43.0664 168.113 44.3483 168.887 46.0098C169.675 47.6712 170.069 49.4902 170.069 51.4668C170.069 54.3171 169.345 56.7018 167.899 58.6211C166.151 60.9414 163.738 62.1016 160.658 62.1016C157.636 62.1016 155.309 61.0417 153.676 58.9219C152.043 56.8021 151.227 54.3457 151.227 51.5527C151.227 48.6738 152.057 46.1673 153.719 44.0332C155.395 41.8848 157.686 40.8105 160.594 40.8105ZM160.68 42.3359C159.949 42.3359 159.319 42.6152 158.789 43.1738C158.274 43.7181 157.93 44.8066 157.758 46.4395C157.6 48.0579 157.522 50.3138 157.522 53.207C157.522 54.7396 157.622 56.1719 157.822 57.5039C157.98 58.5208 158.317 59.2943 158.832 59.8242C159.348 60.3542 159.935 60.6191 160.594 60.6191C161.238 60.6191 161.776 60.4401 162.205 60.082C162.764 59.5951 163.136 58.9147 163.322 58.041C163.609 56.6803 163.752 53.9303 163.752 49.791C163.752 47.3561 163.616 45.6875 163.344 44.7852C163.072 43.8685 162.671 43.2025 162.141 42.7871C161.768 42.4863 161.281 42.3359 160.68 42.3359ZM197.875 62.1016L192.375 47.3633L186.983 62.1016H185.866L180.516 47.5352C179.714 45.3151 179.034 43.8685 178.475 43.1953C178.117 42.737 177.573 42.4076 176.842 42.207V41.4121H186.983V42.207C186.295 42.207 185.823 42.3073 185.565 42.5078C185.307 42.7083 185.178 42.9375 185.178 43.1953C185.178 43.4388 185.407 44.1693 185.866 45.3867L188.809 53.2285L191.645 45.3867L191.43 44.8711C191 43.7969 190.621 43.1165 190.291 42.8301C189.976 42.5293 189.482 42.3216 188.809 42.207V41.4121H199.1V42.207C198.298 42.25 197.789 42.3646 197.575 42.5508C197.36 42.7227 197.252 42.9733 197.252 43.3027C197.252 43.6178 197.46 44.3125 197.875 45.3867L200.711 53.2285L203.289 46.0098C203.662 44.9785 203.848 44.2767 203.848 43.9043C203.848 43.3457 203.712 42.9375 203.44 42.6797C203.168 42.4219 202.638 42.2643 201.85 42.207V41.4121H207.801V42.207C207.142 42.293 206.619 42.5293 206.233 42.916C205.846 43.2884 205.345 44.3626 204.729 46.1387L199.1 62.1016H197.875ZM222.803 41.4121V44.0117C223.834 42.8945 224.823 42.0853 225.768 41.584C226.713 41.0684 227.73 40.8105 228.819 40.8105C230.122 40.8105 231.204 41.1758 232.063 41.9062C232.922 42.6224 233.495 43.5176 233.782 44.5918C234.011 45.4082 234.125 46.9766 234.125 49.2969V57.1172C234.125 58.6641 234.262 59.6309 234.534 60.0176C234.82 60.39 235.407 60.6263 236.295 60.7266V61.5H226.133V60.7266C226.892 60.6263 227.437 60.3112 227.766 59.7812C227.995 59.4232 228.11 58.5352 228.11 57.1172V48.1797C228.11 46.5326 228.045 45.4941 227.916 45.0645C227.788 44.6348 227.566 44.3053 227.25 44.0762C226.95 43.8327 226.613 43.7109 226.241 43.7109C225.009 43.7109 223.863 44.5918 222.803 46.3535V57.1172C222.803 58.6211 222.939 59.5736 223.211 59.9746C223.498 60.3757 224.021 60.6263 224.78 60.7266V61.5H214.618V60.7266C215.463 60.6406 216.064 60.3685 216.422 59.9102C216.666 59.5951 216.788 58.6641 216.788 57.1172V45.7734C216.788 44.2552 216.644 43.3099 216.358 42.9375C216.086 42.5651 215.506 42.3216 214.618 42.207V41.4121H222.803ZM251.792 32.3672V57.332C251.792 58.75 251.956 59.6595 252.286 60.0605C252.615 60.4473 253.26 60.6693 254.219 60.7266V61.5H243.37V60.7266C244.258 60.6979 244.917 60.4401 245.346 59.9531C245.633 59.6237 245.776 58.75 245.776 57.332V36.5352C245.776 35.1315 245.611 34.2363 245.282 33.8496C244.952 33.4486 244.315 33.2194 243.37 33.1621V32.3672H251.792ZM270.489 40.8105C272.236 40.8105 273.862 41.2617 275.366 42.1641C276.87 43.0664 278.009 44.3483 278.782 46.0098C279.57 47.6712 279.964 49.4902 279.964 51.4668C279.964 54.3171 279.24 56.7018 277.794 58.6211C276.046 60.9414 273.633 62.1016 270.554 62.1016C267.531 62.1016 265.204 61.0417 263.571 58.9219C261.938 56.8021 261.122 54.3457 261.122 51.5527C261.122 48.6738 261.953 46.1673 263.614 44.0332C265.29 41.8848 267.582 40.8105 270.489 40.8105ZM270.575 42.3359C269.845 42.3359 269.214 42.6152 268.684 43.1738C268.169 43.7181 267.825 44.8066 267.653 46.4395C267.496 48.0579 267.417 50.3138 267.417 53.207C267.417 54.7396 267.517 56.1719 267.718 57.5039C267.875 58.5208 268.212 59.2943 268.727 59.8242C269.243 60.3542 269.83 60.6191 270.489 60.6191C271.134 60.6191 271.671 60.4401 272.1 60.082C272.659 59.5951 273.031 58.9147 273.218 58.041C273.504 56.6803 273.647 53.9303 273.647 49.791C273.647 47.3561 273.511 45.6875 273.239 44.7852C272.967 43.8685 272.566 43.2025 272.036 42.7871C271.664 42.4863 271.177 42.3359 270.575 42.3359ZM298.94 58.5352C296.491 60.6979 294.293 61.7793 292.345 61.7793C291.199 61.7793 290.246 61.4069 289.487 60.6621C288.728 59.903 288.349 58.9577 288.349 57.8262C288.349 56.2936 289.007 54.9186 290.325 53.7012C291.643 52.4694 294.515 50.8366 298.94 48.8027V46.7832C298.94 45.265 298.854 44.3125 298.683 43.9258C298.525 43.5247 298.217 43.181 297.759 42.8945C297.3 42.5938 296.785 42.4434 296.212 42.4434C295.281 42.4434 294.515 42.651 293.913 43.0664C293.541 43.3242 293.354 43.625 293.354 43.9688C293.354 44.2695 293.555 44.6419 293.956 45.0859C294.5 45.7018 294.772 46.2962 294.772 46.8691C294.772 47.571 294.507 48.1725 293.978 48.6738C293.462 49.1608 292.782 49.4043 291.936 49.4043C291.034 49.4043 290.275 49.1322 289.659 48.5879C289.058 48.0436 288.757 47.4062 288.757 46.6758C288.757 45.6445 289.165 44.6634 289.981 43.7324C290.798 42.7871 291.936 42.0638 293.397 41.5625C294.858 41.0612 296.377 40.8105 297.952 40.8105C299.857 40.8105 301.361 41.2188 302.464 42.0352C303.581 42.8372 304.304 43.7109 304.634 44.6562C304.834 45.2578 304.935 46.64 304.935 48.8027V56.6016C304.935 57.5182 304.97 58.0983 305.042 58.3418C305.114 58.571 305.221 58.7428 305.364 58.8574C305.507 58.972 305.672 59.0293 305.858 59.0293C306.231 59.0293 306.61 58.7643 306.997 58.2344L307.642 58.75C306.925 59.8099 306.181 60.5833 305.407 61.0703C304.648 61.543 303.782 61.7793 302.808 61.7793C301.662 61.7793 300.767 61.5143 300.122 60.9844C299.478 60.4401 299.084 59.6237 298.94 58.5352ZM298.94 56.9668V50.2422C297.207 51.2591 295.918 52.3477 295.073 53.5078C294.515 54.2812 294.235 55.0618 294.235 55.8496C294.235 56.5085 294.472 57.0885 294.944 57.5898C295.302 57.9766 295.804 58.1699 296.448 58.1699C297.164 58.1699 297.995 57.7689 298.94 56.9668ZM334.224 32.3672V55.4844C334.224 57.0456 334.267 57.9694 334.353 58.2559C334.467 58.7285 334.682 59.0794 334.997 59.3086C335.327 59.5378 335.892 59.681 336.694 59.7383V60.4473L328.208 62.1016V58.9219C327.191 60.1536 326.282 60.9915 325.48 61.4355C324.692 61.8796 323.797 62.1016 322.794 62.1016C320.23 62.1016 318.204 60.9557 316.714 58.6641C315.511 56.8021 314.909 54.5176 314.909 51.8105C314.909 49.6478 315.282 47.7142 316.026 46.0098C316.771 44.291 317.788 42.9948 319.077 42.1211C320.381 41.2474 321.777 40.8105 323.267 40.8105C324.226 40.8105 325.079 40.9967 325.823 41.3691C326.568 41.7415 327.363 42.3932 328.208 43.3242V37.2656C328.208 35.7331 328.144 34.8092 328.015 34.4941C327.843 34.0788 327.585 33.7708 327.241 33.5703C326.898 33.3698 326.253 33.2695 325.308 33.2695V32.3672H334.224ZM328.208 45.9883C327.148 43.9544 325.852 42.9375 324.319 42.9375C323.79 42.9375 323.353 43.0807 323.009 43.3672C322.479 43.8112 322.042 44.5918 321.698 45.709C321.369 46.8262 321.204 48.5378 321.204 50.8438C321.204 53.3789 321.39 55.2552 321.763 56.4727C322.135 57.6901 322.644 58.571 323.288 59.1152C323.618 59.3874 324.069 59.5234 324.642 59.5234C325.902 59.5234 327.091 58.5352 328.208 56.5586V45.9883ZM379.353 51.5742L387.259 32.3672H399.119V33.1621H398.173C397.314 33.1621 396.626 33.3125 396.111 33.6133C395.753 33.8138 395.466 34.1504 395.251 34.623C395.094 34.9668 395.015 35.862 395.015 37.3086V56.5156C395.015 58.0052 395.094 58.9362 395.251 59.3086C395.409 59.681 395.731 60.0104 396.218 60.2969C396.705 60.569 397.357 60.7051 398.173 60.7051H399.119V61.5H383.908V60.7051H384.853C385.712 60.7051 386.4 60.5547 386.915 60.2539C387.274 60.0534 387.56 59.7096 387.775 59.2227C387.932 58.8789 388.011 57.9766 388.011 56.5156V34.9238L376.839 61.5H376.324L364.98 35.1172V55.6348C364.98 57.0671 365.016 57.9479 365.087 58.2773C365.274 58.9935 365.675 59.5807 366.29 60.0391C366.921 60.4831 367.902 60.7051 369.234 60.7051V61.5H359.265V60.7051H359.566C360.21 60.7194 360.812 60.6191 361.371 60.4043C361.929 60.1751 362.352 59.8743 362.638 59.502C362.925 59.1296 363.147 58.6068 363.304 57.9336C363.333 57.776 363.347 57.0456 363.347 55.7422V37.3086C363.347 35.8333 363.268 34.9167 363.111 34.5586C362.953 34.1862 362.631 33.8639 362.144 33.5918C361.657 33.3053 361.005 33.1621 360.189 33.1621H359.265V32.3672H371.167L379.353 51.5742ZM415.474 62.3164L408.986 47.4277C408.012 45.179 407.289 43.7969 406.816 43.2812C406.358 42.7656 405.799 42.4076 405.14 42.207V41.4121H415.818V42.207C415.116 42.2357 414.622 42.3717 414.336 42.6152C414.049 42.8587 413.906 43.1523 413.906 43.4961C413.906 44.0404 414.264 45.1146 414.98 46.7188L418.418 54.582L420.759 48.502C421.604 46.3392 422.027 44.8353 422.027 43.9902C422.027 43.4603 421.848 43.0378 421.49 42.7227C421.146 42.4076 420.53 42.2357 419.642 42.207V41.4121H426.367V42.207C425.708 42.2786 425.171 42.5365 424.755 42.9805C424.34 43.4102 423.645 44.8926 422.671 47.4277L416.935 62.3164C415.489 66.0404 414.414 68.332 413.712 69.1914C412.724 70.3945 411.485 70.9961 409.996 70.9961C408.807 70.9961 407.84 70.6523 407.095 69.9648C406.365 69.2917 406 68.4753 406 67.5156C406 66.6849 406.25 65.9974 406.752 65.4531C407.267 64.9089 407.897 64.6367 408.642 64.6367C409.358 64.6367 409.931 64.8659 410.361 65.3242C410.805 65.7826 411.034 66.4915 411.048 67.4512C411.063 67.9954 411.127 68.3464 411.242 68.5039C411.356 68.6615 411.521 68.7402 411.736 68.7402C412.08 68.7402 412.445 68.5326 412.832 68.1172C413.405 67.5156 414.078 66.1406 414.851 63.9922L415.474 62.3164ZM459.143 48.2227V56.3867C459.143 57.9622 459.236 58.9577 459.422 59.373C459.622 59.7741 459.966 60.0964 460.453 60.3398C460.94 60.5833 461.85 60.7051 463.182 60.7051V61.5H448.271V60.7051C449.618 60.7051 450.527 60.5833 451 60.3398C451.487 60.082 451.824 59.7526 452.01 59.3516C452.21 58.9505 452.31 57.9622 452.31 56.3867V37.4805C452.31 35.9049 452.21 34.9167 452.01 34.5156C451.824 34.1003 451.487 33.7708 451 33.5273C450.513 33.2839 449.603 33.1621 448.271 33.1621V32.3672H461.807C465.33 32.3672 467.908 32.6107 469.541 33.0977C471.174 33.5846 472.506 34.487 473.537 35.8047C474.568 37.1081 475.084 38.6406 475.084 40.4023C475.084 42.5508 474.31 44.3268 472.764 45.7305C471.775 46.6185 470.393 47.2845 468.617 47.7285L475.621 57.5898C476.538 58.8646 477.189 59.6595 477.576 59.9746C478.163 60.4186 478.844 60.6621 479.617 60.7051V61.5H470.443L461.055 48.2227H459.143ZM459.143 33.9355V46.6973H460.367C462.358 46.6973 463.848 46.5182 464.836 46.1602C465.824 45.7878 466.598 45.1289 467.156 44.1836C467.729 43.224 468.016 41.9779 468.016 40.4453C468.016 38.2253 467.493 36.5853 466.447 35.5254C465.416 34.4655 463.747 33.9355 461.441 33.9355H459.143ZM502.59 50.7363H491.568C491.697 53.4004 492.406 55.5059 493.695 57.0527C494.684 58.2415 495.872 58.8359 497.262 58.8359C498.121 58.8359 498.902 58.5996 499.604 58.127C500.305 57.64 501.057 56.7734 501.859 55.5273L502.59 56C501.501 58.2201 500.298 59.7956 498.981 60.7266C497.663 61.6432 496.137 62.1016 494.404 62.1016C491.425 62.1016 489.169 60.9557 487.637 58.6641C486.405 56.8164 485.789 54.5247 485.789 51.7891C485.789 48.4375 486.691 45.7734 488.496 43.7969C490.315 41.806 492.442 40.8105 494.877 40.8105C496.911 40.8105 498.673 41.6484 500.162 43.3242C501.666 44.9857 502.475 47.4564 502.59 50.7363ZM497.305 49.2969C497.305 46.9909 497.176 45.4082 496.918 44.5488C496.675 43.6895 496.288 43.0378 495.758 42.5938C495.457 42.3359 495.056 42.207 494.555 42.207C493.81 42.207 493.201 42.5723 492.729 43.3027C491.884 44.5775 491.461 46.3249 491.461 48.5449V49.2969H497.305ZM522.662 40.8535L522.985 47.707H522.254C521.38 45.6732 520.471 44.2839 519.526 43.5391C518.595 42.7943 517.664 42.4219 516.733 42.4219C516.145 42.4219 515.644 42.6224 515.229 43.0234C514.813 43.4102 514.606 43.8613 514.606 44.377C514.606 44.7637 514.749 45.1361 515.035 45.4941C515.494 46.0814 516.776 47.0911 518.881 48.5234C520.987 49.9414 522.369 51.1517 523.028 52.1543C523.701 53.1426 524.037 54.2526 524.037 55.4844C524.037 56.6016 523.758 57.6973 523.199 58.7715C522.641 59.8457 521.853 60.6693 520.836 61.2422C519.819 61.8151 518.695 62.1016 517.463 62.1016C516.503 62.1016 515.222 61.8008 513.617 61.1992C513.188 61.0417 512.894 60.9629 512.737 60.9629C512.264 60.9629 511.87 61.321 511.555 62.0371H510.846L510.502 54.8184H511.233C511.877 56.709 512.758 58.127 513.875 59.0723C515.007 60.0176 516.074 60.4902 517.076 60.4902C517.764 60.4902 518.323 60.2826 518.752 59.8672C519.196 59.4375 519.418 58.9219 519.418 58.3203C519.418 57.6328 519.203 57.0384 518.774 56.5371C518.344 56.0358 517.384 55.2767 515.895 54.2598C513.703 52.7415 512.285 51.5814 511.641 50.7793C510.696 49.6048 510.223 48.3086 510.223 46.8906C510.223 45.3438 510.753 43.9473 511.813 42.7012C512.887 41.4408 514.434 40.8105 516.453 40.8105C517.542 40.8105 518.595 41.0755 519.612 41.6055C519.998 41.8203 520.313 41.9277 520.557 41.9277C520.815 41.9277 521.022 41.8776 521.18 41.7773C521.337 41.6628 521.588 41.3548 521.932 40.8535H522.662ZM551.35 41.4121V57.1387C551.35 58.6712 551.493 59.6309 551.78 60.0176C552.066 60.39 552.646 60.6263 553.52 60.7266V61.5H545.334V58.8145C544.375 59.9603 543.415 60.7982 542.455 61.3281C541.496 61.8438 540.422 62.1016 539.233 62.1016C538.101 62.1016 537.092 61.7578 536.204 61.0703C535.33 60.3685 534.743 59.5521 534.442 58.6211C534.141 57.6901 533.991 56.0645 533.991 53.7441V45.7734C533.991 44.2552 533.847 43.3099 533.561 42.9375C533.289 42.5651 532.709 42.3216 531.821 42.207V41.4121H540.006V55.1406C540.006 56.5729 540.071 57.4967 540.2 57.9121C540.343 58.3275 540.558 58.6426 540.844 58.8574C541.145 59.0723 541.489 59.1797 541.875 59.1797C542.391 59.1797 542.857 59.0436 543.272 58.7715C543.845 58.3991 544.532 57.6471 545.334 56.5156V45.7734C545.334 44.2552 545.191 43.3099 544.905 42.9375C544.633 42.5651 544.052 42.3216 543.164 42.207V41.4121H551.35ZM569.618 41.4121V44.0547C570.721 42.8516 571.738 42.0137 572.669 41.541C573.614 41.054 574.645 40.8105 575.762 40.8105C577.051 40.8105 578.133 41.1113 579.006 41.7129C579.88 42.3145 580.553 43.2311 581.026 44.4629C582.172 43.1738 583.267 42.2428 584.313 41.6699C585.373 41.097 586.476 40.8105 587.622 40.8105C589.011 40.8105 590.114 41.1328 590.93 41.7773C591.761 42.4076 592.334 43.2168 592.649 44.2051C592.978 45.179 593.143 46.7402 593.143 48.8887V57.1172C593.143 58.6641 593.279 59.6237 593.551 59.9961C593.838 60.3685 594.425 60.612 595.313 60.7266V61.5H584.936V60.7266C585.753 60.6549 586.354 60.3398 586.741 59.7812C586.999 59.3945 587.128 58.5065 587.128 57.1172V48.4805C587.128 46.6901 587.056 45.5514 586.913 45.0645C586.769 44.5775 586.54 44.2194 586.225 43.9902C585.924 43.7467 585.566 43.625 585.151 43.625C584.535 43.625 583.912 43.8542 583.282 44.3125C582.652 44.7565 582.014 45.4297 581.37 46.332V57.1172C581.37 58.5638 581.491 59.4733 581.735 59.8457C582.064 60.3757 582.695 60.6693 583.626 60.7266V61.5H573.227V60.7266C573.786 60.6979 574.223 60.5618 574.538 60.3184C574.867 60.0605 575.082 59.7598 575.182 59.416C575.297 59.0579 575.354 58.2917 575.354 57.1172V48.4805C575.354 46.6615 575.282 45.5228 575.139 45.0645C574.996 44.6061 574.753 44.248 574.409 43.9902C574.079 43.7324 573.721 43.6035 573.335 43.6035C572.762 43.6035 572.239 43.7539 571.766 44.0547C571.093 44.4987 570.377 45.2578 569.618 46.332V57.1172C569.618 58.5352 569.754 59.4733 570.026 59.9316C570.312 60.3757 570.9 60.6406 571.788 60.7266V61.5H561.432V60.7266C562.277 60.6406 562.879 60.3685 563.237 59.9102C563.48 59.5951 563.602 58.6641 563.602 57.1172V45.7734C563.602 44.2552 563.459 43.3099 563.172 42.9375C562.9 42.5651 562.32 42.3216 561.432 42.207V41.4121H569.618ZM619.79 50.7363H608.768C608.897 53.4004 609.606 55.5059 610.895 57.0527C611.884 58.2415 613.072 58.8359 614.462 58.8359C615.321 58.8359 616.102 58.5996 616.803 58.127C617.505 57.64 618.257 56.7734 619.059 55.5273L619.79 56C618.701 58.2201 617.498 59.7956 616.18 60.7266C614.863 61.6432 613.337 62.1016 611.604 62.1016C608.625 62.1016 606.369 60.9557 604.837 58.6641C603.605 56.8164 602.989 54.5247 602.989 51.7891C602.989 48.4375 603.891 45.7734 605.696 43.7969C607.515 41.806 609.642 40.8105 612.077 40.8105C614.111 40.8105 615.872 41.6484 617.362 43.3242C618.866 44.9857 619.675 47.4564 619.79 50.7363ZM614.505 49.2969C614.505 46.9909 614.376 45.4082 614.118 44.5488C613.874 43.6895 613.488 43.0378 612.958 42.5938C612.657 42.3359 612.256 42.207 611.755 42.207C611.01 42.207 610.401 42.5723 609.928 43.3027C609.083 44.5775 608.661 46.3249 608.661 48.5449V49.2969H614.505Z" fill="white"/>
<defs>
<clipPath id="clip0_241_2428">
<rect width="94" height="94" fill="white"/>
</clipPath>
</defs>
</svg>
