<svg width="289" height="630" viewBox="0 0 289 630" fill="none" xmlns="http://www.w3.org/2000/svg">
<g filter="url(#filter0_iiii_33_2976)">
<rect x="104.924" y="550.852" width="26.2311" height="26.2311" fill="#215367" fill-opacity="0.5"/>
<rect x="131.156" y="577.083" width="26.2311" height="26.2311" fill="#215367" fill-opacity="0.5"/>
<rect x="157.387" y="603.314" width="26.2311" height="26.2311" fill="#215367" fill-opacity="0.5"/>
<rect x="131.156" y="603.314" width="26.2311" height="26.2311" fill="#215367" fill-opacity="0.5"/>
<rect x="104.924" y="577.083" width="26.2311" height="26.2311" fill="#215367" fill-opacity="0.5"/>
<rect x="78.6934" y="550.852" width="26.2311" height="26.2311" fill="#215367" fill-opacity="0.5"/>
<rect x="157.387" y="472.159" width="26.2311" height="26.2311" fill="#32878A" fill-opacity="0.5"/>
<rect x="131.156" y="498.39" width="26.2311" height="26.2311" fill="#32878A" fill-opacity="0.5"/>
<rect x="131.156" y="524.621" width="26.2311" height="26.2311" fill="#32878A" fill-opacity="0.5"/>
<rect x="78.6934" y="524.621" width="26.2311" height="26.2311" fill="#32878A" fill-opacity="0.5"/>
<rect x="104.924" y="524.621" width="26.2311" height="26.2311" fill="#32878A" fill-opacity="0.5"/>
<rect x="104.924" y="498.39" width="26.2311" height="26.2311" fill="#32878A" fill-opacity="0.5"/>
<rect x="104.924" y="472.159" width="26.2311" height="26.2311" fill="#32878A" fill-opacity="0.5"/>
<rect x="131.156" y="472.159" width="26.2311" height="26.2311" fill="#32878A" fill-opacity="0.5"/>
<rect x="131.156" y="393.466" width="26.2311" height="26.2311" fill="#92CCB5" fill-opacity="0.5"/>
<rect x="157.387" y="393.466" width="26.2311" height="26.2311" fill="#92CCB5" fill-opacity="0.5"/>
<rect x="183.618" y="393.466" width="26.2311" height="26.2311" fill="#92CCB5" fill-opacity="0.5"/>
<rect x="157.387" y="419.697" width="26.2311" height="26.2311" fill="#92CCB5" fill-opacity="0.5"/>
<rect x="157.387" y="445.928" width="26.2311" height="26.2311" fill="#92CCB5" fill-opacity="0.5"/>
<rect x="131.156" y="445.928" width="26.2311" height="26.2311" fill="#92CCB5" fill-opacity="0.5"/>
<rect x="131.156" y="419.697" width="26.2311" height="26.2311" fill="#92CCB5" fill-opacity="0.5"/>
<rect x="104.924" y="393.466" width="26.2311" height="26.2311" fill="#92CCB5" fill-opacity="0.5"/>
<rect x="78.6934" y="393.466" width="26.2311" height="26.2311" fill="#92CCB5" fill-opacity="0.5"/>
<rect x="104.924" y="52.462" width="26.2311" height="26.2311" fill="#872326" fill-opacity="0.5"/>
<rect x="131.155" y="52.462" width="26.2311" height="26.2311" fill="#872326" fill-opacity="0.5"/>
<rect x="157.386" y="52.462" width="26.2311" height="26.2311" fill="#872326" fill-opacity="0.5"/>
<rect x="183.617" y="26.2311" width="26.2311" height="26.2311" fill="#872326" fill-opacity="0.5"/>
<rect x="209.849" width="26.2311" height="26.2311" fill="#872326" fill-opacity="0.5"/>
<rect x="209.849" y="26.2311" width="26.2311" height="26.2311" fill="#872326" fill-opacity="0.5"/>
<rect x="209.849" y="52.462" width="26.2311" height="26.2311" fill="#872326" fill-opacity="0.5"/>
<rect x="52.4619" y="52.462" width="26.2311" height="26.2311" fill="#872326" fill-opacity="0.5"/>
<rect x="52.4619" y="26.2311" width="26.2311" height="26.2311" fill="#872326" fill-opacity="0.5"/>
<rect x="52.4619" width="26.2311" height="26.2311" fill="#872326" fill-opacity="0.5"/>
<rect x="78.6929" y="26.2311" width="26.2311" height="26.2311" fill="#872326" fill-opacity="0.5"/>
<rect x="78.6929" y="52.462" width="26.2311" height="26.2311" fill="#872326" fill-opacity="0.5"/>
<rect x="183.617" y="52.462" width="26.2311" height="26.2311" fill="#872326" fill-opacity="0.5"/>
<rect x="104.924" y="78.6932" width="26.2311" height="26.2311" fill="#A73B17" fill-opacity="0.5"/>
<rect x="104.924" y="104.924" width="26.2311" height="26.2311" fill="#A73B17" fill-opacity="0.5"/>
<rect x="104.924" y="131.155" width="26.2311" height="26.2311" fill="#A73B17" fill-opacity="0.5"/>
<rect x="131.155" y="78.6932" width="26.2311" height="26.2311" fill="#A73B17" fill-opacity="0.5"/>
<rect x="131.155" y="104.924" width="26.2311" height="26.2311" fill="#A73B17" fill-opacity="0.5"/>
<rect x="131.155" y="131.155" width="26.2311" height="26.2311" fill="#A73B17" fill-opacity="0.5"/>
<rect x="157.386" y="78.6932" width="26.2311" height="26.2311" fill="#A73B17" fill-opacity="0.5"/>
<rect x="157.386" y="104.924" width="26.2311" height="26.2311" fill="#A73B17" fill-opacity="0.5"/>
<rect x="157.386" y="131.155" width="26.2311" height="26.2311" fill="#A73B17" fill-opacity="0.5"/>
<rect x="209.849" y="78.6932" width="26.2311" height="26.2311" fill="#A73B17" fill-opacity="0.5"/>
<rect x="209.849" y="104.924" width="26.2311" height="26.2311" fill="#A73B17" fill-opacity="0.5"/>
<rect x="236.08" y="78.6932" width="26.2311" height="26.2311" fill="#A73B17" fill-opacity="0.5"/>
<rect x="236.08" y="104.924" width="26.2311" height="26.2311" fill="#A73B17" fill-opacity="0.5"/>
<rect x="209.849" y="131.155" width="26.2311" height="26.2311" fill="#A73B17" fill-opacity="0.5"/>
<rect x="52.4619" y="131.155" width="26.2311" height="26.2311" fill="#A73B17" fill-opacity="0.5"/>
<rect x="26.231" y="104.924" width="26.2311" height="26.2311" fill="#A73B17" fill-opacity="0.5"/>
<rect x="26.231" y="78.6932" width="26.2311" height="26.2311" fill="#A73B17" fill-opacity="0.5"/>
<rect x="52.4619" y="78.6932" width="26.2311" height="26.2311" fill="#A73B17" fill-opacity="0.5"/>
<rect x="52.4619" y="104.924" width="26.2311" height="26.2311" fill="#A73B17" fill-opacity="0.5"/>
<rect x="78.6929" y="78.6932" width="26.2311" height="26.2311" fill="#A73B17" fill-opacity="0.5"/>
<rect x="78.6929" y="104.924" width="26.2311" height="26.2311" fill="#A73B17" fill-opacity="0.5"/>
<rect x="78.6929" y="131.155" width="26.2311" height="26.2311" fill="#A73B17" fill-opacity="0.5"/>
<rect x="183.617" y="78.6932" width="26.2311" height="26.2311" fill="#A73B17" fill-opacity="0.5"/>
<rect x="183.617" y="104.924" width="26.2311" height="26.2311" fill="#A73B17" fill-opacity="0.5"/>
<rect x="183.617" y="131.155" width="26.2311" height="26.2311" fill="#A73B17" fill-opacity="0.5"/>
<rect x="104.924" y="157.386" width="26.2311" height="26.2311" fill="#B7611A" fill-opacity="0.5"/>
<rect x="104.924" y="183.617" width="26.2311" height="26.2311" fill="#B7611A" fill-opacity="0.5"/>
<rect x="104.924" y="209.848" width="26.2311" height="26.2311" fill="#B7611A" fill-opacity="0.5"/>
<rect x="131.155" y="157.386" width="26.2311" height="26.2311" fill="#B7611A" fill-opacity="0.5"/>
<rect x="131.155" y="183.617" width="26.2311" height="26.2311" fill="#B7611A" fill-opacity="0.5"/>
<rect x="131.155" y="209.848" width="26.2311" height="26.2311" fill="#B7611A" fill-opacity="0.5"/>
<rect x="157.386" y="157.386" width="26.2311" height="26.2311" fill="#B7611A" fill-opacity="0.5"/>
<rect x="157.386" y="183.617" width="26.2311" height="26.2311" fill="#B7611A" fill-opacity="0.5"/>
<rect x="157.386" y="209.848" width="26.2311" height="26.2311" fill="#B7611A" fill-opacity="0.5"/>
<rect x="183.617" y="157.386" width="26.2311" height="26.2311" fill="#B7611A" fill-opacity="0.5"/>
<rect x="209.849" y="183.617" width="26.2311" height="26.2311" fill="#B7611A" fill-opacity="0.5"/>
<rect x="209.849" y="209.848" width="26.2311" height="26.2311" fill="#B7611A" fill-opacity="0.5"/>
<rect x="52.4619" y="209.848" width="26.2311" height="26.2311" fill="#B7611A" fill-opacity="0.5"/>
<rect x="52.4619" y="183.617" width="26.2311" height="26.2311" fill="#B7611A" fill-opacity="0.5"/>
<rect x="78.6929" y="157.386" width="26.2311" height="26.2311" fill="#B7611A" fill-opacity="0.5"/>
<rect x="78.6929" y="183.617" width="26.2311" height="26.2311" fill="#B7611A" fill-opacity="0.5"/>
<rect x="78.6929" y="209.848" width="26.2311" height="26.2311" fill="#B7611A" fill-opacity="0.5"/>
<rect x="183.617" y="183.617" width="26.2311" height="26.2311" fill="#B7611A" fill-opacity="0.5"/>
<rect x="183.617" y="209.848" width="26.2311" height="26.2311" fill="#B7611A" fill-opacity="0.5"/>
<rect x="104.924" y="367.235" width="26.2311" height="26.2311" fill="#D9D9D9"/>
<rect x="78.6934" y="314.773" width="26.2311" height="26.2311" fill="#D9D9D9"/>
<rect x="104.924" y="341.004" width="26.2311" height="26.2311" fill="#D9D9D9"/>
<rect x="131.155" y="367.235" width="26.2311" height="26.2311" fill="#D9D9D9"/>
<rect x="104.924" y="314.773" width="26.2311" height="26.2311" fill="#D9D9D9"/>
<rect x="131.155" y="341.004" width="26.2311" height="26.2311" fill="#D9D9D9"/>
<rect x="157.386" y="367.235" width="26.2311" height="26.2311" fill="#D9D9D9"/>
<rect x="131.155" y="314.773" width="26.2311" height="26.2311" fill="#D9D9D9"/>
<rect x="157.386" y="341.004" width="26.2311" height="26.2311" fill="#D9D9D9"/>
<rect x="209.849" y="314.773" width="26.2311" height="26.2311" fill="#D9D9D9"/>
<rect x="183.617" y="314.773" width="26.2311" height="26.2311" fill="#D9D9D9"/>
<rect x="209.849" y="341.004" width="26.2311" height="26.2311" fill="#D9D9D9"/>
<rect x="236.08" y="314.773" width="26.2311" height="26.2311" fill="#D9D9D9"/>
<rect x="262.311" y="314.773" width="26.2311" height="26.2311" fill="#D9D9D9"/>
<rect x="236.08" y="341.004" width="26.2311" height="26.2311" fill="#D9D9D9"/>
<rect x="209.849" y="367.235" width="26.2311" height="26.2311" fill="#D9D9D9"/>
<rect x="52.4619" y="367.235" width="26.2311" height="26.2311" fill="#D9D9D9"/>
<rect x="26.231" y="341.004" width="26.2311" height="26.2311" fill="#D9D9D9"/>
<rect y="314.773" width="26.2311" height="26.2311" fill="#D9D9D9"/>
<rect x="26.231" y="314.773" width="26.2311" height="26.2311" fill="#D9D9D9"/>
<rect x="52.4619" y="341.004" width="26.2311" height="26.2311" fill="#D9D9D9"/>
<rect x="78.6934" y="367.235" width="26.2311" height="26.2311" fill="#D9D9D9"/>
<rect x="52.4619" y="314.773" width="26.2311" height="26.2311" fill="#D9D9D9"/>
<rect x="78.6934" y="341.004" width="26.2311" height="26.2311" fill="#D9D9D9"/>
<rect x="183.617" y="367.235" width="26.2311" height="26.2311" fill="#D9D9D9"/>
<rect x="157.386" y="314.773" width="26.2311" height="26.2311" fill="#D9D9D9"/>
<rect x="183.617" y="341.004" width="26.2311" height="26.2311" fill="#D9D9D9"/>
<rect x="104.924" y="236.08" width="26.2311" height="26.2311" fill="#DF9621" fill-opacity="0.5"/>
<rect x="104.924" y="262.311" width="26.2311" height="26.2311" fill="#DF9621" fill-opacity="0.5"/>
<rect x="78.6934" y="288.542" width="26.2311" height="26.2311" fill="#DF9621" fill-opacity="0.5"/>
<rect x="131.155" y="236.08" width="26.2311" height="26.2311" fill="#DF9621" fill-opacity="0.5"/>
<rect x="131.155" y="262.311" width="26.2311" height="26.2311" fill="#DF9621" fill-opacity="0.5"/>
<rect x="104.924" y="288.542" width="26.2311" height="26.2311" fill="#DF9621" fill-opacity="0.5"/>
<rect x="157.386" y="236.08" width="26.2311" height="26.2311" fill="#DF9621" fill-opacity="0.5"/>
<rect x="157.386" y="262.311" width="26.2311" height="26.2311" fill="#DF9621" fill-opacity="0.5"/>
<rect x="131.155" y="288.542" width="26.2311" height="26.2311" fill="#DF9621" fill-opacity="0.5"/>
<rect x="209.849" y="236.08" width="26.2311" height="26.2311" fill="#DF9621" fill-opacity="0.5"/>
<rect x="209.849" y="262.311" width="26.2311" height="26.2311" fill="#DF9621" fill-opacity="0.5"/>
<rect x="209.849" y="288.542" width="26.2311" height="26.2311" fill="#DF9621" fill-opacity="0.5"/>
<rect x="183.617" y="288.542" width="26.2311" height="26.2311" fill="#DF9621" fill-opacity="0.5"/>
<rect x="236.08" y="262.311" width="26.2311" height="26.2311" fill="#DF9621" fill-opacity="0.5"/>
<rect x="236.08" y="288.542" width="26.2311" height="26.2311" fill="#DF9621" fill-opacity="0.5"/>
<rect x="262.311" y="288.542" width="26.2311" height="26.2311" fill="#DF9621" fill-opacity="0.5"/>
<rect y="288.542" width="26.2311" height="26.2311" fill="#DF9621" fill-opacity="0.5"/>
<rect x="26.231" y="262.311" width="26.2311" height="26.2311" fill="#DF9621" fill-opacity="0.5"/>
<rect x="26.231" y="236.08" width="26.2311" height="26.2311" fill="#DF9621" fill-opacity="0.5"/>
<rect x="52.4619" y="236.08" width="26.2311" height="26.2311" fill="#DF9621" fill-opacity="0.5"/>
<rect x="52.4619" y="262.311" width="26.2311" height="26.2311" fill="#DF9621" fill-opacity="0.5"/>
<rect x="26.231" y="288.542" width="26.2311" height="26.2311" fill="#DF9621" fill-opacity="0.5"/>
<rect x="78.6934" y="236.08" width="26.2311" height="26.2311" fill="#DF9621" fill-opacity="0.5"/>
<rect x="78.6934" y="262.311" width="26.2311" height="26.2311" fill="#DF9621" fill-opacity="0.5"/>
<rect x="52.4619" y="288.542" width="26.2311" height="26.2311" fill="#DF9621" fill-opacity="0.5"/>
<rect x="183.617" y="236.08" width="26.2311" height="26.2311" fill="#DF9621" fill-opacity="0.5"/>
<rect x="183.617" y="262.311" width="26.2311" height="26.2311" fill="#DF9621" fill-opacity="0.5"/>
<rect x="157.386" y="288.542" width="26.2311" height="26.2311" fill="#DF9621" fill-opacity="0.5"/>
<rect x="236.08" y="236.08" width="26.2311" height="26.2311" fill="#DF9621" fill-opacity="0.5"/>
</g>
<defs>
<filter id="filter0_iiii_33_2976" x="-30" y="-30" width="348.542" height="689.545" filterUnits="userSpaceOnUse" color-interpolation-filters="sRGB">
<feFlood flood-opacity="0" result="BackgroundImageFix"/>
<feBlend mode="normal" in="SourceGraphic" in2="BackgroundImageFix" result="shape"/>
<feColorMatrix in="SourceAlpha" type="matrix" values="0 0 0 0 0 0 0 0 0 0 0 0 0 0 0 0 0 0 127 0" result="hardAlpha"/>
<feOffset dy="15"/>
<feGaussianBlur stdDeviation="15"/>
<feComposite in2="hardAlpha" operator="arithmetic" k2="-1" k3="1"/>
<feColorMatrix type="matrix" values="0 0 0 0 1 0 0 0 0 1 0 0 0 0 1 0 0 0 0.2 0"/>
<feBlend mode="normal" in2="shape" result="effect1_innerShadow_33_2976"/>
<feColorMatrix in="SourceAlpha" type="matrix" values="0 0 0 0 0 0 0 0 0 0 0 0 0 0 0 0 0 0 127 0" result="hardAlpha"/>
<feOffset/>
<feGaussianBlur stdDeviation="7.5"/>
<feComposite in2="hardAlpha" operator="arithmetic" k2="-1" k3="1"/>
<feColorMatrix type="matrix" values="0 0 0 0 1 0 0 0 0 1 0 0 0 0 1 0 0 0 0.2 0"/>
<feBlend mode="normal" in2="effect1_innerShadow_33_2976" result="effect2_innerShadow_33_2976"/>
<feColorMatrix in="SourceAlpha" type="matrix" values="0 0 0 0 0 0 0 0 0 0 0 0 0 0 0 0 0 0 127 0" result="hardAlpha"/>
<feOffset dx="1" dy="1"/>
<feGaussianBlur stdDeviation="0.5"/>
<feComposite in2="hardAlpha" operator="arithmetic" k2="-1" k3="1"/>
<feColorMatrix type="matrix" values="0 0 0 0 1 0 0 0 0 1 0 0 0 0 1 0 0 0 0.5 0"/>
<feBlend mode="normal" in2="effect2_innerShadow_33_2976" result="effect3_innerShadow_33_2976"/>
<feColorMatrix in="SourceAlpha" type="matrix" values="0 0 0 0 0 0 0 0 0 0 0 0 0 0 0 0 0 0 127 0" result="hardAlpha"/>
<feOffset/>
<feGaussianBlur stdDeviation="1"/>
<feComposite in2="hardAlpha" operator="arithmetic" k2="-1" k3="1"/>
<feColorMatrix type="matrix" values="0 0 0 0 1 0 0 0 0 1 0 0 0 0 1 0 0 0 0.7 0"/>
<feBlend mode="normal" in2="effect3_innerShadow_33_2976" result="effect4_innerShadow_33_2976"/>
</filter>
</defs>
</svg>
