<svg width="99" height="99" viewBox="0 0 99 99" fill="none" xmlns="http://www.w3.org/2000/svg">
<rect width="99" height="99" rx="49.5" fill="#252C37"/>
<path d="M68.2737 47.2436C67.4401 47.4249 67.0232 47.7692 67.0232 48.2766C67.0232 48.4941 67.1139 48.784 67.2951 49.1465L73.6017 61.814L80.017 48.0048C80.0533 47.9323 80.0714 47.8235 80.0714 47.6786C80.0714 47.4973 79.9808 47.3705 79.7995 47.298C79.6183 47.2255 79.3465 47.153 78.984 47.0805L77.5705 46.9174V46.1019H83.8227V46.9174L82.4092 47.1349C81.9742 47.2074 81.6662 47.298 81.4849 47.4067C81.3037 47.5155 81.1225 47.7692 80.9413 48.1679L69.9047 73.503H68.9261L59.3031 55.1812L51.3111 73.503H50.3325L37.1756 48.3853C36.9944 48.0591 36.7769 47.8235 36.5232 47.6786C36.3058 47.5336 36.0158 47.4249 35.6534 47.3524L34.0223 46.9174V46.1019H50.6587V46.9174L49.6801 47.1349C48.8465 47.3161 48.4297 47.6967 48.4297 48.2766C48.4297 48.4941 48.5203 48.784 48.7015 49.1465L55.0081 61.814L58.4876 53.659L55.7692 48.3853C55.588 48.0229 55.3887 47.7692 55.1712 47.6242C54.99 47.443 54.7544 47.3161 54.4644 47.2436L53.1596 46.9174V46.1019H69.6872V46.9174L68.2737 47.2436Z" fill="url(#paint0_linear_159_1644)"/>
<path d="M47.9378 61.5374H47.2304L31.1368 29.4975L29.3977 49.4524C29.2995 50.5528 29.2503 51.5943 29.2503 52.5768C29.2503 55.4458 29.83 57.6564 30.9894 59.2088C32.1684 60.7612 34.0647 61.8321 36.6782 62.4216V63.3354H20.5845V62.4216C22.019 61.9107 23.2864 61.1444 24.3869 60.1225C25.4873 59.0811 26.3323 57.8726 26.9218 56.497C27.5506 54.984 28.0124 52.5768 28.3071 49.2755L30.1641 28.0237C29.4174 26.6285 28.5626 25.6264 27.5997 25.0172C26.6368 24.408 25.4185 24.074 23.9447 24.015V23.1013H38.2109C38.1323 23.2978 38.0832 23.4255 38.0635 23.4845C37.6901 24.3884 37.5035 25.0958 37.5035 25.6067C37.5035 26.5499 38.0046 28.0237 39.0067 30.028L50.4137 52.6652L59.8459 30.647C60.5926 28.8785 60.966 27.5324 60.966 26.6089C60.966 25.6657 60.573 24.4965 59.787 23.1013H73.9647V24.015C71.9996 24.2901 70.575 24.8698 69.6907 25.7541C68.8065 26.6187 68.3643 27.896 68.3643 29.5859C68.3643 30.1165 68.3938 30.6175 68.4528 31.0892L68.5412 31.826L71.0171 53.6969C71.0564 53.9916 71.0859 54.2471 71.1056 54.4632C71.1449 54.6794 71.2431 55.2984 71.4003 56.3202C71.6951 58.2263 72.2748 59.6411 73.1394 60.5647C74.0236 61.4882 75.3795 62.1072 77.207 62.4216V63.3354H58.4606V62.4216C60.5238 61.9107 62.0369 61.2426 62.9998 60.4173C63.9823 59.5723 64.4736 58.5112 64.4736 57.2339C64.4736 56.7427 64.4048 55.937 64.2672 54.8169L61.3786 29.6449L47.9378 61.5374ZM62.6166 61.8321H71.6656L70.1329 60.5941C69.4648 60.0636 69.0226 58.914 68.8065 57.1455L65.5642 28.9964C65.5249 28.4855 65.5052 28.1318 65.5052 27.9353C65.5052 27.4833 65.6035 27.1001 65.8 26.7857C65.9965 26.4517 66.3993 26.039 67.0085 25.5478L68.6886 24.2214H61.8502L65.5642 56.7328L65.6821 57.3813C65.7214 57.8529 65.741 58.2066 65.741 58.4424C65.741 58.9337 65.6428 59.3169 65.4463 59.592C65.2694 59.8671 64.8567 60.2404 64.2083 60.712L62.6166 61.8321ZM47.4957 59.8278L49.1168 55.996L35.5581 28.9964C34.89 27.6012 34.5559 26.5892 34.5559 25.9604C34.5559 25.3513 34.7131 24.7716 35.0275 24.2214H28.2482C29.3486 25.0074 30.1739 25.8425 30.7241 26.7268C31.4708 27.8468 32.1095 28.9571 32.64 30.0575L47.4957 59.8278ZM30.6652 61.8321C29.7219 60.8103 29.0735 59.9752 28.7198 59.3267C28.3857 58.6586 28.1303 57.8136 27.9534 56.7918C27.4818 57.9708 26.9611 58.914 26.3912 59.6215C25.8213 60.3289 25.0059 61.0658 23.9447 61.8321H30.6652Z" fill="url(#paint1_linear_159_1644)"/>
<defs>
<linearGradient id="paint0_linear_159_1644" x1="33.8049" y1="53.0244" x2="84.8049" y2="53.0244" gradientUnits="userSpaceOnUse">
<stop offset="0.025" stop-color="white"/>
<stop offset="0.53" stop-color="#FFEFBA"/>
<stop offset="0.975" stop-color="#6E6E6E"/>
</linearGradient>
<linearGradient id="paint1_linear_159_1644" x1="79.3171" y1="57.8354" x2="19.3171" y2="57.8354" gradientUnits="userSpaceOnUse">
<stop offset="0.035" stop-color="#594915"/>
<stop offset="0.475" stop-color="#99802E"/>
<stop offset="1" stop-color="#FFD54D"/>
</linearGradient>
</defs>
</svg>
