<svg width="178" height="18" viewBox="0 0 178 18" fill="none" xmlns="http://www.w3.org/2000/svg">
<path d="M9.82031 16.7285L3.67969 3.35742V13.9746C3.67969 14.9512 3.78516 15.5605 3.99609 15.8027C4.28516 16.1309 4.74219 16.2949 5.36719 16.2949H5.92969V16.7285H0.398438V16.2949H0.960938C1.63281 16.2949 2.10938 16.0918 2.39062 15.6855C2.5625 15.4355 2.64844 14.8652 2.64844 13.9746V3.5918C2.64844 2.88867 2.57031 2.38086 2.41406 2.06836C2.30469 1.8418 2.10156 1.6543 1.80469 1.50586C1.51562 1.34961 1.04688 1.27148 0.398438 1.27148V0.837891H4.89844L10.6641 13.2715L16.3359 0.837891H20.8359V1.27148H20.2852C19.6055 1.27148 19.125 1.47461 18.8438 1.88086C18.6719 2.13086 18.5859 2.70117 18.5859 3.5918V13.9746C18.5859 14.9512 18.6953 15.5605 18.9141 15.8027C19.2031 16.1309 19.6602 16.2949 20.2852 16.2949H20.8359V16.7285H14.0859V16.2949H14.6484C15.3281 16.2949 15.8047 16.0918 16.0781 15.6855C16.25 15.4355 16.3359 14.8652 16.3359 13.9746V3.35742L10.207 16.7285H9.82031ZM29.9916 5.67773C31.6166 5.67773 32.9212 6.29492 33.9056 7.5293C34.7416 8.58398 35.1595 9.79492 35.1595 11.1621C35.1595 12.123 34.9291 13.0957 34.4681 14.0801C34.0072 15.0645 33.3705 15.8066 32.558 16.3066C31.7533 16.8066 30.8548 17.0566 29.8627 17.0566C28.2455 17.0566 26.9603 16.4121 26.0072 15.123C25.2025 14.0371 24.8002 12.8184 24.8002 11.4668C24.8002 10.4824 25.0423 9.50586 25.5267 8.53711C26.0189 7.56055 26.6634 6.8418 27.4603 6.38086C28.2572 5.91211 29.1009 5.67773 29.9916 5.67773ZM29.6283 6.43945C29.2142 6.43945 28.7962 6.56445 28.3744 6.81445C27.9603 7.05664 27.6244 7.48633 27.3666 8.10352C27.1087 8.7207 26.9798 9.51367 26.9798 10.4824C26.9798 12.0449 27.2884 13.3926 27.9056 14.5254C28.5306 15.6582 29.3509 16.2246 30.3666 16.2246C31.1244 16.2246 31.7494 15.9121 32.2416 15.2871C32.7337 14.6621 32.9798 13.5879 32.9798 12.0645C32.9798 10.1582 32.5697 8.6582 31.7494 7.56445C31.1947 6.81445 30.4877 6.43945 29.6283 6.43945ZM42.5222 5.67773V8.0918C43.4206 6.48242 44.3425 5.67773 45.2878 5.67773C45.7175 5.67773 46.073 5.81055 46.3542 6.07617C46.6355 6.33398 46.7761 6.63477 46.7761 6.97852C46.7761 7.2832 46.6745 7.54102 46.4714 7.75195C46.2683 7.96289 46.0261 8.06836 45.7448 8.06836C45.4714 8.06836 45.1628 7.93555 44.8191 7.66992C44.4831 7.39648 44.2331 7.25977 44.0691 7.25977C43.9284 7.25977 43.7761 7.33789 43.612 7.49414C43.2605 7.81445 42.8972 8.3418 42.5222 9.07617V14.2207C42.5222 14.8145 42.5964 15.2637 42.7448 15.5684C42.8464 15.7793 43.0261 15.9551 43.2839 16.0957C43.5417 16.2363 43.9128 16.3066 44.3972 16.3066V16.7285H38.9011V16.3066C39.448 16.3066 39.8542 16.2207 40.1198 16.0488C40.3152 15.9238 40.4519 15.7246 40.53 15.4512C40.5691 15.3184 40.5886 14.9395 40.5886 14.3145V10.1543C40.5886 8.9043 40.5612 8.16211 40.5066 7.92773C40.4597 7.68555 40.3659 7.50977 40.2253 7.40039C40.0925 7.29102 39.9245 7.23633 39.7214 7.23633C39.4792 7.23633 39.2058 7.29492 38.9011 7.41211L38.7839 6.99023L42.03 5.67773H42.5222ZM51.8184 10.0371C51.8106 11.6309 52.1973 12.8809 52.9786 13.7871C53.7598 14.6934 54.6778 15.1465 55.7325 15.1465C56.4356 15.1465 57.045 14.9551 57.5606 14.5723C58.0841 14.1816 58.5216 13.5176 58.8731 12.5801L59.2364 12.8145C59.0723 13.8848 58.5958 14.8613 57.8067 15.7441C57.0177 16.6191 56.0294 17.0566 54.8419 17.0566C53.5528 17.0566 52.4473 16.5566 51.5255 15.5566C50.6114 14.5488 50.1544 13.1973 50.1544 11.502C50.1544 9.66602 50.6231 8.23633 51.5606 7.21289C52.5059 6.18164 53.6895 5.66602 55.1114 5.66602C56.3145 5.66602 57.3028 6.06445 58.0763 6.86133C58.8497 7.65039 59.2364 8.70898 59.2364 10.0371H51.8184ZM51.8184 9.35742H56.7872C56.7481 8.66992 56.6661 8.18555 56.5411 7.9043C56.3458 7.4668 56.0528 7.12305 55.6622 6.87305C55.2794 6.62305 54.877 6.49805 54.4552 6.49805C53.8067 6.49805 53.2247 6.75195 52.7091 7.25977C52.2013 7.75977 51.9044 8.45898 51.8184 9.35742ZM71.618 16.7285V16.2949H72.2156C72.8875 16.2949 73.3641 16.0801 73.6453 15.6504C73.8172 15.3926 73.9031 14.8145 73.9031 13.916V3.65039C73.9031 2.6582 73.7937 2.03711 73.575 1.78711C73.2703 1.44336 72.8172 1.27148 72.2156 1.27148H71.618V0.837891H78.0867C80.4617 0.837891 82.2664 1.10742 83.5008 1.64648C84.743 2.18555 85.7391 3.08398 86.4891 4.3418C87.2469 5.59961 87.6258 7.05273 87.6258 8.70117C87.6258 10.9121 86.9539 12.7598 85.6102 14.2441C84.1023 15.9004 81.8055 16.7285 78.7195 16.7285H71.618ZM76.1531 15.5801C77.1453 15.7988 77.9773 15.9082 78.6492 15.9082C80.4617 15.9082 81.9656 15.2715 83.1609 13.998C84.3562 12.7246 84.9539 10.998 84.9539 8.81836C84.9539 6.62305 84.3562 4.89258 83.1609 3.62695C81.9656 2.36133 80.4305 1.72852 78.5555 1.72852C77.8523 1.72852 77.0516 1.8418 76.1531 2.06836V15.5801ZM93.7463 10.0371C93.7384 11.6309 94.1252 12.8809 94.9064 13.7871C95.6877 14.6934 96.6056 15.1465 97.6603 15.1465C98.3634 15.1465 98.9728 14.9551 99.4884 14.5723C100.012 14.1816 100.449 13.5176 100.801 12.5801L101.164 12.8145C101 13.8848 100.524 14.8613 99.7345 15.7441C98.9455 16.6191 97.9572 17.0566 96.7697 17.0566C95.4806 17.0566 94.3752 16.5566 93.4533 15.5566C92.5392 14.5488 92.0822 13.1973 92.0822 11.502C92.0822 9.66602 92.5509 8.23633 93.4884 7.21289C94.4338 6.18164 95.6173 5.66602 97.0392 5.66602C98.2423 5.66602 99.2306 6.06445 100.004 6.86133C100.778 7.65039 101.164 8.70898 101.164 10.0371H93.7463ZM93.7463 9.35742H98.715C98.6759 8.66992 98.5939 8.18555 98.4689 7.9043C98.2736 7.4668 97.9806 7.12305 97.59 6.87305C97.2072 6.62305 96.8048 6.49805 96.383 6.49805C95.7345 6.49805 95.1525 6.75195 94.6369 7.25977C94.1291 7.75977 93.8322 8.45898 93.7463 9.35742ZM108.363 2.4668V5.99414H110.871V6.81445H108.363V13.7754C108.363 14.4707 108.46 14.9395 108.656 15.1816C108.859 15.4238 109.117 15.5449 109.429 15.5449C109.687 15.5449 109.937 15.4668 110.179 15.3105C110.421 15.1465 110.609 14.9082 110.742 14.5957H111.199C110.925 15.3613 110.539 15.9395 110.039 16.3301C109.539 16.7129 109.023 16.9043 108.492 16.9043C108.132 16.9043 107.781 16.8066 107.437 16.6113C107.093 16.4082 106.839 16.123 106.675 15.7559C106.511 15.3809 106.429 14.8066 106.429 14.0332V6.81445H104.73V6.42773C105.16 6.25586 105.597 5.9668 106.043 5.56055C106.496 5.14648 106.898 4.6582 107.25 4.0957C107.429 3.79883 107.679 3.25586 108 2.4668H108.363ZM120.647 15.1816C119.546 16.0332 118.854 16.5254 118.573 16.6582C118.151 16.8535 117.702 16.9512 117.225 16.9512C116.483 16.9512 115.87 16.6973 115.386 16.1895C114.909 15.6816 114.671 15.0137 114.671 14.1855C114.671 13.6621 114.788 13.209 115.022 12.8262C115.343 12.2949 115.897 11.7949 116.686 11.3262C117.483 10.8574 118.804 10.2871 120.647 9.61523V9.19336C120.647 8.12305 120.475 7.38867 120.132 6.99023C119.796 6.5918 119.304 6.39258 118.655 6.39258C118.163 6.39258 117.772 6.52539 117.483 6.79102C117.186 7.05664 117.038 7.36133 117.038 7.70508L117.061 8.38477C117.061 8.74414 116.968 9.02148 116.78 9.2168C116.6 9.41211 116.362 9.50977 116.065 9.50977C115.776 9.50977 115.538 9.4082 115.35 9.20508C115.171 9.00195 115.081 8.72461 115.081 8.37305C115.081 7.70117 115.425 7.08398 116.112 6.52148C116.8 5.95898 117.765 5.67773 119.007 5.67773C119.96 5.67773 120.741 5.83789 121.35 6.1582C121.811 6.40039 122.151 6.7793 122.37 7.29492C122.511 7.63086 122.581 8.31836 122.581 9.35742V13.002C122.581 14.0254 122.6 14.6543 122.64 14.8887C122.679 15.1152 122.741 15.2676 122.827 15.3457C122.921 15.4238 123.026 15.4629 123.143 15.4629C123.268 15.4629 123.378 15.4355 123.472 15.3809C123.636 15.2793 123.952 14.9941 124.421 14.5254V15.1816C123.546 16.3535 122.71 16.9395 121.913 16.9395C121.53 16.9395 121.225 16.8066 120.999 16.541C120.772 16.2754 120.655 15.8223 120.647 15.1816ZM120.647 14.4199V10.3301C119.468 10.7988 118.706 11.1309 118.362 11.3262C117.745 11.6699 117.304 12.0293 117.038 12.4043C116.772 12.7793 116.64 13.1895 116.64 13.6348C116.64 14.1973 116.808 14.666 117.143 15.041C117.479 15.4082 117.866 15.5918 118.304 15.5918C118.897 15.5918 119.679 15.2012 120.647 14.4199ZM130.6 0.0644531C130.928 0.0644531 131.205 0.181641 131.432 0.416016C131.666 0.642578 131.783 0.919922 131.783 1.24805C131.783 1.57617 131.666 1.85742 131.432 2.0918C131.205 2.32617 130.928 2.44336 130.6 2.44336C130.272 2.44336 129.99 2.32617 129.756 2.0918C129.522 1.85742 129.405 1.57617 129.405 1.24805C129.405 0.919922 129.518 0.642578 129.744 0.416016C129.979 0.181641 130.264 0.0644531 130.6 0.0644531ZM131.573 5.67773V14.3027C131.573 14.9746 131.619 15.4238 131.713 15.6504C131.815 15.8691 131.959 16.0332 132.147 16.1426C132.342 16.252 132.694 16.3066 133.201 16.3066V16.7285H127.987V16.3066C128.51 16.3066 128.862 16.2559 129.041 16.1543C129.221 16.0527 129.362 15.8848 129.463 15.6504C129.573 15.416 129.627 14.9668 129.627 14.3027V10.166C129.627 9.00195 129.592 8.24805 129.522 7.9043C129.467 7.6543 129.381 7.48242 129.264 7.38867C129.147 7.28711 128.987 7.23633 128.783 7.23633C128.565 7.23633 128.299 7.29492 127.987 7.41211L127.823 6.99023L131.057 5.67773H131.573ZM140.88 0.0644531V14.3027C140.88 14.9746 140.927 15.4199 141.021 15.6387C141.123 15.8574 141.275 16.0254 141.478 16.1426C141.681 16.252 142.06 16.3066 142.615 16.3066V16.7285H137.353V16.3066C137.845 16.3066 138.181 16.2559 138.361 16.1543C138.541 16.0527 138.681 15.8848 138.783 15.6504C138.884 15.416 138.935 14.9668 138.935 14.3027V4.55273C138.935 3.3418 138.908 2.59961 138.853 2.32617C138.798 2.04492 138.709 1.85352 138.584 1.75195C138.466 1.65039 138.314 1.59961 138.127 1.59961C137.923 1.59961 137.666 1.66211 137.353 1.78711L137.154 1.37695L140.353 0.0644531H140.88ZM172.621 6.46289C173.66 7.5957 174.559 8.45898 175.317 9.05273C176.075 9.63867 176.789 10.0762 177.461 10.3652V10.8926C176.688 11.2676 175.938 11.748 175.211 12.334C174.485 12.9121 173.618 13.7637 172.61 14.8887H171.707C172.442 13.3184 173.211 12.1113 174.016 11.2676H155.325V10.084H174.016C173.422 9.32617 173.008 8.76367 172.774 8.39648C172.539 8.0293 172.192 7.38477 171.731 6.46289H172.621Z" fill="url(#paint0_linear_67_9136)"/>
<defs>
<linearGradient id="paint0_linear_67_9136" x1="179" y1="8.72852" x2="0" y2="8.72852" gradientUnits="userSpaceOnUse">
<stop offset="0.025" stop-color="#6E6E6E"/>
<stop offset="0.47" stop-color="#FFEFBA"/>
<stop offset="0.975" stop-color="white"/>
</linearGradient>
</defs>
</svg>
