<svg width="50" height="50" viewBox="0 0 50 50" fill="none" xmlns="http://www.w3.org/2000/svg">
<g clip-path="url(#clip0_157_1611)">
<path d="M25.0005 49.75C38.6695 49.75 49.7505 38.669 49.7505 25C49.7505 11.331 38.6695 0.25 25.0005 0.25C11.3314 0.25 0.250488 11.331 0.250488 25C0.250488 38.669 11.3314 49.75 25.0005 49.75Z" fill="#D9D9D9"/>
<path d="M18.0367 27.7167C18.0417 27.7215 18.0455 27.7265 18.0505 27.7313C18.0455 27.7342 18.0417 27.7362 18.0367 27.7392C18.0319 27.7342 18.0279 27.7294 18.0229 27.7244C18.0279 27.7226 18.0319 27.7196 18.0367 27.7167Z" fill="#252C37"/>
<path d="M31.981 27.7207C31.9762 27.7266 31.9702 27.7335 31.9644 27.7394C31.9586 27.7354 31.9526 27.7324 31.9468 27.7296C31.9526 27.7237 31.9586 27.7168 31.9644 27.7109C31.9702 27.7138 31.9752 27.7178 31.981 27.7207Z" fill="#252C37"/>
<path d="M33.0479 35.9451H16.9533C16.3052 35.9451 15.7798 35.4197 15.7798 34.7716V22.9849H34.2213V34.7716C34.2214 35.4197 33.6959 35.9451 33.0479 35.9451Z" fill="#252C37"/>
<path d="M36.5649 24.6626C37.0545 25.1522 36.7045 25.989 36.0122 25.9843L25.087 25.9104L14.1259 25.8363C13.4387 25.8316 13.0978 25.0005 13.5837 24.5146L24.4528 13.6455C24.7551 13.3431 25.2454 13.3431 25.5477 13.6455L36.5649 24.6626Z" fill="#252C37"/>
<path d="M26.833 27.5586H23.168C22.2575 27.5586 21.5195 28.2966 21.5195 29.207V35.9898H28.4813V29.207C28.4814 28.2966 27.7434 27.5586 26.833 27.5586Z" fill="#D9D9D9"/>
</g>
<defs>
<clipPath id="clip0_157_1611">
<rect width="50" height="50" fill="white"/>
</clipPath>
</defs>
</svg>
