<svg width="29" height="29" viewBox="0 0 29 29" fill="none" xmlns="http://www.w3.org/2000/svg">
<path d="M19.3333 24.1666H9.66667C8.70526 24.1666 7.78322 23.7847 7.1034 23.1049C6.42359 22.4251 6.04167 21.503 6.04167 20.5416V8.45829C6.04167 8.13782 5.91436 7.83048 5.68775 7.60387C5.46115 7.37727 5.1538 7.24996 4.83333 7.24996C4.51286 7.24996 4.20552 7.37727 3.97891 7.60387C3.75231 7.83048 3.625 8.13782 3.625 8.45829V20.5416C3.625 22.144 4.26153 23.6807 5.39456 24.8137C6.5276 25.9468 8.06432 26.5833 9.66667 26.5833H19.3333C19.6538 26.5833 19.9611 26.456 20.1878 26.2294C20.4144 26.0028 20.5417 25.6954 20.5417 25.375C20.5417 25.0545 20.4144 24.7471 20.1878 24.5205C19.9611 24.2939 19.6538 24.1666 19.3333 24.1666ZM25.375 10.8025C25.3624 10.6915 25.3381 10.5821 25.3025 10.4762V10.3675C25.2444 10.2432 25.1669 10.129 25.0729 10.0291L17.8229 2.77913C17.723 2.68514 17.6088 2.60764 17.4846 2.54954H17.3758L16.9892 2.41663H12.0833C11.1219 2.41663 10.1999 2.79854 9.52007 3.47836C8.84025 4.15818 8.45833 5.08022 8.45833 6.04163V18.125C8.45833 19.0864 8.84025 20.0084 9.52007 20.6882C10.1999 21.368 11.1219 21.75 12.0833 21.75H21.75C22.7114 21.75 23.6334 21.368 24.3133 20.6882C24.9931 20.0084 25.375 19.0864 25.375 18.125V10.875C25.375 10.875 25.375 10.875 25.375 10.8025ZM18.125 6.53704L21.2546 9.66663H19.3333C19.0129 9.66663 18.7055 9.53932 18.4789 9.31271C18.2523 9.08611 18.125 8.77876 18.125 8.45829V6.53704ZM22.9583 18.125C22.9583 18.4454 22.831 18.7528 22.6044 18.9794C22.3778 19.206 22.0705 19.3333 21.75 19.3333H12.0833C11.7629 19.3333 11.4555 19.206 11.2289 18.9794C11.0023 18.7528 10.875 18.4454 10.875 18.125V6.04163C10.875 5.72116 11.0023 5.41381 11.2289 5.18721C11.4555 4.9606 11.7629 4.83329 12.0833 4.83329H15.7083V8.45829C15.7083 9.4197 16.0903 10.3417 16.7701 11.0216C17.4499 11.7014 18.3719 12.0833 19.3333 12.0833H22.9583V18.125Z" fill="#FFD54D"/>
</svg>
