<svg width="50" height="50" viewBox="0 0 50 50" fill="none" xmlns="http://www.w3.org/2000/svg">
<g clip-path="url(#clip0_157_1624)">
<path fill-rule="evenodd" clip-rule="evenodd" d="M25 50C38.8071 50 50 38.8071 50 25C50 11.1929 38.8071 0 25 0C11.1929 0 0 11.1929 0 25C0 38.8071 11.1929 50 25 50Z" fill="#D9D9D9"/>
<path fill-rule="evenodd" clip-rule="evenodd" d="M24.9998 27.8846L39.4229 15.3846H10.5768L24.9998 27.8846ZM21.1042 26.5009L24.9998 29.6986L28.8345 26.5009L39.4229 35.577H10.5768L21.1042 26.5009ZM9.61523 34.6154V16.3462L20.1922 25.4808L9.61523 34.6154ZM40.3845 34.6154V16.3462L29.8075 25.4808L40.3845 34.6154Z" fill="#252C37"/>
</g>
<defs>
<clipPath id="clip0_157_1624">
<rect width="50" height="50" fill="white"/>
</clipPath>
</defs>
</svg>
