<svg width="50" height="50" viewBox="0 0 50 50" fill="none" xmlns="http://www.w3.org/2000/svg">
<g clip-path="url(#clip0_157_1603)">
<path d="M25 0C11.193 0 0 11.193 0 25C0 38.807 11.193 50 25 50C38.807 50 50 38.807 50 25C50 11.193 38.807 0 25 0Z" fill="#D9D9D9"/>
<path d="M30.1502 39.1922H26.369H22.5846C22.5846 39.1922 22.5955 36.9469 22.5846 35.4078C17.4057 36.5234 15.9604 32.5695 15.9604 32.5695C15.0151 30.6766 14.0674 29.7313 14.0674 29.7313C12.1744 28.6078 14.0674 28.7859 14.0674 28.7859C15.9604 28.7859 16.9057 30.6789 16.9057 30.6789C18.5666 33.4984 21.5213 33.0445 22.5822 32.5719C22.5822 31.6266 22.9963 30.1953 23.5275 29.7336C19.3947 29.2687 15.9549 26.8953 15.9549 22.1641C15.9549 17.4328 16.9049 16.4875 17.851 15.5398C17.6604 15.0734 16.8674 13.3484 17.8799 10.8086C17.8799 10.8086 19.7393 10.8086 21.6322 13.6469C22.5697 12.7094 25.4166 12.7016 26.3635 12.7016C27.3072 12.7016 30.1557 12.7094 31.0932 13.6469C32.9861 10.8086 34.8502 10.8086 34.8502 10.8086C35.8627 13.3484 35.0705 15.0734 34.8791 15.5398C35.8244 16.4852 36.7721 17.4328 36.7721 22.1641C36.7721 26.8953 33.3369 29.2672 29.2026 29.7336C29.7354 30.1953 30.1479 31.8234 30.1479 32.5719L30.1502 39.1922Z" fill="#252C37"/>
</g>
<defs>
<clipPath id="clip0_157_1603">
<rect width="50" height="50" fill="white"/>
</clipPath>
</defs>
</svg>
