<svg width="50" height="50" viewBox="0 0 50 50" fill="none" xmlns="http://www.w3.org/2000/svg">
<g clip-path="url(#clip0_157_1621)">
<path fill-rule="evenodd" clip-rule="evenodd" d="M25 0C38.7979 0 50 11.2021 50 25C50 38.7979 38.7979 50 25 50C11.2021 50 0 38.7979 0 25C0 11.2021 11.2021 0 25 0ZM36.8679 13.1684C33.8751 10.173 29.8951 8.52275 25.6548 8.52109C16.9177 8.52109 9.80674 15.6293 9.80332 24.3664C9.80215 27.1593 10.532 29.8855 11.9191 32.2885L9.67031 40.5L18.0734 38.2965C20.3887 39.5589 22.9954 40.2241 25.6484 40.2253H25.655C34.3912 40.2253 41.5027 33.1162 41.5062 24.379C41.5079 20.1448 39.8606 16.1635 36.8679 13.1684ZM25.6549 37.5489H25.6496C23.2854 37.548 20.9667 36.9131 18.9438 35.7131L18.4627 35.4275L13.4763 36.7353L14.8072 31.875L14.4939 31.3768C13.1751 29.2798 12.4786 26.856 12.4796 24.3674C12.4825 17.1055 18.3929 11.1974 25.6602 11.1974C29.1792 11.1987 32.4871 12.5706 34.9746 15.0601C37.4621 17.5496 38.8312 20.8588 38.8299 24.378C38.827 31.6404 32.9167 37.5488 25.6549 37.5489ZM32.8817 27.6847C32.4856 27.4865 30.5384 26.5286 30.1752 26.3965C29.8122 26.2644 29.5482 26.1982 29.2842 26.5946C29.0201 26.991 28.261 27.8829 28.03 28.1472C27.799 28.4113 27.568 28.4445 27.1719 28.2462C26.7758 28.0481 25.4996 27.63 23.9868 26.281C22.8094 25.2312 22.0145 23.9344 21.7834 23.5381C21.5524 23.1417 21.7588 22.9274 21.9571 22.73C22.1353 22.5526 22.3531 22.2676 22.5512 22.0363C22.7492 21.8051 22.8152 21.6399 22.9473 21.3758C23.0793 21.1114 23.0133 20.8803 22.9143 20.682C22.8152 20.4839 22.0231 18.535 21.6931 17.7422C21.3717 16.9701 21.0451 17.0746 20.802 17.0625C20.5712 17.051 20.3069 17.0485 20.0429 17.0485C19.7788 17.0485 19.3498 17.1477 18.9866 17.544C18.6236 17.9404 17.6005 18.8983 17.6005 20.8472C17.6005 22.7961 19.0197 24.6788 19.2178 24.9432C19.4158 25.2074 22.0106 29.2067 25.9838 30.9218C26.9287 31.3297 27.6665 31.5733 28.2417 31.7559C29.1905 32.0571 30.0539 32.0146 30.7364 31.9127C31.4974 31.799 33.0798 30.9548 33.4098 30.03C33.7397 29.1051 33.7397 28.3123 33.6408 28.1472C33.5418 27.982 33.2777 27.8829 32.8817 27.6847Z" fill="#D9D9D9"/>
</g>
<defs>
<clipPath id="clip0_157_1621">
<rect width="50" height="50" fill="white"/>
</clipPath>
</defs>
</svg>
