<svg width="30" height="30" viewBox="0 0 30 30" fill="none" xmlns="http://www.w3.org/2000/svg">
<path d="M28.125 7.5C28.125 7.97977 27.9419 8.45977 27.5757 8.82539L12.5757 23.8254C12.2109 24.1934 11.7305 24.375 11.25 24.375C10.7695 24.375 10.2902 24.1919 9.92461 23.8257L2.42461 16.3257C2.0584 15.9609 1.875 15.4805 1.875 15C1.875 13.9289 2.75098 13.125 3.75 13.125C4.22977 13.125 4.70977 13.3081 5.07539 13.6743L11.25 19.8516L24.9258 6.17578C25.2891 5.8084 25.7695 5.625 26.25 5.625C27.252 5.625 28.125 6.42773 28.125 7.5Z" fill="#FFD54D"/>
</svg>
